%
M48
M72
T01C0.0150
T02C0.0354
T03C0.0400
T04C0.0470
T05C0.0472
T06C0.1180
%
T01
X1180Y1180
X5180Y3680
X5680Y5180
X5180Y5680
X7180Y5180
X8180Y6596
X6680Y8180
X7180Y8680
X7680Y9680
X8195Y11180
X8680Y12680
X8195Y13680
X8195Y14180
X7180Y14180
X7180Y13680
X6680Y12680
X4680Y13180
X1180Y13180
X2180Y11180
X11180Y10180
X12180Y10180
X12971Y10389
X13180Y10715
X14680Y10680
X15186Y9677
X16683Y8674
X15684Y7684
X17180Y7180
X15180Y5680
X13680Y5180
X12947Y5180
X16177Y4674
X16680Y5180
X18180Y4215
X20180Y4180
X20180Y4680
X24180Y3680
X25180Y3680
X26680Y4680
X28683Y4186
X30680Y4180
X29180Y6180
X27180Y8113
X26180Y8180
X25180Y9180
X25680Y9680
X28180Y9180
X30680Y11680
X31180Y12180
X31680Y13180
X33680Y13180
X36180Y11680
X33680Y8680
X25680Y6680
X23180Y7680
X18680Y10180
X18180Y11180
X16680Y12180
X17680Y14180
X18680Y14180
X15180Y14680
X12680Y13680
X5023Y16023
X1180Y18680
X17180Y18180
X22180Y16180
X24680Y16180
X25680Y16180
X25805Y15180
X26180Y14680
X27180Y14180
X28180Y15680
X31180Y15680
X28680Y17680
X23180Y14180
X24680Y12180
X12680Y8180
X11680Y8680
X1180Y5680
X34680Y3680
X36680Y1180
X36680Y18680
T02
X10460Y16680
X7900Y16680
X3680Y15180
X2680Y15180
X2680Y14180
X3680Y14180
X3680Y13180
X2680Y13180
T03
X28680Y5680
X29680Y5680
X30680Y5680
T04
X29664Y16680
X27696Y16680
X15664Y16680
X13696Y16680
T05
X18180Y15180
X19180Y15180
X20180Y15180
X21180Y15180
X22180Y15180
X23180Y15180
X24180Y15180
X25180Y15180
X24680Y17180
X23680Y17180
X22680Y17180
X21680Y17180
X20680Y17180
X19680Y17180
X18680Y17180
X3180Y9884
X3180Y8366
X3180Y7128
X3180Y5610
X2610Y2680
X4128Y2680
X5366Y2680
X6884Y2680
X9110Y2680
X10628Y2680
X11866Y2680
X13384Y2680
X15610Y2680
X17128Y2680
X18366Y2680
X19884Y2680
X22110Y2680
X23628Y2680
X24866Y2680
X26384Y2680
X28610Y2680
X30128Y2680
X31366Y2680
X32884Y2680
X23692Y6180
X22314Y6180
X20936Y6180
X19558Y6180
X18180Y6180
T06
X32786Y15680
X35149Y15680
X33967Y17530
M30
