G75*
%MOIN*%
%OFA0B0*%
%FSLAX25Y25*%
%IPPOS*%
%LPD*%
%AMOC8*
5,1,8,0,0,1.08239X$1,22.5*
%
%ADD10R,0.03150X0.02362*%
%ADD11C,0.07087*%
%ADD12C,0.06400*%
%ADD13R,0.08000X0.08000*%
%ADD14C,0.08000*%
%ADD15C,0.17000*%
%ADD16C,0.07400*%
%ADD17C,0.07000*%
%ADD18C,0.07050*%
%ADD19C,0.01600*%
%ADD20C,0.02700*%
%ADD21C,0.01200*%
%ADD22C,0.02400*%
%ADD23C,0.03200*%
D10*
X0081800Y0148650D03*
X0091800Y0148650D03*
X0101800Y0148650D03*
X0101800Y0154950D03*
X0091800Y0154950D03*
X0081800Y0154950D03*
X0081800Y0173650D03*
X0091800Y0173650D03*
X0091800Y0179950D03*
X0081800Y0179950D03*
X0071800Y0179950D03*
X0071800Y0173650D03*
X0101800Y0173650D03*
X0101800Y0179950D03*
X0041800Y0174950D03*
X0041800Y0168650D03*
D11*
X0181800Y0155343D02*
X0181800Y0148257D01*
X0191800Y0148257D02*
X0191800Y0155343D01*
X0201800Y0155343D02*
X0201800Y0148257D01*
X0211800Y0148257D02*
X0211800Y0155343D01*
X0221800Y0155343D02*
X0221800Y0148257D01*
X0231800Y0148257D02*
X0231800Y0155343D01*
X0241800Y0155343D02*
X0241800Y0148257D01*
X0251800Y0148257D02*
X0251800Y0155343D01*
X0246800Y0168257D02*
X0246800Y0175343D01*
X0236800Y0175343D02*
X0236800Y0168257D01*
X0226800Y0168257D02*
X0226800Y0175343D01*
X0216800Y0175343D02*
X0216800Y0168257D01*
X0206800Y0168257D02*
X0206800Y0175343D01*
X0196800Y0175343D02*
X0196800Y0168257D01*
X0186800Y0168257D02*
X0186800Y0175343D01*
D12*
X0036800Y0151800D03*
X0026800Y0151800D03*
X0026800Y0141800D03*
X0036800Y0141800D03*
X0036800Y0131800D03*
X0026800Y0131800D03*
D13*
X0031800Y0056100D03*
X0026100Y0026800D03*
X0091100Y0026800D03*
X0156100Y0026800D03*
X0221100Y0026800D03*
X0286100Y0026800D03*
X0181800Y0061800D03*
D14*
X0195580Y0061800D03*
X0209359Y0061800D03*
X0223139Y0061800D03*
X0236918Y0061800D03*
X0236280Y0026800D03*
X0248659Y0026800D03*
X0263839Y0026800D03*
X0301280Y0026800D03*
X0313659Y0026800D03*
X0328839Y0026800D03*
X0198839Y0026800D03*
X0183659Y0026800D03*
X0171280Y0026800D03*
X0133839Y0026800D03*
X0118659Y0026800D03*
X0106280Y0026800D03*
X0068839Y0026800D03*
X0053659Y0026800D03*
X0041280Y0026800D03*
X0031800Y0071280D03*
X0031800Y0083659D03*
X0031800Y0098839D03*
D15*
X0327863Y0156800D03*
X0351485Y0156800D03*
X0339674Y0175304D03*
D16*
X0306800Y0056800D03*
X0296800Y0056800D03*
X0286800Y0056800D03*
D17*
X0104595Y0166800D03*
X0079005Y0166800D03*
D18*
X0136957Y0163275D02*
X0136957Y0170325D01*
X0156643Y0170325D02*
X0156643Y0163275D01*
X0276957Y0163275D02*
X0276957Y0170325D01*
X0296643Y0170325D02*
X0296643Y0163275D01*
D19*
X0008600Y0188701D02*
X0008600Y0008600D01*
X0369921Y0008600D01*
X0369921Y0188701D01*
X0368505Y0188701D01*
X0368962Y0188244D01*
X0369350Y0187307D01*
X0369350Y0186293D01*
X0368962Y0185356D01*
X0368244Y0184638D01*
X0367307Y0184250D01*
X0366293Y0184250D01*
X0365356Y0184638D01*
X0364638Y0185356D01*
X0364250Y0186293D01*
X0364250Y0187307D01*
X0364638Y0188244D01*
X0365095Y0188701D01*
X0013505Y0188701D01*
X0013962Y0188244D01*
X0014350Y0187307D01*
X0014350Y0186293D01*
X0013962Y0185356D01*
X0013244Y0184638D01*
X0012307Y0184250D01*
X0011293Y0184250D01*
X0010356Y0184638D01*
X0009638Y0185356D01*
X0009250Y0186293D01*
X0009250Y0187307D01*
X0009638Y0188244D01*
X0010095Y0188701D01*
X0008600Y0188701D01*
X0008600Y0187432D02*
X0009302Y0187432D01*
X0009440Y0185833D02*
X0008600Y0185833D01*
X0008600Y0184235D02*
X0101560Y0184235D01*
X0101838Y0184513D02*
X0100938Y0183613D01*
X0100475Y0183150D01*
X0071163Y0183150D01*
X0070152Y0182731D01*
X0069562Y0182731D01*
X0068625Y0181793D01*
X0068625Y0180647D01*
X0068600Y0180586D01*
X0068600Y0179313D01*
X0068625Y0179252D01*
X0068625Y0179000D01*
X0042739Y0179000D01*
X0041470Y0177731D01*
X0039562Y0177731D01*
X0038625Y0176793D01*
X0038625Y0173106D01*
X0039562Y0172169D01*
X0044038Y0172169D01*
X0044975Y0173106D01*
X0044975Y0174600D01*
X0068625Y0174600D01*
X0068625Y0171807D01*
X0069400Y0171032D01*
X0069400Y0161323D01*
X0069765Y0160441D01*
X0070441Y0159765D01*
X0075441Y0154765D01*
X0076323Y0154400D01*
X0078625Y0154400D01*
X0078625Y0153106D01*
X0079562Y0152169D01*
X0084038Y0152169D01*
X0084975Y0153106D01*
X0084975Y0156793D01*
X0084038Y0157731D01*
X0082413Y0157731D01*
X0081984Y0158159D01*
X0081309Y0158835D01*
X0080427Y0159200D01*
X0077794Y0159200D01*
X0074200Y0162794D01*
X0074200Y0165073D01*
X0074681Y0163911D01*
X0076116Y0162476D01*
X0077990Y0161700D01*
X0080019Y0161700D01*
X0081894Y0162476D01*
X0083328Y0163911D01*
X0084105Y0165786D01*
X0084105Y0167814D01*
X0083328Y0169689D01*
X0082148Y0170869D01*
X0084038Y0170869D01*
X0084975Y0171807D01*
X0084975Y0175494D01*
X0084038Y0176431D01*
X0080280Y0176431D01*
X0079962Y0176750D01*
X0102437Y0176750D01*
X0103448Y0177169D01*
X0104038Y0177169D01*
X0104975Y0178106D01*
X0104975Y0178599D01*
X0104976Y0178600D01*
X0118600Y0178600D01*
X0118600Y0141163D01*
X0119087Y0139987D01*
X0119987Y0139087D01*
X0119987Y0139087D01*
X0124987Y0134087D01*
X0126163Y0133600D01*
X0127437Y0133600D01*
X0128613Y0134087D01*
X0129513Y0134987D01*
X0130000Y0136163D01*
X0130000Y0137437D01*
X0129513Y0138613D01*
X0125000Y0143125D01*
X0125000Y0178600D01*
X0170206Y0178600D01*
X0164765Y0173159D01*
X0164400Y0172277D01*
X0164400Y0146323D01*
X0164765Y0145441D01*
X0165441Y0144765D01*
X0180441Y0129765D01*
X0181323Y0129400D01*
X0235806Y0129400D01*
X0239765Y0125441D01*
X0239765Y0125441D01*
X0240441Y0124765D01*
X0241323Y0124400D01*
X0245368Y0124400D01*
X0245129Y0124301D01*
X0245028Y0124200D01*
X0191323Y0124200D01*
X0190441Y0123835D01*
X0181356Y0114750D01*
X0181213Y0114750D01*
X0180129Y0114301D01*
X0179299Y0113471D01*
X0178850Y0112387D01*
X0178850Y0111213D01*
X0179299Y0110129D01*
X0180129Y0109299D01*
X0181213Y0108850D01*
X0182387Y0108850D01*
X0183471Y0109299D01*
X0184301Y0110129D01*
X0184750Y0111213D01*
X0184750Y0111356D01*
X0192794Y0119400D01*
X0245028Y0119400D01*
X0245129Y0119299D01*
X0246213Y0118850D01*
X0247387Y0118850D01*
X0248471Y0119299D01*
X0249301Y0120129D01*
X0249750Y0121213D01*
X0249750Y0122387D01*
X0249301Y0123471D01*
X0248471Y0124301D01*
X0248232Y0124400D01*
X0300806Y0124400D01*
X0304400Y0120806D01*
X0304400Y0118572D01*
X0304299Y0118471D01*
X0303850Y0117387D01*
X0303850Y0116213D01*
X0304299Y0115129D01*
X0305129Y0114299D01*
X0306213Y0113850D01*
X0307387Y0113850D01*
X0308471Y0114299D01*
X0309301Y0115129D01*
X0309750Y0116213D01*
X0309750Y0117387D01*
X0309301Y0118471D01*
X0309200Y0118572D01*
X0309200Y0122277D01*
X0308835Y0123159D01*
X0308159Y0123835D01*
X0303159Y0128835D01*
X0302277Y0129200D01*
X0242794Y0129200D01*
X0238835Y0133159D01*
X0238159Y0133835D01*
X0237277Y0134200D01*
X0182794Y0134200D01*
X0177922Y0139072D01*
X0178471Y0139299D01*
X0178572Y0139400D01*
X0185028Y0139400D01*
X0185129Y0139299D01*
X0186213Y0138850D01*
X0187387Y0138850D01*
X0188471Y0139299D01*
X0189301Y0140129D01*
X0189750Y0141213D01*
X0189750Y0142387D01*
X0189301Y0143471D01*
X0188471Y0144301D01*
X0187387Y0144750D01*
X0186213Y0144750D01*
X0185593Y0144493D01*
X0185876Y0144776D01*
X0186370Y0145456D01*
X0186752Y0146206D01*
X0186897Y0146653D01*
X0187440Y0145343D01*
X0188887Y0143896D01*
X0190777Y0143113D01*
X0192823Y0143113D01*
X0194713Y0143896D01*
X0196160Y0145343D01*
X0196800Y0146888D01*
X0197440Y0145343D01*
X0198887Y0143896D01*
X0200777Y0143113D01*
X0202823Y0143113D01*
X0204713Y0143896D01*
X0206160Y0145343D01*
X0206800Y0146888D01*
X0207440Y0145343D01*
X0208887Y0143896D01*
X0210777Y0143113D01*
X0212823Y0143113D01*
X0214713Y0143896D01*
X0216160Y0145343D01*
X0216800Y0146888D01*
X0217440Y0145343D01*
X0218887Y0143896D01*
X0220777Y0143113D01*
X0222823Y0143113D01*
X0224713Y0143896D01*
X0226160Y0145343D01*
X0226800Y0146888D01*
X0227440Y0145343D01*
X0228887Y0143896D01*
X0229479Y0143651D01*
X0229299Y0143471D01*
X0228850Y0142387D01*
X0228850Y0141213D01*
X0229299Y0140129D01*
X0230129Y0139299D01*
X0231213Y0138850D01*
X0231356Y0138850D01*
X0235441Y0134765D01*
X0236323Y0134400D01*
X0240806Y0134400D01*
X0244765Y0130441D01*
X0244765Y0130441D01*
X0245441Y0129765D01*
X0246323Y0129400D01*
X0282277Y0129400D01*
X0283159Y0129765D01*
X0283835Y0130441D01*
X0287794Y0134400D01*
X0334875Y0134400D01*
X0334087Y0133613D01*
X0333600Y0132437D01*
X0333600Y0086163D01*
X0334087Y0084987D01*
X0334987Y0084087D01*
X0336163Y0083600D01*
X0337437Y0083600D01*
X0338613Y0084087D01*
X0339513Y0084987D01*
X0340000Y0086163D01*
X0340000Y0132437D01*
X0339513Y0133613D01*
X0338725Y0134400D01*
X0350806Y0134400D01*
X0359400Y0125806D01*
X0359400Y0118572D01*
X0359299Y0118471D01*
X0358850Y0117387D01*
X0358850Y0116213D01*
X0359299Y0115129D01*
X0360129Y0114299D01*
X0361213Y0113850D01*
X0362387Y0113850D01*
X0363471Y0114299D01*
X0364301Y0115129D01*
X0364750Y0116213D01*
X0364750Y0117387D01*
X0364301Y0118471D01*
X0364200Y0118572D01*
X0364200Y0127277D01*
X0363835Y0128159D01*
X0353159Y0138835D01*
X0352277Y0139200D01*
X0298725Y0139200D01*
X0314513Y0154987D01*
X0315000Y0156163D01*
X0315000Y0157437D01*
X0314513Y0158613D01*
X0313613Y0159513D01*
X0312437Y0160000D01*
X0311163Y0160000D01*
X0309987Y0159513D01*
X0295475Y0145000D01*
X0268125Y0145000D01*
X0263613Y0149513D01*
X0262437Y0150000D01*
X0261163Y0150000D01*
X0259987Y0149513D01*
X0259087Y0148613D01*
X0258600Y0147437D01*
X0258600Y0146163D01*
X0259087Y0144987D01*
X0264987Y0139087D01*
X0266163Y0138600D01*
X0285206Y0138600D01*
X0284765Y0138159D01*
X0280806Y0134200D01*
X0247794Y0134200D01*
X0243835Y0138159D01*
X0243835Y0138159D01*
X0243159Y0138835D01*
X0242277Y0139200D01*
X0237794Y0139200D01*
X0234750Y0142244D01*
X0234750Y0142387D01*
X0234301Y0143471D01*
X0234121Y0143651D01*
X0234713Y0143896D01*
X0236160Y0145343D01*
X0236800Y0146888D01*
X0237440Y0145343D01*
X0238887Y0143896D01*
X0240777Y0143113D01*
X0242823Y0143113D01*
X0244713Y0143896D01*
X0246160Y0145343D01*
X0246703Y0146653D01*
X0246848Y0146206D01*
X0247230Y0145456D01*
X0247724Y0144776D01*
X0248319Y0144181D01*
X0248999Y0143687D01*
X0249749Y0143305D01*
X0250549Y0143045D01*
X0251379Y0142913D01*
X0251419Y0142913D01*
X0251419Y0151419D01*
X0252181Y0151419D01*
X0252181Y0152181D01*
X0251419Y0152181D01*
X0251419Y0160687D01*
X0251379Y0160687D01*
X0250549Y0160555D01*
X0249749Y0160295D01*
X0248999Y0159913D01*
X0248319Y0159419D01*
X0247724Y0158824D01*
X0247230Y0158144D01*
X0246848Y0157394D01*
X0246703Y0156947D01*
X0246160Y0158257D01*
X0244713Y0159704D01*
X0242823Y0160487D01*
X0240777Y0160487D01*
X0238887Y0159704D01*
X0237440Y0158257D01*
X0236800Y0156712D01*
X0236160Y0158257D01*
X0234713Y0159704D01*
X0232823Y0160487D01*
X0230777Y0160487D01*
X0228887Y0159704D01*
X0227440Y0158257D01*
X0226800Y0156712D01*
X0226160Y0158257D01*
X0224713Y0159704D01*
X0222823Y0160487D01*
X0220777Y0160487D01*
X0218887Y0159704D01*
X0217440Y0158257D01*
X0216800Y0156712D01*
X0216160Y0158257D01*
X0214713Y0159704D01*
X0212823Y0160487D01*
X0210777Y0160487D01*
X0208887Y0159704D01*
X0207440Y0158257D01*
X0206800Y0156712D01*
X0206160Y0158257D01*
X0204713Y0159704D01*
X0202823Y0160487D01*
X0200777Y0160487D01*
X0198887Y0159704D01*
X0197440Y0158257D01*
X0196800Y0156712D01*
X0196160Y0158257D01*
X0194713Y0159704D01*
X0192823Y0160487D01*
X0190777Y0160487D01*
X0188887Y0159704D01*
X0187440Y0158257D01*
X0186897Y0156947D01*
X0186752Y0157394D01*
X0186370Y0158144D01*
X0185876Y0158824D01*
X0185281Y0159419D01*
X0184600Y0159913D01*
X0183851Y0160295D01*
X0183051Y0160555D01*
X0182221Y0160687D01*
X0182181Y0160687D01*
X0182181Y0152181D01*
X0181419Y0152181D01*
X0181419Y0151419D01*
X0176457Y0151419D01*
X0176457Y0147836D01*
X0176588Y0147005D01*
X0176848Y0146206D01*
X0177230Y0145456D01*
X0177724Y0144776D01*
X0178007Y0144493D01*
X0177387Y0144750D01*
X0176213Y0144750D01*
X0175129Y0144301D01*
X0174299Y0143471D01*
X0174072Y0142922D01*
X0169200Y0147794D01*
X0169200Y0170806D01*
X0177794Y0179400D01*
X0183583Y0179400D01*
X0182440Y0178257D01*
X0181657Y0176366D01*
X0181657Y0167234D01*
X0182440Y0165343D01*
X0183887Y0163896D01*
X0185777Y0163113D01*
X0187823Y0163113D01*
X0189713Y0163896D01*
X0191160Y0165343D01*
X0191800Y0166888D01*
X0192440Y0165343D01*
X0193887Y0163896D01*
X0195777Y0163113D01*
X0197823Y0163113D01*
X0199713Y0163896D01*
X0201160Y0165343D01*
X0201800Y0166888D01*
X0202440Y0165343D01*
X0203887Y0163896D01*
X0205777Y0163113D01*
X0207823Y0163113D01*
X0209713Y0163896D01*
X0211160Y0165343D01*
X0211703Y0166653D01*
X0211848Y0166206D01*
X0212230Y0165456D01*
X0212724Y0164776D01*
X0213319Y0164181D01*
X0213999Y0163687D01*
X0214749Y0163305D01*
X0215549Y0163045D01*
X0216379Y0162913D01*
X0216419Y0162913D01*
X0216419Y0171419D01*
X0217181Y0171419D01*
X0217181Y0162913D01*
X0217221Y0162913D01*
X0218051Y0163045D01*
X0218851Y0163305D01*
X0219600Y0163687D01*
X0220281Y0164181D01*
X0220876Y0164776D01*
X0221370Y0165456D01*
X0221752Y0166206D01*
X0221897Y0166653D01*
X0222440Y0165343D01*
X0223887Y0163896D01*
X0225777Y0163113D01*
X0227823Y0163113D01*
X0229713Y0163896D01*
X0231160Y0165343D01*
X0231800Y0166888D01*
X0232440Y0165343D01*
X0233887Y0163896D01*
X0235777Y0163113D01*
X0237823Y0163113D01*
X0239713Y0163896D01*
X0241160Y0165343D01*
X0241800Y0166888D01*
X0242440Y0165343D01*
X0243887Y0163896D01*
X0245777Y0163113D01*
X0247823Y0163113D01*
X0249713Y0163896D01*
X0251160Y0165343D01*
X0251943Y0167234D01*
X0251943Y0176366D01*
X0251160Y0178257D01*
X0249713Y0179704D01*
X0247823Y0180487D01*
X0245777Y0180487D01*
X0243887Y0179704D01*
X0242440Y0178257D01*
X0241800Y0176712D01*
X0241160Y0178257D01*
X0239713Y0179704D01*
X0237823Y0180487D01*
X0235777Y0180487D01*
X0233887Y0179704D01*
X0232440Y0178257D01*
X0231800Y0176712D01*
X0231160Y0178257D01*
X0229713Y0179704D01*
X0227823Y0180487D01*
X0225777Y0180487D01*
X0223887Y0179704D01*
X0222440Y0178257D01*
X0221897Y0176947D01*
X0221752Y0177394D01*
X0221370Y0178144D01*
X0220876Y0178824D01*
X0220281Y0179419D01*
X0219600Y0179913D01*
X0218851Y0180295D01*
X0218051Y0180555D01*
X0217221Y0180687D01*
X0217181Y0180687D01*
X0217181Y0172181D01*
X0216419Y0172181D01*
X0216419Y0180687D01*
X0216379Y0180687D01*
X0215549Y0180555D01*
X0214749Y0180295D01*
X0213999Y0179913D01*
X0213319Y0179419D01*
X0212724Y0178824D01*
X0212230Y0178144D01*
X0211848Y0177394D01*
X0211703Y0176947D01*
X0211160Y0178257D01*
X0209713Y0179704D01*
X0207823Y0180487D01*
X0206507Y0180487D01*
X0203159Y0183835D01*
X0202277Y0184200D01*
X0176323Y0184200D01*
X0175441Y0183835D01*
X0174720Y0183114D01*
X0174513Y0183613D01*
X0173613Y0184513D01*
X0172437Y0185000D01*
X0103014Y0185000D01*
X0101838Y0184513D01*
X0104710Y0177841D02*
X0118600Y0177841D01*
X0118600Y0176242D02*
X0104227Y0176242D01*
X0104038Y0176431D02*
X0099562Y0176431D01*
X0098625Y0175494D01*
X0098625Y0173369D01*
X0098159Y0173835D01*
X0096309Y0175685D01*
X0095427Y0176050D01*
X0094419Y0176050D01*
X0094038Y0176431D01*
X0089562Y0176431D01*
X0088625Y0175494D01*
X0088625Y0171807D01*
X0089562Y0170869D01*
X0094038Y0170869D01*
X0094187Y0171019D01*
X0094400Y0170806D01*
X0094400Y0157794D01*
X0094187Y0157581D01*
X0094038Y0157731D01*
X0089562Y0157731D01*
X0088625Y0156793D01*
X0088625Y0153106D01*
X0089562Y0152169D01*
X0094038Y0152169D01*
X0094419Y0152550D01*
X0095427Y0152550D01*
X0096309Y0152915D01*
X0098159Y0154765D01*
X0098625Y0155231D01*
X0098625Y0153106D01*
X0099562Y0152169D01*
X0104038Y0152169D01*
X0104419Y0152550D01*
X0110427Y0152550D01*
X0111309Y0152915D01*
X0111984Y0153590D01*
X0113159Y0154765D01*
X0113835Y0155441D01*
X0114200Y0156323D01*
X0114200Y0172277D01*
X0113835Y0173159D01*
X0113159Y0173835D01*
X0111984Y0175010D01*
X0111309Y0175685D01*
X0110427Y0176050D01*
X0104419Y0176050D01*
X0104038Y0176431D01*
X0101800Y0173650D02*
X0109950Y0173650D01*
X0111800Y0171800D01*
X0111800Y0156800D01*
X0109950Y0154950D01*
X0101800Y0154950D01*
X0098625Y0153863D02*
X0097257Y0153863D01*
X0094950Y0154950D02*
X0096800Y0156800D01*
X0096800Y0171800D01*
X0094950Y0173650D01*
X0091800Y0173650D01*
X0088625Y0173045D02*
X0084975Y0173045D01*
X0084975Y0174644D02*
X0088625Y0174644D01*
X0089373Y0176242D02*
X0084227Y0176242D01*
X0084615Y0171447D02*
X0088985Y0171447D01*
X0094400Y0169848D02*
X0083169Y0169848D01*
X0083924Y0168250D02*
X0094400Y0168250D01*
X0094400Y0166651D02*
X0084105Y0166651D01*
X0083801Y0165053D02*
X0094400Y0165053D01*
X0094400Y0163454D02*
X0082871Y0163454D01*
X0080395Y0161856D02*
X0094400Y0161856D01*
X0094400Y0160257D02*
X0076737Y0160257D01*
X0077615Y0161856D02*
X0075138Y0161856D01*
X0075138Y0163454D02*
X0074200Y0163454D01*
X0074200Y0165053D02*
X0074208Y0165053D01*
X0071800Y0161800D02*
X0071800Y0173650D01*
X0068625Y0173045D02*
X0044914Y0173045D01*
X0044070Y0171509D02*
X0043612Y0171631D01*
X0041800Y0171631D01*
X0039988Y0171631D01*
X0039530Y0171509D01*
X0039120Y0171272D01*
X0038785Y0170937D01*
X0038548Y0170526D01*
X0038425Y0170068D01*
X0038425Y0168650D01*
X0038425Y0167232D01*
X0038548Y0166775D01*
X0038785Y0166364D01*
X0039120Y0166029D01*
X0039530Y0165792D01*
X0039988Y0165669D01*
X0041800Y0165669D01*
X0041800Y0168650D01*
X0041800Y0165669D01*
X0043612Y0165669D01*
X0044070Y0165792D01*
X0044480Y0166029D01*
X0044815Y0166364D01*
X0045052Y0166775D01*
X0045175Y0167232D01*
X0045175Y0168650D01*
X0041800Y0168650D01*
X0041800Y0168650D01*
X0041800Y0168650D01*
X0038425Y0168650D01*
X0041800Y0168650D01*
X0041800Y0168650D01*
X0050225Y0160225D01*
X0061800Y0148650D01*
X0081800Y0148650D01*
X0081800Y0145669D01*
X0079988Y0145669D01*
X0079530Y0145792D01*
X0079120Y0146029D01*
X0078785Y0146364D01*
X0078548Y0146775D01*
X0078425Y0147232D01*
X0078425Y0148650D01*
X0081800Y0148650D01*
X0081800Y0148650D01*
X0081800Y0145669D01*
X0083612Y0145669D01*
X0084070Y0145792D01*
X0084480Y0146029D01*
X0084815Y0146364D01*
X0085052Y0146775D01*
X0085175Y0147232D01*
X0085175Y0148650D01*
X0081800Y0148650D01*
X0081800Y0148650D01*
X0081800Y0148650D01*
X0091800Y0148650D01*
X0091800Y0145669D01*
X0089988Y0145669D01*
X0089530Y0145792D01*
X0089120Y0146029D01*
X0088785Y0146364D01*
X0088548Y0146775D01*
X0088425Y0147232D01*
X0088425Y0148650D01*
X0091800Y0148650D01*
X0091800Y0148650D01*
X0091800Y0145669D01*
X0093612Y0145669D01*
X0094070Y0145792D01*
X0094480Y0146029D01*
X0094815Y0146364D01*
X0095052Y0146775D01*
X0095175Y0147232D01*
X0095175Y0148650D01*
X0091800Y0148650D01*
X0091800Y0148650D01*
X0091800Y0148650D01*
X0101800Y0148650D01*
X0101800Y0145669D01*
X0099988Y0145669D01*
X0099530Y0145792D01*
X0099120Y0146029D01*
X0098785Y0146364D01*
X0098548Y0146775D01*
X0098425Y0147232D01*
X0098425Y0148650D01*
X0101800Y0148650D01*
X0101800Y0148650D01*
X0101800Y0145669D01*
X0103612Y0145669D01*
X0104070Y0145792D01*
X0104480Y0146029D01*
X0104815Y0146364D01*
X0105052Y0146775D01*
X0105175Y0147232D01*
X0105175Y0148650D01*
X0101800Y0148650D01*
X0101800Y0148650D01*
X0101800Y0148650D01*
X0116850Y0133600D01*
X0128125Y0133600D01*
X0141325Y0146800D01*
X0151800Y0146800D01*
X0164400Y0147469D02*
X0125000Y0147469D01*
X0125000Y0145870D02*
X0164587Y0145870D01*
X0165934Y0144272D02*
X0125000Y0144272D01*
X0125452Y0142673D02*
X0167532Y0142673D01*
X0169131Y0141075D02*
X0127051Y0141075D01*
X0128649Y0139476D02*
X0170729Y0139476D01*
X0172328Y0137878D02*
X0129817Y0137878D01*
X0130000Y0136279D02*
X0173926Y0136279D01*
X0175525Y0134681D02*
X0129206Y0134681D01*
X0124394Y0134681D02*
X0084008Y0134681D01*
X0083626Y0134299D02*
X0084456Y0135129D01*
X0084905Y0136213D01*
X0084905Y0137387D01*
X0084456Y0138471D01*
X0083627Y0139300D01*
X0084456Y0140129D01*
X0084905Y0141213D01*
X0084905Y0142387D01*
X0084456Y0143471D01*
X0083626Y0144301D01*
X0082542Y0144750D01*
X0081368Y0144750D01*
X0080284Y0144301D01*
X0080183Y0144200D01*
X0073572Y0144200D01*
X0073471Y0144301D01*
X0072387Y0144750D01*
X0071213Y0144750D01*
X0070129Y0144301D01*
X0069299Y0143471D01*
X0068850Y0142387D01*
X0068850Y0141213D01*
X0069299Y0140129D01*
X0070128Y0139300D01*
X0069299Y0138471D01*
X0068850Y0137387D01*
X0068850Y0136213D01*
X0069299Y0135129D01*
X0070129Y0134299D01*
X0070368Y0134200D01*
X0048572Y0134200D01*
X0048471Y0134301D01*
X0047387Y0134750D01*
X0046213Y0134750D01*
X0045129Y0134301D01*
X0044299Y0133471D01*
X0043850Y0132387D01*
X0043850Y0131213D01*
X0044299Y0130129D01*
X0045129Y0129299D01*
X0046213Y0128850D01*
X0047387Y0128850D01*
X0048471Y0129299D01*
X0048572Y0129400D01*
X0065368Y0129400D01*
X0065129Y0129301D01*
X0064299Y0128471D01*
X0063850Y0127387D01*
X0063850Y0126213D01*
X0064299Y0125129D01*
X0065129Y0124299D01*
X0066213Y0123850D01*
X0067387Y0123850D01*
X0068471Y0124299D01*
X0068572Y0124400D01*
X0085028Y0124400D01*
X0085129Y0124299D01*
X0086213Y0123850D01*
X0087387Y0123850D01*
X0088471Y0124299D01*
X0089301Y0125129D01*
X0089750Y0126213D01*
X0089750Y0127387D01*
X0089301Y0128471D01*
X0088471Y0129301D01*
X0088232Y0129400D01*
X0110806Y0129400D01*
X0130430Y0109776D01*
X0130129Y0109651D01*
X0130028Y0109550D01*
X0126673Y0109550D01*
X0125791Y0109185D01*
X0121356Y0104750D01*
X0121213Y0104750D01*
X0120129Y0104301D01*
X0119299Y0103471D01*
X0118850Y0102387D01*
X0118850Y0101213D01*
X0119299Y0100129D01*
X0120129Y0099299D01*
X0121213Y0098850D01*
X0122387Y0098850D01*
X0123471Y0099299D01*
X0124301Y0100129D01*
X0124750Y0101213D01*
X0124750Y0101356D01*
X0128144Y0104750D01*
X0130028Y0104750D01*
X0130129Y0104649D01*
X0131213Y0104200D01*
X0132387Y0104200D01*
X0133471Y0104649D01*
X0134301Y0105479D01*
X0134400Y0105718D01*
X0134400Y0100234D01*
X0134765Y0099352D01*
X0135441Y0098676D01*
X0143311Y0090806D01*
X0143311Y0078800D01*
X0143676Y0077918D01*
X0154400Y0067195D01*
X0154400Y0062794D01*
X0151356Y0059750D01*
X0151213Y0059750D01*
X0150129Y0059301D01*
X0149299Y0058471D01*
X0148850Y0057387D01*
X0148850Y0056213D01*
X0149299Y0055129D01*
X0150129Y0054299D01*
X0151213Y0053850D01*
X0152387Y0053850D01*
X0153471Y0054299D01*
X0154301Y0055129D01*
X0154750Y0056213D01*
X0154750Y0056356D01*
X0158835Y0060441D01*
X0159200Y0061323D01*
X0159200Y0065789D01*
X0163852Y0061137D01*
X0164881Y0060711D01*
X0173719Y0060711D01*
X0174748Y0061137D01*
X0175536Y0061925D01*
X0176000Y0062389D01*
X0176000Y0062181D01*
X0181419Y0062181D01*
X0181419Y0061419D01*
X0182181Y0061419D01*
X0182181Y0062181D01*
X0187600Y0062181D01*
X0187600Y0065362D01*
X0188057Y0065362D01*
X0190134Y0063286D01*
X0189980Y0062914D01*
X0189980Y0060686D01*
X0190832Y0058628D01*
X0192407Y0057053D01*
X0194466Y0056200D01*
X0196693Y0056200D01*
X0198752Y0057053D01*
X0200327Y0058628D01*
X0201180Y0060686D01*
X0201180Y0062914D01*
X0200327Y0064972D01*
X0198752Y0066547D01*
X0196693Y0067400D01*
X0194466Y0067400D01*
X0194093Y0067246D01*
X0190803Y0070536D01*
X0189774Y0070962D01*
X0174532Y0070962D01*
X0173503Y0070536D01*
X0172715Y0069748D01*
X0172289Y0068719D01*
X0172289Y0066597D01*
X0172003Y0066311D01*
X0166597Y0066311D01*
X0151311Y0081597D01*
X0151311Y0093825D01*
X0152448Y0093825D01*
X0153532Y0094274D01*
X0153633Y0094375D01*
X0155831Y0094375D01*
X0159400Y0090806D01*
X0159400Y0086323D01*
X0159765Y0085441D01*
X0164765Y0080441D01*
X0165441Y0079765D01*
X0166323Y0079400D01*
X0230368Y0079400D01*
X0230129Y0079301D01*
X0229299Y0078471D01*
X0228850Y0077387D01*
X0228850Y0076213D01*
X0229299Y0075129D01*
X0230129Y0074299D01*
X0231213Y0073850D01*
X0231356Y0073850D01*
X0237806Y0067400D01*
X0235804Y0067400D01*
X0233746Y0066547D01*
X0232171Y0064972D01*
X0231318Y0062914D01*
X0231318Y0060686D01*
X0232171Y0058628D01*
X0233746Y0057053D01*
X0235804Y0056200D01*
X0238032Y0056200D01*
X0240090Y0057053D01*
X0241666Y0058628D01*
X0242518Y0060686D01*
X0242518Y0062688D01*
X0245441Y0059765D01*
X0246323Y0059400D01*
X0261720Y0059400D01*
X0284244Y0036876D01*
X0285126Y0036511D01*
X0300554Y0036511D01*
X0308379Y0028686D01*
X0308059Y0027914D01*
X0308059Y0025686D01*
X0308912Y0023628D01*
X0310487Y0022053D01*
X0312545Y0021200D01*
X0314773Y0021200D01*
X0316831Y0022053D01*
X0318406Y0023628D01*
X0319259Y0025686D01*
X0319259Y0027914D01*
X0318406Y0029972D01*
X0316831Y0031547D01*
X0314773Y0032400D01*
X0312545Y0032400D01*
X0311773Y0032080D01*
X0303583Y0040271D01*
X0302908Y0040946D01*
X0302025Y0041311D01*
X0286597Y0041311D01*
X0278508Y0049400D01*
X0280806Y0049400D01*
X0284765Y0045441D01*
X0285441Y0044765D01*
X0286323Y0044400D01*
X0335806Y0044400D01*
X0343850Y0036356D01*
X0343850Y0036213D01*
X0344299Y0035129D01*
X0345129Y0034299D01*
X0346213Y0033850D01*
X0347387Y0033850D01*
X0348471Y0034299D01*
X0349301Y0035129D01*
X0349750Y0036213D01*
X0349750Y0037387D01*
X0349301Y0038471D01*
X0348471Y0039301D01*
X0347387Y0039750D01*
X0347244Y0039750D01*
X0338159Y0048835D01*
X0337277Y0049200D01*
X0287794Y0049200D01*
X0285567Y0051427D01*
X0286367Y0051300D01*
X0286600Y0051300D01*
X0286600Y0056600D01*
X0287000Y0056600D01*
X0287000Y0051300D01*
X0287233Y0051300D01*
X0288088Y0051435D01*
X0288911Y0051703D01*
X0289683Y0052096D01*
X0290383Y0052605D01*
X0290995Y0053217D01*
X0291504Y0053917D01*
X0291897Y0054689D01*
X0291915Y0054744D01*
X0292307Y0053798D01*
X0293798Y0052307D01*
X0295746Y0051500D01*
X0297854Y0051500D01*
X0299802Y0052307D01*
X0301293Y0053798D01*
X0301800Y0055022D01*
X0302307Y0053798D01*
X0303798Y0052307D01*
X0305746Y0051500D01*
X0307854Y0051500D01*
X0309802Y0052307D01*
X0311293Y0053798D01*
X0312100Y0055746D01*
X0312100Y0057854D01*
X0311293Y0059802D01*
X0309802Y0061293D01*
X0307854Y0062100D01*
X0305746Y0062100D01*
X0303798Y0061293D01*
X0302307Y0059802D01*
X0301800Y0058578D01*
X0301293Y0059802D01*
X0299802Y0061293D01*
X0297854Y0062100D01*
X0295746Y0062100D01*
X0294750Y0061688D01*
X0294750Y0062387D01*
X0294301Y0063471D01*
X0293471Y0064301D01*
X0293109Y0064451D01*
X0279600Y0077960D01*
X0279600Y0078028D01*
X0279609Y0078050D01*
X0279609Y0081732D01*
X0279600Y0081754D01*
X0279600Y0085640D01*
X0283109Y0089149D01*
X0283471Y0089299D01*
X0284301Y0090129D01*
X0284750Y0091213D01*
X0284750Y0092387D01*
X0284301Y0093471D01*
X0283471Y0094301D01*
X0282387Y0094750D01*
X0281213Y0094750D01*
X0280129Y0094301D01*
X0279299Y0093471D01*
X0279149Y0093109D01*
X0274426Y0088386D01*
X0274000Y0087357D01*
X0274000Y0080627D01*
X0274009Y0080605D01*
X0274009Y0079177D01*
X0274000Y0079154D01*
X0274000Y0076243D01*
X0274426Y0075214D01*
X0287360Y0062280D01*
X0287233Y0062300D01*
X0287000Y0062300D01*
X0287000Y0057000D01*
X0286600Y0057000D01*
X0286600Y0062300D01*
X0286367Y0062300D01*
X0285512Y0062165D01*
X0284689Y0061897D01*
X0283917Y0061504D01*
X0283217Y0060995D01*
X0282605Y0060383D01*
X0282096Y0059683D01*
X0281703Y0058911D01*
X0281435Y0058088D01*
X0281300Y0057233D01*
X0281300Y0057000D01*
X0286600Y0057000D01*
X0286600Y0056600D01*
X0281300Y0056600D01*
X0281300Y0056367D01*
X0281435Y0055512D01*
X0281703Y0054689D01*
X0281952Y0054200D01*
X0277794Y0054200D01*
X0269200Y0062794D01*
X0269200Y0070065D01*
X0268835Y0070947D01*
X0268159Y0071622D01*
X0260732Y0079049D01*
X0261213Y0078850D01*
X0262387Y0078850D01*
X0263471Y0079299D01*
X0264301Y0080129D01*
X0264750Y0081213D01*
X0264750Y0082387D01*
X0264301Y0083471D01*
X0263471Y0084301D01*
X0262387Y0084750D01*
X0262244Y0084750D01*
X0254750Y0092244D01*
X0254750Y0092387D01*
X0254301Y0093471D01*
X0253471Y0094301D01*
X0252387Y0094750D01*
X0251213Y0094750D01*
X0250129Y0094301D01*
X0249299Y0093471D01*
X0248850Y0092387D01*
X0248850Y0091213D01*
X0249299Y0090129D01*
X0250129Y0089299D01*
X0251213Y0088850D01*
X0251356Y0088850D01*
X0258850Y0081356D01*
X0258850Y0081213D01*
X0259049Y0080732D01*
X0251622Y0088159D01*
X0251622Y0088159D01*
X0250947Y0088835D01*
X0250065Y0089200D01*
X0249110Y0089200D01*
X0248963Y0089139D01*
X0168597Y0089139D01*
X0168496Y0089240D01*
X0167412Y0089689D01*
X0166238Y0089689D01*
X0165154Y0089240D01*
X0164324Y0088410D01*
X0164200Y0088110D01*
X0164200Y0092277D01*
X0163835Y0093159D01*
X0163159Y0093835D01*
X0158159Y0098835D01*
X0157760Y0099000D01*
X0185851Y0099000D01*
X0186213Y0098850D01*
X0187387Y0098850D01*
X0188471Y0099299D01*
X0189301Y0100129D01*
X0189750Y0101213D01*
X0189750Y0102387D01*
X0189301Y0103471D01*
X0188471Y0104301D01*
X0187387Y0104750D01*
X0186213Y0104750D01*
X0185851Y0104600D01*
X0151592Y0104600D01*
X0150563Y0104174D01*
X0149775Y0103386D01*
X0146137Y0099748D01*
X0145711Y0098719D01*
X0145711Y0095194D01*
X0139200Y0101705D01*
X0139200Y0107277D01*
X0138835Y0108159D01*
X0113159Y0133835D01*
X0112277Y0134200D01*
X0083386Y0134200D01*
X0083626Y0134299D01*
X0084905Y0136279D02*
X0122795Y0136279D01*
X0121197Y0137878D02*
X0084701Y0137878D01*
X0083803Y0139476D02*
X0119598Y0139476D01*
X0118637Y0141075D02*
X0084847Y0141075D01*
X0084786Y0142673D02*
X0118600Y0142673D01*
X0118600Y0144272D02*
X0083655Y0144272D01*
X0084206Y0145870D02*
X0089394Y0145870D01*
X0088425Y0147469D02*
X0085175Y0147469D01*
X0085175Y0148650D02*
X0085175Y0150068D01*
X0085052Y0150526D01*
X0084815Y0150937D01*
X0084480Y0151272D01*
X0084070Y0151509D01*
X0083612Y0151631D01*
X0081800Y0151631D01*
X0079988Y0151631D01*
X0079530Y0151509D01*
X0079120Y0151272D01*
X0078785Y0150937D01*
X0078548Y0150526D01*
X0078425Y0150068D01*
X0078425Y0148650D01*
X0081800Y0148650D01*
X0085175Y0148650D01*
X0085175Y0149068D02*
X0088425Y0149068D01*
X0088425Y0148650D02*
X0088425Y0150068D01*
X0088548Y0150526D01*
X0088785Y0150937D01*
X0089120Y0151272D01*
X0089530Y0151509D01*
X0089988Y0151631D01*
X0091800Y0151631D01*
X0091800Y0148651D01*
X0091800Y0148651D01*
X0091800Y0151631D01*
X0093612Y0151631D01*
X0094070Y0151509D01*
X0094480Y0151272D01*
X0094815Y0150937D01*
X0095052Y0150526D01*
X0095175Y0150068D01*
X0095175Y0148650D01*
X0091800Y0148650D01*
X0088425Y0148650D01*
X0088629Y0150666D02*
X0084971Y0150666D01*
X0084134Y0152265D02*
X0089466Y0152265D01*
X0088625Y0153863D02*
X0084975Y0153863D01*
X0084975Y0155462D02*
X0088625Y0155462D01*
X0088892Y0157060D02*
X0084708Y0157060D01*
X0081800Y0154950D02*
X0079950Y0156800D01*
X0076800Y0156800D01*
X0071800Y0161800D01*
X0069400Y0161856D02*
X0008600Y0161856D01*
X0008600Y0163454D02*
X0069400Y0163454D01*
X0069400Y0165053D02*
X0008600Y0165053D01*
X0008600Y0166651D02*
X0038619Y0166651D01*
X0038425Y0168250D02*
X0008600Y0168250D01*
X0008600Y0169848D02*
X0038425Y0169848D01*
X0039423Y0171447D02*
X0008600Y0171447D01*
X0008600Y0173045D02*
X0038686Y0173045D01*
X0038625Y0174644D02*
X0008600Y0174644D01*
X0008600Y0176242D02*
X0038625Y0176242D01*
X0041580Y0177841D02*
X0008600Y0177841D01*
X0008600Y0179439D02*
X0068600Y0179439D01*
X0068625Y0181038D02*
X0008600Y0181038D01*
X0008600Y0182636D02*
X0069468Y0182636D01*
X0068985Y0171447D02*
X0044177Y0171447D01*
X0044070Y0171509D02*
X0044480Y0171272D01*
X0044815Y0170937D01*
X0045052Y0170526D01*
X0045175Y0170068D01*
X0045175Y0168650D01*
X0041800Y0168650D01*
X0041800Y0168651D02*
X0041800Y0171631D01*
X0041800Y0168651D01*
X0041800Y0168651D01*
X0041800Y0168250D02*
X0041800Y0168250D01*
X0041800Y0169848D02*
X0041800Y0169848D01*
X0041800Y0171447D02*
X0041800Y0171447D01*
X0045175Y0169848D02*
X0069400Y0169848D01*
X0069400Y0168250D02*
X0045175Y0168250D01*
X0044981Y0166651D02*
X0069400Y0166651D01*
X0069949Y0160257D02*
X0008600Y0160257D01*
X0008600Y0158659D02*
X0071547Y0158659D01*
X0073146Y0157060D02*
X0008600Y0157060D01*
X0008600Y0155462D02*
X0023390Y0155462D01*
X0023543Y0155614D02*
X0022986Y0155057D01*
X0022524Y0154421D01*
X0022166Y0153719D01*
X0021923Y0152971D01*
X0021800Y0152194D01*
X0021800Y0151886D01*
X0026714Y0151886D01*
X0026714Y0156800D01*
X0026406Y0156800D01*
X0025629Y0156677D01*
X0024881Y0156434D01*
X0024179Y0156076D01*
X0023543Y0155614D01*
X0022240Y0153863D02*
X0008600Y0153863D01*
X0008600Y0152265D02*
X0021811Y0152265D01*
X0021800Y0151714D02*
X0021800Y0151406D01*
X0021923Y0150629D01*
X0022166Y0149881D01*
X0022524Y0149179D01*
X0022986Y0148543D01*
X0023543Y0147986D01*
X0024179Y0147524D01*
X0024881Y0147166D01*
X0025629Y0146923D01*
X0026406Y0146800D01*
X0026714Y0146800D01*
X0026714Y0151714D01*
X0026886Y0151714D01*
X0026886Y0151886D01*
X0031800Y0151886D01*
X0031800Y0152194D01*
X0031677Y0152971D01*
X0031434Y0153719D01*
X0031076Y0154421D01*
X0030614Y0155057D01*
X0030057Y0155614D01*
X0029421Y0156076D01*
X0028719Y0156434D01*
X0027971Y0156677D01*
X0027194Y0156800D01*
X0026886Y0156800D01*
X0026886Y0151886D01*
X0026714Y0151886D01*
X0026714Y0151714D01*
X0021800Y0151714D01*
X0021917Y0150666D02*
X0008600Y0150666D01*
X0008600Y0149068D02*
X0022605Y0149068D01*
X0024287Y0147469D02*
X0008600Y0147469D01*
X0008600Y0145870D02*
X0024084Y0145870D01*
X0024081Y0145869D02*
X0022731Y0144519D01*
X0022000Y0142755D01*
X0022000Y0140845D01*
X0022731Y0139081D01*
X0024081Y0137731D01*
X0025845Y0137000D01*
X0027755Y0137000D01*
X0029519Y0137731D01*
X0030869Y0139081D01*
X0031600Y0140845D01*
X0031600Y0142755D01*
X0030869Y0144519D01*
X0029519Y0145869D01*
X0027755Y0146600D01*
X0025845Y0146600D01*
X0024081Y0145869D01*
X0022628Y0144272D02*
X0008600Y0144272D01*
X0008600Y0142673D02*
X0022000Y0142673D01*
X0022000Y0141075D02*
X0008600Y0141075D01*
X0008600Y0139476D02*
X0022567Y0139476D01*
X0023934Y0137878D02*
X0008600Y0137878D01*
X0008600Y0136279D02*
X0025071Y0136279D01*
X0025845Y0136600D02*
X0024081Y0135869D01*
X0022731Y0134519D01*
X0022000Y0132755D01*
X0022000Y0130845D01*
X0022731Y0129081D01*
X0024081Y0127731D01*
X0025845Y0127000D01*
X0027755Y0127000D01*
X0029519Y0127731D01*
X0030869Y0129081D01*
X0031600Y0130845D01*
X0031600Y0132755D01*
X0030869Y0134519D01*
X0029519Y0135869D01*
X0027755Y0136600D01*
X0025845Y0136600D01*
X0028529Y0136279D02*
X0035071Y0136279D01*
X0035845Y0136600D02*
X0034081Y0135869D01*
X0032731Y0134519D01*
X0032000Y0132755D01*
X0032000Y0130845D01*
X0032731Y0129081D01*
X0034081Y0127731D01*
X0035845Y0127000D01*
X0037755Y0127000D01*
X0039519Y0127731D01*
X0040869Y0129081D01*
X0041600Y0130845D01*
X0041600Y0132755D01*
X0040869Y0134519D01*
X0039519Y0135869D01*
X0037755Y0136600D01*
X0035845Y0136600D01*
X0035845Y0137000D02*
X0037755Y0137000D01*
X0039519Y0137731D01*
X0040869Y0139081D01*
X0041600Y0140845D01*
X0041600Y0142755D01*
X0040869Y0144519D01*
X0039519Y0145869D01*
X0037755Y0146600D01*
X0035845Y0146600D01*
X0034081Y0145869D01*
X0032731Y0144519D01*
X0032000Y0142755D01*
X0032000Y0140845D01*
X0032731Y0139081D01*
X0034081Y0137731D01*
X0035845Y0137000D01*
X0033934Y0137878D02*
X0029666Y0137878D01*
X0031033Y0139476D02*
X0032567Y0139476D01*
X0032000Y0141075D02*
X0031600Y0141075D01*
X0031600Y0142673D02*
X0032000Y0142673D01*
X0032628Y0144272D02*
X0030972Y0144272D01*
X0029516Y0145870D02*
X0034084Y0145870D01*
X0034713Y0147469D02*
X0029313Y0147469D01*
X0029421Y0147524D02*
X0030057Y0147986D01*
X0030614Y0148543D01*
X0031076Y0149179D01*
X0031434Y0149881D01*
X0031677Y0150629D01*
X0031800Y0151406D01*
X0031800Y0151714D01*
X0026886Y0151714D01*
X0026886Y0146800D01*
X0027194Y0146800D01*
X0027971Y0146923D01*
X0028719Y0147166D01*
X0029421Y0147524D01*
X0030995Y0149068D02*
X0032744Y0149068D01*
X0032731Y0149081D02*
X0034081Y0147731D01*
X0035845Y0147000D01*
X0037755Y0147000D01*
X0039519Y0147731D01*
X0040869Y0149081D01*
X0041600Y0150845D01*
X0041600Y0152755D01*
X0040869Y0154519D01*
X0039519Y0155869D01*
X0037755Y0156600D01*
X0035845Y0156600D01*
X0034081Y0155869D01*
X0032731Y0154519D01*
X0032000Y0152755D01*
X0032000Y0150845D01*
X0032731Y0149081D01*
X0032074Y0150666D02*
X0031683Y0150666D01*
X0031789Y0152265D02*
X0032000Y0152265D01*
X0032459Y0153863D02*
X0031360Y0153863D01*
X0030209Y0155462D02*
X0033673Y0155462D01*
X0039927Y0155462D02*
X0074744Y0155462D01*
X0078625Y0153863D02*
X0041141Y0153863D01*
X0041600Y0152265D02*
X0079466Y0152265D01*
X0078629Y0150666D02*
X0041526Y0150666D01*
X0040856Y0149068D02*
X0078425Y0149068D01*
X0078425Y0147469D02*
X0038887Y0147469D01*
X0039516Y0145870D02*
X0079394Y0145870D01*
X0080255Y0144272D02*
X0073500Y0144272D01*
X0071800Y0141800D02*
X0081955Y0141800D01*
X0081800Y0145870D02*
X0081800Y0145870D01*
X0081800Y0147469D02*
X0081800Y0147469D01*
X0081800Y0148651D02*
X0081800Y0151631D01*
X0081800Y0148651D01*
X0081800Y0148651D01*
X0081800Y0149068D02*
X0081800Y0149068D01*
X0081800Y0150666D02*
X0081800Y0150666D01*
X0091800Y0150666D02*
X0091800Y0150666D01*
X0091800Y0149068D02*
X0091800Y0149068D01*
X0091800Y0147469D02*
X0091800Y0147469D01*
X0091800Y0145870D02*
X0091800Y0145870D01*
X0094206Y0145870D02*
X0099394Y0145870D01*
X0098425Y0147469D02*
X0095175Y0147469D01*
X0095175Y0149068D02*
X0098425Y0149068D01*
X0098425Y0148650D02*
X0098425Y0150068D01*
X0098548Y0150526D01*
X0098785Y0150937D01*
X0099120Y0151272D01*
X0099530Y0151509D01*
X0099988Y0151631D01*
X0101800Y0151631D01*
X0101800Y0148651D01*
X0101800Y0148651D01*
X0101800Y0151631D01*
X0103612Y0151631D01*
X0104070Y0151509D01*
X0104480Y0151272D01*
X0104815Y0150937D01*
X0105052Y0150526D01*
X0105175Y0150068D01*
X0105175Y0148650D01*
X0101800Y0148650D01*
X0098425Y0148650D01*
X0098629Y0150666D02*
X0094971Y0150666D01*
X0094134Y0152265D02*
X0099466Y0152265D01*
X0101800Y0150666D02*
X0101800Y0150666D01*
X0101800Y0149068D02*
X0101800Y0149068D01*
X0101800Y0147469D02*
X0101800Y0147469D01*
X0101800Y0145870D02*
X0101800Y0145870D01*
X0104206Y0145870D02*
X0118600Y0145870D01*
X0118600Y0147469D02*
X0105175Y0147469D01*
X0105175Y0149068D02*
X0118600Y0149068D01*
X0118600Y0150666D02*
X0104971Y0150666D01*
X0104134Y0152265D02*
X0118600Y0152265D01*
X0118600Y0153863D02*
X0112257Y0153863D01*
X0113159Y0154765D02*
X0113159Y0154765D01*
X0113843Y0155462D02*
X0118600Y0155462D01*
X0118600Y0157060D02*
X0114200Y0157060D01*
X0114200Y0158659D02*
X0118600Y0158659D01*
X0118600Y0160257D02*
X0114200Y0160257D01*
X0114200Y0161856D02*
X0118600Y0161856D01*
X0118600Y0163454D02*
X0114200Y0163454D01*
X0114200Y0165053D02*
X0118600Y0165053D01*
X0118600Y0166651D02*
X0114200Y0166651D01*
X0114200Y0168250D02*
X0118600Y0168250D01*
X0118600Y0169848D02*
X0114200Y0169848D01*
X0114200Y0171447D02*
X0118600Y0171447D01*
X0118600Y0173045D02*
X0113882Y0173045D01*
X0112350Y0174644D02*
X0118600Y0174644D01*
X0125000Y0174644D02*
X0134028Y0174644D01*
X0134054Y0174670D02*
X0132613Y0173228D01*
X0131832Y0171344D01*
X0131832Y0162256D01*
X0132613Y0160372D01*
X0134054Y0158930D01*
X0135938Y0158150D01*
X0137977Y0158150D01*
X0139861Y0158930D01*
X0141302Y0160372D01*
X0142082Y0162256D01*
X0142082Y0171344D01*
X0141302Y0173228D01*
X0139861Y0174670D01*
X0137977Y0175450D01*
X0135938Y0175450D01*
X0134054Y0174670D01*
X0132537Y0173045D02*
X0125000Y0173045D01*
X0125000Y0171447D02*
X0131875Y0171447D01*
X0131832Y0169848D02*
X0125000Y0169848D01*
X0125000Y0168250D02*
X0131832Y0168250D01*
X0131832Y0166651D02*
X0125000Y0166651D01*
X0125000Y0165053D02*
X0131832Y0165053D01*
X0131832Y0163454D02*
X0125000Y0163454D01*
X0125000Y0161856D02*
X0131998Y0161856D01*
X0132728Y0160257D02*
X0125000Y0160257D01*
X0125000Y0158659D02*
X0134710Y0158659D01*
X0139205Y0158659D02*
X0154395Y0158659D01*
X0153739Y0158930D02*
X0155623Y0158150D01*
X0157662Y0158150D01*
X0159546Y0158930D01*
X0160987Y0160372D01*
X0161768Y0162256D01*
X0161768Y0171344D01*
X0160987Y0173228D01*
X0159546Y0174670D01*
X0157662Y0175450D01*
X0155623Y0175450D01*
X0153739Y0174670D01*
X0152298Y0173228D01*
X0151518Y0171344D01*
X0151518Y0162256D01*
X0152298Y0160372D01*
X0153739Y0158930D01*
X0152413Y0160257D02*
X0141187Y0160257D01*
X0141917Y0161856D02*
X0151683Y0161856D01*
X0151518Y0163454D02*
X0142082Y0163454D01*
X0142082Y0165053D02*
X0151518Y0165053D01*
X0151518Y0166651D02*
X0142082Y0166651D01*
X0142082Y0168250D02*
X0151518Y0168250D01*
X0151518Y0169848D02*
X0142082Y0169848D01*
X0142040Y0171447D02*
X0151560Y0171447D01*
X0152222Y0173045D02*
X0141378Y0173045D01*
X0139887Y0174644D02*
X0153713Y0174644D01*
X0159572Y0174644D02*
X0166250Y0174644D01*
X0164718Y0173045D02*
X0161063Y0173045D01*
X0161725Y0171447D02*
X0164400Y0171447D01*
X0164400Y0169848D02*
X0161768Y0169848D01*
X0161768Y0168250D02*
X0164400Y0168250D01*
X0164400Y0166651D02*
X0161768Y0166651D01*
X0161768Y0165053D02*
X0164400Y0165053D01*
X0164400Y0163454D02*
X0161768Y0163454D01*
X0161602Y0161856D02*
X0164400Y0161856D01*
X0164400Y0160257D02*
X0160872Y0160257D01*
X0158890Y0158659D02*
X0164400Y0158659D01*
X0164400Y0157060D02*
X0125000Y0157060D01*
X0125000Y0155462D02*
X0164400Y0155462D01*
X0164400Y0153863D02*
X0125000Y0153863D01*
X0125000Y0152265D02*
X0164400Y0152265D01*
X0164400Y0150666D02*
X0125000Y0150666D01*
X0125000Y0149068D02*
X0164400Y0149068D01*
X0169200Y0149068D02*
X0176457Y0149068D01*
X0176457Y0150666D02*
X0169200Y0150666D01*
X0169200Y0152265D02*
X0176457Y0152265D01*
X0176457Y0152181D02*
X0181419Y0152181D01*
X0181419Y0160687D01*
X0181379Y0160687D01*
X0180549Y0160555D01*
X0179749Y0160295D01*
X0178999Y0159913D01*
X0178319Y0159419D01*
X0177724Y0158824D01*
X0177230Y0158144D01*
X0176848Y0157394D01*
X0176588Y0156595D01*
X0176457Y0155764D01*
X0176457Y0152181D01*
X0176457Y0153863D02*
X0169200Y0153863D01*
X0169200Y0155462D02*
X0176457Y0155462D01*
X0176740Y0157060D02*
X0169200Y0157060D01*
X0169200Y0158659D02*
X0177604Y0158659D01*
X0179674Y0160257D02*
X0169200Y0160257D01*
X0169200Y0161856D02*
X0253850Y0161856D01*
X0253850Y0162387D02*
X0253850Y0161213D01*
X0254299Y0160129D01*
X0254426Y0160002D01*
X0253851Y0160295D01*
X0253051Y0160555D01*
X0252221Y0160687D01*
X0252181Y0160687D01*
X0252181Y0152181D01*
X0257143Y0152181D01*
X0257143Y0155764D01*
X0257012Y0156595D01*
X0256752Y0157394D01*
X0256370Y0158144D01*
X0255876Y0158824D01*
X0255593Y0159107D01*
X0256213Y0158850D01*
X0257387Y0158850D01*
X0258471Y0159299D01*
X0259301Y0160129D01*
X0259750Y0161213D01*
X0259750Y0162387D01*
X0259301Y0163471D01*
X0259200Y0163572D01*
X0259200Y0170806D01*
X0267794Y0179400D01*
X0280806Y0179400D01*
X0283850Y0176356D01*
X0283850Y0176213D01*
X0284299Y0175129D01*
X0285129Y0174299D01*
X0286213Y0173850D01*
X0287387Y0173850D01*
X0288471Y0174299D01*
X0289301Y0175129D01*
X0289750Y0176213D01*
X0289750Y0177387D01*
X0289301Y0178471D01*
X0288471Y0179301D01*
X0287387Y0179750D01*
X0287244Y0179750D01*
X0283159Y0183835D01*
X0282277Y0184200D01*
X0266323Y0184200D01*
X0265441Y0183835D01*
X0264765Y0183159D01*
X0255441Y0173835D01*
X0254765Y0173159D01*
X0254400Y0172277D01*
X0254400Y0163572D01*
X0254299Y0163471D01*
X0253850Y0162387D01*
X0254292Y0163454D02*
X0248646Y0163454D01*
X0246800Y0161800D02*
X0221800Y0161800D01*
X0220223Y0160257D02*
X0213377Y0160257D01*
X0215758Y0158659D02*
X0217842Y0158659D01*
X0216944Y0157060D02*
X0216656Y0157060D01*
X0223377Y0160257D02*
X0230223Y0160257D01*
X0227842Y0158659D02*
X0225758Y0158659D01*
X0226656Y0157060D02*
X0226944Y0157060D01*
X0233377Y0160257D02*
X0240223Y0160257D01*
X0237842Y0158659D02*
X0235758Y0158659D01*
X0236656Y0157060D02*
X0236944Y0157060D01*
X0243377Y0160257D02*
X0249674Y0160257D01*
X0251419Y0160257D02*
X0252181Y0160257D01*
X0252181Y0158659D02*
X0251419Y0158659D01*
X0251419Y0157060D02*
X0252181Y0157060D01*
X0252181Y0155462D02*
X0251419Y0155462D01*
X0251419Y0153863D02*
X0252181Y0153863D01*
X0252181Y0152265D02*
X0251419Y0152265D01*
X0252181Y0151419D02*
X0257143Y0151419D01*
X0257143Y0147836D01*
X0257012Y0147005D01*
X0256752Y0146206D01*
X0256370Y0145456D01*
X0255876Y0144776D01*
X0255281Y0144181D01*
X0254600Y0143687D01*
X0253851Y0143305D01*
X0253051Y0143045D01*
X0252221Y0142913D01*
X0252181Y0142913D01*
X0252181Y0151419D01*
X0252181Y0150666D02*
X0251419Y0150666D01*
X0251419Y0149068D02*
X0252181Y0149068D01*
X0252181Y0147469D02*
X0251419Y0147469D01*
X0251419Y0145870D02*
X0252181Y0145870D01*
X0252181Y0144272D02*
X0251419Y0144272D01*
X0248228Y0144272D02*
X0245089Y0144272D01*
X0246379Y0145870D02*
X0247019Y0145870D01*
X0238511Y0144272D02*
X0235089Y0144272D01*
X0234631Y0142673D02*
X0261401Y0142673D01*
X0263000Y0141075D02*
X0235919Y0141075D01*
X0237518Y0139476D02*
X0264598Y0139476D01*
X0259803Y0144272D02*
X0255372Y0144272D01*
X0256581Y0145870D02*
X0258721Y0145870D01*
X0258613Y0147469D02*
X0257085Y0147469D01*
X0257143Y0149068D02*
X0259542Y0149068D01*
X0257143Y0150666D02*
X0301141Y0150666D01*
X0302739Y0152265D02*
X0257143Y0152265D01*
X0258050Y0151800D02*
X0266800Y0151800D01*
X0271800Y0156800D01*
X0281800Y0156800D01*
X0279861Y0158930D02*
X0277977Y0158150D01*
X0275938Y0158150D01*
X0274054Y0158930D01*
X0272613Y0160372D01*
X0271832Y0162256D01*
X0271832Y0171344D01*
X0272613Y0173228D01*
X0274054Y0174670D01*
X0275938Y0175450D01*
X0277977Y0175450D01*
X0279861Y0174670D01*
X0281302Y0173228D01*
X0282082Y0171344D01*
X0282082Y0162256D01*
X0281302Y0160372D01*
X0279861Y0158930D01*
X0279205Y0158659D02*
X0294395Y0158659D01*
X0293739Y0158930D02*
X0295623Y0158150D01*
X0297662Y0158150D01*
X0299546Y0158930D01*
X0300987Y0160372D01*
X0301768Y0162256D01*
X0301768Y0171344D01*
X0300987Y0173228D01*
X0299546Y0174670D01*
X0297662Y0175450D01*
X0295623Y0175450D01*
X0293739Y0174670D01*
X0292298Y0173228D01*
X0291518Y0171344D01*
X0291518Y0162256D01*
X0292298Y0160372D01*
X0293739Y0158930D01*
X0292413Y0160257D02*
X0281187Y0160257D01*
X0281917Y0161856D02*
X0291683Y0161856D01*
X0291518Y0163454D02*
X0282082Y0163454D01*
X0282082Y0165053D02*
X0291518Y0165053D01*
X0291518Y0166651D02*
X0282082Y0166651D01*
X0282082Y0168250D02*
X0291518Y0168250D01*
X0291518Y0169848D02*
X0282082Y0169848D01*
X0282040Y0171447D02*
X0291560Y0171447D01*
X0292222Y0173045D02*
X0281378Y0173045D01*
X0279887Y0174644D02*
X0284784Y0174644D01*
X0283850Y0176242D02*
X0264636Y0176242D01*
X0263038Y0174644D02*
X0274028Y0174644D01*
X0272537Y0173045D02*
X0261439Y0173045D01*
X0259841Y0171447D02*
X0271875Y0171447D01*
X0271832Y0169848D02*
X0259200Y0169848D01*
X0259200Y0168250D02*
X0271832Y0168250D01*
X0271832Y0166651D02*
X0259200Y0166651D01*
X0259200Y0165053D02*
X0271832Y0165053D01*
X0271832Y0163454D02*
X0259308Y0163454D01*
X0259750Y0161856D02*
X0271998Y0161856D01*
X0272728Y0160257D02*
X0259354Y0160257D01*
X0256800Y0161800D02*
X0256800Y0171800D01*
X0266800Y0181800D01*
X0281800Y0181800D01*
X0286800Y0176800D01*
X0289562Y0177841D02*
X0329688Y0177841D01*
X0329761Y0178160D02*
X0329504Y0177032D01*
X0329399Y0176104D01*
X0338874Y0176104D01*
X0338874Y0185579D01*
X0337946Y0185474D01*
X0336818Y0185217D01*
X0335726Y0184835D01*
X0334684Y0184333D01*
X0333704Y0183717D01*
X0332800Y0182996D01*
X0331982Y0182178D01*
X0331260Y0181274D01*
X0330645Y0180294D01*
X0330143Y0179252D01*
X0329761Y0178160D01*
X0330233Y0179439D02*
X0288137Y0179439D01*
X0285956Y0181038D02*
X0331112Y0181038D01*
X0332440Y0182636D02*
X0284358Y0182636D01*
X0282365Y0177841D02*
X0266235Y0177841D01*
X0261045Y0179439D02*
X0249978Y0179439D01*
X0251333Y0177841D02*
X0259447Y0177841D01*
X0257848Y0176242D02*
X0251943Y0176242D01*
X0251943Y0174644D02*
X0256250Y0174644D01*
X0254718Y0173045D02*
X0251943Y0173045D01*
X0251943Y0171447D02*
X0254400Y0171447D01*
X0254400Y0169848D02*
X0251943Y0169848D01*
X0251943Y0168250D02*
X0254400Y0168250D01*
X0254400Y0166651D02*
X0251702Y0166651D01*
X0250870Y0165053D02*
X0254400Y0165053D01*
X0244954Y0163454D02*
X0238646Y0163454D01*
X0240870Y0165053D02*
X0242730Y0165053D01*
X0241898Y0166651D02*
X0241702Y0166651D01*
X0234954Y0163454D02*
X0228646Y0163454D01*
X0230870Y0165053D02*
X0232730Y0165053D01*
X0231898Y0166651D02*
X0231702Y0166651D01*
X0224954Y0163454D02*
X0219144Y0163454D01*
X0217181Y0163454D02*
X0216419Y0163454D01*
X0216419Y0165053D02*
X0217181Y0165053D01*
X0217181Y0166651D02*
X0216419Y0166651D01*
X0216419Y0168250D02*
X0217181Y0168250D01*
X0217181Y0169848D02*
X0216419Y0169848D01*
X0216419Y0173045D02*
X0217181Y0173045D01*
X0217181Y0174644D02*
X0216419Y0174644D01*
X0216419Y0176242D02*
X0217181Y0176242D01*
X0217181Y0177841D02*
X0216419Y0177841D01*
X0216419Y0179439D02*
X0217181Y0179439D01*
X0220253Y0179439D02*
X0223622Y0179439D01*
X0222267Y0177841D02*
X0221524Y0177841D01*
X0213347Y0179439D02*
X0209978Y0179439D01*
X0211333Y0177841D02*
X0212076Y0177841D01*
X0206800Y0176800D02*
X0206800Y0171800D01*
X0206800Y0176800D02*
X0201800Y0181800D01*
X0176800Y0181800D01*
X0166800Y0171800D01*
X0166800Y0146800D01*
X0181800Y0131800D01*
X0236800Y0131800D01*
X0241800Y0126800D01*
X0301800Y0126800D01*
X0306800Y0121800D01*
X0306800Y0116800D01*
X0309454Y0115499D02*
X0333600Y0115499D01*
X0333600Y0117097D02*
X0309750Y0117097D01*
X0309200Y0118696D02*
X0333600Y0118696D01*
X0333600Y0120294D02*
X0309200Y0120294D01*
X0309200Y0121893D02*
X0333600Y0121893D01*
X0333600Y0123491D02*
X0308503Y0123491D01*
X0306904Y0125090D02*
X0333600Y0125090D01*
X0333600Y0126688D02*
X0305306Y0126688D01*
X0303707Y0128287D02*
X0333600Y0128287D01*
X0333600Y0129885D02*
X0283279Y0129885D01*
X0284878Y0131484D02*
X0333600Y0131484D01*
X0333868Y0133082D02*
X0286477Y0133082D01*
X0286800Y0136800D02*
X0351800Y0136800D01*
X0361800Y0126800D01*
X0361800Y0116800D01*
X0364454Y0115499D02*
X0369921Y0115499D01*
X0369921Y0117097D02*
X0364750Y0117097D01*
X0364200Y0118696D02*
X0369921Y0118696D01*
X0369921Y0120294D02*
X0364200Y0120294D01*
X0364200Y0121893D02*
X0369921Y0121893D01*
X0369921Y0123491D02*
X0364200Y0123491D01*
X0364200Y0125090D02*
X0369921Y0125090D01*
X0369921Y0126688D02*
X0364200Y0126688D01*
X0363707Y0128287D02*
X0369921Y0128287D01*
X0369921Y0129885D02*
X0362109Y0129885D01*
X0360510Y0131484D02*
X0369921Y0131484D01*
X0369921Y0133082D02*
X0358912Y0133082D01*
X0357313Y0134681D02*
X0369921Y0134681D01*
X0369921Y0136279D02*
X0355715Y0136279D01*
X0354116Y0137878D02*
X0369921Y0137878D01*
X0369921Y0139476D02*
X0299002Y0139476D01*
X0300600Y0141075D02*
X0369921Y0141075D01*
X0369921Y0142673D02*
X0302199Y0142673D01*
X0303797Y0144272D02*
X0369921Y0144272D01*
X0369921Y0145870D02*
X0305396Y0145870D01*
X0306994Y0147469D02*
X0323825Y0147469D01*
X0323965Y0147388D02*
X0326533Y0146700D01*
X0329193Y0146700D01*
X0331761Y0147388D01*
X0334065Y0148718D01*
X0335945Y0150598D01*
X0337275Y0152902D01*
X0337963Y0155470D01*
X0337963Y0158130D01*
X0337275Y0160698D01*
X0335945Y0163002D01*
X0334065Y0164882D01*
X0331761Y0166212D01*
X0329193Y0166900D01*
X0326533Y0166900D01*
X0323965Y0166212D01*
X0321661Y0164882D01*
X0319781Y0163002D01*
X0318451Y0160698D01*
X0317763Y0158130D01*
X0317763Y0155470D01*
X0318451Y0152902D01*
X0319781Y0150598D01*
X0321661Y0148718D01*
X0323965Y0147388D01*
X0321312Y0149068D02*
X0308593Y0149068D01*
X0310191Y0150666D02*
X0319742Y0150666D01*
X0318819Y0152265D02*
X0311790Y0152265D01*
X0313389Y0153863D02*
X0318194Y0153863D01*
X0317765Y0155462D02*
X0314709Y0155462D01*
X0315000Y0157060D02*
X0317763Y0157060D01*
X0317905Y0158659D02*
X0314467Y0158659D01*
X0318333Y0160257D02*
X0300872Y0160257D01*
X0301602Y0161856D02*
X0319119Y0161856D01*
X0320234Y0163454D02*
X0301768Y0163454D01*
X0301768Y0165053D02*
X0321957Y0165053D01*
X0325605Y0166651D02*
X0301768Y0166651D01*
X0301768Y0168250D02*
X0332162Y0168250D01*
X0331982Y0168430D02*
X0332800Y0167612D01*
X0333704Y0166890D01*
X0334684Y0166275D01*
X0335726Y0165773D01*
X0336818Y0165391D01*
X0337946Y0165133D01*
X0338874Y0165029D01*
X0338874Y0174504D01*
X0329399Y0174504D01*
X0329504Y0173576D01*
X0329761Y0172448D01*
X0330143Y0171356D01*
X0330645Y0170314D01*
X0331260Y0169334D01*
X0331982Y0168430D01*
X0330938Y0169848D02*
X0301768Y0169848D01*
X0301725Y0171447D02*
X0330111Y0171447D01*
X0329625Y0173045D02*
X0301063Y0173045D01*
X0299572Y0174644D02*
X0338874Y0174644D01*
X0338874Y0174504D02*
X0338874Y0176104D01*
X0340474Y0176104D01*
X0340474Y0185579D01*
X0341402Y0185474D01*
X0342530Y0185217D01*
X0343622Y0184835D01*
X0344664Y0184333D01*
X0345644Y0183717D01*
X0346548Y0182996D01*
X0347366Y0182178D01*
X0348088Y0181274D01*
X0348703Y0180294D01*
X0349205Y0179252D01*
X0349587Y0178160D01*
X0349844Y0177032D01*
X0349949Y0176104D01*
X0340474Y0176104D01*
X0340474Y0174504D01*
X0349949Y0174504D01*
X0349844Y0173576D01*
X0349587Y0172448D01*
X0349205Y0171356D01*
X0348703Y0170314D01*
X0348088Y0169334D01*
X0347366Y0168430D01*
X0346548Y0167612D01*
X0345644Y0166890D01*
X0344664Y0166275D01*
X0343622Y0165773D01*
X0342530Y0165391D01*
X0341402Y0165133D01*
X0340474Y0165029D01*
X0340474Y0174504D01*
X0338874Y0174504D01*
X0338874Y0173045D02*
X0340474Y0173045D01*
X0340474Y0171447D02*
X0338874Y0171447D01*
X0338874Y0169848D02*
X0340474Y0169848D01*
X0340474Y0168250D02*
X0338874Y0168250D01*
X0338874Y0166651D02*
X0340474Y0166651D01*
X0340474Y0165053D02*
X0338874Y0165053D01*
X0338663Y0165053D02*
X0333769Y0165053D01*
X0334085Y0166651D02*
X0330121Y0166651D01*
X0335492Y0163454D02*
X0343617Y0163454D01*
X0343793Y0163674D02*
X0343072Y0162770D01*
X0342456Y0161790D01*
X0341954Y0160748D01*
X0341572Y0159656D01*
X0341315Y0158528D01*
X0341210Y0157600D01*
X0350685Y0157600D01*
X0350685Y0156000D01*
X0341210Y0156000D01*
X0341315Y0155072D01*
X0341572Y0153944D01*
X0341954Y0152852D01*
X0342456Y0151810D01*
X0343072Y0150830D01*
X0343793Y0149926D01*
X0344611Y0149108D01*
X0345515Y0148386D01*
X0346495Y0147771D01*
X0347537Y0147269D01*
X0348629Y0146887D01*
X0349757Y0146630D01*
X0350685Y0146525D01*
X0350685Y0156000D01*
X0352285Y0156000D01*
X0352285Y0146525D01*
X0353213Y0146630D01*
X0354341Y0146887D01*
X0355433Y0147269D01*
X0356475Y0147771D01*
X0357455Y0148386D01*
X0358359Y0149108D01*
X0359177Y0149926D01*
X0359899Y0150830D01*
X0360514Y0151810D01*
X0361016Y0152852D01*
X0361398Y0153944D01*
X0361655Y0155072D01*
X0361760Y0156000D01*
X0352285Y0156000D01*
X0352285Y0157600D01*
X0350685Y0157600D01*
X0350685Y0167075D01*
X0349757Y0166970D01*
X0348629Y0166713D01*
X0347537Y0166331D01*
X0346495Y0165829D01*
X0345515Y0165214D01*
X0344611Y0164492D01*
X0343793Y0163674D01*
X0345314Y0165053D02*
X0340685Y0165053D01*
X0345263Y0166651D02*
X0348452Y0166651D01*
X0347186Y0168250D02*
X0369921Y0168250D01*
X0369921Y0169848D02*
X0348410Y0169848D01*
X0349237Y0171447D02*
X0369921Y0171447D01*
X0369921Y0173045D02*
X0349723Y0173045D01*
X0349933Y0176242D02*
X0369921Y0176242D01*
X0369921Y0174644D02*
X0340474Y0174644D01*
X0340474Y0176242D02*
X0338874Y0176242D01*
X0338874Y0177841D02*
X0340474Y0177841D01*
X0340474Y0179439D02*
X0338874Y0179439D01*
X0338874Y0181038D02*
X0340474Y0181038D01*
X0340474Y0182636D02*
X0338874Y0182636D01*
X0338874Y0184235D02*
X0340474Y0184235D01*
X0344820Y0184235D02*
X0369921Y0184235D01*
X0369921Y0185833D02*
X0369160Y0185833D01*
X0369298Y0187432D02*
X0369921Y0187432D01*
X0364302Y0187432D02*
X0014298Y0187432D01*
X0014160Y0185833D02*
X0364440Y0185833D01*
X0369921Y0182636D02*
X0346908Y0182636D01*
X0348236Y0181038D02*
X0369921Y0181038D01*
X0369921Y0179439D02*
X0349115Y0179439D01*
X0349660Y0177841D02*
X0369921Y0177841D01*
X0354341Y0166713D02*
X0353213Y0166970D01*
X0352285Y0167075D01*
X0352285Y0157600D01*
X0361760Y0157600D01*
X0361655Y0158528D01*
X0361398Y0159656D01*
X0361016Y0160748D01*
X0360514Y0161790D01*
X0359899Y0162770D01*
X0359177Y0163674D01*
X0358359Y0164492D01*
X0357455Y0165214D01*
X0356475Y0165829D01*
X0355433Y0166331D01*
X0354341Y0166713D01*
X0354518Y0166651D02*
X0369921Y0166651D01*
X0369921Y0165053D02*
X0357656Y0165053D01*
X0359353Y0163454D02*
X0369921Y0163454D01*
X0369921Y0161856D02*
X0360473Y0161856D01*
X0361188Y0160257D02*
X0369921Y0160257D01*
X0369921Y0158659D02*
X0361626Y0158659D01*
X0361699Y0155462D02*
X0369921Y0155462D01*
X0369921Y0157060D02*
X0352285Y0157060D01*
X0352285Y0155462D02*
X0350685Y0155462D01*
X0350685Y0157060D02*
X0337963Y0157060D01*
X0337961Y0155462D02*
X0341271Y0155462D01*
X0341600Y0153863D02*
X0337532Y0153863D01*
X0336907Y0152265D02*
X0342237Y0152265D01*
X0343203Y0150666D02*
X0335984Y0150666D01*
X0334414Y0149068D02*
X0344661Y0149068D01*
X0347122Y0147469D02*
X0331901Y0147469D01*
X0337821Y0158659D02*
X0341344Y0158659D01*
X0341782Y0160257D02*
X0337393Y0160257D01*
X0336607Y0161856D02*
X0342497Y0161856D01*
X0350685Y0161856D02*
X0352285Y0161856D01*
X0352285Y0163454D02*
X0350685Y0163454D01*
X0350685Y0165053D02*
X0352285Y0165053D01*
X0352285Y0166651D02*
X0350685Y0166651D01*
X0350685Y0160257D02*
X0352285Y0160257D01*
X0352285Y0158659D02*
X0350685Y0158659D01*
X0350685Y0153863D02*
X0352285Y0153863D01*
X0352285Y0152265D02*
X0350685Y0152265D01*
X0350685Y0150666D02*
X0352285Y0150666D01*
X0352285Y0149068D02*
X0350685Y0149068D01*
X0350685Y0147469D02*
X0352285Y0147469D01*
X0355848Y0147469D02*
X0369921Y0147469D01*
X0369921Y0149068D02*
X0358309Y0149068D01*
X0359768Y0150666D02*
X0369921Y0150666D01*
X0369921Y0152265D02*
X0360733Y0152265D01*
X0361370Y0153863D02*
X0369921Y0153863D01*
X0352123Y0133082D02*
X0339732Y0133082D01*
X0340000Y0131484D02*
X0353722Y0131484D01*
X0355321Y0129885D02*
X0340000Y0129885D01*
X0340000Y0128287D02*
X0356919Y0128287D01*
X0358518Y0126688D02*
X0340000Y0126688D01*
X0340000Y0125090D02*
X0359400Y0125090D01*
X0359400Y0123491D02*
X0340000Y0123491D01*
X0340000Y0121893D02*
X0359400Y0121893D01*
X0359400Y0120294D02*
X0340000Y0120294D01*
X0340000Y0118696D02*
X0359400Y0118696D01*
X0358850Y0117097D02*
X0340000Y0117097D01*
X0340000Y0115499D02*
X0359146Y0115499D01*
X0361092Y0113900D02*
X0340000Y0113900D01*
X0340000Y0112302D02*
X0369921Y0112302D01*
X0369921Y0113900D02*
X0362508Y0113900D01*
X0369921Y0110703D02*
X0340000Y0110703D01*
X0340000Y0109105D02*
X0369921Y0109105D01*
X0369921Y0107506D02*
X0340000Y0107506D01*
X0340000Y0105908D02*
X0369921Y0105908D01*
X0369921Y0104309D02*
X0340000Y0104309D01*
X0340000Y0102711D02*
X0369921Y0102711D01*
X0369921Y0101112D02*
X0340000Y0101112D01*
X0340000Y0099514D02*
X0369921Y0099514D01*
X0369921Y0097915D02*
X0340000Y0097915D01*
X0340000Y0096317D02*
X0369921Y0096317D01*
X0369921Y0094718D02*
X0340000Y0094718D01*
X0340000Y0093120D02*
X0369921Y0093120D01*
X0369921Y0091521D02*
X0340000Y0091521D01*
X0340000Y0089923D02*
X0369921Y0089923D01*
X0369921Y0088324D02*
X0340000Y0088324D01*
X0340000Y0086726D02*
X0369921Y0086726D01*
X0369921Y0085127D02*
X0339571Y0085127D01*
X0334029Y0085127D02*
X0279600Y0085127D01*
X0279600Y0083529D02*
X0369921Y0083529D01*
X0369921Y0081930D02*
X0279600Y0081930D01*
X0279609Y0080332D02*
X0369921Y0080332D01*
X0369921Y0078733D02*
X0279609Y0078733D01*
X0280425Y0077134D02*
X0369921Y0077134D01*
X0369921Y0075536D02*
X0282024Y0075536D01*
X0283622Y0073937D02*
X0369921Y0073937D01*
X0369921Y0072339D02*
X0285221Y0072339D01*
X0286819Y0070740D02*
X0369921Y0070740D01*
X0369921Y0069142D02*
X0288418Y0069142D01*
X0290016Y0067543D02*
X0369921Y0067543D01*
X0369921Y0065945D02*
X0291615Y0065945D01*
X0293361Y0064346D02*
X0369921Y0064346D01*
X0369921Y0062748D02*
X0294600Y0062748D01*
X0299946Y0061149D02*
X0303654Y0061149D01*
X0302203Y0059551D02*
X0301397Y0059551D01*
X0301690Y0054755D02*
X0301910Y0054755D01*
X0302948Y0053157D02*
X0300652Y0053157D01*
X0297995Y0051558D02*
X0305605Y0051558D01*
X0307995Y0051558D02*
X0369921Y0051558D01*
X0369921Y0049960D02*
X0287034Y0049960D01*
X0287000Y0051558D02*
X0286600Y0051558D01*
X0286600Y0053157D02*
X0287000Y0053157D01*
X0287000Y0054755D02*
X0286600Y0054755D01*
X0286600Y0056354D02*
X0287000Y0056354D01*
X0287000Y0057952D02*
X0286600Y0057952D01*
X0286600Y0059551D02*
X0287000Y0059551D01*
X0287000Y0061149D02*
X0286600Y0061149D01*
X0286892Y0062748D02*
X0269246Y0062748D01*
X0269200Y0064346D02*
X0285294Y0064346D01*
X0283695Y0065945D02*
X0269200Y0065945D01*
X0269200Y0067543D02*
X0282097Y0067543D01*
X0280498Y0069142D02*
X0269200Y0069142D01*
X0268920Y0070740D02*
X0278900Y0070740D01*
X0277301Y0072339D02*
X0267443Y0072339D01*
X0265844Y0073937D02*
X0275703Y0073937D01*
X0274293Y0075536D02*
X0264246Y0075536D01*
X0262647Y0077134D02*
X0274000Y0077134D01*
X0274000Y0078733D02*
X0261049Y0078733D01*
X0264385Y0080332D02*
X0274009Y0080332D01*
X0274000Y0081930D02*
X0264750Y0081930D01*
X0264243Y0083529D02*
X0274000Y0083529D01*
X0274000Y0085127D02*
X0261867Y0085127D01*
X0260269Y0086726D02*
X0274000Y0086726D01*
X0274401Y0088324D02*
X0258670Y0088324D01*
X0257072Y0089923D02*
X0275963Y0089923D01*
X0277561Y0091521D02*
X0255473Y0091521D01*
X0254446Y0093120D02*
X0279154Y0093120D01*
X0281136Y0094718D02*
X0252464Y0094718D01*
X0251136Y0094718D02*
X0162276Y0094718D01*
X0163851Y0093120D02*
X0249154Y0093120D01*
X0248850Y0091521D02*
X0164200Y0091521D01*
X0164200Y0089923D02*
X0249505Y0089923D01*
X0251458Y0088324D02*
X0251882Y0088324D01*
X0253056Y0086726D02*
X0253480Y0086726D01*
X0254655Y0085127D02*
X0255079Y0085127D01*
X0256253Y0083529D02*
X0256677Y0083529D01*
X0257852Y0081930D02*
X0258276Y0081930D01*
X0261800Y0081800D02*
X0251800Y0091800D01*
X0256800Y0096133D02*
X0271800Y0081133D01*
X0280685Y0086726D02*
X0333600Y0086726D01*
X0333600Y0088324D02*
X0282284Y0088324D01*
X0284095Y0089923D02*
X0333600Y0089923D01*
X0333600Y0091521D02*
X0284750Y0091521D01*
X0284446Y0093120D02*
X0333600Y0093120D01*
X0333600Y0094718D02*
X0282464Y0094718D01*
X0256800Y0096133D02*
X0256800Y0096800D01*
X0249587Y0086800D02*
X0249526Y0086739D01*
X0166825Y0086739D01*
X0164289Y0088324D02*
X0164200Y0088324D01*
X0161800Y0086800D02*
X0166800Y0081800D01*
X0241948Y0081800D01*
X0256800Y0066948D01*
X0256800Y0066800D01*
X0262714Y0061800D02*
X0285603Y0038911D01*
X0301548Y0038911D01*
X0313659Y0026800D01*
X0318735Y0029179D02*
X0323763Y0029179D01*
X0324091Y0029972D02*
X0323239Y0027914D01*
X0323239Y0025686D01*
X0324091Y0023628D01*
X0325666Y0022053D01*
X0327725Y0021200D01*
X0329952Y0021200D01*
X0332011Y0022053D01*
X0333586Y0023628D01*
X0334439Y0025686D01*
X0334439Y0027914D01*
X0333586Y0029972D01*
X0332011Y0031547D01*
X0329952Y0032400D01*
X0327725Y0032400D01*
X0325666Y0031547D01*
X0324091Y0029972D01*
X0324897Y0030778D02*
X0317601Y0030778D01*
X0314830Y0032376D02*
X0327667Y0032376D01*
X0330010Y0032376D02*
X0369921Y0032376D01*
X0369921Y0030778D02*
X0332780Y0030778D01*
X0333914Y0029179D02*
X0369921Y0029179D01*
X0369921Y0027581D02*
X0334439Y0027581D01*
X0334439Y0025982D02*
X0369921Y0025982D01*
X0369921Y0024384D02*
X0333899Y0024384D01*
X0332743Y0022785D02*
X0369921Y0022785D01*
X0369921Y0021187D02*
X0290906Y0021187D01*
X0290795Y0021123D02*
X0291205Y0021360D01*
X0291540Y0021695D01*
X0291777Y0022105D01*
X0291900Y0022563D01*
X0291900Y0026419D01*
X0286481Y0026419D01*
X0286481Y0027181D01*
X0291900Y0027181D01*
X0291900Y0031037D01*
X0291777Y0031495D01*
X0291540Y0031905D01*
X0291205Y0032240D01*
X0290795Y0032477D01*
X0290337Y0032600D01*
X0286481Y0032600D01*
X0286481Y0027181D01*
X0285719Y0027181D01*
X0285719Y0026419D01*
X0286481Y0026419D01*
X0286481Y0021000D01*
X0290337Y0021000D01*
X0290795Y0021123D01*
X0291900Y0022785D02*
X0297375Y0022785D01*
X0298107Y0022053D02*
X0296532Y0023628D01*
X0295680Y0025686D01*
X0295680Y0027914D01*
X0296532Y0029972D01*
X0298107Y0031547D01*
X0300166Y0032400D01*
X0302393Y0032400D01*
X0304452Y0031547D01*
X0306027Y0029972D01*
X0306880Y0027914D01*
X0306880Y0025686D01*
X0306027Y0023628D01*
X0304452Y0022053D01*
X0302393Y0021200D01*
X0300166Y0021200D01*
X0298107Y0022053D01*
X0296219Y0024384D02*
X0291900Y0024384D01*
X0291900Y0025982D02*
X0295680Y0025982D01*
X0295680Y0027581D02*
X0291900Y0027581D01*
X0291900Y0029179D02*
X0296204Y0029179D01*
X0297338Y0030778D02*
X0291900Y0030778D01*
X0290970Y0032376D02*
X0300108Y0032376D01*
X0302451Y0032376D02*
X0304689Y0032376D01*
X0305221Y0030778D02*
X0306287Y0030778D01*
X0306355Y0029179D02*
X0307886Y0029179D01*
X0308059Y0027581D02*
X0306880Y0027581D01*
X0306880Y0025982D02*
X0308059Y0025982D01*
X0308599Y0024384D02*
X0306340Y0024384D01*
X0305184Y0022785D02*
X0309754Y0022785D01*
X0317564Y0022785D02*
X0324934Y0022785D01*
X0323778Y0024384D02*
X0318720Y0024384D01*
X0319259Y0025982D02*
X0323239Y0025982D01*
X0323239Y0027581D02*
X0319259Y0027581D01*
X0312488Y0032376D02*
X0311477Y0032376D01*
X0309878Y0033975D02*
X0345912Y0033975D01*
X0347688Y0033975D02*
X0369921Y0033975D01*
X0369921Y0035573D02*
X0349485Y0035573D01*
X0349750Y0037172D02*
X0369921Y0037172D01*
X0369921Y0038770D02*
X0349002Y0038770D01*
X0346625Y0040369D02*
X0369921Y0040369D01*
X0369921Y0041967D02*
X0345027Y0041967D01*
X0343428Y0043566D02*
X0369921Y0043566D01*
X0369921Y0045164D02*
X0341830Y0045164D01*
X0340231Y0046763D02*
X0369921Y0046763D01*
X0369921Y0048361D02*
X0338633Y0048361D01*
X0336800Y0046800D02*
X0346800Y0036800D01*
X0344115Y0035573D02*
X0308280Y0035573D01*
X0306681Y0037172D02*
X0343034Y0037172D01*
X0341436Y0038770D02*
X0305083Y0038770D01*
X0303484Y0040369D02*
X0339837Y0040369D01*
X0338239Y0041967D02*
X0285941Y0041967D01*
X0286825Y0041861D02*
X0306739Y0041861D01*
X0306800Y0041800D01*
X0301492Y0035573D02*
X0254485Y0035573D01*
X0254301Y0035129D02*
X0254750Y0036213D01*
X0254750Y0037387D01*
X0254301Y0038471D01*
X0253471Y0039301D01*
X0252387Y0039750D01*
X0251213Y0039750D01*
X0250129Y0039301D01*
X0250028Y0039200D01*
X0243572Y0039200D01*
X0243471Y0039301D01*
X0242387Y0039750D01*
X0241213Y0039750D01*
X0240129Y0039301D01*
X0239299Y0038471D01*
X0238850Y0037387D01*
X0238850Y0036213D01*
X0239299Y0035129D01*
X0240129Y0034299D01*
X0241213Y0033850D01*
X0242387Y0033850D01*
X0243471Y0034299D01*
X0243572Y0034400D01*
X0250028Y0034400D01*
X0250129Y0034299D01*
X0251213Y0033850D01*
X0252387Y0033850D01*
X0253471Y0034299D01*
X0254301Y0035129D01*
X0252688Y0033975D02*
X0303090Y0033975D01*
X0286481Y0032376D02*
X0285719Y0032376D01*
X0285719Y0032600D02*
X0281863Y0032600D01*
X0281405Y0032477D01*
X0280995Y0032240D01*
X0280660Y0031905D01*
X0280423Y0031495D01*
X0280300Y0031037D01*
X0280300Y0027181D01*
X0285719Y0027181D01*
X0285719Y0032600D01*
X0285719Y0030778D02*
X0286481Y0030778D01*
X0286481Y0029179D02*
X0285719Y0029179D01*
X0285719Y0027581D02*
X0286481Y0027581D01*
X0286100Y0026800D02*
X0276100Y0016800D01*
X0231100Y0016800D01*
X0221100Y0026800D01*
X0221481Y0027181D02*
X0226900Y0027181D01*
X0226900Y0031037D01*
X0226777Y0031495D01*
X0226540Y0031905D01*
X0226205Y0032240D01*
X0225795Y0032477D01*
X0225337Y0032600D01*
X0221481Y0032600D01*
X0221481Y0027181D01*
X0221481Y0026419D01*
X0226900Y0026419D01*
X0226900Y0022563D01*
X0226777Y0022105D01*
X0226540Y0021695D01*
X0226205Y0021360D01*
X0225795Y0021123D01*
X0225337Y0021000D01*
X0221481Y0021000D01*
X0221481Y0026419D01*
X0220719Y0026419D01*
X0220719Y0021000D01*
X0216863Y0021000D01*
X0216405Y0021123D01*
X0215995Y0021360D01*
X0215660Y0021695D01*
X0215423Y0022105D01*
X0215300Y0022563D01*
X0215300Y0026419D01*
X0220719Y0026419D01*
X0220719Y0027181D01*
X0215300Y0027181D01*
X0215300Y0031037D01*
X0215423Y0031495D01*
X0215660Y0031905D01*
X0215995Y0032240D01*
X0216405Y0032477D01*
X0216863Y0032600D01*
X0220719Y0032600D01*
X0220719Y0027181D01*
X0221481Y0027181D01*
X0221481Y0027581D02*
X0220719Y0027581D01*
X0220719Y0029179D02*
X0221481Y0029179D01*
X0221481Y0030778D02*
X0220719Y0030778D01*
X0220719Y0032376D02*
X0221481Y0032376D01*
X0225970Y0032376D02*
X0235108Y0032376D01*
X0235166Y0032400D02*
X0233107Y0031547D01*
X0231532Y0029972D01*
X0230680Y0027914D01*
X0230680Y0025686D01*
X0231532Y0023628D01*
X0233107Y0022053D01*
X0235166Y0021200D01*
X0237393Y0021200D01*
X0239452Y0022053D01*
X0241027Y0023628D01*
X0241880Y0025686D01*
X0241880Y0027914D01*
X0241027Y0029972D01*
X0239452Y0031547D01*
X0237393Y0032400D01*
X0235166Y0032400D01*
X0237451Y0032376D02*
X0247488Y0032376D01*
X0247545Y0032400D02*
X0245487Y0031547D01*
X0243912Y0029972D01*
X0243059Y0027914D01*
X0243059Y0025686D01*
X0243912Y0023628D01*
X0245487Y0022053D01*
X0247545Y0021200D01*
X0249773Y0021200D01*
X0251831Y0022053D01*
X0253406Y0023628D01*
X0254259Y0025686D01*
X0254259Y0027914D01*
X0253406Y0029972D01*
X0251831Y0031547D01*
X0249773Y0032400D01*
X0247545Y0032400D01*
X0249830Y0032376D02*
X0262667Y0032376D01*
X0262725Y0032400D02*
X0260666Y0031547D01*
X0259091Y0029972D01*
X0258239Y0027914D01*
X0258239Y0025686D01*
X0259091Y0023628D01*
X0260666Y0022053D01*
X0262725Y0021200D01*
X0264952Y0021200D01*
X0267011Y0022053D01*
X0268586Y0023628D01*
X0269439Y0025686D01*
X0269439Y0027914D01*
X0268586Y0029972D01*
X0267011Y0031547D01*
X0264952Y0032400D01*
X0262725Y0032400D01*
X0265010Y0032376D02*
X0281230Y0032376D01*
X0280300Y0030778D02*
X0267780Y0030778D01*
X0268914Y0029179D02*
X0280300Y0029179D01*
X0280300Y0027581D02*
X0269439Y0027581D01*
X0269439Y0025982D02*
X0280300Y0025982D01*
X0280300Y0026419D02*
X0280300Y0022563D01*
X0280423Y0022105D01*
X0280660Y0021695D01*
X0280995Y0021360D01*
X0281405Y0021123D01*
X0281863Y0021000D01*
X0285719Y0021000D01*
X0285719Y0026419D01*
X0280300Y0026419D01*
X0280300Y0024384D02*
X0268899Y0024384D01*
X0267743Y0022785D02*
X0280300Y0022785D01*
X0281294Y0021187D02*
X0225906Y0021187D01*
X0226900Y0022785D02*
X0232375Y0022785D01*
X0231219Y0024384D02*
X0226900Y0024384D01*
X0226900Y0025982D02*
X0230680Y0025982D01*
X0230680Y0027581D02*
X0226900Y0027581D01*
X0226900Y0029179D02*
X0231204Y0029179D01*
X0232338Y0030778D02*
X0226900Y0030778D01*
X0221481Y0025982D02*
X0220719Y0025982D01*
X0220719Y0024384D02*
X0221481Y0024384D01*
X0221481Y0022785D02*
X0220719Y0022785D01*
X0220719Y0021187D02*
X0221481Y0021187D01*
X0216294Y0021187D02*
X0160906Y0021187D01*
X0160795Y0021123D02*
X0161205Y0021360D01*
X0161540Y0021695D01*
X0161777Y0022105D01*
X0161900Y0022563D01*
X0161900Y0026419D01*
X0156481Y0026419D01*
X0156481Y0027181D01*
X0161900Y0027181D01*
X0161900Y0031037D01*
X0161777Y0031495D01*
X0161540Y0031905D01*
X0161205Y0032240D01*
X0160795Y0032477D01*
X0160337Y0032600D01*
X0156481Y0032600D01*
X0156481Y0027181D01*
X0155719Y0027181D01*
X0155719Y0026419D01*
X0156481Y0026419D01*
X0156481Y0021000D01*
X0160337Y0021000D01*
X0160795Y0021123D01*
X0161900Y0022785D02*
X0167375Y0022785D01*
X0168107Y0022053D02*
X0170166Y0021200D01*
X0172393Y0021200D01*
X0174452Y0022053D01*
X0176027Y0023628D01*
X0176880Y0025686D01*
X0176880Y0027914D01*
X0176027Y0029972D01*
X0174452Y0031547D01*
X0172393Y0032400D01*
X0170166Y0032400D01*
X0168107Y0031547D01*
X0166532Y0029972D01*
X0165680Y0027914D01*
X0165680Y0025686D01*
X0166532Y0023628D01*
X0168107Y0022053D01*
X0166219Y0024384D02*
X0161900Y0024384D01*
X0161900Y0025982D02*
X0165680Y0025982D01*
X0165680Y0027581D02*
X0161900Y0027581D01*
X0161900Y0029179D02*
X0166204Y0029179D01*
X0167338Y0030778D02*
X0161900Y0030778D01*
X0160970Y0032376D02*
X0170108Y0032376D01*
X0172451Y0032376D02*
X0182488Y0032376D01*
X0182545Y0032400D02*
X0180487Y0031547D01*
X0178912Y0029972D01*
X0178059Y0027914D01*
X0178059Y0025686D01*
X0178912Y0023628D01*
X0180487Y0022053D01*
X0182545Y0021200D01*
X0184773Y0021200D01*
X0186831Y0022053D01*
X0188406Y0023628D01*
X0189259Y0025686D01*
X0189259Y0027914D01*
X0188406Y0029972D01*
X0186831Y0031547D01*
X0184773Y0032400D01*
X0182545Y0032400D01*
X0184830Y0032376D02*
X0197667Y0032376D01*
X0197725Y0032400D02*
X0195666Y0031547D01*
X0194091Y0029972D01*
X0193239Y0027914D01*
X0193239Y0025686D01*
X0194091Y0023628D01*
X0195666Y0022053D01*
X0197725Y0021200D01*
X0199952Y0021200D01*
X0202011Y0022053D01*
X0203586Y0023628D01*
X0204439Y0025686D01*
X0204439Y0027914D01*
X0203586Y0029972D01*
X0202011Y0031547D01*
X0199952Y0032400D01*
X0197725Y0032400D01*
X0200010Y0032376D02*
X0216230Y0032376D01*
X0215300Y0030778D02*
X0202780Y0030778D01*
X0203914Y0029179D02*
X0215300Y0029179D01*
X0215300Y0027581D02*
X0204439Y0027581D01*
X0204439Y0025982D02*
X0215300Y0025982D01*
X0215300Y0024384D02*
X0203899Y0024384D01*
X0202743Y0022785D02*
X0215300Y0022785D01*
X0194934Y0022785D02*
X0187564Y0022785D01*
X0188720Y0024384D02*
X0193778Y0024384D01*
X0193239Y0025982D02*
X0189259Y0025982D01*
X0189259Y0027581D02*
X0193239Y0027581D01*
X0193763Y0029179D02*
X0188735Y0029179D01*
X0187601Y0030778D02*
X0194897Y0030778D01*
X0200129Y0039299D02*
X0201213Y0038850D01*
X0202387Y0038850D01*
X0203471Y0039299D01*
X0204301Y0040129D01*
X0204750Y0041213D01*
X0204750Y0042387D01*
X0204301Y0043471D01*
X0203472Y0044300D01*
X0204301Y0045129D01*
X0204750Y0046213D01*
X0204750Y0047387D01*
X0204301Y0048471D01*
X0203471Y0049301D01*
X0203232Y0049400D01*
X0260806Y0049400D01*
X0263850Y0046356D01*
X0263850Y0046213D01*
X0264299Y0045129D01*
X0265129Y0044299D01*
X0266213Y0043850D01*
X0267387Y0043850D01*
X0268471Y0044299D01*
X0269301Y0045129D01*
X0269750Y0046213D01*
X0269750Y0047387D01*
X0269301Y0048471D01*
X0268471Y0049301D01*
X0267387Y0049750D01*
X0267244Y0049750D01*
X0263159Y0053835D01*
X0262277Y0054200D01*
X0168572Y0054200D01*
X0168471Y0054301D01*
X0167387Y0054750D01*
X0166213Y0054750D01*
X0165129Y0054301D01*
X0164299Y0053471D01*
X0163850Y0052387D01*
X0163850Y0051933D01*
X0163474Y0052089D01*
X0149905Y0052089D01*
X0133159Y0068835D01*
X0132277Y0069200D01*
X0122794Y0069200D01*
X0119200Y0072794D01*
X0119200Y0085028D01*
X0119301Y0085129D01*
X0119750Y0086213D01*
X0119750Y0087387D01*
X0119301Y0088471D01*
X0118471Y0089301D01*
X0117387Y0089750D01*
X0116213Y0089750D01*
X0115129Y0089301D01*
X0114299Y0088471D01*
X0113850Y0087387D01*
X0113850Y0086213D01*
X0114299Y0085129D01*
X0114400Y0085028D01*
X0114400Y0071323D01*
X0114765Y0070441D01*
X0115441Y0069765D01*
X0120441Y0064765D01*
X0121323Y0064400D01*
X0130806Y0064400D01*
X0147552Y0047654D01*
X0148434Y0047289D01*
X0162003Y0047289D01*
X0163851Y0045441D01*
X0164526Y0044765D01*
X0165408Y0044400D01*
X0179878Y0044400D01*
X0179299Y0043821D01*
X0178850Y0042737D01*
X0178850Y0041563D01*
X0179299Y0040479D01*
X0180129Y0039649D01*
X0181213Y0039200D01*
X0182387Y0039200D01*
X0183471Y0039649D01*
X0183572Y0039750D01*
X0199678Y0039750D01*
X0200129Y0039299D01*
X0204400Y0040369D02*
X0280752Y0040369D01*
X0282350Y0038770D02*
X0254002Y0038770D01*
X0254750Y0037172D02*
X0283949Y0037172D01*
X0284343Y0043566D02*
X0336640Y0043566D01*
X0336800Y0046800D02*
X0286800Y0046800D01*
X0281800Y0051800D01*
X0276800Y0051800D01*
X0266800Y0061800D01*
X0266800Y0069588D01*
X0249587Y0086800D01*
X0231800Y0076800D02*
X0246800Y0061800D01*
X0262714Y0061800D01*
X0263168Y0057952D02*
X0240990Y0057952D01*
X0242048Y0059551D02*
X0245958Y0059551D01*
X0244056Y0061149D02*
X0242518Y0061149D01*
X0238403Y0056354D02*
X0264766Y0056354D01*
X0266365Y0054755D02*
X0153927Y0054755D01*
X0154750Y0056354D02*
X0176705Y0056354D01*
X0176695Y0056360D02*
X0177105Y0056123D01*
X0177563Y0056000D01*
X0181419Y0056000D01*
X0181419Y0061419D01*
X0176000Y0061419D01*
X0176000Y0057563D01*
X0176123Y0057105D01*
X0176360Y0056695D01*
X0176695Y0056360D01*
X0176000Y0057952D02*
X0156346Y0057952D01*
X0157945Y0059551D02*
X0176000Y0059551D01*
X0176000Y0061149D02*
X0174761Y0061149D01*
X0175536Y0061925D02*
X0175536Y0061925D01*
X0181419Y0061149D02*
X0182181Y0061149D01*
X0182181Y0061419D02*
X0182181Y0056000D01*
X0186037Y0056000D01*
X0186495Y0056123D01*
X0186905Y0056360D01*
X0187240Y0056695D01*
X0187477Y0057105D01*
X0187600Y0057563D01*
X0187600Y0061419D01*
X0182181Y0061419D01*
X0182181Y0059551D02*
X0181419Y0059551D01*
X0181419Y0057952D02*
X0182181Y0057952D01*
X0182181Y0056354D02*
X0181419Y0056354D01*
X0186895Y0056354D02*
X0194094Y0056354D01*
X0197065Y0056354D02*
X0207874Y0056354D01*
X0208245Y0056200D02*
X0210473Y0056200D01*
X0212531Y0057053D01*
X0214106Y0058628D01*
X0214959Y0060686D01*
X0214959Y0062914D01*
X0214106Y0064972D01*
X0212531Y0066547D01*
X0210473Y0067400D01*
X0208245Y0067400D01*
X0206187Y0066547D01*
X0204612Y0064972D01*
X0203759Y0062914D01*
X0203759Y0060686D01*
X0204612Y0058628D01*
X0206187Y0057053D01*
X0208245Y0056200D01*
X0210844Y0056354D02*
X0221653Y0056354D01*
X0222025Y0056200D02*
X0224252Y0056200D01*
X0226311Y0057053D01*
X0227886Y0058628D01*
X0228739Y0060686D01*
X0228739Y0062914D01*
X0227886Y0064972D01*
X0226311Y0066547D01*
X0224252Y0067400D01*
X0222025Y0067400D01*
X0219966Y0066547D01*
X0218391Y0064972D01*
X0217539Y0062914D01*
X0217539Y0060686D01*
X0218391Y0058628D01*
X0219966Y0057053D01*
X0222025Y0056200D01*
X0224624Y0056354D02*
X0235433Y0056354D01*
X0232846Y0057952D02*
X0227211Y0057952D01*
X0228268Y0059551D02*
X0231788Y0059551D01*
X0231318Y0061149D02*
X0228739Y0061149D01*
X0228739Y0062748D02*
X0231318Y0062748D01*
X0231911Y0064346D02*
X0228145Y0064346D01*
X0226913Y0065945D02*
X0233143Y0065945D01*
X0236064Y0069142D02*
X0192197Y0069142D01*
X0193796Y0067543D02*
X0237662Y0067543D01*
X0234465Y0070740D02*
X0190310Y0070740D01*
X0199354Y0065945D02*
X0205584Y0065945D01*
X0204352Y0064346D02*
X0200586Y0064346D01*
X0201180Y0062748D02*
X0203759Y0062748D01*
X0203759Y0061149D02*
X0201180Y0061149D01*
X0200709Y0059551D02*
X0204229Y0059551D01*
X0205287Y0057952D02*
X0199651Y0057952D01*
X0191508Y0057952D02*
X0187600Y0057952D01*
X0187600Y0059551D02*
X0190450Y0059551D01*
X0189980Y0061149D02*
X0187600Y0061149D01*
X0187600Y0062748D02*
X0189980Y0062748D01*
X0189073Y0064346D02*
X0187600Y0064346D01*
X0173996Y0070740D02*
X0162168Y0070740D01*
X0161886Y0071800D02*
X0171800Y0071800D01*
X0172464Y0069142D02*
X0163767Y0069142D01*
X0165365Y0067543D02*
X0172289Y0067543D01*
X0162241Y0062748D02*
X0159200Y0062748D01*
X0159200Y0064346D02*
X0160642Y0064346D01*
X0156800Y0061800D02*
X0151800Y0056800D01*
X0149084Y0057952D02*
X0144042Y0057952D01*
X0145640Y0056354D02*
X0148850Y0056354D01*
X0149673Y0054755D02*
X0147239Y0054755D01*
X0148837Y0053157D02*
X0164169Y0053157D01*
X0166800Y0051800D02*
X0261800Y0051800D01*
X0266800Y0046800D01*
X0269750Y0046763D02*
X0274357Y0046763D01*
X0272759Y0048361D02*
X0269346Y0048361D01*
X0271160Y0049960D02*
X0267034Y0049960D01*
X0265436Y0051558D02*
X0269562Y0051558D01*
X0267963Y0053157D02*
X0263837Y0053157D01*
X0261845Y0048361D02*
X0204346Y0048361D01*
X0204750Y0046763D02*
X0263443Y0046763D01*
X0264284Y0045164D02*
X0204316Y0045164D01*
X0204206Y0043566D02*
X0277554Y0043566D01*
X0275956Y0045164D02*
X0269316Y0045164D01*
X0279153Y0041967D02*
X0204750Y0041967D01*
X0201800Y0041800D02*
X0201450Y0042150D01*
X0181800Y0042150D01*
X0178850Y0041967D02*
X0135361Y0041967D01*
X0133763Y0040369D02*
X0179409Y0040369D01*
X0179193Y0043566D02*
X0136960Y0043566D01*
X0138159Y0044765D02*
X0138835Y0045441D01*
X0139200Y0046323D01*
X0139200Y0050028D01*
X0139301Y0050129D01*
X0139750Y0051213D01*
X0139750Y0052387D01*
X0139301Y0053471D01*
X0138471Y0054301D01*
X0137387Y0054750D01*
X0136213Y0054750D01*
X0135129Y0054301D01*
X0134299Y0053471D01*
X0133850Y0052387D01*
X0133850Y0051213D01*
X0134299Y0050129D01*
X0134400Y0050028D01*
X0134400Y0047794D01*
X0125806Y0039200D01*
X0053572Y0039200D01*
X0053471Y0039301D01*
X0053232Y0039400D01*
X0122277Y0039400D01*
X0123159Y0039765D01*
X0130834Y0047440D01*
X0131509Y0048115D01*
X0131874Y0048997D01*
X0131874Y0050028D01*
X0131975Y0050129D01*
X0132424Y0051213D01*
X0132424Y0052387D01*
X0131975Y0053471D01*
X0131145Y0054301D01*
X0130061Y0054750D01*
X0128888Y0054750D01*
X0127803Y0054301D01*
X0126974Y0053471D01*
X0126524Y0052387D01*
X0126524Y0051213D01*
X0126904Y0050298D01*
X0120806Y0044200D01*
X0022794Y0044200D01*
X0014200Y0052794D01*
X0014200Y0055028D01*
X0014301Y0055129D01*
X0014750Y0056213D01*
X0014750Y0057387D01*
X0014301Y0058471D01*
X0013471Y0059301D01*
X0012387Y0059750D01*
X0011213Y0059750D01*
X0010129Y0059301D01*
X0009299Y0058471D01*
X0008850Y0057387D01*
X0008850Y0056213D01*
X0009299Y0055129D01*
X0009400Y0055028D01*
X0009400Y0051323D01*
X0009765Y0050441D01*
X0010441Y0049765D01*
X0020441Y0039765D01*
X0021323Y0039400D01*
X0050368Y0039400D01*
X0050129Y0039301D01*
X0049299Y0038471D01*
X0048850Y0037387D01*
X0048850Y0036213D01*
X0049299Y0035129D01*
X0050129Y0034299D01*
X0051213Y0033850D01*
X0052387Y0033850D01*
X0053471Y0034299D01*
X0053572Y0034400D01*
X0127277Y0034400D01*
X0128159Y0034765D01*
X0128835Y0035441D01*
X0138159Y0044765D01*
X0138558Y0045164D02*
X0164127Y0045164D01*
X0162529Y0046763D02*
X0139200Y0046763D01*
X0139200Y0048361D02*
X0146845Y0048361D01*
X0145246Y0049960D02*
X0139200Y0049960D01*
X0139750Y0051558D02*
X0143648Y0051558D01*
X0142049Y0053157D02*
X0139431Y0053157D01*
X0140451Y0054755D02*
X0078149Y0054755D01*
X0078159Y0054765D02*
X0078835Y0055441D01*
X0079200Y0056323D01*
X0079200Y0064529D01*
X0079299Y0064290D01*
X0080129Y0063460D01*
X0081213Y0063011D01*
X0082387Y0063011D01*
X0083471Y0063460D01*
X0084301Y0064290D01*
X0084750Y0065374D01*
X0084750Y0066548D01*
X0084355Y0067502D01*
X0084355Y0110028D01*
X0084456Y0110129D01*
X0084905Y0111213D01*
X0084905Y0112387D01*
X0084456Y0113471D01*
X0083626Y0114301D01*
X0083386Y0114400D01*
X0085806Y0114400D01*
X0090441Y0109765D01*
X0091323Y0109400D01*
X0100806Y0109400D01*
X0108850Y0101356D01*
X0108850Y0101213D01*
X0109299Y0100129D01*
X0110129Y0099299D01*
X0111213Y0098850D01*
X0112387Y0098850D01*
X0113471Y0099299D01*
X0114301Y0100129D01*
X0114750Y0101213D01*
X0114750Y0102387D01*
X0114301Y0103471D01*
X0113471Y0104301D01*
X0112387Y0104750D01*
X0112244Y0104750D01*
X0103159Y0113835D01*
X0102277Y0114200D01*
X0092794Y0114200D01*
X0088835Y0118159D01*
X0088159Y0118835D01*
X0087277Y0119200D01*
X0027794Y0119200D01*
X0014750Y0132244D01*
X0014750Y0132387D01*
X0014301Y0133471D01*
X0013471Y0134301D01*
X0012387Y0134750D01*
X0011213Y0134750D01*
X0010129Y0134301D01*
X0009299Y0133471D01*
X0008850Y0132387D01*
X0008850Y0131213D01*
X0009299Y0130129D01*
X0010129Y0129299D01*
X0011213Y0128850D01*
X0011356Y0128850D01*
X0025441Y0114765D01*
X0026323Y0114400D01*
X0080523Y0114400D01*
X0080284Y0114301D01*
X0079454Y0113471D01*
X0079005Y0112387D01*
X0079005Y0111213D01*
X0079454Y0110129D01*
X0079555Y0110028D01*
X0079555Y0097858D01*
X0079301Y0098471D01*
X0078471Y0099301D01*
X0077387Y0099750D01*
X0076213Y0099750D01*
X0075129Y0099301D01*
X0074299Y0098471D01*
X0073850Y0097387D01*
X0073850Y0096213D01*
X0074299Y0095129D01*
X0074400Y0095028D01*
X0074400Y0088232D01*
X0074301Y0088471D01*
X0073471Y0089301D01*
X0072387Y0089750D01*
X0072244Y0089750D01*
X0063835Y0098159D01*
X0063835Y0098159D01*
X0063159Y0098835D01*
X0062277Y0099200D01*
X0037400Y0099200D01*
X0037400Y0099952D01*
X0036547Y0102011D01*
X0034972Y0103586D01*
X0032914Y0104439D01*
X0030686Y0104439D01*
X0028628Y0103586D01*
X0027053Y0102011D01*
X0026200Y0099952D01*
X0026200Y0097725D01*
X0027053Y0095666D01*
X0028519Y0094200D01*
X0027794Y0094200D01*
X0024200Y0097794D01*
X0024200Y0110028D01*
X0024301Y0110129D01*
X0024750Y0111213D01*
X0024750Y0112387D01*
X0024301Y0113471D01*
X0023471Y0114301D01*
X0022387Y0114750D01*
X0021213Y0114750D01*
X0020129Y0114301D01*
X0019299Y0113471D01*
X0018850Y0112387D01*
X0018850Y0111213D01*
X0019299Y0110129D01*
X0019400Y0110028D01*
X0019400Y0096323D01*
X0019765Y0095441D01*
X0020441Y0094765D01*
X0025441Y0089765D01*
X0026323Y0089400D01*
X0040806Y0089400D01*
X0049400Y0080806D01*
X0049400Y0058572D01*
X0049299Y0058471D01*
X0048850Y0057387D01*
X0048850Y0056213D01*
X0049299Y0055129D01*
X0050129Y0054299D01*
X0051213Y0053850D01*
X0052387Y0053850D01*
X0053471Y0054299D01*
X0054301Y0055129D01*
X0054400Y0055368D01*
X0054400Y0053572D01*
X0054299Y0053471D01*
X0053850Y0052387D01*
X0053850Y0051213D01*
X0054299Y0050129D01*
X0055129Y0049299D01*
X0056213Y0048850D01*
X0057387Y0048850D01*
X0058471Y0049299D01*
X0059301Y0050129D01*
X0059750Y0051213D01*
X0059750Y0052387D01*
X0059301Y0053471D01*
X0059200Y0053572D01*
X0059200Y0070806D01*
X0067244Y0078850D01*
X0067387Y0078850D01*
X0068471Y0079299D01*
X0069301Y0080129D01*
X0069750Y0081213D01*
X0069750Y0082387D01*
X0069301Y0083471D01*
X0068471Y0084301D01*
X0067387Y0084750D01*
X0066213Y0084750D01*
X0065129Y0084301D01*
X0064299Y0083471D01*
X0063850Y0082387D01*
X0063850Y0082244D01*
X0055441Y0073835D01*
X0054765Y0073159D01*
X0054400Y0072277D01*
X0054400Y0058232D01*
X0054301Y0058471D01*
X0054200Y0058572D01*
X0054200Y0082277D01*
X0053835Y0083159D01*
X0043835Y0093159D01*
X0043159Y0093835D01*
X0042277Y0094200D01*
X0035081Y0094200D01*
X0035281Y0094400D01*
X0060806Y0094400D01*
X0068850Y0086356D01*
X0068850Y0086213D01*
X0069299Y0085129D01*
X0070129Y0084299D01*
X0071213Y0083850D01*
X0072387Y0083850D01*
X0073471Y0084299D01*
X0074301Y0085129D01*
X0074400Y0085368D01*
X0074400Y0057794D01*
X0071356Y0054750D01*
X0071213Y0054750D01*
X0070129Y0054301D01*
X0069299Y0053471D01*
X0068850Y0052387D01*
X0068850Y0051213D01*
X0069299Y0050129D01*
X0070129Y0049299D01*
X0071213Y0048850D01*
X0072387Y0048850D01*
X0073471Y0049299D01*
X0074301Y0050129D01*
X0074750Y0051213D01*
X0074750Y0051356D01*
X0078159Y0054765D01*
X0079200Y0056354D02*
X0138852Y0056354D01*
X0137254Y0057952D02*
X0079200Y0057952D01*
X0079200Y0059551D02*
X0135655Y0059551D01*
X0134056Y0061149D02*
X0079200Y0061149D01*
X0079200Y0062748D02*
X0132458Y0062748D01*
X0130859Y0064346D02*
X0084324Y0064346D01*
X0084750Y0065945D02*
X0119261Y0065945D01*
X0117662Y0067543D02*
X0084355Y0067543D01*
X0084355Y0069142D02*
X0116064Y0069142D01*
X0114641Y0070740D02*
X0084355Y0070740D01*
X0084355Y0072339D02*
X0114400Y0072339D01*
X0114400Y0073937D02*
X0084355Y0073937D01*
X0084355Y0075536D02*
X0114400Y0075536D01*
X0114400Y0077134D02*
X0084355Y0077134D01*
X0084355Y0078733D02*
X0114400Y0078733D01*
X0114400Y0080332D02*
X0084355Y0080332D01*
X0084355Y0081930D02*
X0114400Y0081930D01*
X0114400Y0083529D02*
X0084355Y0083529D01*
X0084355Y0085127D02*
X0114301Y0085127D01*
X0113850Y0086726D02*
X0084355Y0086726D01*
X0084355Y0088324D02*
X0114238Y0088324D01*
X0116800Y0086800D02*
X0116800Y0071800D01*
X0121800Y0066800D01*
X0131800Y0066800D01*
X0148911Y0049689D01*
X0162997Y0049689D01*
X0165886Y0046800D01*
X0201800Y0046800D01*
X0213431Y0057952D02*
X0219067Y0057952D01*
X0218009Y0059551D02*
X0214489Y0059551D01*
X0214959Y0061149D02*
X0217539Y0061149D01*
X0217539Y0062748D02*
X0214959Y0062748D01*
X0214366Y0064346D02*
X0218132Y0064346D01*
X0219364Y0065945D02*
X0213134Y0065945D01*
X0231002Y0073937D02*
X0158971Y0073937D01*
X0160569Y0072339D02*
X0232867Y0072339D01*
X0229131Y0075536D02*
X0157372Y0075536D01*
X0156843Y0076843D02*
X0161886Y0071800D01*
X0156800Y0068189D02*
X0145711Y0079278D01*
X0145711Y0091800D01*
X0136800Y0100711D01*
X0136800Y0106800D01*
X0111800Y0131800D01*
X0046800Y0131800D01*
X0044138Y0133082D02*
X0041464Y0133082D01*
X0041600Y0131484D02*
X0043850Y0131484D01*
X0044543Y0129885D02*
X0041202Y0129885D01*
X0040075Y0128287D02*
X0064223Y0128287D01*
X0063850Y0126688D02*
X0020306Y0126688D01*
X0021904Y0125090D02*
X0064338Y0125090D01*
X0066800Y0126800D02*
X0086800Y0126800D01*
X0089750Y0126688D02*
X0113518Y0126688D01*
X0115116Y0125090D02*
X0089262Y0125090D01*
X0089377Y0128287D02*
X0111919Y0128287D01*
X0115510Y0131484D02*
X0178722Y0131484D01*
X0177123Y0133082D02*
X0113912Y0133082D01*
X0117109Y0129885D02*
X0180321Y0129885D01*
X0182313Y0134681D02*
X0235644Y0134681D01*
X0233926Y0136279D02*
X0180715Y0136279D01*
X0179116Y0137878D02*
X0232328Y0137878D01*
X0229952Y0139476D02*
X0188648Y0139476D01*
X0189693Y0141075D02*
X0228907Y0141075D01*
X0228969Y0142673D02*
X0189631Y0142673D01*
X0188511Y0144272D02*
X0188500Y0144272D01*
X0187221Y0145870D02*
X0186581Y0145870D01*
X0186800Y0141800D02*
X0176800Y0141800D01*
X0175100Y0144272D02*
X0172722Y0144272D01*
X0171124Y0145870D02*
X0177019Y0145870D01*
X0176515Y0147469D02*
X0169525Y0147469D01*
X0181419Y0152265D02*
X0182181Y0152265D01*
X0182181Y0153863D02*
X0181419Y0153863D01*
X0181419Y0155462D02*
X0182181Y0155462D01*
X0182181Y0157060D02*
X0181419Y0157060D01*
X0181419Y0158659D02*
X0182181Y0158659D01*
X0182181Y0160257D02*
X0181419Y0160257D01*
X0183926Y0160257D02*
X0190223Y0160257D01*
X0187842Y0158659D02*
X0185996Y0158659D01*
X0186860Y0157060D02*
X0186944Y0157060D01*
X0193377Y0160257D02*
X0200223Y0160257D01*
X0197842Y0158659D02*
X0195758Y0158659D01*
X0196656Y0157060D02*
X0196944Y0157060D01*
X0203377Y0160257D02*
X0210223Y0160257D01*
X0207842Y0158659D02*
X0205758Y0158659D01*
X0206656Y0157060D02*
X0206944Y0157060D01*
X0208646Y0163454D02*
X0214456Y0163454D01*
X0212523Y0165053D02*
X0210870Y0165053D01*
X0211702Y0166651D02*
X0211703Y0166651D01*
X0204954Y0163454D02*
X0198646Y0163454D01*
X0200870Y0165053D02*
X0202730Y0165053D01*
X0201898Y0166651D02*
X0201702Y0166651D01*
X0194954Y0163454D02*
X0188646Y0163454D01*
X0190870Y0165053D02*
X0192730Y0165053D01*
X0191898Y0166651D02*
X0191702Y0166651D01*
X0184954Y0163454D02*
X0169200Y0163454D01*
X0169200Y0165053D02*
X0182730Y0165053D01*
X0181898Y0166651D02*
X0169200Y0166651D01*
X0169200Y0168250D02*
X0181657Y0168250D01*
X0181657Y0169848D02*
X0169200Y0169848D01*
X0169841Y0171447D02*
X0181657Y0171447D01*
X0181657Y0173045D02*
X0171439Y0173045D01*
X0173038Y0174644D02*
X0181657Y0174644D01*
X0181657Y0176242D02*
X0174636Y0176242D01*
X0176235Y0177841D02*
X0182267Y0177841D01*
X0173891Y0184235D02*
X0334528Y0184235D01*
X0329415Y0176242D02*
X0289750Y0176242D01*
X0288816Y0174644D02*
X0293713Y0174644D01*
X0264242Y0182636D02*
X0204358Y0182636D01*
X0205956Y0181038D02*
X0262644Y0181038D01*
X0243622Y0179439D02*
X0239978Y0179439D01*
X0241333Y0177841D02*
X0242267Y0177841D01*
X0233622Y0179439D02*
X0229978Y0179439D01*
X0231333Y0177841D02*
X0232267Y0177841D01*
X0221898Y0166651D02*
X0221897Y0166651D01*
X0221077Y0165053D02*
X0222730Y0165053D01*
X0245758Y0158659D02*
X0247604Y0158659D01*
X0246740Y0157060D02*
X0246656Y0157060D01*
X0253926Y0160257D02*
X0254246Y0160257D01*
X0255996Y0158659D02*
X0274710Y0158659D01*
X0264058Y0149068D02*
X0299542Y0149068D01*
X0297944Y0147469D02*
X0265656Y0147469D01*
X0267255Y0145870D02*
X0296345Y0145870D01*
X0304338Y0153863D02*
X0257143Y0153863D01*
X0257143Y0155462D02*
X0305936Y0155462D01*
X0307535Y0157060D02*
X0256860Y0157060D01*
X0237221Y0145870D02*
X0236379Y0145870D01*
X0231800Y0141800D02*
X0236800Y0136800D01*
X0241800Y0136800D01*
X0246800Y0131800D01*
X0281800Y0131800D01*
X0286800Y0136800D01*
X0284484Y0137878D02*
X0244116Y0137878D01*
X0245715Y0136279D02*
X0282885Y0136279D01*
X0281287Y0134681D02*
X0247313Y0134681D01*
X0243722Y0131484D02*
X0240510Y0131484D01*
X0238912Y0133082D02*
X0242123Y0133082D01*
X0242109Y0129885D02*
X0245321Y0129885D01*
X0238518Y0126688D02*
X0120306Y0126688D01*
X0121904Y0125090D02*
X0240116Y0125090D01*
X0246800Y0121800D02*
X0191800Y0121800D01*
X0181800Y0111800D01*
X0179728Y0113900D02*
X0133094Y0113900D01*
X0134692Y0112302D02*
X0178850Y0112302D01*
X0179061Y0110703D02*
X0136291Y0110703D01*
X0137889Y0109105D02*
X0180598Y0109105D01*
X0183002Y0109105D02*
X0333600Y0109105D01*
X0333600Y0110703D02*
X0184539Y0110703D01*
X0185696Y0112302D02*
X0333600Y0112302D01*
X0333600Y0113900D02*
X0307508Y0113900D01*
X0306092Y0113900D02*
X0187294Y0113900D01*
X0188893Y0115499D02*
X0304146Y0115499D01*
X0303850Y0117097D02*
X0190491Y0117097D01*
X0192090Y0118696D02*
X0304400Y0118696D01*
X0304400Y0120294D02*
X0249369Y0120294D01*
X0249750Y0121893D02*
X0303313Y0121893D01*
X0301715Y0123491D02*
X0249281Y0123491D01*
X0236919Y0128287D02*
X0118707Y0128287D01*
X0116715Y0123491D02*
X0023503Y0123491D01*
X0025101Y0121893D02*
X0118313Y0121893D01*
X0119912Y0120294D02*
X0026700Y0120294D01*
X0021510Y0118696D02*
X0008600Y0118696D01*
X0008600Y0120294D02*
X0019912Y0120294D01*
X0018313Y0121893D02*
X0008600Y0121893D01*
X0008600Y0123491D02*
X0016715Y0123491D01*
X0015116Y0125090D02*
X0008600Y0125090D01*
X0008600Y0126688D02*
X0013518Y0126688D01*
X0011919Y0128287D02*
X0008600Y0128287D01*
X0008600Y0129885D02*
X0009543Y0129885D01*
X0008850Y0131484D02*
X0008600Y0131484D01*
X0008600Y0133082D02*
X0009138Y0133082D01*
X0008600Y0134681D02*
X0011046Y0134681D01*
X0012554Y0134681D02*
X0022893Y0134681D01*
X0022136Y0133082D02*
X0014462Y0133082D01*
X0015510Y0131484D02*
X0022000Y0131484D01*
X0022398Y0129885D02*
X0017109Y0129885D01*
X0018707Y0128287D02*
X0023525Y0128287D01*
X0030075Y0128287D02*
X0033525Y0128287D01*
X0032398Y0129885D02*
X0031202Y0129885D01*
X0031600Y0131484D02*
X0032000Y0131484D01*
X0032136Y0133082D02*
X0031464Y0133082D01*
X0030707Y0134681D02*
X0032893Y0134681D01*
X0038529Y0136279D02*
X0068850Y0136279D01*
X0069053Y0137878D02*
X0039666Y0137878D01*
X0041033Y0139476D02*
X0069952Y0139476D01*
X0068907Y0141075D02*
X0041600Y0141075D01*
X0041600Y0142673D02*
X0068969Y0142673D01*
X0070100Y0144272D02*
X0040972Y0144272D01*
X0026886Y0147469D02*
X0026714Y0147469D01*
X0026714Y0149068D02*
X0026886Y0149068D01*
X0026886Y0150666D02*
X0026714Y0150666D01*
X0026714Y0152265D02*
X0026886Y0152265D01*
X0026886Y0153863D02*
X0026714Y0153863D01*
X0026714Y0155462D02*
X0026886Y0155462D01*
X0041800Y0166651D02*
X0041800Y0166651D01*
X0081485Y0158659D02*
X0094400Y0158659D01*
X0094950Y0154950D02*
X0091800Y0154950D01*
X0099200Y0157368D02*
X0099200Y0171232D01*
X0099562Y0170869D01*
X0101179Y0170869D01*
X0101143Y0170843D01*
X0100553Y0170253D01*
X0100062Y0169578D01*
X0099684Y0168834D01*
X0099426Y0168041D01*
X0099295Y0167217D01*
X0099295Y0166886D01*
X0104509Y0166886D01*
X0104509Y0166714D01*
X0099295Y0166714D01*
X0099295Y0166383D01*
X0099426Y0165559D01*
X0099684Y0164766D01*
X0100062Y0164022D01*
X0100553Y0163347D01*
X0101143Y0162757D01*
X0101817Y0162267D01*
X0102561Y0161888D01*
X0103354Y0161630D01*
X0104178Y0161500D01*
X0104509Y0161500D01*
X0104509Y0166714D01*
X0104681Y0166714D01*
X0104681Y0161500D01*
X0105012Y0161500D01*
X0105836Y0161630D01*
X0106630Y0161888D01*
X0107373Y0162267D01*
X0108048Y0162757D01*
X0108638Y0163347D01*
X0109128Y0164022D01*
X0109400Y0164556D01*
X0109400Y0157794D01*
X0108955Y0157350D01*
X0104419Y0157350D01*
X0104038Y0157731D01*
X0099562Y0157731D01*
X0099200Y0157368D01*
X0099200Y0158659D02*
X0109400Y0158659D01*
X0109400Y0160257D02*
X0099200Y0160257D01*
X0099200Y0161856D02*
X0102661Y0161856D01*
X0104509Y0161856D02*
X0104681Y0161856D01*
X0104681Y0163454D02*
X0104509Y0163454D01*
X0104509Y0165053D02*
X0104681Y0165053D01*
X0104681Y0166651D02*
X0104509Y0166651D01*
X0108715Y0163454D02*
X0109400Y0163454D01*
X0109400Y0161856D02*
X0106529Y0161856D01*
X0100475Y0163454D02*
X0099200Y0163454D01*
X0099200Y0165053D02*
X0099590Y0165053D01*
X0099295Y0166651D02*
X0099200Y0166651D01*
X0099200Y0168250D02*
X0099494Y0168250D01*
X0099200Y0169848D02*
X0100259Y0169848D01*
X0098625Y0174644D02*
X0097350Y0174644D01*
X0099373Y0176242D02*
X0094227Y0176242D01*
X0125000Y0176242D02*
X0167848Y0176242D01*
X0169447Y0177841D02*
X0125000Y0177841D01*
X0195089Y0144272D02*
X0198511Y0144272D01*
X0197221Y0145870D02*
X0196379Y0145870D01*
X0205089Y0144272D02*
X0208511Y0144272D01*
X0207221Y0145870D02*
X0206379Y0145870D01*
X0215089Y0144272D02*
X0218511Y0144272D01*
X0217221Y0145870D02*
X0216379Y0145870D01*
X0225089Y0144272D02*
X0228511Y0144272D01*
X0227221Y0145870D02*
X0226379Y0145870D01*
X0190097Y0123491D02*
X0123503Y0123491D01*
X0125101Y0121893D02*
X0188499Y0121893D01*
X0186900Y0120294D02*
X0126700Y0120294D01*
X0128298Y0118696D02*
X0185302Y0118696D01*
X0183703Y0117097D02*
X0129897Y0117097D01*
X0131495Y0115499D02*
X0182105Y0115499D01*
X0166800Y0121800D02*
X0151800Y0106800D01*
X0150890Y0104309D02*
X0139200Y0104309D01*
X0139200Y0102711D02*
X0149100Y0102711D01*
X0149775Y0103386D02*
X0149775Y0103386D01*
X0147501Y0101112D02*
X0139793Y0101112D01*
X0141391Y0099514D02*
X0146040Y0099514D01*
X0145711Y0097915D02*
X0142990Y0097915D01*
X0144588Y0096317D02*
X0145711Y0096317D01*
X0139399Y0094718D02*
X0084355Y0094718D01*
X0084355Y0093120D02*
X0140997Y0093120D01*
X0142596Y0091521D02*
X0084355Y0091521D01*
X0084355Y0089923D02*
X0143311Y0089923D01*
X0143311Y0088324D02*
X0119362Y0088324D01*
X0119750Y0086726D02*
X0143311Y0086726D01*
X0143311Y0085127D02*
X0119299Y0085127D01*
X0119200Y0083529D02*
X0143311Y0083529D01*
X0143311Y0081930D02*
X0119200Y0081930D01*
X0119200Y0080332D02*
X0143311Y0080332D01*
X0143339Y0078733D02*
X0119200Y0078733D01*
X0119200Y0077134D02*
X0144460Y0077134D01*
X0146059Y0075536D02*
X0119200Y0075536D01*
X0119200Y0073937D02*
X0147657Y0073937D01*
X0149256Y0072339D02*
X0119655Y0072339D01*
X0121254Y0070740D02*
X0150854Y0070740D01*
X0152453Y0069142D02*
X0132418Y0069142D01*
X0134451Y0067543D02*
X0154051Y0067543D01*
X0154400Y0065945D02*
X0136049Y0065945D01*
X0137648Y0064346D02*
X0154400Y0064346D01*
X0154354Y0062748D02*
X0139246Y0062748D01*
X0140845Y0061149D02*
X0152755Y0061149D01*
X0150733Y0059551D02*
X0142443Y0059551D01*
X0136800Y0051800D02*
X0136800Y0046800D01*
X0126800Y0036800D01*
X0051800Y0036800D01*
X0049115Y0035573D02*
X0008600Y0035573D01*
X0008600Y0033975D02*
X0050912Y0033975D01*
X0052688Y0033975D02*
X0240912Y0033975D01*
X0242688Y0033975D02*
X0250912Y0033975D01*
X0251800Y0036800D02*
X0241800Y0036800D01*
X0239115Y0035573D02*
X0128967Y0035573D01*
X0130566Y0037172D02*
X0238850Y0037172D01*
X0239598Y0038770D02*
X0132164Y0038770D01*
X0128573Y0041967D02*
X0125361Y0041967D01*
X0123763Y0040369D02*
X0126975Y0040369D01*
X0126960Y0043566D02*
X0130172Y0043566D01*
X0131770Y0045164D02*
X0128558Y0045164D01*
X0130157Y0046763D02*
X0133369Y0046763D01*
X0134400Y0048361D02*
X0131611Y0048361D01*
X0131874Y0049960D02*
X0134400Y0049960D01*
X0133850Y0051558D02*
X0132424Y0051558D01*
X0132105Y0053157D02*
X0134169Y0053157D01*
X0129474Y0051800D02*
X0129474Y0049474D01*
X0121800Y0041800D01*
X0021800Y0041800D01*
X0011800Y0051800D01*
X0011800Y0056800D01*
X0009084Y0057952D02*
X0008600Y0057952D01*
X0008600Y0056354D02*
X0008850Y0056354D01*
X0008600Y0054755D02*
X0009400Y0054755D01*
X0009400Y0053157D02*
X0008600Y0053157D01*
X0008600Y0051558D02*
X0009400Y0051558D01*
X0008600Y0049960D02*
X0010246Y0049960D01*
X0011845Y0048361D02*
X0008600Y0048361D01*
X0008600Y0046763D02*
X0013443Y0046763D01*
X0015042Y0045164D02*
X0008600Y0045164D01*
X0008600Y0043566D02*
X0016640Y0043566D01*
X0018239Y0041967D02*
X0008600Y0041967D01*
X0008600Y0040369D02*
X0019837Y0040369D01*
X0021830Y0045164D02*
X0121770Y0045164D01*
X0123369Y0046763D02*
X0020231Y0046763D01*
X0018633Y0048361D02*
X0124967Y0048361D01*
X0126566Y0049960D02*
X0074132Y0049960D01*
X0074952Y0051558D02*
X0126524Y0051558D01*
X0126843Y0053157D02*
X0076551Y0053157D01*
X0076800Y0056800D02*
X0071800Y0051800D01*
X0068850Y0051558D02*
X0059750Y0051558D01*
X0059431Y0053157D02*
X0069169Y0053157D01*
X0071361Y0054755D02*
X0059200Y0054755D01*
X0059200Y0056354D02*
X0072960Y0056354D01*
X0074400Y0057952D02*
X0059200Y0057952D01*
X0059200Y0059551D02*
X0074400Y0059551D01*
X0074400Y0061149D02*
X0059200Y0061149D01*
X0059200Y0062748D02*
X0074400Y0062748D01*
X0074400Y0064346D02*
X0059200Y0064346D01*
X0059200Y0065945D02*
X0074400Y0065945D01*
X0074400Y0067543D02*
X0059200Y0067543D01*
X0059200Y0069142D02*
X0074400Y0069142D01*
X0074400Y0070740D02*
X0059200Y0070740D01*
X0060733Y0072339D02*
X0074400Y0072339D01*
X0074400Y0073937D02*
X0062332Y0073937D01*
X0063930Y0075536D02*
X0074400Y0075536D01*
X0074400Y0077134D02*
X0065529Y0077134D01*
X0067127Y0078733D02*
X0074400Y0078733D01*
X0074400Y0080332D02*
X0069385Y0080332D01*
X0069750Y0081930D02*
X0074400Y0081930D01*
X0074400Y0083529D02*
X0069243Y0083529D01*
X0069301Y0085127D02*
X0051867Y0085127D01*
X0053466Y0083529D02*
X0064357Y0083529D01*
X0063536Y0081930D02*
X0054200Y0081930D01*
X0054200Y0080332D02*
X0061937Y0080332D01*
X0060339Y0078733D02*
X0054200Y0078733D01*
X0054200Y0077134D02*
X0058740Y0077134D01*
X0057142Y0075536D02*
X0054200Y0075536D01*
X0054200Y0073937D02*
X0055543Y0073937D01*
X0054426Y0072339D02*
X0054200Y0072339D01*
X0054200Y0070740D02*
X0054400Y0070740D01*
X0054400Y0069142D02*
X0054200Y0069142D01*
X0054200Y0067543D02*
X0054400Y0067543D01*
X0054400Y0065945D02*
X0054200Y0065945D01*
X0054200Y0064346D02*
X0054400Y0064346D01*
X0054400Y0062748D02*
X0054200Y0062748D01*
X0054200Y0061149D02*
X0054400Y0061149D01*
X0054400Y0059551D02*
X0054200Y0059551D01*
X0051800Y0056800D02*
X0051800Y0081800D01*
X0041800Y0091800D01*
X0026800Y0091800D01*
X0021800Y0096800D01*
X0021800Y0111800D01*
X0023872Y0113900D02*
X0079883Y0113900D01*
X0079005Y0112302D02*
X0024750Y0112302D01*
X0024539Y0110703D02*
X0079216Y0110703D01*
X0079555Y0109105D02*
X0024200Y0109105D01*
X0024200Y0107506D02*
X0079555Y0107506D01*
X0079555Y0105908D02*
X0024200Y0105908D01*
X0024200Y0104309D02*
X0030374Y0104309D01*
X0033226Y0104309D02*
X0079555Y0104309D01*
X0079555Y0102711D02*
X0035847Y0102711D01*
X0036920Y0101112D02*
X0079555Y0101112D01*
X0079555Y0099514D02*
X0077957Y0099514D01*
X0079531Y0097915D02*
X0079555Y0097915D01*
X0076800Y0096800D02*
X0076800Y0056800D01*
X0069468Y0049960D02*
X0059132Y0049960D01*
X0056800Y0051800D02*
X0056800Y0071800D01*
X0066800Y0081800D01*
X0068480Y0086726D02*
X0050269Y0086726D01*
X0048670Y0088324D02*
X0066882Y0088324D01*
X0065283Y0089923D02*
X0047072Y0089923D01*
X0045473Y0091521D02*
X0063685Y0091521D01*
X0062086Y0093120D02*
X0043874Y0093120D01*
X0041882Y0088324D02*
X0035055Y0088324D01*
X0034972Y0088406D02*
X0032914Y0089259D01*
X0030686Y0089259D01*
X0028628Y0088406D01*
X0027053Y0086831D01*
X0026200Y0084773D01*
X0026200Y0082545D01*
X0027053Y0080487D01*
X0028628Y0078912D01*
X0030686Y0078059D01*
X0032914Y0078059D01*
X0034972Y0078912D01*
X0036547Y0080487D01*
X0037400Y0082545D01*
X0037400Y0084773D01*
X0036547Y0086831D01*
X0034972Y0088406D01*
X0036591Y0086726D02*
X0043480Y0086726D01*
X0045079Y0085127D02*
X0037253Y0085127D01*
X0037400Y0083529D02*
X0046677Y0083529D01*
X0048276Y0081930D02*
X0037145Y0081930D01*
X0036392Y0080332D02*
X0049400Y0080332D01*
X0049400Y0078733D02*
X0034541Y0078733D01*
X0032914Y0076880D02*
X0030686Y0076880D01*
X0028628Y0076027D01*
X0027053Y0074452D01*
X0026200Y0072393D01*
X0026200Y0070166D01*
X0027053Y0068107D01*
X0028628Y0066532D01*
X0030686Y0065680D01*
X0032914Y0065680D01*
X0034972Y0066532D01*
X0036547Y0068107D01*
X0037400Y0070166D01*
X0037400Y0072393D01*
X0036547Y0074452D01*
X0034972Y0076027D01*
X0032914Y0076880D01*
X0035463Y0075536D02*
X0049400Y0075536D01*
X0049400Y0077134D02*
X0008600Y0077134D01*
X0008600Y0075536D02*
X0028137Y0075536D01*
X0026840Y0073937D02*
X0008600Y0073937D01*
X0008600Y0072339D02*
X0026200Y0072339D01*
X0026200Y0070740D02*
X0008600Y0070740D01*
X0008600Y0069142D02*
X0026624Y0069142D01*
X0027616Y0067543D02*
X0008600Y0067543D01*
X0008600Y0065945D02*
X0030045Y0065945D01*
X0033555Y0065945D02*
X0049400Y0065945D01*
X0049400Y0067543D02*
X0035983Y0067543D01*
X0036976Y0069142D02*
X0049400Y0069142D01*
X0049400Y0070740D02*
X0037400Y0070740D01*
X0037400Y0072339D02*
X0049400Y0072339D01*
X0049400Y0073937D02*
X0036760Y0073937D01*
X0029059Y0078733D02*
X0008600Y0078733D01*
X0008600Y0080332D02*
X0027208Y0080332D01*
X0026455Y0081930D02*
X0008600Y0081930D01*
X0008600Y0083529D02*
X0026200Y0083529D01*
X0026347Y0085127D02*
X0008600Y0085127D01*
X0008600Y0086726D02*
X0027009Y0086726D01*
X0028545Y0088324D02*
X0008600Y0088324D01*
X0008600Y0089923D02*
X0025283Y0089923D01*
X0023685Y0091521D02*
X0008600Y0091521D01*
X0008600Y0093120D02*
X0022086Y0093120D01*
X0020488Y0094718D02*
X0008600Y0094718D01*
X0008600Y0096317D02*
X0019402Y0096317D01*
X0019400Y0097915D02*
X0008600Y0097915D01*
X0008600Y0099514D02*
X0019400Y0099514D01*
X0019400Y0101112D02*
X0008600Y0101112D01*
X0008600Y0102711D02*
X0019400Y0102711D01*
X0019400Y0104309D02*
X0008600Y0104309D01*
X0008600Y0105908D02*
X0019400Y0105908D01*
X0019400Y0107506D02*
X0008600Y0107506D01*
X0008600Y0109105D02*
X0019400Y0109105D01*
X0019061Y0110703D02*
X0008600Y0110703D01*
X0008600Y0112302D02*
X0018850Y0112302D01*
X0019728Y0113900D02*
X0008600Y0113900D01*
X0008600Y0115499D02*
X0024707Y0115499D01*
X0023109Y0117097D02*
X0008600Y0117097D01*
X0011800Y0131800D02*
X0026800Y0116800D01*
X0086800Y0116800D01*
X0091800Y0111800D01*
X0101800Y0111800D01*
X0111800Y0101800D01*
X0114616Y0102711D02*
X0118984Y0102711D01*
X0118892Y0101112D02*
X0114708Y0101112D01*
X0113686Y0099514D02*
X0119914Y0099514D01*
X0121800Y0101800D02*
X0127150Y0107150D01*
X0131800Y0107150D01*
X0132650Y0104309D02*
X0134400Y0104309D01*
X0134400Y0102711D02*
X0126105Y0102711D01*
X0124708Y0101112D02*
X0134400Y0101112D01*
X0134698Y0099514D02*
X0123686Y0099514D01*
X0120149Y0104309D02*
X0113451Y0104309D01*
X0111086Y0105908D02*
X0122514Y0105908D01*
X0124112Y0107506D02*
X0109488Y0107506D01*
X0107889Y0109105D02*
X0125711Y0109105D01*
X0129503Y0110703D02*
X0106291Y0110703D01*
X0104692Y0112302D02*
X0127904Y0112302D01*
X0126306Y0113900D02*
X0103001Y0113900D01*
X0101101Y0109105D02*
X0084355Y0109105D01*
X0084355Y0107506D02*
X0102700Y0107506D01*
X0104298Y0105908D02*
X0084355Y0105908D01*
X0084355Y0104309D02*
X0105897Y0104309D01*
X0107495Y0102711D02*
X0084355Y0102711D01*
X0084355Y0101112D02*
X0108892Y0101112D01*
X0109914Y0099514D02*
X0084355Y0099514D01*
X0084355Y0097915D02*
X0136202Y0097915D01*
X0137800Y0096317D02*
X0084355Y0096317D01*
X0075643Y0099514D02*
X0037400Y0099514D01*
X0033839Y0096800D02*
X0031800Y0098839D01*
X0033839Y0096800D02*
X0061800Y0096800D01*
X0071800Y0086800D01*
X0074362Y0088324D02*
X0074400Y0088324D01*
X0074400Y0089923D02*
X0072071Y0089923D01*
X0070473Y0091521D02*
X0074400Y0091521D01*
X0074400Y0093120D02*
X0068874Y0093120D01*
X0067276Y0094718D02*
X0074400Y0094718D01*
X0073850Y0096317D02*
X0065677Y0096317D01*
X0064079Y0097915D02*
X0074069Y0097915D01*
X0084693Y0110703D02*
X0089503Y0110703D01*
X0087904Y0112302D02*
X0084905Y0112302D01*
X0084026Y0113900D02*
X0086306Y0113900D01*
X0089897Y0117097D02*
X0123109Y0117097D01*
X0124707Y0115499D02*
X0091495Y0115499D01*
X0088298Y0118696D02*
X0121510Y0118696D01*
X0139105Y0107506D02*
X0333600Y0107506D01*
X0333600Y0105908D02*
X0139200Y0105908D01*
X0130950Y0104309D02*
X0127703Y0104309D01*
X0151861Y0096775D02*
X0156775Y0096775D01*
X0156800Y0096800D01*
X0161800Y0091800D01*
X0161800Y0086800D01*
X0160079Y0085127D02*
X0151311Y0085127D01*
X0151311Y0083529D02*
X0161677Y0083529D01*
X0163276Y0081930D02*
X0151311Y0081930D01*
X0152577Y0080332D02*
X0164874Y0080332D01*
X0155774Y0077134D02*
X0228850Y0077134D01*
X0229561Y0078733D02*
X0154175Y0078733D01*
X0151311Y0086726D02*
X0159400Y0086726D01*
X0159400Y0088324D02*
X0151311Y0088324D01*
X0151311Y0089923D02*
X0159400Y0089923D01*
X0158685Y0091521D02*
X0151311Y0091521D01*
X0151311Y0093120D02*
X0157086Y0093120D01*
X0160677Y0096317D02*
X0333600Y0096317D01*
X0333600Y0097915D02*
X0159079Y0097915D01*
X0188686Y0099514D02*
X0333600Y0099514D01*
X0333600Y0101112D02*
X0189708Y0101112D01*
X0189616Y0102711D02*
X0333600Y0102711D01*
X0333600Y0104309D02*
X0188451Y0104309D01*
X0156800Y0068189D02*
X0156800Y0061800D01*
X0159128Y0061149D02*
X0163839Y0061149D01*
X0161775Y0046739D02*
X0161739Y0046739D01*
X0156100Y0041100D01*
X0156100Y0026800D01*
X0156100Y0021100D01*
X0151800Y0016800D01*
X0101100Y0016800D01*
X0091100Y0026800D01*
X0081800Y0026800D01*
X0071800Y0016800D01*
X0041800Y0016800D01*
X0031800Y0026800D01*
X0026100Y0026800D01*
X0026481Y0027181D02*
X0031900Y0027181D01*
X0031900Y0031037D01*
X0031777Y0031495D01*
X0031540Y0031905D01*
X0031205Y0032240D01*
X0030795Y0032477D01*
X0030337Y0032600D01*
X0026481Y0032600D01*
X0026481Y0027181D01*
X0026481Y0026419D01*
X0031900Y0026419D01*
X0031900Y0022563D01*
X0031777Y0022105D01*
X0031540Y0021695D01*
X0031205Y0021360D01*
X0030795Y0021123D01*
X0030337Y0021000D01*
X0026481Y0021000D01*
X0026481Y0026419D01*
X0025719Y0026419D01*
X0025719Y0021000D01*
X0021863Y0021000D01*
X0021405Y0021123D01*
X0020995Y0021360D01*
X0020660Y0021695D01*
X0020423Y0022105D01*
X0020300Y0022563D01*
X0020300Y0026419D01*
X0025719Y0026419D01*
X0025719Y0027181D01*
X0020300Y0027181D01*
X0020300Y0031037D01*
X0020423Y0031495D01*
X0020660Y0031905D01*
X0020995Y0032240D01*
X0021405Y0032477D01*
X0021863Y0032600D01*
X0025719Y0032600D01*
X0025719Y0027181D01*
X0026481Y0027181D01*
X0026481Y0027581D02*
X0025719Y0027581D01*
X0025719Y0029179D02*
X0026481Y0029179D01*
X0026481Y0030778D02*
X0025719Y0030778D01*
X0025719Y0032376D02*
X0026481Y0032376D01*
X0021230Y0032376D02*
X0008600Y0032376D01*
X0008600Y0030778D02*
X0020300Y0030778D01*
X0020300Y0029179D02*
X0008600Y0029179D01*
X0008600Y0027581D02*
X0020300Y0027581D01*
X0020300Y0025982D02*
X0008600Y0025982D01*
X0008600Y0024384D02*
X0020300Y0024384D01*
X0020300Y0022785D02*
X0008600Y0022785D01*
X0008600Y0021187D02*
X0021294Y0021187D01*
X0025719Y0021187D02*
X0026481Y0021187D01*
X0026481Y0022785D02*
X0025719Y0022785D01*
X0025719Y0024384D02*
X0026481Y0024384D01*
X0026481Y0025982D02*
X0025719Y0025982D01*
X0031900Y0025982D02*
X0035680Y0025982D01*
X0035680Y0025686D02*
X0036532Y0023628D01*
X0038107Y0022053D01*
X0040166Y0021200D01*
X0042393Y0021200D01*
X0044452Y0022053D01*
X0046027Y0023628D01*
X0046880Y0025686D01*
X0046880Y0027914D01*
X0046027Y0029972D01*
X0044452Y0031547D01*
X0042393Y0032400D01*
X0040166Y0032400D01*
X0038107Y0031547D01*
X0036532Y0029972D01*
X0035680Y0027914D01*
X0035680Y0025686D01*
X0036219Y0024384D02*
X0031900Y0024384D01*
X0031900Y0022785D02*
X0037375Y0022785D01*
X0035680Y0027581D02*
X0031900Y0027581D01*
X0031900Y0029179D02*
X0036204Y0029179D01*
X0037338Y0030778D02*
X0031900Y0030778D01*
X0030970Y0032376D02*
X0040108Y0032376D01*
X0042451Y0032376D02*
X0052488Y0032376D01*
X0052545Y0032400D02*
X0050487Y0031547D01*
X0048912Y0029972D01*
X0048059Y0027914D01*
X0048059Y0025686D01*
X0048912Y0023628D01*
X0050487Y0022053D01*
X0052545Y0021200D01*
X0054773Y0021200D01*
X0056831Y0022053D01*
X0058406Y0023628D01*
X0059259Y0025686D01*
X0059259Y0027914D01*
X0058406Y0029972D01*
X0056831Y0031547D01*
X0054773Y0032400D01*
X0052545Y0032400D01*
X0054830Y0032376D02*
X0067667Y0032376D01*
X0067725Y0032400D02*
X0065666Y0031547D01*
X0064091Y0029972D01*
X0063239Y0027914D01*
X0063239Y0025686D01*
X0064091Y0023628D01*
X0065666Y0022053D01*
X0067725Y0021200D01*
X0069952Y0021200D01*
X0072011Y0022053D01*
X0073586Y0023628D01*
X0074439Y0025686D01*
X0074439Y0027914D01*
X0073586Y0029972D01*
X0072011Y0031547D01*
X0069952Y0032400D01*
X0067725Y0032400D01*
X0070010Y0032376D02*
X0086230Y0032376D01*
X0086405Y0032477D02*
X0085995Y0032240D01*
X0085660Y0031905D01*
X0085423Y0031495D01*
X0085300Y0031037D01*
X0085300Y0027181D01*
X0090719Y0027181D01*
X0090719Y0026419D01*
X0091481Y0026419D01*
X0091481Y0027181D01*
X0096900Y0027181D01*
X0096900Y0031037D01*
X0096777Y0031495D01*
X0096540Y0031905D01*
X0096205Y0032240D01*
X0095795Y0032477D01*
X0095337Y0032600D01*
X0091481Y0032600D01*
X0091481Y0027181D01*
X0090719Y0027181D01*
X0090719Y0032600D01*
X0086863Y0032600D01*
X0086405Y0032477D01*
X0085300Y0030778D02*
X0072780Y0030778D01*
X0073914Y0029179D02*
X0085300Y0029179D01*
X0085300Y0027581D02*
X0074439Y0027581D01*
X0074439Y0025982D02*
X0085300Y0025982D01*
X0085300Y0026419D02*
X0085300Y0022563D01*
X0085423Y0022105D01*
X0085660Y0021695D01*
X0085995Y0021360D01*
X0086405Y0021123D01*
X0086863Y0021000D01*
X0090719Y0021000D01*
X0090719Y0026419D01*
X0085300Y0026419D01*
X0085300Y0024384D02*
X0073899Y0024384D01*
X0072743Y0022785D02*
X0085300Y0022785D01*
X0086294Y0021187D02*
X0030906Y0021187D01*
X0045184Y0022785D02*
X0049754Y0022785D01*
X0048599Y0024384D02*
X0046340Y0024384D01*
X0046880Y0025982D02*
X0048059Y0025982D01*
X0048059Y0027581D02*
X0046880Y0027581D01*
X0046355Y0029179D02*
X0048583Y0029179D01*
X0049717Y0030778D02*
X0045221Y0030778D01*
X0048850Y0037172D02*
X0008600Y0037172D01*
X0008600Y0038770D02*
X0049598Y0038770D01*
X0057601Y0030778D02*
X0064897Y0030778D01*
X0063763Y0029179D02*
X0058735Y0029179D01*
X0059259Y0027581D02*
X0063239Y0027581D01*
X0063239Y0025982D02*
X0059259Y0025982D01*
X0058720Y0024384D02*
X0063778Y0024384D01*
X0064934Y0022785D02*
X0057564Y0022785D01*
X0090719Y0022785D02*
X0091481Y0022785D01*
X0091481Y0021187D02*
X0090719Y0021187D01*
X0091481Y0021000D02*
X0095337Y0021000D01*
X0095795Y0021123D01*
X0096205Y0021360D01*
X0096540Y0021695D01*
X0096777Y0022105D01*
X0096900Y0022563D01*
X0096900Y0026419D01*
X0091481Y0026419D01*
X0091481Y0021000D01*
X0095906Y0021187D02*
X0151294Y0021187D01*
X0151405Y0021123D02*
X0151863Y0021000D01*
X0155719Y0021000D01*
X0155719Y0026419D01*
X0150300Y0026419D01*
X0150300Y0022563D01*
X0150423Y0022105D01*
X0150660Y0021695D01*
X0150995Y0021360D01*
X0151405Y0021123D01*
X0150300Y0022785D02*
X0137743Y0022785D01*
X0137011Y0022053D02*
X0138586Y0023628D01*
X0139439Y0025686D01*
X0139439Y0027914D01*
X0138586Y0029972D01*
X0137011Y0031547D01*
X0134952Y0032400D01*
X0132725Y0032400D01*
X0130666Y0031547D01*
X0129091Y0029972D01*
X0128239Y0027914D01*
X0128239Y0025686D01*
X0129091Y0023628D01*
X0130666Y0022053D01*
X0132725Y0021200D01*
X0134952Y0021200D01*
X0137011Y0022053D01*
X0138899Y0024384D02*
X0150300Y0024384D01*
X0150300Y0025982D02*
X0139439Y0025982D01*
X0139439Y0027581D02*
X0150300Y0027581D01*
X0150300Y0027181D02*
X0155719Y0027181D01*
X0155719Y0032600D01*
X0151863Y0032600D01*
X0151405Y0032477D01*
X0150995Y0032240D01*
X0150660Y0031905D01*
X0150423Y0031495D01*
X0150300Y0031037D01*
X0150300Y0027181D01*
X0150300Y0029179D02*
X0138914Y0029179D01*
X0137780Y0030778D02*
X0150300Y0030778D01*
X0151230Y0032376D02*
X0135010Y0032376D01*
X0132667Y0032376D02*
X0119830Y0032376D01*
X0119773Y0032400D02*
X0117545Y0032400D01*
X0115487Y0031547D01*
X0113912Y0029972D01*
X0113059Y0027914D01*
X0113059Y0025686D01*
X0113912Y0023628D01*
X0115487Y0022053D01*
X0117545Y0021200D01*
X0119773Y0021200D01*
X0121831Y0022053D01*
X0123406Y0023628D01*
X0124259Y0025686D01*
X0124259Y0027914D01*
X0123406Y0029972D01*
X0121831Y0031547D01*
X0119773Y0032400D01*
X0117488Y0032376D02*
X0107451Y0032376D01*
X0107393Y0032400D02*
X0105166Y0032400D01*
X0103107Y0031547D01*
X0101532Y0029972D01*
X0100680Y0027914D01*
X0100680Y0025686D01*
X0101532Y0023628D01*
X0103107Y0022053D01*
X0105166Y0021200D01*
X0107393Y0021200D01*
X0109452Y0022053D01*
X0111027Y0023628D01*
X0111880Y0025686D01*
X0111880Y0027914D01*
X0111027Y0029972D01*
X0109452Y0031547D01*
X0107393Y0032400D01*
X0105108Y0032376D02*
X0095970Y0032376D01*
X0096900Y0030778D02*
X0102338Y0030778D01*
X0101204Y0029179D02*
X0096900Y0029179D01*
X0096900Y0027581D02*
X0100680Y0027581D01*
X0100680Y0025982D02*
X0096900Y0025982D01*
X0096900Y0024384D02*
X0101219Y0024384D01*
X0102375Y0022785D02*
X0096900Y0022785D01*
X0091481Y0024384D02*
X0090719Y0024384D01*
X0090719Y0025982D02*
X0091481Y0025982D01*
X0091481Y0027581D02*
X0090719Y0027581D01*
X0090719Y0029179D02*
X0091481Y0029179D01*
X0091481Y0030778D02*
X0090719Y0030778D01*
X0090719Y0032376D02*
X0091481Y0032376D01*
X0110221Y0030778D02*
X0114717Y0030778D01*
X0113583Y0029179D02*
X0111355Y0029179D01*
X0111880Y0027581D02*
X0113059Y0027581D01*
X0113059Y0025982D02*
X0111880Y0025982D01*
X0111340Y0024384D02*
X0113599Y0024384D01*
X0114754Y0022785D02*
X0110184Y0022785D01*
X0122564Y0022785D02*
X0129934Y0022785D01*
X0128778Y0024384D02*
X0123720Y0024384D01*
X0124259Y0025982D02*
X0128239Y0025982D01*
X0128239Y0027581D02*
X0124259Y0027581D01*
X0123735Y0029179D02*
X0128763Y0029179D01*
X0129897Y0030778D02*
X0122601Y0030778D01*
X0155719Y0030778D02*
X0156481Y0030778D01*
X0156481Y0032376D02*
X0155719Y0032376D01*
X0155719Y0029179D02*
X0156481Y0029179D01*
X0156481Y0027581D02*
X0155719Y0027581D01*
X0155719Y0025982D02*
X0156481Y0025982D01*
X0156481Y0024384D02*
X0155719Y0024384D01*
X0155719Y0022785D02*
X0156481Y0022785D01*
X0156481Y0021187D02*
X0155719Y0021187D01*
X0175184Y0022785D02*
X0179754Y0022785D01*
X0178599Y0024384D02*
X0176340Y0024384D01*
X0176880Y0025982D02*
X0178059Y0025982D01*
X0178059Y0027581D02*
X0176880Y0027581D01*
X0176355Y0029179D02*
X0178583Y0029179D01*
X0179717Y0030778D02*
X0175221Y0030778D01*
X0240221Y0030778D02*
X0244717Y0030778D01*
X0243583Y0029179D02*
X0241355Y0029179D01*
X0241880Y0027581D02*
X0243059Y0027581D01*
X0243059Y0025982D02*
X0241880Y0025982D01*
X0241340Y0024384D02*
X0243599Y0024384D01*
X0244754Y0022785D02*
X0240184Y0022785D01*
X0252564Y0022785D02*
X0259934Y0022785D01*
X0258778Y0024384D02*
X0253720Y0024384D01*
X0254259Y0025982D02*
X0258239Y0025982D01*
X0258239Y0027581D02*
X0254259Y0027581D01*
X0253735Y0029179D02*
X0258763Y0029179D01*
X0259897Y0030778D02*
X0252601Y0030778D01*
X0281146Y0046763D02*
X0283443Y0046763D01*
X0282744Y0045164D02*
X0285042Y0045164D01*
X0281845Y0048361D02*
X0279547Y0048361D01*
X0288466Y0051558D02*
X0295605Y0051558D01*
X0292948Y0053157D02*
X0290935Y0053157D01*
X0281681Y0054755D02*
X0277239Y0054755D01*
X0275640Y0056354D02*
X0281302Y0056354D01*
X0281414Y0057952D02*
X0274042Y0057952D01*
X0272443Y0059551D02*
X0282029Y0059551D01*
X0283429Y0061149D02*
X0270845Y0061149D01*
X0309946Y0061149D02*
X0369921Y0061149D01*
X0369921Y0059551D02*
X0311397Y0059551D01*
X0312059Y0057952D02*
X0369921Y0057952D01*
X0369921Y0056354D02*
X0312100Y0056354D01*
X0311690Y0054755D02*
X0369921Y0054755D01*
X0369921Y0053157D02*
X0310652Y0053157D01*
X0286481Y0025982D02*
X0285719Y0025982D01*
X0285719Y0024384D02*
X0286481Y0024384D01*
X0286481Y0022785D02*
X0285719Y0022785D01*
X0285719Y0021187D02*
X0286481Y0021187D01*
X0364250Y0012307D02*
X0364250Y0011293D01*
X0364638Y0010356D01*
X0365356Y0009638D01*
X0366293Y0009250D01*
X0367307Y0009250D01*
X0368244Y0009638D01*
X0368962Y0010356D01*
X0369350Y0011293D01*
X0369350Y0012307D01*
X0368962Y0013244D01*
X0368244Y0013962D01*
X0367307Y0014350D01*
X0366293Y0014350D01*
X0365356Y0013962D01*
X0364638Y0013244D01*
X0364250Y0012307D01*
X0364250Y0011596D02*
X0014350Y0011596D01*
X0014350Y0011293D02*
X0013962Y0010356D01*
X0013244Y0009638D01*
X0012307Y0009250D01*
X0011293Y0009250D01*
X0010356Y0009638D01*
X0009638Y0010356D01*
X0009250Y0011293D01*
X0009250Y0012307D01*
X0009638Y0013244D01*
X0010356Y0013962D01*
X0011293Y0014350D01*
X0012307Y0014350D01*
X0013244Y0013962D01*
X0013962Y0013244D01*
X0014350Y0012307D01*
X0014350Y0011293D01*
X0013603Y0009997D02*
X0364997Y0009997D01*
X0364617Y0013194D02*
X0013983Y0013194D01*
X0009617Y0013194D02*
X0008600Y0013194D01*
X0008600Y0011596D02*
X0009250Y0011596D01*
X0008600Y0009997D02*
X0009997Y0009997D01*
X0008600Y0014793D02*
X0369921Y0014793D01*
X0369921Y0016391D02*
X0008600Y0016391D01*
X0008600Y0017990D02*
X0369921Y0017990D01*
X0369921Y0019588D02*
X0008600Y0019588D01*
X0017034Y0049960D02*
X0054468Y0049960D01*
X0053850Y0051558D02*
X0037518Y0051558D01*
X0037477Y0051405D02*
X0037600Y0051863D01*
X0037600Y0055719D01*
X0032181Y0055719D01*
X0032181Y0056481D01*
X0031419Y0056481D01*
X0031419Y0061900D01*
X0027563Y0061900D01*
X0027105Y0061777D01*
X0026695Y0061540D01*
X0026360Y0061205D01*
X0026123Y0060795D01*
X0026000Y0060337D01*
X0026000Y0056481D01*
X0031419Y0056481D01*
X0031419Y0055719D01*
X0032181Y0055719D01*
X0032181Y0050300D01*
X0036037Y0050300D01*
X0036495Y0050423D01*
X0036905Y0050660D01*
X0037240Y0050995D01*
X0037477Y0051405D01*
X0037600Y0053157D02*
X0054169Y0053157D01*
X0054400Y0054755D02*
X0053927Y0054755D01*
X0049673Y0054755D02*
X0037600Y0054755D01*
X0037600Y0056481D02*
X0032181Y0056481D01*
X0032181Y0061900D01*
X0036037Y0061900D01*
X0036495Y0061777D01*
X0036905Y0061540D01*
X0037240Y0061205D01*
X0037477Y0060795D01*
X0037600Y0060337D01*
X0037600Y0056481D01*
X0037600Y0057952D02*
X0049084Y0057952D01*
X0048850Y0056354D02*
X0032181Y0056354D01*
X0031419Y0056354D02*
X0014750Y0056354D01*
X0014516Y0057952D02*
X0026000Y0057952D01*
X0026000Y0059551D02*
X0012867Y0059551D01*
X0010733Y0059551D02*
X0008600Y0059551D01*
X0008600Y0061149D02*
X0026327Y0061149D01*
X0031419Y0061149D02*
X0032181Y0061149D01*
X0032181Y0059551D02*
X0031419Y0059551D01*
X0031419Y0057952D02*
X0032181Y0057952D01*
X0031419Y0055719D02*
X0026000Y0055719D01*
X0026000Y0051863D01*
X0026123Y0051405D01*
X0026360Y0050995D01*
X0026695Y0050660D01*
X0027105Y0050423D01*
X0027563Y0050300D01*
X0031419Y0050300D01*
X0031419Y0055719D01*
X0031419Y0054755D02*
X0032181Y0054755D01*
X0032181Y0053157D02*
X0031419Y0053157D01*
X0031419Y0051558D02*
X0032181Y0051558D01*
X0026082Y0051558D02*
X0015436Y0051558D01*
X0014200Y0053157D02*
X0026000Y0053157D01*
X0026000Y0054755D02*
X0014200Y0054755D01*
X0008600Y0062748D02*
X0049400Y0062748D01*
X0049400Y0064346D02*
X0008600Y0064346D01*
X0037273Y0061149D02*
X0049400Y0061149D01*
X0049400Y0059551D02*
X0037600Y0059551D01*
X0079200Y0064346D02*
X0079276Y0064346D01*
X0081800Y0065961D02*
X0081955Y0066116D01*
X0081955Y0111800D01*
X0069747Y0134681D02*
X0047554Y0134681D01*
X0046046Y0134681D02*
X0040707Y0134681D01*
X0071800Y0136800D02*
X0081955Y0136800D01*
X0027753Y0102711D02*
X0024200Y0102711D01*
X0024200Y0101112D02*
X0026680Y0101112D01*
X0026200Y0099514D02*
X0024200Y0099514D01*
X0024200Y0097915D02*
X0026200Y0097915D01*
X0025677Y0096317D02*
X0026783Y0096317D01*
X0027276Y0094718D02*
X0028001Y0094718D01*
X0074299Y0085127D02*
X0074400Y0085127D01*
X0298890Y0158659D02*
X0309133Y0158659D01*
X0316800Y0131800D02*
X0311800Y0126800D01*
X0311800Y0121800D01*
X0368983Y0013194D02*
X0369921Y0013194D01*
X0369921Y0011596D02*
X0369350Y0011596D01*
X0369921Y0009997D02*
X0368603Y0009997D01*
D20*
X0346800Y0036800D03*
X0306800Y0041800D03*
X0286825Y0041861D03*
X0266800Y0046800D03*
X0251800Y0036800D03*
X0241800Y0036800D03*
X0201800Y0041800D03*
X0201800Y0046800D03*
X0181800Y0042150D03*
X0166800Y0051800D03*
X0161775Y0046739D03*
X0151800Y0056800D03*
X0136800Y0051800D03*
X0129474Y0051800D03*
X0171800Y0071800D03*
X0156843Y0076843D03*
X0166825Y0086739D03*
X0151861Y0096775D03*
X0146800Y0106800D03*
X0131800Y0107150D03*
X0129714Y0103886D03*
X0121800Y0101800D03*
X0111800Y0101800D03*
X0081955Y0111800D03*
X0086800Y0126800D03*
X0081955Y0136800D03*
X0081955Y0141800D03*
X0071800Y0141800D03*
X0071800Y0136800D03*
X0066800Y0126800D03*
X0046800Y0131800D03*
X0011800Y0131800D03*
X0021800Y0111800D03*
X0071800Y0086800D03*
X0066800Y0081800D03*
X0076800Y0096800D03*
X0116800Y0086800D03*
X0126800Y0081800D03*
X0081800Y0065961D03*
X0071800Y0051800D03*
X0056800Y0051800D03*
X0051800Y0056800D03*
X0051800Y0036800D03*
X0011800Y0056800D03*
X0126800Y0136800D03*
X0151800Y0146800D03*
X0176800Y0141800D03*
X0186800Y0141800D03*
X0166800Y0121800D03*
X0181800Y0111800D03*
X0186800Y0101800D03*
X0231800Y0076800D03*
X0256800Y0066800D03*
X0271800Y0081133D03*
X0261800Y0081800D03*
X0251800Y0091800D03*
X0256800Y0096800D03*
X0281800Y0091800D03*
X0306800Y0116800D03*
X0311800Y0121800D03*
X0316800Y0131800D03*
X0336800Y0131800D03*
X0361800Y0116800D03*
X0336800Y0086800D03*
X0291800Y0061800D03*
X0246800Y0121800D03*
X0231800Y0141800D03*
X0258050Y0151800D03*
X0261800Y0146800D03*
X0271800Y0141800D03*
X0281800Y0156800D03*
X0256800Y0161800D03*
X0246800Y0161800D03*
X0221800Y0161800D03*
X0171800Y0181800D03*
X0286800Y0176800D03*
X0311800Y0156800D03*
X0050225Y0160225D03*
D21*
X0041800Y0174950D02*
X0043650Y0176800D01*
X0076800Y0176800D01*
X0079950Y0173650D01*
X0081800Y0173650D01*
X0146800Y0106800D02*
X0151800Y0106800D01*
X0129714Y0103886D02*
X0126800Y0100972D01*
X0126800Y0081800D01*
D22*
X0148511Y0080438D02*
X0165438Y0063511D01*
X0173162Y0063511D01*
X0175089Y0065438D01*
X0175089Y0068162D01*
X0189217Y0068162D01*
X0195580Y0061800D01*
X0148511Y0080438D02*
X0148511Y0098162D01*
X0152149Y0101800D01*
X0186800Y0101800D01*
X0276800Y0086800D02*
X0276800Y0081184D01*
X0276809Y0081175D01*
X0276809Y0078607D01*
X0276800Y0078598D01*
X0276800Y0076800D01*
X0291800Y0061800D01*
X0276800Y0086800D02*
X0281800Y0091800D01*
D23*
X0336800Y0086800D02*
X0336800Y0131800D01*
X0311800Y0156800D02*
X0296800Y0141800D01*
X0271800Y0141800D01*
X0266800Y0141800D01*
X0261800Y0146800D01*
X0171800Y0181800D02*
X0121800Y0181800D01*
X0103650Y0181800D01*
X0101800Y0179950D01*
X0091800Y0179950D01*
X0081800Y0179950D01*
X0071800Y0179950D01*
X0121800Y0181800D02*
X0121800Y0141800D01*
X0126800Y0136800D01*
M02*
