G75*
%MOIN*%
%OFA0B0*%
%FSLAX25Y25*%
%IPPOS*%
%LPD*%
%AMOC8*
5,1,8,0,0,1.08239X$1,22.5*
%
%ADD10C,0.00500*%
D10*
X0078847Y0145894D02*
X0084753Y0145894D01*
X0084753Y0157706D01*
X0078847Y0157706D01*
X0078847Y0145894D01*
X0088847Y0145894D02*
X0094753Y0145894D01*
X0094753Y0157706D01*
X0088847Y0157706D01*
X0088847Y0145894D01*
X0090050Y0151050D02*
X0091800Y0152550D01*
X0093550Y0151050D01*
X0090050Y0151050D01*
X0090050Y0152550D02*
X0093550Y0152550D01*
X0100050Y0152550D02*
X0103550Y0152550D01*
X0103550Y0151050D02*
X0101800Y0152550D01*
X0100050Y0151050D01*
X0103550Y0151050D01*
X0104753Y0145894D02*
X0098847Y0145894D01*
X0098847Y0157706D01*
X0104753Y0157706D01*
X0104753Y0145894D01*
X0083550Y0151050D02*
X0081800Y0152550D01*
X0080050Y0151050D01*
X0083550Y0151050D01*
X0083550Y0152550D02*
X0080050Y0152550D01*
X0044753Y0165894D02*
X0044753Y0177706D01*
X0038847Y0177706D01*
X0038847Y0165894D01*
X0044753Y0165894D01*
X0043550Y0171050D02*
X0041800Y0172550D01*
X0040050Y0171050D01*
X0043550Y0171050D01*
X0043550Y0172550D02*
X0040050Y0172550D01*
X0068847Y0170894D02*
X0074753Y0170894D01*
X0074753Y0182706D01*
X0068847Y0182706D01*
X0068847Y0170894D01*
X0070050Y0176050D02*
X0071800Y0177550D01*
X0073550Y0176050D01*
X0070050Y0176050D01*
X0070050Y0177550D02*
X0073550Y0177550D01*
X0080050Y0177550D02*
X0083550Y0177550D01*
X0083550Y0176050D02*
X0081800Y0177550D01*
X0080050Y0176050D01*
X0083550Y0176050D01*
X0084753Y0170894D02*
X0078847Y0170894D01*
X0078847Y0182706D01*
X0084753Y0182706D01*
X0084753Y0170894D01*
X0088847Y0170894D02*
X0094753Y0170894D01*
X0094753Y0182706D01*
X0088847Y0182706D01*
X0088847Y0170894D01*
X0090050Y0176050D02*
X0091800Y0177550D01*
X0093550Y0176050D01*
X0090050Y0176050D01*
X0090050Y0177550D02*
X0093550Y0177550D01*
X0100050Y0177550D02*
X0103550Y0177550D01*
X0103550Y0176050D02*
X0101800Y0177550D01*
X0100050Y0176050D01*
X0103550Y0176050D01*
X0104753Y0170894D02*
X0098847Y0170894D01*
X0098847Y0182706D01*
X0104753Y0182706D01*
X0104753Y0170894D01*
M02*
