G75*
%MOIN*%
%OFA0B0*%
%FSLAX25Y25*%
%IPPOS*%
%LPD*%
%AMOC8*
5,1,8,0,0,1.08239X$1,22.5*
%
%ADD10C,0.00000*%
D10*
X0006800Y0006800D02*
X0006800Y0190501D01*
X0371721Y0190501D01*
X0371721Y0006800D01*
X0006800Y0006800D01*
X0011050Y0011800D02*
X0011052Y0011854D01*
X0011058Y0011908D01*
X0011068Y0011961D01*
X0011081Y0012014D01*
X0011098Y0012065D01*
X0011119Y0012115D01*
X0011144Y0012163D01*
X0011172Y0012210D01*
X0011203Y0012254D01*
X0011237Y0012296D01*
X0011274Y0012335D01*
X0011314Y0012372D01*
X0011357Y0012405D01*
X0011402Y0012436D01*
X0011449Y0012463D01*
X0011497Y0012486D01*
X0011548Y0012506D01*
X0011599Y0012523D01*
X0011652Y0012535D01*
X0011705Y0012544D01*
X0011759Y0012549D01*
X0011814Y0012550D01*
X0011868Y0012547D01*
X0011921Y0012540D01*
X0011974Y0012529D01*
X0012027Y0012515D01*
X0012078Y0012497D01*
X0012127Y0012475D01*
X0012175Y0012450D01*
X0012221Y0012421D01*
X0012265Y0012389D01*
X0012306Y0012354D01*
X0012344Y0012316D01*
X0012380Y0012275D01*
X0012413Y0012232D01*
X0012443Y0012187D01*
X0012469Y0012139D01*
X0012492Y0012090D01*
X0012511Y0012039D01*
X0012526Y0011988D01*
X0012538Y0011935D01*
X0012546Y0011881D01*
X0012550Y0011827D01*
X0012550Y0011773D01*
X0012546Y0011719D01*
X0012538Y0011665D01*
X0012526Y0011612D01*
X0012511Y0011561D01*
X0012492Y0011510D01*
X0012469Y0011461D01*
X0012443Y0011413D01*
X0012413Y0011368D01*
X0012380Y0011325D01*
X0012344Y0011284D01*
X0012306Y0011246D01*
X0012265Y0011211D01*
X0012221Y0011179D01*
X0012175Y0011150D01*
X0012127Y0011125D01*
X0012078Y0011103D01*
X0012027Y0011085D01*
X0011974Y0011071D01*
X0011921Y0011060D01*
X0011868Y0011053D01*
X0011814Y0011050D01*
X0011759Y0011051D01*
X0011705Y0011056D01*
X0011652Y0011065D01*
X0011599Y0011077D01*
X0011548Y0011094D01*
X0011497Y0011114D01*
X0011449Y0011137D01*
X0011402Y0011164D01*
X0011357Y0011195D01*
X0011314Y0011228D01*
X0011274Y0011265D01*
X0011237Y0011304D01*
X0011203Y0011346D01*
X0011172Y0011390D01*
X0011144Y0011437D01*
X0011119Y0011485D01*
X0011098Y0011535D01*
X0011081Y0011586D01*
X0011068Y0011639D01*
X0011058Y0011692D01*
X0011052Y0011746D01*
X0011050Y0011800D01*
X0011050Y0186800D02*
X0011052Y0186854D01*
X0011058Y0186908D01*
X0011068Y0186961D01*
X0011081Y0187014D01*
X0011098Y0187065D01*
X0011119Y0187115D01*
X0011144Y0187163D01*
X0011172Y0187210D01*
X0011203Y0187254D01*
X0011237Y0187296D01*
X0011274Y0187335D01*
X0011314Y0187372D01*
X0011357Y0187405D01*
X0011402Y0187436D01*
X0011449Y0187463D01*
X0011497Y0187486D01*
X0011548Y0187506D01*
X0011599Y0187523D01*
X0011652Y0187535D01*
X0011705Y0187544D01*
X0011759Y0187549D01*
X0011814Y0187550D01*
X0011868Y0187547D01*
X0011921Y0187540D01*
X0011974Y0187529D01*
X0012027Y0187515D01*
X0012078Y0187497D01*
X0012127Y0187475D01*
X0012175Y0187450D01*
X0012221Y0187421D01*
X0012265Y0187389D01*
X0012306Y0187354D01*
X0012344Y0187316D01*
X0012380Y0187275D01*
X0012413Y0187232D01*
X0012443Y0187187D01*
X0012469Y0187139D01*
X0012492Y0187090D01*
X0012511Y0187039D01*
X0012526Y0186988D01*
X0012538Y0186935D01*
X0012546Y0186881D01*
X0012550Y0186827D01*
X0012550Y0186773D01*
X0012546Y0186719D01*
X0012538Y0186665D01*
X0012526Y0186612D01*
X0012511Y0186561D01*
X0012492Y0186510D01*
X0012469Y0186461D01*
X0012443Y0186413D01*
X0012413Y0186368D01*
X0012380Y0186325D01*
X0012344Y0186284D01*
X0012306Y0186246D01*
X0012265Y0186211D01*
X0012221Y0186179D01*
X0012175Y0186150D01*
X0012127Y0186125D01*
X0012078Y0186103D01*
X0012027Y0186085D01*
X0011974Y0186071D01*
X0011921Y0186060D01*
X0011868Y0186053D01*
X0011814Y0186050D01*
X0011759Y0186051D01*
X0011705Y0186056D01*
X0011652Y0186065D01*
X0011599Y0186077D01*
X0011548Y0186094D01*
X0011497Y0186114D01*
X0011449Y0186137D01*
X0011402Y0186164D01*
X0011357Y0186195D01*
X0011314Y0186228D01*
X0011274Y0186265D01*
X0011237Y0186304D01*
X0011203Y0186346D01*
X0011172Y0186390D01*
X0011144Y0186437D01*
X0011119Y0186485D01*
X0011098Y0186535D01*
X0011081Y0186586D01*
X0011068Y0186639D01*
X0011058Y0186692D01*
X0011052Y0186746D01*
X0011050Y0186800D01*
X0366050Y0186800D02*
X0366052Y0186854D01*
X0366058Y0186908D01*
X0366068Y0186961D01*
X0366081Y0187014D01*
X0366098Y0187065D01*
X0366119Y0187115D01*
X0366144Y0187163D01*
X0366172Y0187210D01*
X0366203Y0187254D01*
X0366237Y0187296D01*
X0366274Y0187335D01*
X0366314Y0187372D01*
X0366357Y0187405D01*
X0366402Y0187436D01*
X0366449Y0187463D01*
X0366497Y0187486D01*
X0366548Y0187506D01*
X0366599Y0187523D01*
X0366652Y0187535D01*
X0366705Y0187544D01*
X0366759Y0187549D01*
X0366814Y0187550D01*
X0366868Y0187547D01*
X0366921Y0187540D01*
X0366974Y0187529D01*
X0367027Y0187515D01*
X0367078Y0187497D01*
X0367127Y0187475D01*
X0367175Y0187450D01*
X0367221Y0187421D01*
X0367265Y0187389D01*
X0367306Y0187354D01*
X0367344Y0187316D01*
X0367380Y0187275D01*
X0367413Y0187232D01*
X0367443Y0187187D01*
X0367469Y0187139D01*
X0367492Y0187090D01*
X0367511Y0187039D01*
X0367526Y0186988D01*
X0367538Y0186935D01*
X0367546Y0186881D01*
X0367550Y0186827D01*
X0367550Y0186773D01*
X0367546Y0186719D01*
X0367538Y0186665D01*
X0367526Y0186612D01*
X0367511Y0186561D01*
X0367492Y0186510D01*
X0367469Y0186461D01*
X0367443Y0186413D01*
X0367413Y0186368D01*
X0367380Y0186325D01*
X0367344Y0186284D01*
X0367306Y0186246D01*
X0367265Y0186211D01*
X0367221Y0186179D01*
X0367175Y0186150D01*
X0367127Y0186125D01*
X0367078Y0186103D01*
X0367027Y0186085D01*
X0366974Y0186071D01*
X0366921Y0186060D01*
X0366868Y0186053D01*
X0366814Y0186050D01*
X0366759Y0186051D01*
X0366705Y0186056D01*
X0366652Y0186065D01*
X0366599Y0186077D01*
X0366548Y0186094D01*
X0366497Y0186114D01*
X0366449Y0186137D01*
X0366402Y0186164D01*
X0366357Y0186195D01*
X0366314Y0186228D01*
X0366274Y0186265D01*
X0366237Y0186304D01*
X0366203Y0186346D01*
X0366172Y0186390D01*
X0366144Y0186437D01*
X0366119Y0186485D01*
X0366098Y0186535D01*
X0366081Y0186586D01*
X0366068Y0186639D01*
X0366058Y0186692D01*
X0366052Y0186746D01*
X0366050Y0186800D01*
X0366050Y0011800D02*
X0366052Y0011854D01*
X0366058Y0011908D01*
X0366068Y0011961D01*
X0366081Y0012014D01*
X0366098Y0012065D01*
X0366119Y0012115D01*
X0366144Y0012163D01*
X0366172Y0012210D01*
X0366203Y0012254D01*
X0366237Y0012296D01*
X0366274Y0012335D01*
X0366314Y0012372D01*
X0366357Y0012405D01*
X0366402Y0012436D01*
X0366449Y0012463D01*
X0366497Y0012486D01*
X0366548Y0012506D01*
X0366599Y0012523D01*
X0366652Y0012535D01*
X0366705Y0012544D01*
X0366759Y0012549D01*
X0366814Y0012550D01*
X0366868Y0012547D01*
X0366921Y0012540D01*
X0366974Y0012529D01*
X0367027Y0012515D01*
X0367078Y0012497D01*
X0367127Y0012475D01*
X0367175Y0012450D01*
X0367221Y0012421D01*
X0367265Y0012389D01*
X0367306Y0012354D01*
X0367344Y0012316D01*
X0367380Y0012275D01*
X0367413Y0012232D01*
X0367443Y0012187D01*
X0367469Y0012139D01*
X0367492Y0012090D01*
X0367511Y0012039D01*
X0367526Y0011988D01*
X0367538Y0011935D01*
X0367546Y0011881D01*
X0367550Y0011827D01*
X0367550Y0011773D01*
X0367546Y0011719D01*
X0367538Y0011665D01*
X0367526Y0011612D01*
X0367511Y0011561D01*
X0367492Y0011510D01*
X0367469Y0011461D01*
X0367443Y0011413D01*
X0367413Y0011368D01*
X0367380Y0011325D01*
X0367344Y0011284D01*
X0367306Y0011246D01*
X0367265Y0011211D01*
X0367221Y0011179D01*
X0367175Y0011150D01*
X0367127Y0011125D01*
X0367078Y0011103D01*
X0367027Y0011085D01*
X0366974Y0011071D01*
X0366921Y0011060D01*
X0366868Y0011053D01*
X0366814Y0011050D01*
X0366759Y0011051D01*
X0366705Y0011056D01*
X0366652Y0011065D01*
X0366599Y0011077D01*
X0366548Y0011094D01*
X0366497Y0011114D01*
X0366449Y0011137D01*
X0366402Y0011164D01*
X0366357Y0011195D01*
X0366314Y0011228D01*
X0366274Y0011265D01*
X0366237Y0011304D01*
X0366203Y0011346D01*
X0366172Y0011390D01*
X0366144Y0011437D01*
X0366119Y0011485D01*
X0366098Y0011535D01*
X0366081Y0011586D01*
X0366068Y0011639D01*
X0366058Y0011692D01*
X0366052Y0011746D01*
X0366050Y0011800D01*
M02*
