G75*
%MOIN*%
%OFA0B0*%
%FSLAX25Y25*%
%IPPOS*%
%LPD*%
%AMOC8*
5,1,8,0,0,1.08239X$1,22.5*
%
%ADD10C,0.01900*%
%ADD11R,0.05518X0.06306*%
%ADD12R,0.06306X0.05518*%
%ADD13C,0.07487*%
%ADD14R,0.24809X0.21660*%
%ADD15R,0.06699X0.04337*%
%ADD16C,0.06800*%
%ADD17R,0.08400X0.08400*%
%ADD18C,0.08400*%
%ADD19C,0.17400*%
%ADD20R,0.06384X0.07408*%
%ADD21R,0.03943X0.03746*%
%ADD22R,0.06699X0.05518*%
%ADD23C,0.07800*%
%ADD24C,0.07400*%
%ADD25R,0.05400X0.02600*%
%ADD26R,0.02600X0.05400*%
%ADD27R,0.21400X0.08000*%
%ADD28C,0.07450*%
D10*
X0011800Y0011800D03*
X0011800Y0186800D03*
X0366800Y0186800D03*
X0366800Y0011800D03*
D11*
X0165146Y0126800D03*
X0158454Y0126800D03*
X0158454Y0136800D03*
X0165146Y0136800D03*
X0060540Y0146800D03*
X0053060Y0146800D03*
X0053060Y0166800D03*
X0060540Y0166800D03*
D12*
X0311800Y0085146D03*
X0311800Y0078454D03*
X0326800Y0078454D03*
X0326800Y0085146D03*
D13*
X0251800Y0148257D02*
X0251800Y0155343D01*
X0241800Y0155343D02*
X0241800Y0148257D01*
X0231800Y0148257D02*
X0231800Y0155343D01*
X0221800Y0155343D02*
X0221800Y0148257D01*
X0211800Y0148257D02*
X0211800Y0155343D01*
X0201800Y0155343D02*
X0201800Y0148257D01*
X0191800Y0148257D02*
X0191800Y0155343D01*
X0181800Y0155343D02*
X0181800Y0148257D01*
X0186800Y0168257D02*
X0186800Y0175343D01*
X0196800Y0175343D02*
X0196800Y0168257D01*
X0206800Y0168257D02*
X0206800Y0175343D01*
X0216800Y0175343D02*
X0216800Y0168257D01*
X0226800Y0168257D02*
X0226800Y0175343D01*
X0236800Y0175343D02*
X0236800Y0168257D01*
X0246800Y0168257D02*
X0246800Y0175343D01*
D14*
X0226643Y0116800D03*
D15*
X0197902Y0107824D03*
X0197902Y0125776D03*
D16*
X0036800Y0131800D03*
X0026800Y0131800D03*
X0026800Y0141800D03*
X0036800Y0141800D03*
X0036800Y0151800D03*
X0026800Y0151800D03*
D17*
X0181800Y0061800D03*
X0156100Y0026800D03*
X0091100Y0026800D03*
X0031800Y0056100D03*
X0026100Y0026800D03*
X0221100Y0026800D03*
X0286100Y0026800D03*
D18*
X0301280Y0026800D03*
X0313659Y0026800D03*
X0328839Y0026800D03*
X0263839Y0026800D03*
X0248659Y0026800D03*
X0236280Y0026800D03*
X0198839Y0026800D03*
X0183659Y0026800D03*
X0171280Y0026800D03*
X0133839Y0026800D03*
X0118659Y0026800D03*
X0106280Y0026800D03*
X0068839Y0026800D03*
X0053659Y0026800D03*
X0041280Y0026800D03*
X0031800Y0071280D03*
X0031800Y0083659D03*
X0031800Y0098839D03*
X0195580Y0061800D03*
X0209359Y0061800D03*
X0223139Y0061800D03*
X0236918Y0061800D03*
D19*
X0327863Y0156800D03*
X0351485Y0156800D03*
X0339674Y0175304D03*
D20*
X0355087Y0121800D03*
X0355087Y0111800D03*
X0355087Y0101800D03*
X0318513Y0101800D03*
X0318513Y0111800D03*
X0318513Y0121800D03*
X0300087Y0121800D03*
X0300087Y0111800D03*
X0300087Y0101800D03*
X0263513Y0101800D03*
X0263513Y0111800D03*
X0263513Y0121800D03*
D21*
X0281800Y0084083D03*
X0281800Y0079517D03*
D22*
X0296800Y0078060D03*
X0296800Y0085540D03*
D23*
X0296800Y0056800D03*
X0286800Y0056800D03*
X0306800Y0056800D03*
D24*
X0104595Y0166800D03*
X0079005Y0166800D03*
D25*
X0104900Y0087824D03*
X0104900Y0084674D03*
X0104900Y0081524D03*
X0104900Y0078375D03*
X0104900Y0075225D03*
X0104900Y0072076D03*
X0104900Y0068926D03*
X0104900Y0065776D03*
X0138700Y0065776D03*
X0138700Y0068926D03*
X0138700Y0072076D03*
X0138700Y0075225D03*
X0138700Y0078375D03*
X0138700Y0081524D03*
X0138700Y0084674D03*
X0138700Y0087824D03*
D26*
X0132824Y0093700D03*
X0129674Y0093700D03*
X0126524Y0093700D03*
X0123375Y0093700D03*
X0120225Y0093700D03*
X0117076Y0093700D03*
X0113926Y0093700D03*
X0110776Y0093700D03*
X0110776Y0059900D03*
X0113926Y0059900D03*
X0117076Y0059900D03*
X0120225Y0059900D03*
X0123375Y0059900D03*
X0126524Y0059900D03*
X0129674Y0059900D03*
X0132824Y0059900D03*
D27*
X0140800Y0121800D03*
X0102800Y0121800D03*
D28*
X0136957Y0163275D02*
X0136957Y0170325D01*
X0156643Y0170325D02*
X0156643Y0163275D01*
X0276957Y0163275D02*
X0276957Y0170325D01*
X0296643Y0170325D02*
X0296643Y0163275D01*
M02*
