G75*
%MOIN*%
%OFA0B0*%
%FSLAX25Y25*%
%IPPOS*%
%LPD*%
%AMOC8*
5,1,8,0,0,1.08239X$1,22.5*
%
%ADD10R,0.05118X0.05906*%
%ADD11R,0.05906X0.05118*%
%ADD12R,0.24409X0.21260*%
%ADD13R,0.06299X0.03937*%
%ADD14R,0.05984X0.07008*%
%ADD15R,0.03543X0.03346*%
%ADD16R,0.06299X0.05118*%
%ADD17R,0.05000X0.02200*%
%ADD18R,0.02200X0.05000*%
%ADD19R,0.21000X0.07600*%
D10*
X0158454Y0126800D03*
X0165146Y0126800D03*
X0165146Y0136800D03*
X0158454Y0136800D03*
X0060540Y0146800D03*
X0053060Y0146800D03*
X0053060Y0166800D03*
X0060540Y0166800D03*
D11*
X0311800Y0085146D03*
X0311800Y0078454D03*
X0326800Y0078454D03*
X0326800Y0085146D03*
D12*
X0226643Y0116800D03*
D13*
X0197902Y0107824D03*
X0197902Y0125776D03*
D14*
X0263513Y0121800D03*
X0263513Y0111800D03*
X0263513Y0101800D03*
X0300087Y0101800D03*
X0300087Y0111800D03*
X0300087Y0121800D03*
X0318513Y0121800D03*
X0318513Y0111800D03*
X0318513Y0101800D03*
X0355087Y0101800D03*
X0355087Y0111800D03*
X0355087Y0121800D03*
D15*
X0281800Y0084083D03*
X0281800Y0079517D03*
D16*
X0296800Y0078060D03*
X0296800Y0085540D03*
D17*
X0138700Y0084674D03*
X0138700Y0081524D03*
X0138700Y0078375D03*
X0138700Y0075225D03*
X0138700Y0072076D03*
X0138700Y0068926D03*
X0138700Y0065776D03*
X0104900Y0065776D03*
X0104900Y0068926D03*
X0104900Y0072076D03*
X0104900Y0075225D03*
X0104900Y0078375D03*
X0104900Y0081524D03*
X0104900Y0084674D03*
X0104900Y0087824D03*
X0138700Y0087824D03*
D18*
X0110776Y0059900D03*
X0113926Y0059900D03*
X0117076Y0059900D03*
X0120225Y0059900D03*
X0123375Y0059900D03*
X0126524Y0059900D03*
X0129674Y0059900D03*
X0132824Y0059900D03*
X0132824Y0093700D03*
X0129674Y0093700D03*
X0126524Y0093700D03*
X0123375Y0093700D03*
X0120225Y0093700D03*
X0117076Y0093700D03*
X0113926Y0093700D03*
X0110776Y0093700D03*
D19*
X0102800Y0121800D03*
X0140800Y0121800D03*
M02*
