G75*
%MOIN*%
%OFA0B0*%
%FSLAX25Y25*%
%IPPOS*%
%LPD*%
%AMOC8*
5,1,8,0,0,1.08239X$1,22.5*
%
%ADD10R,0.05906X0.05118*%
%ADD11R,0.05118X0.05906*%
%ADD12C,0.07087*%
%ADD13R,0.24409X0.21260*%
%ADD14R,0.06299X0.03937*%
%ADD15C,0.06400*%
%ADD16R,0.08000X0.08000*%
%ADD17C,0.08000*%
%ADD18C,0.17000*%
%ADD19R,0.05984X0.07008*%
%ADD20R,0.03346X0.03543*%
%ADD21R,0.05118X0.06299*%
%ADD22C,0.07400*%
%ADD23C,0.07000*%
%ADD24R,0.05000X0.02200*%
%ADD25R,0.02200X0.05000*%
%ADD26R,0.07600X0.21000*%
%ADD27C,0.07050*%
%ADD28C,0.01000*%
%ADD29C,0.02700*%
%ADD30C,0.02000*%
D10*
X0063500Y0101760D03*
X0063500Y0109240D03*
X0065500Y0129760D03*
X0065500Y0137240D03*
X0124618Y0237350D03*
X0124618Y0244043D03*
D11*
X0234382Y0192020D03*
X0241075Y0192020D03*
X0256933Y0192020D03*
X0263626Y0192020D03*
X0263626Y0176461D03*
X0256933Y0176461D03*
X0241075Y0176461D03*
X0234382Y0176461D03*
X0234382Y0160902D03*
X0241075Y0160902D03*
X0256933Y0160902D03*
X0263626Y0160902D03*
X0263626Y0144563D03*
X0256933Y0144563D03*
X0241075Y0144343D03*
X0234382Y0144343D03*
X0256154Y0119500D03*
X0262846Y0119500D03*
X0262846Y0110500D03*
X0256154Y0110500D03*
X0301154Y0128500D03*
X0307846Y0128500D03*
D12*
X0203657Y0197736D02*
X0203657Y0204823D01*
X0193657Y0204823D02*
X0193657Y0197736D01*
X0183657Y0197736D02*
X0183657Y0204823D01*
X0173657Y0204823D02*
X0173657Y0197736D01*
X0163657Y0197736D02*
X0163657Y0204823D01*
X0153657Y0204823D02*
X0153657Y0197736D01*
X0143657Y0197736D02*
X0143657Y0204823D01*
X0133657Y0204823D02*
X0133657Y0197736D01*
X0138657Y0217736D02*
X0138657Y0224823D01*
X0148657Y0224823D02*
X0148657Y0217736D01*
X0158657Y0217736D02*
X0158657Y0224823D01*
X0168657Y0224823D02*
X0168657Y0217736D01*
X0178657Y0217736D02*
X0178657Y0224823D01*
X0188657Y0224823D02*
X0188657Y0217736D01*
X0198657Y0217736D02*
X0198657Y0224823D01*
D13*
X0300343Y0110500D03*
D14*
X0271602Y0101524D03*
X0271602Y0119476D03*
D15*
X0151500Y0109500D03*
X0141500Y0109500D03*
X0141500Y0099500D03*
X0141500Y0089500D03*
X0151500Y0089500D03*
X0151500Y0099500D03*
D16*
X0126131Y0036185D03*
X0183917Y0036185D03*
X0254083Y0036185D03*
X0067076Y0036185D03*
X0041500Y0099200D03*
X0041500Y0160200D03*
X0041500Y0221200D03*
D17*
X0041500Y0206020D03*
X0041500Y0193641D03*
X0041500Y0178461D03*
X0041500Y0145020D03*
X0041500Y0132641D03*
X0041500Y0117461D03*
X0041500Y0084020D03*
X0041500Y0071641D03*
X0041500Y0056461D03*
X0082255Y0036185D03*
X0094635Y0036185D03*
X0109814Y0036185D03*
X0141310Y0036185D03*
X0153690Y0036185D03*
X0168869Y0036185D03*
X0197697Y0036185D03*
X0211476Y0036185D03*
X0225256Y0036185D03*
X0239035Y0036185D03*
X0269263Y0036185D03*
X0281643Y0036185D03*
X0296822Y0036185D03*
D18*
X0306059Y0169217D03*
X0294248Y0187720D03*
X0282437Y0169217D03*
D19*
X0219472Y0156437D03*
X0219472Y0146437D03*
X0219472Y0136437D03*
X0182898Y0136437D03*
X0182898Y0146437D03*
X0182898Y0156437D03*
X0181213Y0105500D03*
X0181213Y0095500D03*
X0181213Y0085500D03*
X0217787Y0085500D03*
X0217787Y0095500D03*
X0217787Y0105500D03*
D20*
X0302217Y0091500D03*
X0306783Y0091500D03*
D21*
X0307240Y0081500D03*
X0299760Y0081500D03*
D22*
X0090815Y0239185D03*
X0080815Y0239185D03*
X0070815Y0239185D03*
D23*
X0081705Y0185437D03*
X0107295Y0185437D03*
D24*
X0104600Y0140524D03*
X0104600Y0137374D03*
X0104600Y0134224D03*
X0104600Y0131075D03*
X0104600Y0127925D03*
X0104600Y0124776D03*
X0104600Y0121626D03*
X0104600Y0118476D03*
X0138400Y0118476D03*
X0138400Y0121626D03*
X0138400Y0124776D03*
X0138400Y0127925D03*
X0138400Y0131075D03*
X0138400Y0134224D03*
X0138400Y0137374D03*
X0138400Y0140524D03*
D25*
X0132524Y0146400D03*
X0129374Y0146400D03*
X0126224Y0146400D03*
X0123075Y0146400D03*
X0119925Y0146400D03*
X0116776Y0146400D03*
X0113626Y0146400D03*
X0110476Y0146400D03*
X0110476Y0112600D03*
X0113626Y0112600D03*
X0116776Y0112600D03*
X0119925Y0112600D03*
X0123075Y0112600D03*
X0126224Y0112600D03*
X0129374Y0112600D03*
X0132524Y0112600D03*
D26*
X0084500Y0099500D03*
X0084500Y0137500D03*
D27*
X0236720Y0228597D02*
X0236720Y0235647D01*
X0256406Y0235647D02*
X0256406Y0228597D01*
X0280657Y0228597D02*
X0280657Y0235647D01*
X0300343Y0235647D02*
X0300343Y0228597D01*
D28*
X0024909Y0025372D02*
X0026468Y0022672D01*
X0028672Y0020468D01*
X0031372Y0018909D01*
X0034383Y0018102D01*
X0035942Y0018000D01*
X0311494Y0018000D01*
X0312981Y0018117D01*
X0315810Y0019036D01*
X0318216Y0020784D01*
X0319964Y0023190D01*
X0320883Y0026019D01*
X0321000Y0027506D01*
X0321000Y0242397D01*
X0321000Y0243018D01*
X0320868Y0244696D01*
X0319830Y0247889D01*
X0317857Y0250605D01*
X0315141Y0252579D01*
X0311948Y0253616D01*
X0310270Y0253748D01*
X0033426Y0253748D01*
X0031951Y0253632D01*
X0029147Y0252721D01*
X0026761Y0250987D01*
X0025027Y0248602D01*
X0024116Y0245797D01*
X0024000Y0244322D01*
X0024000Y0029942D01*
X0024102Y0028383D01*
X0024909Y0025372D01*
X0024878Y0025487D02*
X0035220Y0025487D01*
X0034053Y0025970D02*
X0031970Y0028053D01*
X0030843Y0030775D01*
X0030843Y0033721D01*
X0031970Y0036443D01*
X0034053Y0038526D01*
X0036775Y0039654D01*
X0039721Y0039654D01*
X0042443Y0038526D01*
X0044526Y0036443D01*
X0045654Y0033721D01*
X0045654Y0030775D01*
X0044526Y0028053D01*
X0042443Y0025970D01*
X0039721Y0024843D01*
X0036775Y0024843D01*
X0034053Y0025970D01*
X0033538Y0026485D02*
X0024611Y0026485D01*
X0024343Y0027484D02*
X0032539Y0027484D01*
X0031792Y0028482D02*
X0024096Y0028482D01*
X0024030Y0029481D02*
X0031379Y0029481D01*
X0030965Y0030479D02*
X0024000Y0030479D01*
X0024000Y0031478D02*
X0030843Y0031478D01*
X0030843Y0032476D02*
X0024000Y0032476D01*
X0024000Y0033475D02*
X0030843Y0033475D01*
X0031154Y0034473D02*
X0024000Y0034473D01*
X0024000Y0035472D02*
X0031568Y0035472D01*
X0031997Y0036470D02*
X0024000Y0036470D01*
X0024000Y0037469D02*
X0032996Y0037469D01*
X0033994Y0038467D02*
X0024000Y0038467D01*
X0024000Y0039466D02*
X0036322Y0039466D01*
X0040174Y0039466D02*
X0061576Y0039466D01*
X0061576Y0040383D02*
X0061576Y0036685D01*
X0066576Y0036685D01*
X0066576Y0041685D01*
X0062878Y0041685D01*
X0062497Y0041583D01*
X0062155Y0041385D01*
X0061875Y0041106D01*
X0061678Y0040764D01*
X0061576Y0040383D01*
X0061598Y0040464D02*
X0024000Y0040464D01*
X0024000Y0041463D02*
X0062289Y0041463D01*
X0061576Y0038467D02*
X0042502Y0038467D01*
X0043500Y0037469D02*
X0061576Y0037469D01*
X0061576Y0035685D02*
X0061576Y0031988D01*
X0061678Y0031606D01*
X0061875Y0031264D01*
X0062155Y0030985D01*
X0062497Y0030787D01*
X0062878Y0030685D01*
X0066576Y0030685D01*
X0066576Y0035685D01*
X0067576Y0035685D01*
X0067576Y0036685D01*
X0072576Y0036685D01*
X0072576Y0040383D01*
X0072473Y0040764D01*
X0072276Y0041106D01*
X0071997Y0041385D01*
X0071655Y0041583D01*
X0071273Y0041685D01*
X0067576Y0041685D01*
X0067576Y0036685D01*
X0066576Y0036685D01*
X0066576Y0035685D01*
X0061576Y0035685D01*
X0061576Y0035472D02*
X0044928Y0035472D01*
X0045342Y0034473D02*
X0061576Y0034473D01*
X0061576Y0033475D02*
X0045654Y0033475D01*
X0045654Y0032476D02*
X0061576Y0032476D01*
X0061752Y0031478D02*
X0045654Y0031478D01*
X0045531Y0030479D02*
X0321000Y0030479D01*
X0321000Y0029481D02*
X0045117Y0029481D01*
X0044704Y0028482D02*
X0321000Y0028482D01*
X0320998Y0027484D02*
X0043957Y0027484D01*
X0042958Y0026485D02*
X0320920Y0026485D01*
X0320710Y0025487D02*
X0041276Y0025487D01*
X0032909Y0018497D02*
X0314151Y0018497D01*
X0316442Y0019496D02*
X0030356Y0019496D01*
X0028646Y0020494D02*
X0317817Y0020494D01*
X0318731Y0021493D02*
X0027647Y0021493D01*
X0026649Y0022491D02*
X0319456Y0022491D01*
X0320061Y0023490D02*
X0025996Y0023490D01*
X0025419Y0024488D02*
X0320386Y0024488D01*
X0321000Y0031478D02*
X0299307Y0031478D01*
X0299824Y0031692D02*
X0301315Y0033183D01*
X0302122Y0035131D01*
X0302122Y0037239D01*
X0301315Y0039187D01*
X0299824Y0040678D01*
X0298622Y0041176D01*
X0298622Y0069924D01*
X0297568Y0070978D01*
X0288346Y0080200D01*
X0295901Y0080200D01*
X0295901Y0077812D01*
X0296662Y0077050D01*
X0302857Y0077050D01*
X0303500Y0077693D01*
X0304143Y0077050D01*
X0310338Y0077050D01*
X0311099Y0077812D01*
X0311099Y0085188D01*
X0310338Y0085950D01*
X0309540Y0085950D01*
X0309540Y0088973D01*
X0309757Y0089190D01*
X0309757Y0093810D01*
X0309083Y0094483D01*
X0309083Y0098570D01*
X0313086Y0098570D01*
X0313847Y0099332D01*
X0313847Y0121668D01*
X0313086Y0122430D01*
X0287599Y0122430D01*
X0286838Y0121668D01*
X0286838Y0099332D01*
X0287599Y0098570D01*
X0304483Y0098570D01*
X0304483Y0094661D01*
X0304469Y0094669D01*
X0304087Y0094772D01*
X0302553Y0094772D01*
X0302553Y0091837D01*
X0301880Y0091837D01*
X0301880Y0094772D01*
X0300346Y0094772D01*
X0299964Y0094669D01*
X0299622Y0094472D01*
X0299343Y0094193D01*
X0299146Y0093851D01*
X0299043Y0093469D01*
X0299043Y0091837D01*
X0301880Y0091837D01*
X0301880Y0091163D01*
X0302553Y0091163D01*
X0302553Y0088228D01*
X0304087Y0088228D01*
X0304469Y0088331D01*
X0304638Y0088428D01*
X0304940Y0088428D01*
X0304940Y0085950D01*
X0304143Y0085950D01*
X0303500Y0085307D01*
X0302857Y0085950D01*
X0296662Y0085950D01*
X0295901Y0085188D01*
X0295901Y0084800D01*
X0277453Y0084800D01*
X0273902Y0088350D01*
X0273902Y0098255D01*
X0275290Y0098255D01*
X0276052Y0099017D01*
X0276052Y0104031D01*
X0275290Y0104792D01*
X0273902Y0104792D01*
X0273902Y0110350D01*
X0272555Y0111698D01*
X0271453Y0112800D01*
X0266705Y0112800D01*
X0266705Y0113991D01*
X0265944Y0114753D01*
X0259749Y0114753D01*
X0259641Y0114645D01*
X0259634Y0114653D01*
X0259292Y0114851D01*
X0258910Y0114953D01*
X0256654Y0114953D01*
X0256654Y0111000D01*
X0255654Y0111000D01*
X0255654Y0114953D01*
X0253397Y0114953D01*
X0253016Y0114851D01*
X0252673Y0114653D01*
X0252394Y0114374D01*
X0252197Y0114032D01*
X0252094Y0113650D01*
X0252094Y0111000D01*
X0255653Y0111000D01*
X0255653Y0110000D01*
X0252094Y0110000D01*
X0252094Y0107350D01*
X0252197Y0106968D01*
X0252394Y0106626D01*
X0252673Y0106347D01*
X0253016Y0106149D01*
X0253397Y0106047D01*
X0255654Y0106047D01*
X0255654Y0110000D01*
X0256654Y0110000D01*
X0256654Y0106047D01*
X0258910Y0106047D01*
X0259292Y0106149D01*
X0259634Y0106347D01*
X0259641Y0106355D01*
X0259749Y0106247D01*
X0265944Y0106247D01*
X0266705Y0107009D01*
X0266705Y0108200D01*
X0269302Y0108200D01*
X0269302Y0104792D01*
X0267914Y0104792D01*
X0267153Y0104031D01*
X0267153Y0103800D01*
X0255547Y0103800D01*
X0243844Y0092097D01*
X0242999Y0091747D01*
X0242253Y0091001D01*
X0241850Y0090027D01*
X0241850Y0088973D01*
X0242253Y0087999D01*
X0242999Y0087253D01*
X0243973Y0086850D01*
X0245027Y0086850D01*
X0246001Y0087253D01*
X0246747Y0087999D01*
X0247097Y0088844D01*
X0257453Y0099200D01*
X0267153Y0099200D01*
X0267153Y0099017D01*
X0267914Y0098255D01*
X0269302Y0098255D01*
X0269302Y0086445D01*
X0270650Y0085098D01*
X0274447Y0081300D01*
X0248246Y0081300D01*
X0236300Y0093246D01*
X0236300Y0112246D01*
X0229300Y0119246D01*
X0228246Y0120300D01*
X0167246Y0120300D01*
X0145222Y0142324D01*
X0142038Y0142324D01*
X0141438Y0142924D01*
X0135362Y0142924D01*
X0134600Y0142162D01*
X0134600Y0132923D01*
X0134502Y0132754D01*
X0134400Y0132372D01*
X0134400Y0131125D01*
X0138350Y0131125D01*
X0138350Y0131025D01*
X0134400Y0131025D01*
X0134400Y0129777D01*
X0134502Y0129396D01*
X0134600Y0129226D01*
X0134600Y0123426D01*
X0128120Y0123426D01*
X0124300Y0127246D01*
X0123246Y0128300D01*
X0117300Y0128300D01*
X0117300Y0130246D01*
X0115725Y0131820D01*
X0114671Y0132875D01*
X0108586Y0132875D01*
X0108600Y0132927D01*
X0108600Y0134174D01*
X0104650Y0134174D01*
X0104650Y0134274D01*
X0108600Y0134274D01*
X0108600Y0135522D01*
X0108498Y0135903D01*
X0108400Y0136073D01*
X0108400Y0142162D01*
X0107638Y0142924D01*
X0101562Y0142924D01*
X0101193Y0142555D01*
X0101001Y0142747D01*
X0100027Y0143150D01*
X0098973Y0143150D01*
X0097999Y0142747D01*
X0097253Y0142001D01*
X0096850Y0141027D01*
X0096850Y0139973D01*
X0097253Y0138999D01*
X0097999Y0138253D01*
X0098973Y0137850D01*
X0099304Y0137850D01*
X0098604Y0137150D01*
X0097973Y0137150D01*
X0096999Y0136747D01*
X0096253Y0136001D01*
X0095850Y0135027D01*
X0095850Y0133973D01*
X0096253Y0132999D01*
X0096999Y0132253D01*
X0097973Y0131850D01*
X0099027Y0131850D01*
X0100001Y0132253D01*
X0100616Y0132868D01*
X0100702Y0132545D01*
X0100800Y0132376D01*
X0100800Y0129774D01*
X0100702Y0129604D01*
X0100600Y0129223D01*
X0100600Y0127975D01*
X0104550Y0127975D01*
X0104550Y0127875D01*
X0100600Y0127875D01*
X0100600Y0126628D01*
X0100702Y0126246D01*
X0100800Y0126077D01*
X0100800Y0123426D01*
X0088120Y0123426D01*
X0086300Y0125246D01*
X0086300Y0125700D01*
X0088838Y0125700D01*
X0089600Y0126462D01*
X0089600Y0148538D01*
X0088838Y0149300D01*
X0080162Y0149300D01*
X0079400Y0148538D01*
X0079400Y0139300D01*
X0069753Y0139300D01*
X0069753Y0140338D01*
X0068991Y0141099D01*
X0062009Y0141099D01*
X0061247Y0140338D01*
X0061247Y0134143D01*
X0061781Y0133609D01*
X0061626Y0133519D01*
X0061347Y0133240D01*
X0061149Y0132898D01*
X0061047Y0132516D01*
X0061047Y0130260D01*
X0065000Y0130260D01*
X0065000Y0129260D01*
X0061047Y0129260D01*
X0061047Y0127003D01*
X0061149Y0126622D01*
X0061347Y0126280D01*
X0061626Y0126000D01*
X0061968Y0125803D01*
X0062350Y0125701D01*
X0065000Y0125701D01*
X0065000Y0129260D01*
X0066000Y0129260D01*
X0066000Y0130260D01*
X0069953Y0130260D01*
X0069953Y0132516D01*
X0069851Y0132898D01*
X0069653Y0133240D01*
X0069374Y0133519D01*
X0069219Y0133609D01*
X0069753Y0134143D01*
X0069753Y0135700D01*
X0079400Y0135700D01*
X0079400Y0126462D01*
X0080162Y0125700D01*
X0082700Y0125700D01*
X0082700Y0123754D01*
X0085574Y0120880D01*
X0086628Y0119826D01*
X0100800Y0119826D01*
X0100800Y0116838D01*
X0101562Y0116076D01*
X0102800Y0116076D01*
X0102800Y0109346D01*
X0094754Y0101300D01*
X0089600Y0101300D01*
X0089600Y0110538D01*
X0088838Y0111300D01*
X0080162Y0111300D01*
X0079400Y0110538D01*
X0079400Y0103560D01*
X0067753Y0103560D01*
X0067753Y0104857D01*
X0067219Y0105391D01*
X0067374Y0105481D01*
X0067653Y0105760D01*
X0067851Y0106102D01*
X0067953Y0106484D01*
X0067953Y0108740D01*
X0064000Y0108740D01*
X0064000Y0109740D01*
X0067953Y0109740D01*
X0067953Y0111997D01*
X0067851Y0112378D01*
X0067653Y0112720D01*
X0067374Y0112999D01*
X0067032Y0113197D01*
X0066650Y0113299D01*
X0064000Y0113299D01*
X0064000Y0109740D01*
X0063000Y0109740D01*
X0063000Y0108740D01*
X0059047Y0108740D01*
X0059047Y0106484D01*
X0059149Y0106102D01*
X0059347Y0105760D01*
X0059626Y0105481D01*
X0059781Y0105391D01*
X0059247Y0104857D01*
X0059247Y0098662D01*
X0060009Y0097901D01*
X0066991Y0097901D01*
X0067753Y0098662D01*
X0067753Y0099960D01*
X0079400Y0099960D01*
X0079400Y0088462D01*
X0080162Y0087700D01*
X0087154Y0087700D01*
X0085754Y0086300D01*
X0068754Y0086300D01*
X0043729Y0061275D01*
X0042554Y0061761D01*
X0040446Y0061761D01*
X0038498Y0060955D01*
X0037007Y0059464D01*
X0036200Y0057516D01*
X0036200Y0055407D01*
X0037007Y0053459D01*
X0038498Y0051968D01*
X0040446Y0051161D01*
X0042554Y0051161D01*
X0044502Y0051968D01*
X0045993Y0053459D01*
X0046800Y0055407D01*
X0046800Y0057516D01*
X0046291Y0058745D01*
X0070246Y0082700D01*
X0087246Y0082700D01*
X0091566Y0087021D01*
X0091566Y0040612D01*
X0090142Y0039187D01*
X0089335Y0037239D01*
X0089335Y0035131D01*
X0090142Y0033183D01*
X0091632Y0031692D01*
X0093580Y0030885D01*
X0095689Y0030885D01*
X0097637Y0031692D01*
X0099128Y0033183D01*
X0099935Y0035131D01*
X0099935Y0037239D01*
X0099128Y0039187D01*
X0097637Y0040678D01*
X0095689Y0041485D01*
X0095166Y0041485D01*
X0095166Y0086621D01*
X0108700Y0100154D01*
X0108700Y0041460D01*
X0106812Y0040678D01*
X0105321Y0039187D01*
X0104514Y0037239D01*
X0104514Y0035131D01*
X0105321Y0033183D01*
X0106812Y0031692D01*
X0108760Y0030885D01*
X0110868Y0030885D01*
X0112816Y0031692D01*
X0114307Y0033183D01*
X0115114Y0035131D01*
X0115114Y0037239D01*
X0114307Y0039187D01*
X0112816Y0040678D01*
X0112300Y0040892D01*
X0112300Y0099754D01*
X0118125Y0105580D01*
X0118125Y0087329D01*
X0151890Y0053565D01*
X0151890Y0041176D01*
X0150688Y0040678D01*
X0149197Y0039187D01*
X0148390Y0037239D01*
X0148390Y0035131D01*
X0149197Y0033183D01*
X0150688Y0031692D01*
X0152636Y0030885D01*
X0154744Y0030885D01*
X0156692Y0031692D01*
X0158183Y0033183D01*
X0158990Y0035131D01*
X0158990Y0037239D01*
X0158183Y0039187D01*
X0156692Y0040678D01*
X0155490Y0041176D01*
X0155490Y0055056D01*
X0137846Y0072700D01*
X0157793Y0072700D01*
X0167069Y0063424D01*
X0167069Y0041176D01*
X0165867Y0040678D01*
X0164376Y0039187D01*
X0163569Y0037239D01*
X0163569Y0035131D01*
X0164376Y0033183D01*
X0165867Y0031692D01*
X0167815Y0030885D01*
X0169924Y0030885D01*
X0171871Y0031692D01*
X0173362Y0033183D01*
X0174169Y0035131D01*
X0174169Y0037239D01*
X0173362Y0039187D01*
X0171871Y0040678D01*
X0170669Y0041176D01*
X0170669Y0064915D01*
X0169615Y0065969D01*
X0159884Y0075700D01*
X0160246Y0075700D01*
X0161300Y0076754D01*
X0163246Y0078700D01*
X0164300Y0079754D01*
X0164300Y0101552D01*
X0164747Y0101999D01*
X0165150Y0102973D01*
X0165150Y0104027D01*
X0164954Y0104501D01*
X0165700Y0103754D01*
X0165700Y0081754D01*
X0207625Y0039829D01*
X0206983Y0039187D01*
X0206176Y0037239D01*
X0206176Y0035131D01*
X0206983Y0033183D01*
X0208474Y0031692D01*
X0210422Y0030885D01*
X0212531Y0030885D01*
X0214479Y0031692D01*
X0215969Y0033183D01*
X0216776Y0035131D01*
X0216776Y0037239D01*
X0215969Y0039187D01*
X0214479Y0040678D01*
X0212531Y0041485D01*
X0211061Y0041485D01*
X0210287Y0042259D01*
X0218605Y0042259D01*
X0221220Y0039644D01*
X0220763Y0039187D01*
X0219956Y0037239D01*
X0219956Y0035131D01*
X0220763Y0033183D01*
X0222254Y0031692D01*
X0224202Y0030885D01*
X0226310Y0030885D01*
X0228258Y0031692D01*
X0229749Y0033183D01*
X0230556Y0035131D01*
X0230556Y0037239D01*
X0229749Y0039187D01*
X0228258Y0040678D01*
X0226310Y0041485D01*
X0224470Y0041485D01*
X0221150Y0044805D01*
X0220096Y0045859D01*
X0210687Y0045859D01*
X0179958Y0076587D01*
X0172300Y0084246D01*
X0172300Y0103129D01*
X0172973Y0102850D01*
X0174027Y0102850D01*
X0175001Y0103253D01*
X0175448Y0103700D01*
X0176920Y0103700D01*
X0176920Y0101458D01*
X0177682Y0100696D01*
X0184743Y0100696D01*
X0185505Y0101458D01*
X0185505Y0109542D01*
X0184743Y0110304D01*
X0177682Y0110304D01*
X0176920Y0109542D01*
X0176920Y0107300D01*
X0175448Y0107300D01*
X0175001Y0107747D01*
X0174027Y0108150D01*
X0172973Y0108150D01*
X0171999Y0107747D01*
X0171399Y0107147D01*
X0164846Y0113700D01*
X0223754Y0113700D01*
X0227304Y0110150D01*
X0226973Y0110150D01*
X0225999Y0109747D01*
X0225253Y0109001D01*
X0224850Y0108027D01*
X0224850Y0106973D01*
X0225253Y0105999D01*
X0225700Y0105552D01*
X0225700Y0099725D01*
X0225377Y0099859D01*
X0224323Y0099859D01*
X0223349Y0099455D01*
X0222603Y0098710D01*
X0222200Y0097736D01*
X0222200Y0097300D01*
X0222080Y0097300D01*
X0222080Y0099542D01*
X0221318Y0100304D01*
X0214257Y0100304D01*
X0213495Y0099542D01*
X0213495Y0091458D01*
X0214257Y0090696D01*
X0221318Y0090696D01*
X0222080Y0091458D01*
X0222080Y0093700D01*
X0223887Y0093700D01*
X0224746Y0094559D01*
X0225377Y0094559D01*
X0225700Y0094692D01*
X0225700Y0046975D01*
X0234233Y0038441D01*
X0233735Y0037239D01*
X0233735Y0035131D01*
X0234542Y0033183D01*
X0236033Y0031692D01*
X0237981Y0030885D01*
X0240090Y0030885D01*
X0242038Y0031692D01*
X0243529Y0033183D01*
X0244335Y0035131D01*
X0244335Y0037239D01*
X0243529Y0039187D01*
X0242038Y0040678D01*
X0240090Y0041485D01*
X0237981Y0041485D01*
X0236779Y0040987D01*
X0229300Y0048466D01*
X0229300Y0105552D01*
X0229700Y0105952D01*
X0229700Y0088754D01*
X0230754Y0087700D01*
X0243754Y0074700D01*
X0272754Y0074700D01*
X0279843Y0067612D01*
X0279843Y0041176D01*
X0278640Y0040678D01*
X0277149Y0039187D01*
X0276343Y0037239D01*
X0276343Y0035131D01*
X0277149Y0033183D01*
X0278640Y0031692D01*
X0280588Y0030885D01*
X0282697Y0030885D01*
X0284645Y0031692D01*
X0286136Y0033183D01*
X0286943Y0035131D01*
X0286943Y0037239D01*
X0286136Y0039187D01*
X0284645Y0040678D01*
X0283443Y0041176D01*
X0283443Y0069103D01*
X0282388Y0070157D01*
X0274846Y0077700D01*
X0285754Y0077700D01*
X0295022Y0068432D01*
X0295022Y0041176D01*
X0293820Y0040678D01*
X0292329Y0039187D01*
X0291522Y0037239D01*
X0291522Y0035131D01*
X0292329Y0033183D01*
X0293820Y0031692D01*
X0295768Y0030885D01*
X0297876Y0030885D01*
X0299824Y0031692D01*
X0300609Y0032476D02*
X0321000Y0032476D01*
X0321000Y0033475D02*
X0301436Y0033475D01*
X0301850Y0034473D02*
X0321000Y0034473D01*
X0321000Y0035472D02*
X0302122Y0035472D01*
X0302122Y0036470D02*
X0321000Y0036470D01*
X0321000Y0037469D02*
X0302027Y0037469D01*
X0301613Y0038467D02*
X0321000Y0038467D01*
X0321000Y0039466D02*
X0301037Y0039466D01*
X0300038Y0040464D02*
X0321000Y0040464D01*
X0321000Y0041463D02*
X0298622Y0041463D01*
X0298622Y0042461D02*
X0321000Y0042461D01*
X0321000Y0043460D02*
X0298622Y0043460D01*
X0298622Y0044458D02*
X0321000Y0044458D01*
X0321000Y0045457D02*
X0298622Y0045457D01*
X0298622Y0046455D02*
X0321000Y0046455D01*
X0321000Y0047454D02*
X0298622Y0047454D01*
X0298622Y0048452D02*
X0321000Y0048452D01*
X0321000Y0049451D02*
X0298622Y0049451D01*
X0298622Y0050449D02*
X0321000Y0050449D01*
X0321000Y0051448D02*
X0298622Y0051448D01*
X0298622Y0052446D02*
X0321000Y0052446D01*
X0321000Y0053445D02*
X0298622Y0053445D01*
X0298622Y0054443D02*
X0321000Y0054443D01*
X0321000Y0055442D02*
X0298622Y0055442D01*
X0298622Y0056440D02*
X0305033Y0056440D01*
X0305279Y0056339D02*
X0308225Y0056339D01*
X0310947Y0057466D01*
X0313030Y0059549D01*
X0314157Y0062271D01*
X0314157Y0065217D01*
X0313030Y0067939D01*
X0310947Y0070022D01*
X0308225Y0071150D01*
X0305279Y0071150D01*
X0302557Y0070022D01*
X0300474Y0067939D01*
X0299346Y0065217D01*
X0299346Y0062271D01*
X0300474Y0059549D01*
X0302557Y0057466D01*
X0305279Y0056339D01*
X0302622Y0057439D02*
X0298622Y0057439D01*
X0298622Y0058437D02*
X0301586Y0058437D01*
X0300587Y0059436D02*
X0298622Y0059436D01*
X0298622Y0060434D02*
X0300107Y0060434D01*
X0299694Y0061433D02*
X0298622Y0061433D01*
X0298622Y0062432D02*
X0299346Y0062432D01*
X0299346Y0063430D02*
X0298622Y0063430D01*
X0298622Y0064429D02*
X0299346Y0064429D01*
X0299433Y0065427D02*
X0298622Y0065427D01*
X0298622Y0066426D02*
X0299847Y0066426D01*
X0300261Y0067424D02*
X0298622Y0067424D01*
X0298622Y0068423D02*
X0300957Y0068423D01*
X0301956Y0069421D02*
X0298622Y0069421D01*
X0298126Y0070420D02*
X0303517Y0070420D01*
X0297127Y0071418D02*
X0321000Y0071418D01*
X0321000Y0070420D02*
X0309987Y0070420D01*
X0311548Y0069421D02*
X0321000Y0069421D01*
X0321000Y0068423D02*
X0312546Y0068423D01*
X0313243Y0067424D02*
X0321000Y0067424D01*
X0321000Y0066426D02*
X0313657Y0066426D01*
X0314071Y0065427D02*
X0321000Y0065427D01*
X0321000Y0064429D02*
X0314157Y0064429D01*
X0314157Y0063430D02*
X0321000Y0063430D01*
X0321000Y0062432D02*
X0314157Y0062432D01*
X0313810Y0061433D02*
X0321000Y0061433D01*
X0321000Y0060434D02*
X0313397Y0060434D01*
X0312917Y0059436D02*
X0321000Y0059436D01*
X0321000Y0058437D02*
X0311918Y0058437D01*
X0310882Y0057439D02*
X0321000Y0057439D01*
X0321000Y0056440D02*
X0308471Y0056440D01*
X0295022Y0056440D02*
X0283443Y0056440D01*
X0283443Y0055442D02*
X0295022Y0055442D01*
X0295022Y0054443D02*
X0283443Y0054443D01*
X0283443Y0053445D02*
X0295022Y0053445D01*
X0295022Y0052446D02*
X0283443Y0052446D01*
X0283443Y0051448D02*
X0295022Y0051448D01*
X0295022Y0050449D02*
X0283443Y0050449D01*
X0283443Y0049451D02*
X0295022Y0049451D01*
X0295022Y0048452D02*
X0283443Y0048452D01*
X0283443Y0047454D02*
X0295022Y0047454D01*
X0295022Y0046455D02*
X0283443Y0046455D01*
X0283443Y0045457D02*
X0295022Y0045457D01*
X0295022Y0044458D02*
X0283443Y0044458D01*
X0283443Y0043460D02*
X0295022Y0043460D01*
X0295022Y0042461D02*
X0283443Y0042461D01*
X0283443Y0041463D02*
X0295022Y0041463D01*
X0293606Y0040464D02*
X0284859Y0040464D01*
X0285857Y0039466D02*
X0292607Y0039466D01*
X0292031Y0038467D02*
X0286434Y0038467D01*
X0286847Y0037469D02*
X0291617Y0037469D01*
X0291522Y0036470D02*
X0286943Y0036470D01*
X0286943Y0035472D02*
X0291522Y0035472D01*
X0291794Y0034473D02*
X0286670Y0034473D01*
X0286257Y0033475D02*
X0292208Y0033475D01*
X0293036Y0032476D02*
X0285429Y0032476D01*
X0284127Y0031478D02*
X0294337Y0031478D01*
X0296822Y0036185D02*
X0296822Y0069178D01*
X0286500Y0079500D01*
X0247500Y0079500D01*
X0234500Y0092500D01*
X0234500Y0111500D01*
X0227500Y0118500D01*
X0166500Y0118500D01*
X0144476Y0140524D01*
X0138400Y0140524D01*
X0138400Y0137374D02*
X0142626Y0137374D01*
X0164500Y0115500D01*
X0224500Y0115500D01*
X0231500Y0108500D01*
X0231500Y0089500D01*
X0244500Y0076500D01*
X0273500Y0076500D01*
X0281643Y0068357D01*
X0281643Y0036185D01*
X0276851Y0038467D02*
X0274054Y0038467D01*
X0273756Y0039187D02*
X0274563Y0037239D01*
X0274563Y0035131D01*
X0273756Y0033183D01*
X0272265Y0031692D01*
X0270317Y0030885D01*
X0268209Y0030885D01*
X0266261Y0031692D01*
X0264770Y0033183D01*
X0263963Y0035131D01*
X0263963Y0037239D01*
X0264770Y0039187D01*
X0266261Y0040678D01*
X0268209Y0041485D01*
X0270317Y0041485D01*
X0272265Y0040678D01*
X0273756Y0039187D01*
X0273478Y0039466D02*
X0277428Y0039466D01*
X0278426Y0040464D02*
X0272479Y0040464D01*
X0270371Y0041463D02*
X0279843Y0041463D01*
X0279843Y0042461D02*
X0235305Y0042461D01*
X0236303Y0041463D02*
X0237927Y0041463D01*
X0240143Y0041463D02*
X0249297Y0041463D01*
X0249162Y0041385D02*
X0248883Y0041106D01*
X0248686Y0040764D01*
X0248583Y0040383D01*
X0248583Y0036685D01*
X0253583Y0036685D01*
X0253583Y0035685D01*
X0248583Y0035685D01*
X0248583Y0031988D01*
X0248686Y0031606D01*
X0248883Y0031264D01*
X0249162Y0030985D01*
X0249504Y0030787D01*
X0249886Y0030685D01*
X0253583Y0030685D01*
X0253583Y0035685D01*
X0254583Y0035685D01*
X0254583Y0030685D01*
X0258281Y0030685D01*
X0258662Y0030787D01*
X0259004Y0030985D01*
X0259284Y0031264D01*
X0259481Y0031606D01*
X0259583Y0031988D01*
X0259583Y0035685D01*
X0254584Y0035685D01*
X0254584Y0036685D01*
X0259583Y0036685D01*
X0259583Y0040383D01*
X0259481Y0040764D01*
X0259284Y0041106D01*
X0259004Y0041385D01*
X0258662Y0041583D01*
X0258281Y0041685D01*
X0254583Y0041685D01*
X0254583Y0036685D01*
X0253583Y0036685D01*
X0253583Y0041685D01*
X0249886Y0041685D01*
X0249504Y0041583D01*
X0249162Y0041385D01*
X0248605Y0040464D02*
X0242252Y0040464D01*
X0243250Y0039466D02*
X0248583Y0039466D01*
X0248583Y0038467D02*
X0243827Y0038467D01*
X0244240Y0037469D02*
X0248583Y0037469D01*
X0248583Y0035472D02*
X0244335Y0035472D01*
X0244335Y0036470D02*
X0253583Y0036470D01*
X0253583Y0035472D02*
X0254583Y0035472D01*
X0254584Y0036470D02*
X0263963Y0036470D01*
X0263963Y0035472D02*
X0259583Y0035472D01*
X0259583Y0034473D02*
X0264235Y0034473D01*
X0264649Y0033475D02*
X0259583Y0033475D01*
X0259583Y0032476D02*
X0265477Y0032476D01*
X0266778Y0031478D02*
X0259407Y0031478D01*
X0254583Y0031478D02*
X0253583Y0031478D01*
X0253583Y0032476D02*
X0254583Y0032476D01*
X0254583Y0033475D02*
X0253583Y0033475D01*
X0253583Y0034473D02*
X0254583Y0034473D01*
X0254583Y0037469D02*
X0253583Y0037469D01*
X0253583Y0038467D02*
X0254583Y0038467D01*
X0254583Y0039466D02*
X0253583Y0039466D01*
X0253583Y0040464D02*
X0254583Y0040464D01*
X0254583Y0041463D02*
X0253583Y0041463D01*
X0258870Y0041463D02*
X0268155Y0041463D01*
X0266047Y0040464D02*
X0259562Y0040464D01*
X0259583Y0039466D02*
X0265048Y0039466D01*
X0264472Y0038467D02*
X0259583Y0038467D01*
X0259583Y0037469D02*
X0264058Y0037469D01*
X0271748Y0031478D02*
X0279158Y0031478D01*
X0277856Y0032476D02*
X0273049Y0032476D01*
X0273877Y0033475D02*
X0277028Y0033475D01*
X0276615Y0034473D02*
X0274291Y0034473D01*
X0274563Y0035472D02*
X0276343Y0035472D01*
X0276343Y0036470D02*
X0274563Y0036470D01*
X0274468Y0037469D02*
X0276438Y0037469D01*
X0279843Y0043460D02*
X0234306Y0043460D01*
X0233308Y0044458D02*
X0279843Y0044458D01*
X0279843Y0045457D02*
X0232309Y0045457D01*
X0231311Y0046455D02*
X0279843Y0046455D01*
X0279843Y0047454D02*
X0230312Y0047454D01*
X0229314Y0048452D02*
X0279843Y0048452D01*
X0279843Y0049451D02*
X0229300Y0049451D01*
X0229300Y0050449D02*
X0279843Y0050449D01*
X0279843Y0051448D02*
X0229300Y0051448D01*
X0229300Y0052446D02*
X0279843Y0052446D01*
X0279843Y0053445D02*
X0229300Y0053445D01*
X0229300Y0054443D02*
X0279843Y0054443D01*
X0279843Y0055442D02*
X0229300Y0055442D01*
X0229300Y0056440D02*
X0279843Y0056440D01*
X0279843Y0057439D02*
X0229300Y0057439D01*
X0229300Y0058437D02*
X0279843Y0058437D01*
X0279843Y0059436D02*
X0229300Y0059436D01*
X0229300Y0060434D02*
X0279843Y0060434D01*
X0279843Y0061433D02*
X0229300Y0061433D01*
X0229300Y0062432D02*
X0279843Y0062432D01*
X0279843Y0063430D02*
X0229300Y0063430D01*
X0229300Y0064429D02*
X0279843Y0064429D01*
X0279843Y0065427D02*
X0229300Y0065427D01*
X0229300Y0066426D02*
X0279843Y0066426D01*
X0279843Y0067424D02*
X0229300Y0067424D01*
X0229300Y0068423D02*
X0279032Y0068423D01*
X0278033Y0069421D02*
X0229300Y0069421D01*
X0229300Y0070420D02*
X0277035Y0070420D01*
X0276036Y0071418D02*
X0229300Y0071418D01*
X0229300Y0072417D02*
X0275038Y0072417D01*
X0274039Y0073415D02*
X0229300Y0073415D01*
X0229300Y0074414D02*
X0273041Y0074414D01*
X0275136Y0077409D02*
X0286045Y0077409D01*
X0287044Y0076411D02*
X0276135Y0076411D01*
X0277133Y0075412D02*
X0288042Y0075412D01*
X0289041Y0074414D02*
X0278132Y0074414D01*
X0279130Y0073415D02*
X0290039Y0073415D01*
X0291038Y0072417D02*
X0280129Y0072417D01*
X0281127Y0071418D02*
X0292036Y0071418D01*
X0293035Y0070420D02*
X0282126Y0070420D01*
X0283124Y0069421D02*
X0294033Y0069421D01*
X0295022Y0068423D02*
X0283443Y0068423D01*
X0283443Y0067424D02*
X0295022Y0067424D01*
X0295022Y0066426D02*
X0283443Y0066426D01*
X0283443Y0065427D02*
X0295022Y0065427D01*
X0295022Y0064429D02*
X0283443Y0064429D01*
X0283443Y0063430D02*
X0295022Y0063430D01*
X0295022Y0062432D02*
X0283443Y0062432D01*
X0283443Y0061433D02*
X0295022Y0061433D01*
X0295022Y0060434D02*
X0283443Y0060434D01*
X0283443Y0059436D02*
X0295022Y0059436D01*
X0295022Y0058437D02*
X0283443Y0058437D01*
X0283443Y0057439D02*
X0295022Y0057439D01*
X0296129Y0072417D02*
X0321000Y0072417D01*
X0321000Y0073415D02*
X0295130Y0073415D01*
X0294132Y0074414D02*
X0321000Y0074414D01*
X0321000Y0075412D02*
X0293133Y0075412D01*
X0292135Y0076411D02*
X0321000Y0076411D01*
X0321000Y0077409D02*
X0310696Y0077409D01*
X0311099Y0078408D02*
X0321000Y0078408D01*
X0321000Y0079406D02*
X0311099Y0079406D01*
X0311099Y0080405D02*
X0321000Y0080405D01*
X0321000Y0081403D02*
X0311099Y0081403D01*
X0311099Y0082402D02*
X0321000Y0082402D01*
X0321000Y0083400D02*
X0311099Y0083400D01*
X0311099Y0084399D02*
X0321000Y0084399D01*
X0321000Y0085397D02*
X0310890Y0085397D01*
X0309540Y0086396D02*
X0321000Y0086396D01*
X0321000Y0087394D02*
X0309540Y0087394D01*
X0309540Y0088393D02*
X0321000Y0088393D01*
X0321000Y0089391D02*
X0309757Y0089391D01*
X0309757Y0090390D02*
X0321000Y0090390D01*
X0321000Y0091388D02*
X0309757Y0091388D01*
X0309757Y0092387D02*
X0321000Y0092387D01*
X0321000Y0093385D02*
X0309757Y0093385D01*
X0309183Y0094384D02*
X0321000Y0094384D01*
X0321000Y0095382D02*
X0309083Y0095382D01*
X0309083Y0096381D02*
X0321000Y0096381D01*
X0321000Y0097379D02*
X0309083Y0097379D01*
X0309083Y0098378D02*
X0321000Y0098378D01*
X0321000Y0099376D02*
X0313847Y0099376D01*
X0313847Y0100375D02*
X0321000Y0100375D01*
X0321000Y0101373D02*
X0313847Y0101373D01*
X0313847Y0102372D02*
X0321000Y0102372D01*
X0321000Y0103370D02*
X0313847Y0103370D01*
X0313847Y0104369D02*
X0321000Y0104369D01*
X0321000Y0105368D02*
X0313847Y0105368D01*
X0313847Y0106366D02*
X0321000Y0106366D01*
X0321000Y0107365D02*
X0313847Y0107365D01*
X0313847Y0108363D02*
X0321000Y0108363D01*
X0321000Y0109362D02*
X0313847Y0109362D01*
X0313847Y0110360D02*
X0321000Y0110360D01*
X0321000Y0111359D02*
X0313847Y0111359D01*
X0313847Y0112357D02*
X0321000Y0112357D01*
X0321000Y0113356D02*
X0313847Y0113356D01*
X0313847Y0114354D02*
X0321000Y0114354D01*
X0321000Y0115353D02*
X0313847Y0115353D01*
X0313847Y0116351D02*
X0321000Y0116351D01*
X0321000Y0117350D02*
X0313847Y0117350D01*
X0313847Y0118348D02*
X0321000Y0118348D01*
X0321000Y0119347D02*
X0313847Y0119347D01*
X0313847Y0120345D02*
X0321000Y0120345D01*
X0321000Y0121344D02*
X0313847Y0121344D01*
X0313173Y0122342D02*
X0321000Y0122342D01*
X0321000Y0123341D02*
X0273902Y0123341D01*
X0273902Y0122745D02*
X0273902Y0126854D01*
X0275421Y0128373D01*
X0297294Y0128373D01*
X0297294Y0125009D01*
X0298056Y0124247D01*
X0304251Y0124247D01*
X0304359Y0124355D01*
X0304366Y0124347D01*
X0304708Y0124149D01*
X0305090Y0124047D01*
X0307346Y0124047D01*
X0307346Y0128000D01*
X0308346Y0128000D01*
X0308346Y0124047D01*
X0310603Y0124047D01*
X0310984Y0124149D01*
X0311327Y0124347D01*
X0311606Y0124626D01*
X0311803Y0124968D01*
X0311905Y0125350D01*
X0311905Y0128000D01*
X0308346Y0128000D01*
X0308346Y0129000D01*
X0307346Y0129000D01*
X0307346Y0132953D01*
X0305090Y0132953D01*
X0304708Y0132851D01*
X0304366Y0132653D01*
X0304359Y0132645D01*
X0304251Y0132753D01*
X0300153Y0132753D01*
X0299933Y0132973D01*
X0276768Y0132973D01*
X0276768Y0134673D01*
X0275421Y0136020D01*
X0267485Y0143957D01*
X0267485Y0148054D01*
X0266724Y0148816D01*
X0265926Y0148816D01*
X0265926Y0156649D01*
X0266724Y0156649D01*
X0267485Y0157410D01*
X0267485Y0164393D01*
X0266724Y0165154D01*
X0265926Y0165154D01*
X0265926Y0166917D01*
X0272782Y0166917D01*
X0274129Y0163665D01*
X0276886Y0160908D01*
X0280488Y0159417D01*
X0284386Y0159417D01*
X0287988Y0160908D01*
X0290745Y0163665D01*
X0292237Y0167267D01*
X0292237Y0171166D01*
X0290745Y0174768D01*
X0287988Y0177525D01*
X0284386Y0179017D01*
X0280488Y0179017D01*
X0276886Y0177525D01*
X0274129Y0174768D01*
X0272782Y0171517D01*
X0265926Y0171517D01*
X0265926Y0172208D01*
X0266724Y0172208D01*
X0267485Y0172969D01*
X0267485Y0179952D01*
X0266724Y0180713D01*
X0265926Y0180713D01*
X0265926Y0187767D01*
X0266724Y0187767D01*
X0267485Y0188528D01*
X0267485Y0192626D01*
X0270161Y0195302D01*
X0277390Y0195302D01*
X0281327Y0199239D01*
X0282674Y0200587D01*
X0282674Y0204104D01*
X0283024Y0204949D01*
X0283024Y0206003D01*
X0282621Y0206977D01*
X0281875Y0207723D01*
X0280901Y0208126D01*
X0279847Y0208126D01*
X0279425Y0207951D01*
X0296795Y0225321D01*
X0297609Y0224507D01*
X0299383Y0223772D01*
X0301302Y0223772D01*
X0303076Y0224507D01*
X0304433Y0225864D01*
X0305168Y0227637D01*
X0305168Y0236607D01*
X0304433Y0238380D01*
X0303076Y0239737D01*
X0302359Y0240034D01*
X0302359Y0243831D01*
X0298422Y0247768D01*
X0297075Y0249115D01*
X0223240Y0249115D01*
X0202228Y0228102D01*
X0201401Y0228929D01*
X0199621Y0229666D01*
X0197694Y0229666D01*
X0195914Y0228929D01*
X0194552Y0227566D01*
X0193814Y0225786D01*
X0193814Y0216773D01*
X0194552Y0214993D01*
X0195862Y0213682D01*
X0194776Y0213682D01*
X0192705Y0211611D01*
X0191357Y0210264D01*
X0191357Y0209112D01*
X0190914Y0208929D01*
X0189552Y0207566D01*
X0188814Y0205786D01*
X0188814Y0196773D01*
X0189552Y0194993D01*
X0190914Y0193630D01*
X0192694Y0192893D01*
X0194621Y0192893D01*
X0196401Y0193630D01*
X0197763Y0194993D01*
X0198501Y0196773D01*
X0198501Y0205786D01*
X0197763Y0207566D01*
X0196464Y0208865D01*
X0196681Y0209082D01*
X0200939Y0209082D01*
X0200372Y0208670D01*
X0199811Y0208108D01*
X0199344Y0207466D01*
X0198984Y0206759D01*
X0198738Y0206004D01*
X0198614Y0205220D01*
X0198614Y0201780D01*
X0203157Y0201780D01*
X0203157Y0200780D01*
X0198614Y0200780D01*
X0198614Y0197339D01*
X0198738Y0196555D01*
X0198984Y0195800D01*
X0199344Y0195093D01*
X0199811Y0194451D01*
X0200372Y0193889D01*
X0201014Y0193423D01*
X0201722Y0193062D01*
X0202476Y0192817D01*
X0203157Y0192709D01*
X0203157Y0200779D01*
X0204157Y0200779D01*
X0204157Y0192709D01*
X0204838Y0192817D01*
X0205593Y0193062D01*
X0206301Y0193423D01*
X0206943Y0193889D01*
X0207504Y0194451D01*
X0207971Y0195093D01*
X0208331Y0195800D01*
X0208577Y0196555D01*
X0208701Y0197339D01*
X0208701Y0200780D01*
X0204158Y0200780D01*
X0204158Y0201780D01*
X0208701Y0201780D01*
X0208701Y0205220D01*
X0208577Y0206004D01*
X0208331Y0206759D01*
X0207971Y0207466D01*
X0207504Y0208108D01*
X0206943Y0208670D01*
X0206301Y0209136D01*
X0205593Y0209497D01*
X0205123Y0209650D01*
X0205902Y0210429D01*
X0231895Y0236422D01*
X0231895Y0227637D01*
X0232630Y0225864D01*
X0233987Y0224507D01*
X0234420Y0224327D01*
X0234420Y0210776D01*
X0246578Y0198618D01*
X0246578Y0194320D01*
X0244934Y0194320D01*
X0244934Y0195511D01*
X0244172Y0196272D01*
X0237977Y0196272D01*
X0237870Y0196165D01*
X0237862Y0196173D01*
X0237520Y0196370D01*
X0237138Y0196472D01*
X0234882Y0196472D01*
X0234882Y0192520D01*
X0233882Y0192520D01*
X0233882Y0196472D01*
X0231625Y0196472D01*
X0231244Y0196370D01*
X0230902Y0196173D01*
X0230623Y0195893D01*
X0230425Y0195551D01*
X0230323Y0195170D01*
X0230323Y0192520D01*
X0233882Y0192520D01*
X0233882Y0191520D01*
X0230323Y0191520D01*
X0230323Y0188869D01*
X0230425Y0188488D01*
X0230623Y0188146D01*
X0230902Y0187867D01*
X0231244Y0187669D01*
X0231625Y0187567D01*
X0233882Y0187567D01*
X0233882Y0191520D01*
X0234882Y0191520D01*
X0234882Y0187567D01*
X0237138Y0187567D01*
X0237520Y0187669D01*
X0237862Y0187867D01*
X0237870Y0187874D01*
X0237977Y0187767D01*
X0244172Y0187767D01*
X0244934Y0188528D01*
X0244934Y0189720D01*
X0253074Y0189720D01*
X0253074Y0188528D01*
X0253836Y0187767D01*
X0260031Y0187767D01*
X0260280Y0188016D01*
X0260528Y0187767D01*
X0261326Y0187767D01*
X0261326Y0180713D01*
X0260528Y0180713D01*
X0260280Y0180464D01*
X0260031Y0180713D01*
X0253836Y0180713D01*
X0253074Y0179952D01*
X0253074Y0178761D01*
X0251178Y0178761D01*
X0251178Y0182807D01*
X0249831Y0184154D01*
X0247862Y0186123D01*
X0232114Y0186123D01*
X0231789Y0186447D01*
X0231439Y0187292D01*
X0230694Y0188038D01*
X0229720Y0188441D01*
X0228666Y0188441D01*
X0227692Y0188038D01*
X0226946Y0187292D01*
X0226543Y0186318D01*
X0226543Y0185264D01*
X0226946Y0184290D01*
X0227692Y0183545D01*
X0228537Y0183195D01*
X0228861Y0182870D01*
X0230209Y0181523D01*
X0245957Y0181523D01*
X0246578Y0180902D01*
X0246578Y0178761D01*
X0244934Y0178761D01*
X0244934Y0179952D01*
X0244172Y0180713D01*
X0237977Y0180713D01*
X0237870Y0180606D01*
X0237862Y0180614D01*
X0237520Y0180811D01*
X0237138Y0180913D01*
X0234882Y0180913D01*
X0234882Y0176961D01*
X0233882Y0176961D01*
X0233882Y0180913D01*
X0231625Y0180913D01*
X0231244Y0180811D01*
X0230902Y0180614D01*
X0230623Y0180334D01*
X0230425Y0179992D01*
X0230323Y0179611D01*
X0230323Y0176961D01*
X0233882Y0176961D01*
X0233882Y0175961D01*
X0230323Y0175961D01*
X0230323Y0173310D01*
X0230425Y0172929D01*
X0230623Y0172587D01*
X0230902Y0172308D01*
X0231244Y0172110D01*
X0231625Y0172008D01*
X0233882Y0172008D01*
X0233882Y0175961D01*
X0234882Y0175961D01*
X0234882Y0172008D01*
X0237138Y0172008D01*
X0237520Y0172110D01*
X0237862Y0172308D01*
X0237870Y0172315D01*
X0237977Y0172208D01*
X0244172Y0172208D01*
X0244934Y0172969D01*
X0244934Y0174161D01*
X0253074Y0174161D01*
X0253074Y0172969D01*
X0253836Y0172208D01*
X0260031Y0172208D01*
X0260280Y0172457D01*
X0260528Y0172208D01*
X0261326Y0172208D01*
X0261326Y0165154D01*
X0260528Y0165154D01*
X0260280Y0164905D01*
X0260031Y0165154D01*
X0253836Y0165154D01*
X0253074Y0164393D01*
X0253074Y0163202D01*
X0251178Y0163202D01*
X0251178Y0167059D01*
X0249831Y0168406D01*
X0247862Y0170375D01*
X0232534Y0170375D01*
X0231689Y0170725D01*
X0230634Y0170725D01*
X0229660Y0170321D01*
X0228915Y0169576D01*
X0228511Y0168602D01*
X0228511Y0167548D01*
X0228915Y0166574D01*
X0229660Y0165828D01*
X0230634Y0165425D01*
X0231689Y0165425D01*
X0232534Y0165775D01*
X0245957Y0165775D01*
X0246578Y0165154D01*
X0246578Y0163202D01*
X0244934Y0163202D01*
X0244934Y0164393D01*
X0244172Y0165154D01*
X0237977Y0165154D01*
X0237870Y0165047D01*
X0237862Y0165055D01*
X0237520Y0165252D01*
X0237138Y0165354D01*
X0234882Y0165354D01*
X0234882Y0161402D01*
X0233882Y0161402D01*
X0233882Y0165354D01*
X0231625Y0165354D01*
X0231244Y0165252D01*
X0230902Y0165055D01*
X0230623Y0164775D01*
X0230425Y0164433D01*
X0230323Y0164052D01*
X0230323Y0161402D01*
X0233882Y0161402D01*
X0233882Y0160402D01*
X0230323Y0160402D01*
X0230323Y0157751D01*
X0230425Y0157370D01*
X0230623Y0157028D01*
X0230902Y0156749D01*
X0231244Y0156551D01*
X0231625Y0156449D01*
X0233882Y0156449D01*
X0233882Y0160402D01*
X0234882Y0160402D01*
X0234882Y0156449D01*
X0237138Y0156449D01*
X0237520Y0156551D01*
X0237862Y0156749D01*
X0237870Y0156756D01*
X0237977Y0156649D01*
X0244172Y0156649D01*
X0244934Y0157410D01*
X0244934Y0158602D01*
X0253074Y0158602D01*
X0253074Y0157410D01*
X0253836Y0156649D01*
X0260031Y0156649D01*
X0260280Y0156898D01*
X0260528Y0156649D01*
X0261326Y0156649D01*
X0261326Y0148816D01*
X0260528Y0148816D01*
X0260280Y0148567D01*
X0260031Y0148816D01*
X0253836Y0148816D01*
X0253074Y0148054D01*
X0253074Y0146863D01*
X0251178Y0146863D01*
X0251178Y0151311D01*
X0249831Y0152658D01*
X0247862Y0154627D01*
X0232534Y0154627D01*
X0231689Y0154977D01*
X0230634Y0154977D01*
X0229660Y0154573D01*
X0228915Y0153828D01*
X0228511Y0152854D01*
X0228511Y0151800D01*
X0228915Y0150826D01*
X0229660Y0150080D01*
X0230634Y0149677D01*
X0231689Y0149677D01*
X0232534Y0150027D01*
X0245957Y0150027D01*
X0246578Y0149406D01*
X0246578Y0146863D01*
X0244934Y0146863D01*
X0244934Y0147834D01*
X0244172Y0148595D01*
X0237977Y0148595D01*
X0237870Y0148488D01*
X0237862Y0148496D01*
X0237520Y0148693D01*
X0237138Y0148795D01*
X0234882Y0148795D01*
X0234882Y0144843D01*
X0233882Y0144843D01*
X0233882Y0148795D01*
X0231625Y0148795D01*
X0231244Y0148693D01*
X0230902Y0148496D01*
X0230623Y0148216D01*
X0230425Y0147874D01*
X0230323Y0147493D01*
X0230323Y0144842D01*
X0233882Y0144842D01*
X0233882Y0143843D01*
X0230323Y0143843D01*
X0230323Y0141192D01*
X0230425Y0140811D01*
X0230623Y0140469D01*
X0230902Y0140189D01*
X0231244Y0139992D01*
X0231625Y0139890D01*
X0233882Y0139890D01*
X0233882Y0143842D01*
X0234882Y0143842D01*
X0234882Y0139890D01*
X0237138Y0139890D01*
X0237520Y0139992D01*
X0237862Y0140189D01*
X0237870Y0140197D01*
X0237977Y0140090D01*
X0244172Y0140090D01*
X0244934Y0140851D01*
X0244934Y0142263D01*
X0253074Y0142263D01*
X0253074Y0141072D01*
X0253836Y0140310D01*
X0260031Y0140310D01*
X0260280Y0140559D01*
X0260528Y0140310D01*
X0264626Y0140310D01*
X0272169Y0132768D01*
X0272169Y0131626D01*
X0270650Y0130107D01*
X0269302Y0128760D01*
X0269302Y0127555D01*
X0269200Y0127453D01*
X0269200Y0124547D01*
X0269302Y0124445D01*
X0269302Y0122745D01*
X0267914Y0122745D01*
X0267153Y0121983D01*
X0267153Y0121800D01*
X0266705Y0121800D01*
X0266705Y0122991D01*
X0265944Y0123753D01*
X0259749Y0123753D01*
X0259641Y0123645D01*
X0259634Y0123653D01*
X0259292Y0123851D01*
X0258910Y0123953D01*
X0256654Y0123953D01*
X0256654Y0120000D01*
X0255654Y0120000D01*
X0255654Y0123953D01*
X0253397Y0123953D01*
X0253016Y0123851D01*
X0252673Y0123653D01*
X0252394Y0123374D01*
X0252197Y0123032D01*
X0252094Y0122650D01*
X0252094Y0120000D01*
X0255653Y0120000D01*
X0255653Y0119000D01*
X0252094Y0119000D01*
X0252094Y0116350D01*
X0252197Y0115968D01*
X0252394Y0115626D01*
X0252673Y0115347D01*
X0253016Y0115149D01*
X0253397Y0115047D01*
X0255654Y0115047D01*
X0255654Y0119000D01*
X0256654Y0119000D01*
X0256654Y0115047D01*
X0258910Y0115047D01*
X0259292Y0115149D01*
X0259634Y0115347D01*
X0259641Y0115355D01*
X0259749Y0115247D01*
X0265944Y0115247D01*
X0266705Y0116009D01*
X0266705Y0117200D01*
X0267153Y0117200D01*
X0267153Y0116969D01*
X0267914Y0116208D01*
X0275290Y0116208D01*
X0276052Y0116969D01*
X0276052Y0121983D01*
X0275290Y0122745D01*
X0273902Y0122745D01*
X0273902Y0124339D02*
X0297964Y0124339D01*
X0297294Y0125338D02*
X0273902Y0125338D01*
X0273902Y0126336D02*
X0297294Y0126336D01*
X0297294Y0127335D02*
X0274383Y0127335D01*
X0275381Y0128333D02*
X0297294Y0128333D01*
X0304343Y0124339D02*
X0304380Y0124339D01*
X0307346Y0124339D02*
X0308346Y0124339D01*
X0308346Y0125338D02*
X0307346Y0125338D01*
X0307346Y0126336D02*
X0308346Y0126336D01*
X0308346Y0127335D02*
X0307346Y0127335D01*
X0308346Y0128333D02*
X0321000Y0128333D01*
X0321000Y0127335D02*
X0311905Y0127335D01*
X0311905Y0126336D02*
X0321000Y0126336D01*
X0321000Y0125338D02*
X0311902Y0125338D01*
X0311313Y0124339D02*
X0321000Y0124339D01*
X0321000Y0129332D02*
X0311905Y0129332D01*
X0311905Y0129000D02*
X0311905Y0131650D01*
X0311803Y0132032D01*
X0311606Y0132374D01*
X0311327Y0132653D01*
X0310984Y0132851D01*
X0310603Y0132953D01*
X0308346Y0132953D01*
X0308346Y0129000D01*
X0311905Y0129000D01*
X0311905Y0130330D02*
X0321000Y0130330D01*
X0321000Y0131329D02*
X0311905Y0131329D01*
X0311633Y0132327D02*
X0321000Y0132327D01*
X0321000Y0133326D02*
X0276768Y0133326D01*
X0276768Y0134324D02*
X0321000Y0134324D01*
X0321000Y0135323D02*
X0276119Y0135323D01*
X0275120Y0136321D02*
X0321000Y0136321D01*
X0321000Y0137320D02*
X0274122Y0137320D01*
X0273123Y0138318D02*
X0321000Y0138318D01*
X0321000Y0139317D02*
X0272125Y0139317D01*
X0271126Y0140315D02*
X0321000Y0140315D01*
X0321000Y0141314D02*
X0270128Y0141314D01*
X0269129Y0142312D02*
X0321000Y0142312D01*
X0321000Y0143311D02*
X0268131Y0143311D01*
X0267485Y0144309D02*
X0321000Y0144309D01*
X0321000Y0145308D02*
X0267485Y0145308D01*
X0267485Y0146306D02*
X0321000Y0146306D01*
X0321000Y0147305D02*
X0267485Y0147305D01*
X0267236Y0148303D02*
X0321000Y0148303D01*
X0321000Y0149302D02*
X0265926Y0149302D01*
X0265926Y0150301D02*
X0321000Y0150301D01*
X0321000Y0151299D02*
X0265926Y0151299D01*
X0265926Y0152298D02*
X0321000Y0152298D01*
X0321000Y0153296D02*
X0265926Y0153296D01*
X0265926Y0154295D02*
X0321000Y0154295D01*
X0321000Y0155293D02*
X0265926Y0155293D01*
X0265926Y0156292D02*
X0321000Y0156292D01*
X0321000Y0157290D02*
X0267365Y0157290D01*
X0267485Y0158289D02*
X0321000Y0158289D01*
X0321000Y0159287D02*
X0307247Y0159287D01*
X0307737Y0159342D02*
X0308832Y0159592D01*
X0309892Y0159963D01*
X0310904Y0160451D01*
X0311855Y0161048D01*
X0312733Y0161748D01*
X0313527Y0162543D01*
X0314228Y0163421D01*
X0314825Y0164372D01*
X0315312Y0165384D01*
X0315683Y0166444D01*
X0315933Y0167539D01*
X0316059Y0168655D01*
X0316059Y0168717D01*
X0306559Y0168717D01*
X0306559Y0169717D01*
X0305559Y0169717D01*
X0305559Y0179217D01*
X0305497Y0179217D01*
X0304381Y0179091D01*
X0303286Y0178841D01*
X0302226Y0178470D01*
X0301214Y0177983D01*
X0300263Y0177385D01*
X0299385Y0176685D01*
X0298591Y0175890D01*
X0297891Y0175012D01*
X0297293Y0174061D01*
X0296806Y0173049D01*
X0296435Y0171989D01*
X0296185Y0170894D01*
X0296059Y0169778D01*
X0296059Y0169717D01*
X0305559Y0169717D01*
X0305559Y0168717D01*
X0296059Y0168717D01*
X0296059Y0168655D01*
X0296185Y0167539D01*
X0296435Y0166444D01*
X0296806Y0165384D01*
X0297293Y0164372D01*
X0297891Y0163421D01*
X0298591Y0162543D01*
X0299385Y0161748D01*
X0300263Y0161048D01*
X0301214Y0160451D01*
X0302226Y0159963D01*
X0303286Y0159592D01*
X0304381Y0159342D01*
X0305497Y0159217D01*
X0305559Y0159217D01*
X0305559Y0168716D01*
X0306559Y0168716D01*
X0306559Y0159217D01*
X0306621Y0159217D01*
X0307737Y0159342D01*
X0306559Y0159287D02*
X0305559Y0159287D01*
X0304871Y0159287D02*
X0267485Y0159287D01*
X0267485Y0160286D02*
X0278389Y0160286D01*
X0276510Y0161284D02*
X0267485Y0161284D01*
X0267485Y0162283D02*
X0275512Y0162283D01*
X0274513Y0163281D02*
X0267485Y0163281D01*
X0267485Y0164280D02*
X0273874Y0164280D01*
X0273461Y0165278D02*
X0265926Y0165278D01*
X0265926Y0166277D02*
X0273047Y0166277D01*
X0273093Y0172268D02*
X0266783Y0172268D01*
X0267485Y0173266D02*
X0273507Y0173266D01*
X0273921Y0174265D02*
X0267485Y0174265D01*
X0267485Y0175263D02*
X0274624Y0175263D01*
X0275623Y0176262D02*
X0267485Y0176262D01*
X0267485Y0177260D02*
X0276622Y0177260D01*
X0278658Y0178259D02*
X0267485Y0178259D01*
X0267485Y0179257D02*
X0288921Y0179257D01*
X0288452Y0179552D02*
X0289403Y0178954D01*
X0290415Y0178467D01*
X0291475Y0178096D01*
X0292570Y0177846D01*
X0293686Y0177720D01*
X0293748Y0177720D01*
X0293748Y0187220D01*
X0294748Y0187220D01*
X0294748Y0177720D01*
X0294810Y0177720D01*
X0295926Y0177846D01*
X0297021Y0178096D01*
X0298081Y0178467D01*
X0299093Y0178954D01*
X0300044Y0179552D01*
X0300922Y0180252D01*
X0301716Y0181047D01*
X0302416Y0181925D01*
X0303014Y0182876D01*
X0303501Y0183888D01*
X0303872Y0184948D01*
X0304122Y0186043D01*
X0304248Y0187159D01*
X0304248Y0187220D01*
X0294748Y0187220D01*
X0294748Y0188220D01*
X0304248Y0188220D01*
X0304248Y0188282D01*
X0304122Y0189398D01*
X0303872Y0190493D01*
X0303501Y0191553D01*
X0303014Y0192565D01*
X0302416Y0193516D01*
X0301716Y0194394D01*
X0300922Y0195189D01*
X0300044Y0195889D01*
X0299093Y0196486D01*
X0298081Y0196974D01*
X0297021Y0197345D01*
X0295926Y0197595D01*
X0294810Y0197720D01*
X0294748Y0197720D01*
X0294748Y0188221D01*
X0293748Y0188221D01*
X0293748Y0197720D01*
X0293686Y0197720D01*
X0292570Y0197595D01*
X0291475Y0197345D01*
X0290415Y0196974D01*
X0289403Y0196486D01*
X0288452Y0195889D01*
X0287574Y0195189D01*
X0286780Y0194394D01*
X0286080Y0193516D01*
X0285482Y0192565D01*
X0284995Y0191553D01*
X0284624Y0190493D01*
X0284374Y0189398D01*
X0284248Y0188282D01*
X0284248Y0188220D01*
X0293748Y0188220D01*
X0293748Y0187220D01*
X0284248Y0187220D01*
X0284248Y0187159D01*
X0284374Y0186043D01*
X0284624Y0184948D01*
X0284995Y0183888D01*
X0285482Y0182876D01*
X0286080Y0181925D01*
X0286780Y0181047D01*
X0287574Y0180252D01*
X0288452Y0179552D01*
X0287571Y0180256D02*
X0267181Y0180256D01*
X0265926Y0181254D02*
X0286614Y0181254D01*
X0285873Y0182253D02*
X0265926Y0182253D01*
X0265926Y0183251D02*
X0285301Y0183251D01*
X0284868Y0184250D02*
X0265926Y0184250D01*
X0265926Y0185248D02*
X0284555Y0185248D01*
X0284351Y0186247D02*
X0265926Y0186247D01*
X0265926Y0187245D02*
X0293748Y0187245D01*
X0293748Y0186247D02*
X0294748Y0186247D01*
X0294748Y0187245D02*
X0321000Y0187245D01*
X0321000Y0186247D02*
X0304145Y0186247D01*
X0303941Y0185248D02*
X0321000Y0185248D01*
X0321000Y0184250D02*
X0303628Y0184250D01*
X0303195Y0183251D02*
X0321000Y0183251D01*
X0321000Y0182253D02*
X0302623Y0182253D01*
X0301882Y0181254D02*
X0321000Y0181254D01*
X0321000Y0180256D02*
X0300926Y0180256D01*
X0299575Y0179257D02*
X0321000Y0179257D01*
X0321000Y0178259D02*
X0310330Y0178259D01*
X0309892Y0178470D02*
X0308832Y0178841D01*
X0307737Y0179091D01*
X0306621Y0179217D01*
X0306559Y0179217D01*
X0306559Y0169717D01*
X0316059Y0169717D01*
X0316059Y0169778D01*
X0315933Y0170894D01*
X0315683Y0171989D01*
X0315312Y0173049D01*
X0314825Y0174061D01*
X0314228Y0175012D01*
X0313527Y0175890D01*
X0312733Y0176685D01*
X0311855Y0177385D01*
X0310904Y0177983D01*
X0309892Y0178470D01*
X0312011Y0177260D02*
X0321000Y0177260D01*
X0321000Y0176262D02*
X0313156Y0176262D01*
X0314027Y0175263D02*
X0321000Y0175263D01*
X0321000Y0174265D02*
X0314697Y0174265D01*
X0315208Y0173266D02*
X0321000Y0173266D01*
X0321000Y0172268D02*
X0315586Y0172268D01*
X0315848Y0171269D02*
X0321000Y0171269D01*
X0321000Y0170271D02*
X0316004Y0170271D01*
X0316016Y0168274D02*
X0321000Y0168274D01*
X0321000Y0169272D02*
X0306559Y0169272D01*
X0306559Y0168274D02*
X0305559Y0168274D01*
X0305559Y0169272D02*
X0292237Y0169272D01*
X0292237Y0168274D02*
X0296102Y0168274D01*
X0296245Y0167275D02*
X0292237Y0167275D01*
X0291827Y0166277D02*
X0296493Y0166277D01*
X0296856Y0165278D02*
X0291413Y0165278D01*
X0291000Y0164280D02*
X0297351Y0164280D01*
X0298002Y0163281D02*
X0290361Y0163281D01*
X0289362Y0162283D02*
X0298851Y0162283D01*
X0299967Y0161284D02*
X0288364Y0161284D01*
X0286485Y0160286D02*
X0301557Y0160286D01*
X0305559Y0160286D02*
X0306559Y0160286D01*
X0306559Y0161284D02*
X0305559Y0161284D01*
X0305559Y0162283D02*
X0306559Y0162283D01*
X0306559Y0163281D02*
X0305559Y0163281D01*
X0305559Y0164280D02*
X0306559Y0164280D01*
X0306559Y0165278D02*
X0305559Y0165278D01*
X0305559Y0166277D02*
X0306559Y0166277D01*
X0306559Y0167275D02*
X0305559Y0167275D01*
X0305559Y0170271D02*
X0306559Y0170271D01*
X0306559Y0171269D02*
X0305559Y0171269D01*
X0305559Y0172268D02*
X0306559Y0172268D01*
X0306559Y0173266D02*
X0305559Y0173266D01*
X0305559Y0174265D02*
X0306559Y0174265D01*
X0306559Y0175263D02*
X0305559Y0175263D01*
X0305559Y0176262D02*
X0306559Y0176262D01*
X0306559Y0177260D02*
X0305559Y0177260D01*
X0305559Y0178259D02*
X0306559Y0178259D01*
X0301788Y0178259D02*
X0297486Y0178259D01*
X0298962Y0176262D02*
X0289251Y0176262D01*
X0288252Y0177260D02*
X0300107Y0177260D01*
X0298091Y0175263D02*
X0290250Y0175263D01*
X0290953Y0174265D02*
X0297421Y0174265D01*
X0296910Y0173266D02*
X0291367Y0173266D01*
X0291781Y0172268D02*
X0296532Y0172268D01*
X0296270Y0171269D02*
X0292194Y0171269D01*
X0292237Y0170271D02*
X0296115Y0170271D01*
X0294748Y0178259D02*
X0293748Y0178259D01*
X0293748Y0179257D02*
X0294748Y0179257D01*
X0294748Y0180256D02*
X0293748Y0180256D01*
X0293748Y0181254D02*
X0294748Y0181254D01*
X0294748Y0182253D02*
X0293748Y0182253D01*
X0293748Y0183251D02*
X0294748Y0183251D01*
X0294748Y0184250D02*
X0293748Y0184250D01*
X0293748Y0185248D02*
X0294748Y0185248D01*
X0294748Y0188244D02*
X0293748Y0188244D01*
X0293748Y0189242D02*
X0294748Y0189242D01*
X0294748Y0190241D02*
X0293748Y0190241D01*
X0293748Y0191239D02*
X0294748Y0191239D01*
X0294748Y0192238D02*
X0293748Y0192238D01*
X0293748Y0193237D02*
X0294748Y0193237D01*
X0294748Y0194235D02*
X0293748Y0194235D01*
X0293748Y0195234D02*
X0294748Y0195234D01*
X0294748Y0196232D02*
X0293748Y0196232D01*
X0293748Y0197231D02*
X0294748Y0197231D01*
X0297347Y0197231D02*
X0321000Y0197231D01*
X0321000Y0198229D02*
X0280316Y0198229D01*
X0279318Y0197231D02*
X0291149Y0197231D01*
X0288998Y0196232D02*
X0278319Y0196232D01*
X0281315Y0199228D02*
X0321000Y0199228D01*
X0321000Y0200226D02*
X0282313Y0200226D01*
X0282674Y0201225D02*
X0303767Y0201225D01*
X0302557Y0201726D02*
X0305279Y0200598D01*
X0308225Y0200598D01*
X0310947Y0201726D01*
X0313030Y0203809D01*
X0314157Y0206531D01*
X0314157Y0209477D01*
X0313030Y0212199D01*
X0310947Y0214282D01*
X0308225Y0215409D01*
X0305279Y0215409D01*
X0302557Y0214282D01*
X0300474Y0212199D01*
X0299346Y0209477D01*
X0299346Y0206531D01*
X0300474Y0203809D01*
X0302557Y0201726D01*
X0302060Y0202223D02*
X0282674Y0202223D01*
X0282674Y0203222D02*
X0301061Y0203222D01*
X0300304Y0204220D02*
X0282722Y0204220D01*
X0283024Y0205219D02*
X0299890Y0205219D01*
X0299476Y0206217D02*
X0282936Y0206217D01*
X0282382Y0207216D02*
X0299346Y0207216D01*
X0299346Y0208214D02*
X0279687Y0208214D01*
X0280686Y0209213D02*
X0299346Y0209213D01*
X0299651Y0210211D02*
X0281684Y0210211D01*
X0282683Y0211210D02*
X0300064Y0211210D01*
X0300483Y0212208D02*
X0283681Y0212208D01*
X0284680Y0213207D02*
X0301482Y0213207D01*
X0302480Y0214205D02*
X0285678Y0214205D01*
X0286677Y0215204D02*
X0304782Y0215204D01*
X0308722Y0215204D02*
X0321000Y0215204D01*
X0321000Y0216202D02*
X0287675Y0216202D01*
X0288674Y0217201D02*
X0321000Y0217201D01*
X0321000Y0218199D02*
X0289672Y0218199D01*
X0290671Y0219198D02*
X0321000Y0219198D01*
X0321000Y0220196D02*
X0291669Y0220196D01*
X0292668Y0221195D02*
X0321000Y0221195D01*
X0321000Y0222193D02*
X0293666Y0222193D01*
X0294665Y0223192D02*
X0321000Y0223192D01*
X0321000Y0224190D02*
X0302312Y0224190D01*
X0303758Y0225189D02*
X0321000Y0225189D01*
X0321000Y0226187D02*
X0304567Y0226187D01*
X0304981Y0227186D02*
X0321000Y0227186D01*
X0321000Y0228184D02*
X0305168Y0228184D01*
X0305168Y0229183D02*
X0321000Y0229183D01*
X0321000Y0230181D02*
X0305168Y0230181D01*
X0305168Y0231180D02*
X0321000Y0231180D01*
X0321000Y0232178D02*
X0305168Y0232178D01*
X0305168Y0233177D02*
X0321000Y0233177D01*
X0321000Y0234175D02*
X0305168Y0234175D01*
X0305168Y0235174D02*
X0321000Y0235174D01*
X0321000Y0236172D02*
X0305168Y0236172D01*
X0304934Y0237171D02*
X0321000Y0237171D01*
X0321000Y0238170D02*
X0304520Y0238170D01*
X0303645Y0239168D02*
X0321000Y0239168D01*
X0321000Y0240167D02*
X0302359Y0240167D01*
X0302359Y0241165D02*
X0321000Y0241165D01*
X0321000Y0242164D02*
X0302359Y0242164D01*
X0302359Y0243162D02*
X0320989Y0243162D01*
X0320910Y0244161D02*
X0302029Y0244161D01*
X0301031Y0245159D02*
X0320718Y0245159D01*
X0320393Y0246158D02*
X0300032Y0246158D01*
X0299034Y0247156D02*
X0320069Y0247156D01*
X0319638Y0248155D02*
X0298035Y0248155D01*
X0313391Y0253147D02*
X0030459Y0253147D01*
X0028359Y0252149D02*
X0315733Y0252149D01*
X0317107Y0251150D02*
X0026985Y0251150D01*
X0026154Y0250152D02*
X0318187Y0250152D01*
X0318912Y0249153D02*
X0025428Y0249153D01*
X0024882Y0248155D02*
X0126184Y0248155D01*
X0125932Y0247902D02*
X0121127Y0247902D01*
X0120365Y0247141D01*
X0120365Y0240946D01*
X0120473Y0240838D01*
X0120465Y0240830D01*
X0120268Y0240488D01*
X0120165Y0240107D01*
X0120165Y0237850D01*
X0124118Y0237850D01*
X0124118Y0236850D01*
X0125118Y0236850D01*
X0125118Y0233291D01*
X0127768Y0233291D01*
X0128150Y0233394D01*
X0128492Y0233591D01*
X0128771Y0233870D01*
X0128969Y0234212D01*
X0129071Y0234594D01*
X0129071Y0236850D01*
X0125118Y0236850D01*
X0125118Y0237850D01*
X0129071Y0237850D01*
X0129071Y0240107D01*
X0128969Y0240488D01*
X0128771Y0240830D01*
X0128763Y0240838D01*
X0128871Y0240946D01*
X0128871Y0245015D01*
X0150811Y0245015D01*
X0150175Y0244379D01*
X0149825Y0243534D01*
X0147705Y0241414D01*
X0146357Y0240067D01*
X0146357Y0229112D01*
X0145914Y0228929D01*
X0144552Y0227566D01*
X0143814Y0225786D01*
X0143814Y0216773D01*
X0144552Y0214993D01*
X0145862Y0213682D01*
X0141453Y0213682D01*
X0142763Y0214993D01*
X0143501Y0216773D01*
X0143501Y0225786D01*
X0142763Y0227566D01*
X0141401Y0228929D01*
X0139621Y0229666D01*
X0137694Y0229666D01*
X0135914Y0228929D01*
X0134552Y0227566D01*
X0133814Y0225786D01*
X0133814Y0216773D01*
X0134552Y0214993D01*
X0135862Y0213682D01*
X0123910Y0213682D01*
X0122562Y0212335D01*
X0121941Y0211713D01*
X0120594Y0210366D01*
X0120594Y0194681D01*
X0121941Y0193334D01*
X0144216Y0171059D01*
X0145563Y0169712D01*
X0214461Y0169712D01*
X0222757Y0161415D01*
X0222662Y0161441D01*
X0219972Y0161441D01*
X0219972Y0156937D01*
X0218972Y0156937D01*
X0218972Y0155937D01*
X0214980Y0155937D01*
X0214980Y0152736D01*
X0215083Y0152354D01*
X0215280Y0152012D01*
X0215559Y0151733D01*
X0215901Y0151535D01*
X0216283Y0151433D01*
X0218972Y0151433D01*
X0218972Y0155937D01*
X0219972Y0155937D01*
X0219972Y0151433D01*
X0221216Y0151433D01*
X0221024Y0151241D01*
X0215942Y0151241D01*
X0215180Y0150479D01*
X0215180Y0142395D01*
X0215942Y0141633D01*
X0223003Y0141633D01*
X0223765Y0142395D01*
X0223765Y0147476D01*
X0226209Y0149920D01*
X0227556Y0151268D01*
X0227556Y0163122D01*
X0217713Y0172964D01*
X0216366Y0174312D01*
X0147468Y0174312D01*
X0125194Y0196587D01*
X0125194Y0208461D01*
X0125815Y0209082D01*
X0130939Y0209082D01*
X0130372Y0208670D01*
X0129811Y0208108D01*
X0129344Y0207466D01*
X0128984Y0206759D01*
X0128738Y0206004D01*
X0128614Y0205220D01*
X0128614Y0201780D01*
X0133157Y0201780D01*
X0133157Y0200780D01*
X0128614Y0200780D01*
X0128614Y0197339D01*
X0128738Y0196555D01*
X0128984Y0195800D01*
X0129344Y0195093D01*
X0129811Y0194451D01*
X0130372Y0193889D01*
X0131014Y0193423D01*
X0131722Y0193062D01*
X0132476Y0192817D01*
X0133157Y0192709D01*
X0133157Y0200779D01*
X0134157Y0200779D01*
X0134157Y0192709D01*
X0134838Y0192817D01*
X0135593Y0193062D01*
X0136301Y0193423D01*
X0136943Y0193889D01*
X0137504Y0194451D01*
X0137971Y0195093D01*
X0138331Y0195800D01*
X0138577Y0196555D01*
X0138701Y0197339D01*
X0138701Y0200780D01*
X0134158Y0200780D01*
X0134158Y0201780D01*
X0138701Y0201780D01*
X0138701Y0205220D01*
X0138577Y0206004D01*
X0138331Y0206759D01*
X0137971Y0207466D01*
X0137504Y0208108D01*
X0136943Y0208670D01*
X0136376Y0209082D01*
X0141284Y0209082D01*
X0140914Y0208929D01*
X0139552Y0207566D01*
X0138814Y0205786D01*
X0138814Y0196773D01*
X0139552Y0194993D01*
X0140914Y0193630D01*
X0142694Y0192893D01*
X0144621Y0192893D01*
X0146401Y0193630D01*
X0147763Y0194993D01*
X0148501Y0196773D01*
X0148501Y0205786D01*
X0147763Y0207566D01*
X0146401Y0208929D01*
X0146031Y0209082D01*
X0151284Y0209082D01*
X0150914Y0208929D01*
X0149552Y0207566D01*
X0148814Y0205786D01*
X0148814Y0196773D01*
X0149552Y0194993D01*
X0150914Y0193630D01*
X0152694Y0192893D01*
X0154621Y0192893D01*
X0156401Y0193630D01*
X0157763Y0194993D01*
X0158501Y0196773D01*
X0158501Y0205786D01*
X0157763Y0207566D01*
X0156401Y0208929D01*
X0156031Y0209082D01*
X0157311Y0209082D01*
X0158658Y0210429D01*
X0159279Y0211050D01*
X0160627Y0212398D01*
X0160627Y0213310D01*
X0161401Y0213630D01*
X0162763Y0214993D01*
X0163501Y0216773D01*
X0163501Y0225786D01*
X0162763Y0227566D01*
X0161401Y0228929D01*
X0159621Y0229666D01*
X0157694Y0229666D01*
X0155914Y0228929D01*
X0154552Y0227566D01*
X0153814Y0225786D01*
X0153814Y0216773D01*
X0154552Y0214993D01*
X0155634Y0213910D01*
X0155406Y0213682D01*
X0151453Y0213682D01*
X0152763Y0214993D01*
X0153501Y0216773D01*
X0153501Y0225786D01*
X0152763Y0227566D01*
X0151401Y0228929D01*
X0150957Y0229112D01*
X0150957Y0238161D01*
X0153077Y0240281D01*
X0153922Y0240631D01*
X0154668Y0241377D01*
X0155071Y0242351D01*
X0155071Y0243405D01*
X0154668Y0244379D01*
X0154032Y0245015D01*
X0175298Y0245015D01*
X0176857Y0243455D01*
X0176857Y0229320D01*
X0175914Y0228929D01*
X0174552Y0227566D01*
X0173814Y0225786D01*
X0173814Y0216773D01*
X0174552Y0214993D01*
X0175914Y0213630D01*
X0177694Y0212893D01*
X0179621Y0212893D01*
X0181401Y0213630D01*
X0182763Y0214993D01*
X0183501Y0216773D01*
X0183501Y0225786D01*
X0182763Y0227566D01*
X0181401Y0228929D01*
X0180457Y0229320D01*
X0180457Y0244946D01*
X0179403Y0246001D01*
X0176789Y0248615D01*
X0126644Y0248615D01*
X0125932Y0247902D01*
X0127390Y0246815D02*
X0124618Y0244043D01*
X0127390Y0246815D02*
X0176043Y0246815D01*
X0178657Y0244201D01*
X0178657Y0221280D01*
X0173814Y0221195D02*
X0169158Y0221195D01*
X0169158Y0220780D02*
X0169158Y0221780D01*
X0173701Y0221780D01*
X0173701Y0225220D01*
X0173577Y0226004D01*
X0173331Y0226759D01*
X0172971Y0227466D01*
X0172504Y0228108D01*
X0171943Y0228670D01*
X0171301Y0229136D01*
X0170593Y0229497D01*
X0169838Y0229742D01*
X0169157Y0229850D01*
X0169157Y0221780D01*
X0168157Y0221780D01*
X0168157Y0229850D01*
X0167476Y0229742D01*
X0166722Y0229497D01*
X0166014Y0229136D01*
X0165372Y0228670D01*
X0164811Y0228108D01*
X0164344Y0227466D01*
X0163984Y0226759D01*
X0163738Y0226004D01*
X0163614Y0225220D01*
X0163614Y0221780D01*
X0168157Y0221780D01*
X0168157Y0220780D01*
X0163614Y0220780D01*
X0163614Y0217339D01*
X0163738Y0216555D01*
X0163984Y0215800D01*
X0164344Y0215093D01*
X0164811Y0214451D01*
X0165372Y0213889D01*
X0166014Y0213423D01*
X0166722Y0213062D01*
X0167476Y0212817D01*
X0168157Y0212709D01*
X0168157Y0220779D01*
X0169157Y0220779D01*
X0169157Y0212709D01*
X0169838Y0212817D01*
X0170593Y0213062D01*
X0171301Y0213423D01*
X0171943Y0213889D01*
X0172504Y0214451D01*
X0172971Y0215093D01*
X0173331Y0215800D01*
X0173577Y0216555D01*
X0173701Y0217339D01*
X0173701Y0220780D01*
X0169158Y0220780D01*
X0169157Y0220196D02*
X0168157Y0220196D01*
X0168157Y0219198D02*
X0169157Y0219198D01*
X0169157Y0218199D02*
X0168157Y0218199D01*
X0168157Y0217201D02*
X0169157Y0217201D01*
X0169157Y0216202D02*
X0168157Y0216202D01*
X0168157Y0215204D02*
X0169157Y0215204D01*
X0169157Y0214205D02*
X0168157Y0214205D01*
X0168157Y0213207D02*
X0169157Y0213207D01*
X0170877Y0213207D02*
X0176936Y0213207D01*
X0175339Y0214205D02*
X0172259Y0214205D01*
X0173027Y0215204D02*
X0174464Y0215204D01*
X0174051Y0216202D02*
X0173462Y0216202D01*
X0173679Y0217201D02*
X0173814Y0217201D01*
X0173814Y0218199D02*
X0173701Y0218199D01*
X0173701Y0219198D02*
X0173814Y0219198D01*
X0173814Y0220196D02*
X0173701Y0220196D01*
X0173701Y0222193D02*
X0173814Y0222193D01*
X0173814Y0223192D02*
X0173701Y0223192D01*
X0173701Y0224190D02*
X0173814Y0224190D01*
X0173814Y0225189D02*
X0173701Y0225189D01*
X0173517Y0226187D02*
X0173980Y0226187D01*
X0174394Y0227186D02*
X0173114Y0227186D01*
X0172428Y0228184D02*
X0175170Y0228184D01*
X0176528Y0229183D02*
X0171209Y0229183D01*
X0169157Y0229183D02*
X0168157Y0229183D01*
X0168157Y0228184D02*
X0169157Y0228184D01*
X0169157Y0227186D02*
X0168157Y0227186D01*
X0168157Y0226187D02*
X0169157Y0226187D01*
X0169157Y0225189D02*
X0168157Y0225189D01*
X0168157Y0224190D02*
X0169157Y0224190D01*
X0169157Y0223192D02*
X0168157Y0223192D01*
X0168157Y0222193D02*
X0169157Y0222193D01*
X0168157Y0221195D02*
X0163501Y0221195D01*
X0163501Y0222193D02*
X0163614Y0222193D01*
X0163614Y0223192D02*
X0163501Y0223192D01*
X0163501Y0224190D02*
X0163614Y0224190D01*
X0163614Y0225189D02*
X0163501Y0225189D01*
X0163335Y0226187D02*
X0163798Y0226187D01*
X0164201Y0227186D02*
X0162921Y0227186D01*
X0162145Y0228184D02*
X0164887Y0228184D01*
X0166106Y0229183D02*
X0160787Y0229183D01*
X0156527Y0229183D02*
X0150957Y0229183D01*
X0150957Y0230181D02*
X0176857Y0230181D01*
X0176857Y0231180D02*
X0150957Y0231180D01*
X0150957Y0232178D02*
X0176857Y0232178D01*
X0176857Y0233177D02*
X0150957Y0233177D01*
X0150957Y0234175D02*
X0176857Y0234175D01*
X0176857Y0235174D02*
X0150957Y0235174D01*
X0150957Y0236172D02*
X0176857Y0236172D01*
X0176857Y0237171D02*
X0150957Y0237171D01*
X0150966Y0238170D02*
X0176857Y0238170D01*
X0176857Y0239168D02*
X0151964Y0239168D01*
X0152963Y0240167D02*
X0176857Y0240167D01*
X0176857Y0241165D02*
X0154456Y0241165D01*
X0154994Y0242164D02*
X0176857Y0242164D01*
X0176857Y0243162D02*
X0155071Y0243162D01*
X0154758Y0244161D02*
X0176152Y0244161D01*
X0178248Y0247156D02*
X0221281Y0247156D01*
X0220283Y0246158D02*
X0179246Y0246158D01*
X0180245Y0245159D02*
X0219284Y0245159D01*
X0218286Y0244161D02*
X0180457Y0244161D01*
X0180457Y0243162D02*
X0217287Y0243162D01*
X0216289Y0242164D02*
X0180457Y0242164D01*
X0180457Y0241165D02*
X0215290Y0241165D01*
X0214292Y0240167D02*
X0180457Y0240167D01*
X0180457Y0239168D02*
X0213293Y0239168D01*
X0212295Y0238170D02*
X0180457Y0238170D01*
X0180457Y0237171D02*
X0211296Y0237171D01*
X0210298Y0236172D02*
X0180457Y0236172D01*
X0180457Y0235174D02*
X0209299Y0235174D01*
X0208301Y0234175D02*
X0180457Y0234175D01*
X0180457Y0233177D02*
X0207302Y0233177D01*
X0206304Y0232178D02*
X0180457Y0232178D01*
X0180457Y0231180D02*
X0205305Y0231180D01*
X0204307Y0230181D02*
X0180457Y0230181D01*
X0180787Y0229183D02*
X0186527Y0229183D01*
X0185914Y0228929D02*
X0184552Y0227566D01*
X0183814Y0225786D01*
X0183814Y0216773D01*
X0184552Y0214993D01*
X0185914Y0213630D01*
X0187694Y0212893D01*
X0189621Y0212893D01*
X0191401Y0213630D01*
X0192763Y0214993D01*
X0193501Y0216773D01*
X0193501Y0225786D01*
X0192763Y0227566D01*
X0191401Y0228929D01*
X0189621Y0229666D01*
X0187694Y0229666D01*
X0185914Y0228929D01*
X0185170Y0228184D02*
X0182145Y0228184D01*
X0182921Y0227186D02*
X0184394Y0227186D01*
X0183980Y0226187D02*
X0183335Y0226187D01*
X0183501Y0225189D02*
X0183814Y0225189D01*
X0183814Y0224190D02*
X0183501Y0224190D01*
X0183501Y0223192D02*
X0183814Y0223192D01*
X0183814Y0222193D02*
X0183501Y0222193D01*
X0183501Y0221195D02*
X0183814Y0221195D01*
X0183814Y0220196D02*
X0183501Y0220196D01*
X0183501Y0219198D02*
X0183814Y0219198D01*
X0183814Y0218199D02*
X0183501Y0218199D01*
X0183501Y0217201D02*
X0183814Y0217201D01*
X0184051Y0216202D02*
X0183264Y0216202D01*
X0182851Y0215204D02*
X0184464Y0215204D01*
X0185339Y0214205D02*
X0181976Y0214205D01*
X0180378Y0213207D02*
X0186936Y0213207D01*
X0190378Y0213207D02*
X0194301Y0213207D01*
X0193302Y0212208D02*
X0160437Y0212208D01*
X0160627Y0213207D02*
X0166438Y0213207D01*
X0165056Y0214205D02*
X0161976Y0214205D01*
X0162851Y0215204D02*
X0164288Y0215204D01*
X0163853Y0216202D02*
X0163264Y0216202D01*
X0163501Y0217201D02*
X0163636Y0217201D01*
X0163614Y0218199D02*
X0163501Y0218199D01*
X0163501Y0219198D02*
X0163614Y0219198D01*
X0163614Y0220196D02*
X0163501Y0220196D01*
X0155339Y0214205D02*
X0151976Y0214205D01*
X0152851Y0215204D02*
X0154464Y0215204D01*
X0154051Y0216202D02*
X0153264Y0216202D01*
X0153501Y0217201D02*
X0153814Y0217201D01*
X0153814Y0218199D02*
X0153501Y0218199D01*
X0153501Y0219198D02*
X0153814Y0219198D01*
X0153814Y0220196D02*
X0153501Y0220196D01*
X0153501Y0221195D02*
X0153814Y0221195D01*
X0153814Y0222193D02*
X0153501Y0222193D01*
X0153501Y0223192D02*
X0153814Y0223192D01*
X0153814Y0224190D02*
X0153501Y0224190D01*
X0153501Y0225189D02*
X0153814Y0225189D01*
X0153980Y0226187D02*
X0153335Y0226187D01*
X0152921Y0227186D02*
X0154394Y0227186D01*
X0155170Y0228184D02*
X0152145Y0228184D01*
X0146357Y0229183D02*
X0140787Y0229183D01*
X0142145Y0228184D02*
X0145170Y0228184D01*
X0144394Y0227186D02*
X0142921Y0227186D01*
X0143335Y0226187D02*
X0143980Y0226187D01*
X0143814Y0225189D02*
X0143501Y0225189D01*
X0143501Y0224190D02*
X0143814Y0224190D01*
X0143814Y0223192D02*
X0143501Y0223192D01*
X0143501Y0222193D02*
X0143814Y0222193D01*
X0143814Y0221195D02*
X0143501Y0221195D01*
X0143501Y0220196D02*
X0143814Y0220196D01*
X0143814Y0219198D02*
X0143501Y0219198D01*
X0143501Y0218199D02*
X0143814Y0218199D01*
X0143814Y0217201D02*
X0143501Y0217201D01*
X0143264Y0216202D02*
X0144051Y0216202D01*
X0144464Y0215204D02*
X0142851Y0215204D01*
X0141976Y0214205D02*
X0145339Y0214205D01*
X0147116Y0208214D02*
X0150199Y0208214D01*
X0149406Y0207216D02*
X0147909Y0207216D01*
X0148322Y0206217D02*
X0148993Y0206217D01*
X0148814Y0205219D02*
X0148501Y0205219D01*
X0148501Y0204220D02*
X0148814Y0204220D01*
X0148814Y0203222D02*
X0148501Y0203222D01*
X0148501Y0202223D02*
X0148814Y0202223D01*
X0148814Y0201225D02*
X0148501Y0201225D01*
X0148501Y0200226D02*
X0148814Y0200226D01*
X0148814Y0199228D02*
X0148501Y0199228D01*
X0148501Y0198229D02*
X0148814Y0198229D01*
X0148814Y0197231D02*
X0148501Y0197231D01*
X0148277Y0196232D02*
X0149038Y0196232D01*
X0149452Y0195234D02*
X0147863Y0195234D01*
X0147006Y0194235D02*
X0150309Y0194235D01*
X0151865Y0193237D02*
X0145450Y0193237D01*
X0141865Y0193237D02*
X0135935Y0193237D01*
X0137289Y0194235D02*
X0140309Y0194235D01*
X0139452Y0195234D02*
X0138043Y0195234D01*
X0138472Y0196232D02*
X0139038Y0196232D01*
X0138814Y0197231D02*
X0138684Y0197231D01*
X0138701Y0198229D02*
X0138814Y0198229D01*
X0138814Y0199228D02*
X0138701Y0199228D01*
X0138701Y0200226D02*
X0138814Y0200226D01*
X0138814Y0201225D02*
X0134158Y0201225D01*
X0134157Y0200226D02*
X0133157Y0200226D01*
X0133157Y0199228D02*
X0134157Y0199228D01*
X0134157Y0198229D02*
X0133157Y0198229D01*
X0133157Y0197231D02*
X0134157Y0197231D01*
X0134157Y0196232D02*
X0133157Y0196232D01*
X0133157Y0195234D02*
X0134157Y0195234D01*
X0134157Y0194235D02*
X0133157Y0194235D01*
X0133157Y0193237D02*
X0134157Y0193237D01*
X0131380Y0193237D02*
X0128544Y0193237D01*
X0127545Y0194235D02*
X0130026Y0194235D01*
X0129272Y0195234D02*
X0126547Y0195234D01*
X0125548Y0196232D02*
X0128843Y0196232D01*
X0128631Y0197231D02*
X0125194Y0197231D01*
X0125194Y0198229D02*
X0128614Y0198229D01*
X0128614Y0199228D02*
X0125194Y0199228D01*
X0125194Y0200226D02*
X0128614Y0200226D01*
X0128614Y0202223D02*
X0125194Y0202223D01*
X0125194Y0201225D02*
X0133157Y0201225D01*
X0128614Y0203222D02*
X0125194Y0203222D01*
X0125194Y0204220D02*
X0128614Y0204220D01*
X0128614Y0205219D02*
X0125194Y0205219D01*
X0125194Y0206217D02*
X0128808Y0206217D01*
X0129216Y0207216D02*
X0125194Y0207216D01*
X0125194Y0208214D02*
X0129917Y0208214D01*
X0137398Y0208214D02*
X0140199Y0208214D01*
X0139406Y0207216D02*
X0138098Y0207216D01*
X0138507Y0206217D02*
X0138993Y0206217D01*
X0138814Y0205219D02*
X0138701Y0205219D01*
X0138701Y0204220D02*
X0138814Y0204220D01*
X0138814Y0203222D02*
X0138701Y0203222D01*
X0138701Y0202223D02*
X0138814Y0202223D01*
X0135339Y0214205D02*
X0105884Y0214205D01*
X0105747Y0213873D02*
X0106150Y0214847D01*
X0106150Y0215901D01*
X0105747Y0216875D01*
X0105001Y0217621D01*
X0104027Y0218024D01*
X0102973Y0218024D01*
X0101999Y0217621D01*
X0101552Y0217174D01*
X0095372Y0217174D01*
X0075387Y0237158D01*
X0075815Y0238190D01*
X0076576Y0236353D01*
X0077983Y0234946D01*
X0079820Y0234185D01*
X0081810Y0234185D01*
X0083647Y0234946D01*
X0085054Y0236353D01*
X0085737Y0238003D01*
X0085743Y0237967D01*
X0085996Y0237189D01*
X0086368Y0236460D01*
X0086849Y0235797D01*
X0087427Y0235219D01*
X0088090Y0234738D01*
X0088819Y0234366D01*
X0089597Y0234113D01*
X0090315Y0233999D01*
X0090315Y0238685D01*
X0091315Y0238685D01*
X0091315Y0239685D01*
X0096001Y0239685D01*
X0095887Y0240403D01*
X0095634Y0241181D01*
X0095262Y0241910D01*
X0094781Y0242573D01*
X0094203Y0243151D01*
X0093540Y0243632D01*
X0092811Y0244004D01*
X0092033Y0244257D01*
X0091315Y0244371D01*
X0091315Y0239685D01*
X0090315Y0239685D01*
X0090315Y0244371D01*
X0089597Y0244257D01*
X0088819Y0244004D01*
X0088090Y0243632D01*
X0087427Y0243151D01*
X0086849Y0242573D01*
X0086368Y0241910D01*
X0085996Y0241181D01*
X0085743Y0240403D01*
X0085737Y0240367D01*
X0085054Y0242017D01*
X0083647Y0243424D01*
X0081810Y0244185D01*
X0079820Y0244185D01*
X0077983Y0243424D01*
X0076576Y0242017D01*
X0075815Y0240180D01*
X0075815Y0238190D01*
X0075815Y0240180D01*
X0075054Y0242017D01*
X0073647Y0243424D01*
X0071810Y0244185D01*
X0069820Y0244185D01*
X0067983Y0243424D01*
X0066576Y0242017D01*
X0065815Y0240180D01*
X0065815Y0238190D01*
X0066576Y0236353D01*
X0067983Y0234946D01*
X0069820Y0234185D01*
X0071810Y0234185D01*
X0072842Y0234613D01*
X0092826Y0214628D01*
X0093880Y0213574D01*
X0101552Y0213574D01*
X0101999Y0213127D01*
X0102973Y0212724D01*
X0104027Y0212724D01*
X0105001Y0213127D01*
X0105747Y0213873D01*
X0105080Y0213207D02*
X0123434Y0213207D01*
X0122436Y0212208D02*
X0024000Y0212208D01*
X0024000Y0211210D02*
X0040178Y0211210D01*
X0040446Y0211320D02*
X0038498Y0210514D01*
X0037007Y0209023D01*
X0036200Y0207075D01*
X0036200Y0204966D01*
X0037007Y0203018D01*
X0038498Y0201527D01*
X0040446Y0200720D01*
X0042554Y0200720D01*
X0044502Y0201527D01*
X0045993Y0203018D01*
X0046800Y0204966D01*
X0046800Y0207075D01*
X0045993Y0209023D01*
X0044502Y0210514D01*
X0042554Y0211320D01*
X0040446Y0211320D01*
X0042822Y0211210D02*
X0121437Y0211210D01*
X0120594Y0210211D02*
X0044805Y0210211D01*
X0045803Y0209213D02*
X0120594Y0209213D01*
X0120594Y0208214D02*
X0046328Y0208214D01*
X0046742Y0207216D02*
X0120594Y0207216D01*
X0120594Y0206217D02*
X0046800Y0206217D01*
X0046800Y0205219D02*
X0120594Y0205219D01*
X0120594Y0204220D02*
X0046491Y0204220D01*
X0046077Y0203222D02*
X0120594Y0203222D01*
X0120594Y0202223D02*
X0045198Y0202223D01*
X0043771Y0201225D02*
X0120594Y0201225D01*
X0120594Y0200226D02*
X0024000Y0200226D01*
X0024000Y0199228D02*
X0120594Y0199228D01*
X0120594Y0198229D02*
X0044273Y0198229D01*
X0044502Y0198134D02*
X0042554Y0198941D01*
X0040446Y0198941D01*
X0038498Y0198134D01*
X0037007Y0196643D01*
X0036200Y0194695D01*
X0036200Y0192587D01*
X0037007Y0190639D01*
X0038498Y0189148D01*
X0040446Y0188341D01*
X0042554Y0188341D01*
X0043756Y0188839D01*
X0060841Y0171754D01*
X0061895Y0170700D01*
X0094754Y0170700D01*
X0114976Y0150479D01*
X0114976Y0150200D01*
X0114660Y0150200D01*
X0114372Y0150489D01*
X0112860Y0152000D01*
X0112546Y0152000D01*
X0094246Y0170300D01*
X0060246Y0170300D01*
X0050246Y0180300D01*
X0046475Y0180300D01*
X0045993Y0181464D01*
X0044502Y0182955D01*
X0042554Y0183761D01*
X0040446Y0183761D01*
X0038498Y0182955D01*
X0037007Y0181464D01*
X0036200Y0179516D01*
X0036200Y0177407D01*
X0037007Y0175459D01*
X0038498Y0173968D01*
X0040446Y0173161D01*
X0042554Y0173161D01*
X0044502Y0173968D01*
X0045993Y0175459D01*
X0046507Y0176700D01*
X0048754Y0176700D01*
X0057700Y0167754D01*
X0058754Y0166700D01*
X0092754Y0166700D01*
X0109254Y0150200D01*
X0108838Y0150200D01*
X0108076Y0149438D01*
X0108076Y0148300D01*
X0099448Y0148300D01*
X0099001Y0148747D01*
X0098027Y0149150D01*
X0096973Y0149150D01*
X0095999Y0148747D01*
X0095253Y0148001D01*
X0094850Y0147027D01*
X0094850Y0145973D01*
X0095253Y0144999D01*
X0095999Y0144253D01*
X0096973Y0143850D01*
X0098027Y0143850D01*
X0099001Y0144253D01*
X0099448Y0144700D01*
X0108076Y0144700D01*
X0108076Y0143362D01*
X0108838Y0142600D01*
X0118125Y0142600D01*
X0118125Y0139691D01*
X0117850Y0139027D01*
X0117850Y0137973D01*
X0118253Y0136999D01*
X0118999Y0136253D01*
X0119973Y0135850D01*
X0121027Y0135850D01*
X0122001Y0136253D01*
X0122747Y0136999D01*
X0123150Y0137973D01*
X0123150Y0139027D01*
X0122747Y0140001D01*
X0122001Y0140747D01*
X0121725Y0140861D01*
X0121725Y0142600D01*
X0134162Y0142600D01*
X0134924Y0143362D01*
X0134924Y0149438D01*
X0134324Y0150038D01*
X0134324Y0157778D01*
X0135246Y0158700D01*
X0156552Y0158700D01*
X0156999Y0158253D01*
X0157973Y0157850D01*
X0159027Y0157850D01*
X0160001Y0158253D01*
X0160747Y0158999D01*
X0161150Y0159973D01*
X0161150Y0161027D01*
X0160747Y0162001D01*
X0160001Y0162747D01*
X0159027Y0163150D01*
X0157973Y0163150D01*
X0156999Y0162747D01*
X0156552Y0162300D01*
X0133754Y0162300D01*
X0132700Y0161246D01*
X0131300Y0159846D01*
X0131300Y0160754D01*
X0134246Y0163700D01*
X0168030Y0163700D01*
X0177093Y0154637D01*
X0178606Y0154637D01*
X0178606Y0152395D01*
X0179367Y0151633D01*
X0186428Y0151633D01*
X0187190Y0152395D01*
X0187190Y0160479D01*
X0186428Y0161241D01*
X0179367Y0161241D01*
X0178606Y0160479D01*
X0178606Y0158237D01*
X0178584Y0158237D01*
X0169521Y0167300D01*
X0132754Y0167300D01*
X0131700Y0166246D01*
X0128024Y0162570D01*
X0128024Y0183206D01*
X0126970Y0184261D01*
X0125048Y0186183D01*
X0123994Y0187237D01*
X0111745Y0187237D01*
X0111365Y0188156D01*
X0110014Y0189506D01*
X0108250Y0190237D01*
X0106340Y0190237D01*
X0104576Y0189506D01*
X0103226Y0188156D01*
X0102495Y0186392D01*
X0102495Y0184482D01*
X0103226Y0182718D01*
X0104576Y0181368D01*
X0106340Y0180637D01*
X0108250Y0180637D01*
X0110014Y0181368D01*
X0111365Y0182718D01*
X0111745Y0183637D01*
X0122502Y0183637D01*
X0124424Y0181715D01*
X0124424Y0150200D01*
X0118576Y0150200D01*
X0118576Y0151970D01*
X0117521Y0153024D01*
X0096246Y0174300D01*
X0063387Y0174300D01*
X0046302Y0191384D01*
X0046800Y0192587D01*
X0046800Y0194695D01*
X0045993Y0196643D01*
X0044502Y0198134D01*
X0045406Y0197231D02*
X0120594Y0197231D01*
X0120594Y0196232D02*
X0046163Y0196232D01*
X0046577Y0195234D02*
X0120594Y0195234D01*
X0121040Y0194235D02*
X0046800Y0194235D01*
X0046800Y0193237D02*
X0122038Y0193237D01*
X0123037Y0192238D02*
X0046656Y0192238D01*
X0046447Y0191239D02*
X0124035Y0191239D01*
X0125034Y0190241D02*
X0083100Y0190241D01*
X0082876Y0190314D02*
X0082098Y0190437D01*
X0082091Y0190437D01*
X0082091Y0185823D01*
X0086705Y0185823D01*
X0086705Y0185831D01*
X0086582Y0186608D01*
X0086338Y0187356D01*
X0085981Y0188058D01*
X0085519Y0188694D01*
X0084962Y0189251D01*
X0084325Y0189713D01*
X0083624Y0190071D01*
X0082876Y0190314D01*
X0082091Y0190241D02*
X0081319Y0190241D01*
X0081319Y0190437D02*
X0081311Y0190437D01*
X0080534Y0190314D01*
X0079785Y0190071D01*
X0079084Y0189713D01*
X0078447Y0189251D01*
X0077891Y0188694D01*
X0077428Y0188058D01*
X0077071Y0187356D01*
X0076828Y0186608D01*
X0076705Y0185831D01*
X0076705Y0185823D01*
X0081319Y0185823D01*
X0081319Y0190437D01*
X0080309Y0190241D02*
X0047446Y0190241D01*
X0048444Y0189242D02*
X0078439Y0189242D01*
X0077564Y0188244D02*
X0049443Y0188244D01*
X0050441Y0187245D02*
X0077035Y0187245D01*
X0076771Y0186247D02*
X0051440Y0186247D01*
X0052438Y0185248D02*
X0081319Y0185248D01*
X0081319Y0185051D02*
X0076705Y0185051D01*
X0076705Y0185043D01*
X0076828Y0184266D01*
X0077071Y0183518D01*
X0077428Y0182816D01*
X0077891Y0182180D01*
X0078447Y0181623D01*
X0079084Y0181161D01*
X0079785Y0180803D01*
X0080534Y0180560D01*
X0081311Y0180437D01*
X0081319Y0180437D01*
X0081319Y0185051D01*
X0082091Y0185051D01*
X0082091Y0185823D01*
X0081319Y0185823D01*
X0081319Y0185051D01*
X0082091Y0185051D02*
X0082091Y0180437D01*
X0082098Y0180437D01*
X0082876Y0180560D01*
X0083624Y0180803D01*
X0084325Y0181161D01*
X0084962Y0181623D01*
X0085519Y0182180D01*
X0085981Y0182816D01*
X0086338Y0183518D01*
X0086582Y0184266D01*
X0086705Y0185043D01*
X0086705Y0185051D01*
X0082091Y0185051D01*
X0082091Y0185248D02*
X0102495Y0185248D01*
X0102495Y0186247D02*
X0086639Y0186247D01*
X0086374Y0187245D02*
X0102849Y0187245D01*
X0103314Y0188244D02*
X0085846Y0188244D01*
X0084970Y0189242D02*
X0104313Y0189242D01*
X0107295Y0185437D02*
X0123248Y0185437D01*
X0126224Y0182461D01*
X0126224Y0175949D01*
X0126224Y0176571D01*
X0126224Y0175949D02*
X0126224Y0146400D01*
X0129374Y0146400D02*
X0129500Y0146526D01*
X0129500Y0161500D01*
X0133500Y0165500D01*
X0168776Y0165500D01*
X0177839Y0156437D01*
X0182898Y0156437D01*
X0187190Y0156292D02*
X0218972Y0156292D01*
X0218972Y0156937D02*
X0214980Y0156937D01*
X0214980Y0160138D01*
X0215083Y0160520D01*
X0215280Y0160862D01*
X0215559Y0161141D01*
X0215901Y0161339D01*
X0216283Y0161441D01*
X0218972Y0161441D01*
X0218972Y0156937D01*
X0218972Y0157290D02*
X0219972Y0157290D01*
X0219972Y0158289D02*
X0218972Y0158289D01*
X0218972Y0159287D02*
X0219972Y0159287D01*
X0219972Y0160286D02*
X0218972Y0160286D01*
X0218972Y0161284D02*
X0219972Y0161284D01*
X0221890Y0162283D02*
X0174539Y0162283D01*
X0175537Y0161284D02*
X0215807Y0161284D01*
X0215020Y0160286D02*
X0187190Y0160286D01*
X0187190Y0159287D02*
X0214980Y0159287D01*
X0214980Y0158289D02*
X0187190Y0158289D01*
X0187190Y0157290D02*
X0214980Y0157290D01*
X0214980Y0155293D02*
X0187190Y0155293D01*
X0187190Y0154295D02*
X0214980Y0154295D01*
X0214980Y0153296D02*
X0187190Y0153296D01*
X0187093Y0152298D02*
X0215115Y0152298D01*
X0215180Y0150301D02*
X0187346Y0150301D01*
X0187390Y0150138D02*
X0187288Y0150520D01*
X0187090Y0150862D01*
X0186811Y0151141D01*
X0186469Y0151339D01*
X0186087Y0151441D01*
X0183398Y0151441D01*
X0183398Y0146937D01*
X0187390Y0146937D01*
X0187390Y0150138D01*
X0187390Y0149302D02*
X0215180Y0149302D01*
X0215180Y0148303D02*
X0187390Y0148303D01*
X0187390Y0147305D02*
X0215180Y0147305D01*
X0215180Y0146306D02*
X0183398Y0146306D01*
X0183398Y0145937D02*
X0183398Y0146937D01*
X0182398Y0146937D01*
X0182398Y0151441D01*
X0179708Y0151441D01*
X0179327Y0151339D01*
X0178984Y0151141D01*
X0178705Y0150862D01*
X0178508Y0150520D01*
X0178406Y0150138D01*
X0178405Y0146937D01*
X0182398Y0146937D01*
X0182398Y0145937D01*
X0183398Y0145937D01*
X0187390Y0145937D01*
X0187390Y0142736D01*
X0187288Y0142354D01*
X0187090Y0142012D01*
X0186811Y0141733D01*
X0186469Y0141535D01*
X0186087Y0141433D01*
X0183398Y0141433D01*
X0183398Y0145937D01*
X0183398Y0145308D02*
X0182398Y0145308D01*
X0182398Y0145937D02*
X0182398Y0141433D01*
X0179708Y0141433D01*
X0179327Y0141535D01*
X0178984Y0141733D01*
X0178705Y0142012D01*
X0178508Y0142354D01*
X0178406Y0142736D01*
X0178406Y0145937D01*
X0182398Y0145937D01*
X0182398Y0146306D02*
X0134924Y0146306D01*
X0134924Y0145308D02*
X0178406Y0145308D01*
X0178406Y0144309D02*
X0134924Y0144309D01*
X0134873Y0143311D02*
X0178406Y0143311D01*
X0178532Y0142312D02*
X0145233Y0142312D01*
X0146232Y0141314D02*
X0215858Y0141314D01*
X0215901Y0141339D02*
X0215559Y0141141D01*
X0215280Y0140862D01*
X0215083Y0140520D01*
X0214980Y0140138D01*
X0214980Y0136937D01*
X0218972Y0136937D01*
X0218972Y0135937D01*
X0214980Y0135937D01*
X0214980Y0132736D01*
X0215083Y0132354D01*
X0215280Y0132012D01*
X0215559Y0131733D01*
X0215901Y0131535D01*
X0216283Y0131433D01*
X0218972Y0131433D01*
X0218972Y0135937D01*
X0219972Y0135937D01*
X0219972Y0131433D01*
X0222662Y0131433D01*
X0223044Y0131535D01*
X0223386Y0131733D01*
X0223665Y0132012D01*
X0223862Y0132354D01*
X0223965Y0132736D01*
X0223965Y0135937D01*
X0219972Y0135937D01*
X0219972Y0136937D01*
X0218972Y0136937D01*
X0218972Y0141441D01*
X0216283Y0141441D01*
X0215901Y0141339D01*
X0215262Y0142312D02*
X0187263Y0142312D01*
X0187390Y0143311D02*
X0215180Y0143311D01*
X0215180Y0144309D02*
X0187390Y0144309D01*
X0187390Y0145308D02*
X0215180Y0145308D01*
X0219472Y0146437D02*
X0219488Y0146421D01*
X0219972Y0141441D02*
X0219972Y0136937D01*
X0223965Y0136937D01*
X0223965Y0140138D01*
X0223862Y0140520D01*
X0223665Y0140862D01*
X0223386Y0141141D01*
X0223044Y0141339D01*
X0222662Y0141441D01*
X0219972Y0141441D01*
X0219972Y0141314D02*
X0218972Y0141314D01*
X0218972Y0140315D02*
X0219972Y0140315D01*
X0219972Y0139317D02*
X0218972Y0139317D01*
X0218972Y0138318D02*
X0219972Y0138318D01*
X0219972Y0137320D02*
X0218972Y0137320D01*
X0218972Y0136321D02*
X0187190Y0136321D01*
X0187190Y0135323D02*
X0214980Y0135323D01*
X0214980Y0134324D02*
X0187190Y0134324D01*
X0187190Y0133326D02*
X0214980Y0133326D01*
X0215098Y0132327D02*
X0187122Y0132327D01*
X0187190Y0132395D02*
X0187190Y0140479D01*
X0186428Y0141241D01*
X0179367Y0141241D01*
X0178606Y0140479D01*
X0178606Y0132395D01*
X0179367Y0131633D01*
X0186428Y0131633D01*
X0187190Y0132395D01*
X0187190Y0137320D02*
X0214980Y0137320D01*
X0214980Y0138318D02*
X0187190Y0138318D01*
X0187190Y0139317D02*
X0214980Y0139317D01*
X0215028Y0140315D02*
X0187190Y0140315D01*
X0183398Y0142312D02*
X0182398Y0142312D01*
X0182398Y0143311D02*
X0183398Y0143311D01*
X0183398Y0144309D02*
X0182398Y0144309D01*
X0182398Y0147305D02*
X0183398Y0147305D01*
X0183398Y0148303D02*
X0182398Y0148303D01*
X0182398Y0149302D02*
X0183398Y0149302D01*
X0183398Y0150301D02*
X0182398Y0150301D01*
X0182398Y0151299D02*
X0183398Y0151299D01*
X0186537Y0151299D02*
X0221082Y0151299D01*
X0219972Y0152298D02*
X0218972Y0152298D01*
X0218972Y0153296D02*
X0219972Y0153296D01*
X0219972Y0154295D02*
X0218972Y0154295D01*
X0218972Y0155293D02*
X0219972Y0155293D01*
X0220891Y0163281D02*
X0173540Y0163281D01*
X0172541Y0164280D02*
X0219893Y0164280D01*
X0218894Y0165278D02*
X0171543Y0165278D01*
X0170544Y0166277D02*
X0217896Y0166277D01*
X0216897Y0167275D02*
X0169546Y0167275D01*
X0168449Y0163281D02*
X0133827Y0163281D01*
X0133737Y0162283D02*
X0132828Y0162283D01*
X0132739Y0161284D02*
X0131830Y0161284D01*
X0131740Y0160286D02*
X0131300Y0160286D01*
X0132524Y0158524D02*
X0134500Y0160500D01*
X0158500Y0160500D01*
X0160465Y0162283D02*
X0169447Y0162283D01*
X0170446Y0161284D02*
X0161044Y0161284D01*
X0161150Y0160286D02*
X0171444Y0160286D01*
X0172443Y0159287D02*
X0160866Y0159287D01*
X0160036Y0158289D02*
X0173441Y0158289D01*
X0174440Y0157290D02*
X0134324Y0157290D01*
X0134324Y0156292D02*
X0175438Y0156292D01*
X0176437Y0155293D02*
X0134324Y0155293D01*
X0134324Y0154295D02*
X0178606Y0154295D01*
X0178606Y0153296D02*
X0134324Y0153296D01*
X0134324Y0152298D02*
X0178703Y0152298D01*
X0179258Y0151299D02*
X0134324Y0151299D01*
X0134324Y0150301D02*
X0178449Y0150301D01*
X0178406Y0149302D02*
X0134924Y0149302D01*
X0134924Y0148303D02*
X0178406Y0148303D01*
X0178406Y0147305D02*
X0134924Y0147305D01*
X0132524Y0146400D02*
X0132524Y0158524D01*
X0134834Y0158289D02*
X0156964Y0158289D01*
X0145004Y0170271D02*
X0128024Y0170271D01*
X0128024Y0171269D02*
X0144006Y0171269D01*
X0143007Y0172268D02*
X0128024Y0172268D01*
X0128024Y0173266D02*
X0142009Y0173266D01*
X0141010Y0174265D02*
X0128024Y0174265D01*
X0128024Y0175263D02*
X0140012Y0175263D01*
X0139013Y0176262D02*
X0128024Y0176262D01*
X0128024Y0177260D02*
X0138015Y0177260D01*
X0137016Y0178259D02*
X0128024Y0178259D01*
X0128024Y0179257D02*
X0136018Y0179257D01*
X0135019Y0180256D02*
X0128024Y0180256D01*
X0128024Y0181254D02*
X0134020Y0181254D01*
X0133022Y0182253D02*
X0128024Y0182253D01*
X0127979Y0183251D02*
X0132023Y0183251D01*
X0131025Y0184250D02*
X0126981Y0184250D01*
X0126970Y0184261D02*
X0126970Y0184261D01*
X0125982Y0185248D02*
X0130026Y0185248D01*
X0129028Y0186247D02*
X0124984Y0186247D01*
X0125048Y0186183D02*
X0125048Y0186183D01*
X0127031Y0188244D02*
X0111277Y0188244D01*
X0111742Y0187245D02*
X0128029Y0187245D01*
X0126032Y0189242D02*
X0110278Y0189242D01*
X0111585Y0183251D02*
X0122888Y0183251D01*
X0123887Y0182253D02*
X0110899Y0182253D01*
X0109740Y0181254D02*
X0124424Y0181254D01*
X0124424Y0180256D02*
X0057431Y0180256D01*
X0058429Y0179257D02*
X0124424Y0179257D01*
X0124424Y0178259D02*
X0059428Y0178259D01*
X0060426Y0177260D02*
X0124424Y0177260D01*
X0124424Y0176262D02*
X0061425Y0176262D01*
X0062423Y0175263D02*
X0124424Y0175263D01*
X0124424Y0174265D02*
X0096281Y0174265D01*
X0097279Y0173266D02*
X0124424Y0173266D01*
X0124424Y0172268D02*
X0098278Y0172268D01*
X0099276Y0171269D02*
X0124424Y0171269D01*
X0124424Y0170271D02*
X0100275Y0170271D01*
X0101273Y0169272D02*
X0124424Y0169272D01*
X0124424Y0168274D02*
X0102272Y0168274D01*
X0103270Y0167275D02*
X0124424Y0167275D01*
X0124424Y0166277D02*
X0104269Y0166277D01*
X0105267Y0165278D02*
X0124424Y0165278D01*
X0124424Y0164280D02*
X0106266Y0164280D01*
X0107264Y0163281D02*
X0124424Y0163281D01*
X0124424Y0162283D02*
X0108263Y0162283D01*
X0109261Y0161284D02*
X0124424Y0161284D01*
X0124424Y0160286D02*
X0110260Y0160286D01*
X0111258Y0159287D02*
X0124424Y0159287D01*
X0124424Y0158289D02*
X0112257Y0158289D01*
X0113255Y0157290D02*
X0124424Y0157290D01*
X0124424Y0156292D02*
X0114254Y0156292D01*
X0115252Y0155293D02*
X0124424Y0155293D01*
X0124424Y0154295D02*
X0116251Y0154295D01*
X0117250Y0153296D02*
X0124424Y0153296D01*
X0124424Y0152298D02*
X0118248Y0152298D01*
X0118576Y0151299D02*
X0124424Y0151299D01*
X0124424Y0150301D02*
X0118576Y0150301D01*
X0116776Y0151224D02*
X0116776Y0146400D01*
X0119925Y0146400D02*
X0119925Y0139075D01*
X0120500Y0138500D01*
X0122432Y0140315D02*
X0134600Y0140315D01*
X0134600Y0139317D02*
X0123030Y0139317D01*
X0123150Y0138318D02*
X0134600Y0138318D01*
X0134600Y0137320D02*
X0122880Y0137320D01*
X0122069Y0136321D02*
X0134600Y0136321D01*
X0134600Y0135323D02*
X0108600Y0135323D01*
X0108600Y0134324D02*
X0134600Y0134324D01*
X0134600Y0133326D02*
X0108600Y0133326D01*
X0108400Y0136321D02*
X0118931Y0136321D01*
X0118120Y0137320D02*
X0108400Y0137320D01*
X0108400Y0138318D02*
X0117850Y0138318D01*
X0117970Y0139317D02*
X0108400Y0139317D01*
X0108400Y0140315D02*
X0118125Y0140315D01*
X0118125Y0141314D02*
X0108400Y0141314D01*
X0108250Y0142312D02*
X0118125Y0142312D01*
X0121725Y0142312D02*
X0134750Y0142312D01*
X0134600Y0141314D02*
X0121725Y0141314D01*
X0113626Y0146400D02*
X0113626Y0148689D01*
X0112115Y0150200D01*
X0111800Y0150200D01*
X0093500Y0168500D01*
X0059500Y0168500D01*
X0049500Y0178500D01*
X0041539Y0178500D01*
X0041500Y0178461D01*
X0045204Y0182253D02*
X0050342Y0182253D01*
X0049344Y0183251D02*
X0043786Y0183251D01*
X0046080Y0181254D02*
X0051341Y0181254D01*
X0052339Y0180256D02*
X0050290Y0180256D01*
X0051288Y0179257D02*
X0053338Y0179257D01*
X0054337Y0178259D02*
X0052287Y0178259D01*
X0053285Y0177260D02*
X0055335Y0177260D01*
X0056334Y0176262D02*
X0054284Y0176262D01*
X0055282Y0175263D02*
X0057332Y0175263D01*
X0058331Y0174265D02*
X0056281Y0174265D01*
X0057279Y0173266D02*
X0059329Y0173266D01*
X0060328Y0172268D02*
X0058278Y0172268D01*
X0059276Y0171269D02*
X0061326Y0171269D01*
X0062641Y0172500D02*
X0095500Y0172500D01*
X0116776Y0151224D01*
X0114976Y0150301D02*
X0114560Y0150301D01*
X0114155Y0151299D02*
X0113561Y0151299D01*
X0113157Y0152298D02*
X0112248Y0152298D01*
X0112158Y0153296D02*
X0111250Y0153296D01*
X0111160Y0154295D02*
X0110251Y0154295D01*
X0110161Y0155293D02*
X0109252Y0155293D01*
X0109163Y0156292D02*
X0108254Y0156292D01*
X0108164Y0157290D02*
X0107255Y0157290D01*
X0107166Y0158289D02*
X0106257Y0158289D01*
X0106167Y0159287D02*
X0105258Y0159287D01*
X0105169Y0160286D02*
X0104260Y0160286D01*
X0104170Y0161284D02*
X0103261Y0161284D01*
X0103172Y0162283D02*
X0102263Y0162283D01*
X0102173Y0163281D02*
X0101264Y0163281D01*
X0101175Y0164280D02*
X0100266Y0164280D01*
X0100176Y0165278D02*
X0099267Y0165278D01*
X0099178Y0166277D02*
X0098269Y0166277D01*
X0098179Y0167275D02*
X0097270Y0167275D01*
X0097181Y0168274D02*
X0096272Y0168274D01*
X0096182Y0169272D02*
X0095273Y0169272D01*
X0095184Y0170271D02*
X0094275Y0170271D01*
X0093178Y0166277D02*
X0024000Y0166277D01*
X0024000Y0167275D02*
X0058179Y0167275D01*
X0057181Y0168274D02*
X0024000Y0168274D01*
X0024000Y0169272D02*
X0056182Y0169272D01*
X0055184Y0170271D02*
X0024000Y0170271D01*
X0024000Y0171269D02*
X0054185Y0171269D01*
X0053187Y0172268D02*
X0024000Y0172268D01*
X0024000Y0173266D02*
X0040193Y0173266D01*
X0038201Y0174265D02*
X0024000Y0174265D01*
X0024000Y0175263D02*
X0037203Y0175263D01*
X0036674Y0176262D02*
X0024000Y0176262D01*
X0024000Y0177260D02*
X0036261Y0177260D01*
X0036200Y0178259D02*
X0024000Y0178259D01*
X0024000Y0179257D02*
X0036200Y0179257D01*
X0036507Y0180256D02*
X0024000Y0180256D01*
X0024000Y0181254D02*
X0036920Y0181254D01*
X0037796Y0182253D02*
X0024000Y0182253D01*
X0024000Y0183251D02*
X0039214Y0183251D01*
X0044351Y0188244D02*
X0024000Y0188244D01*
X0024000Y0189242D02*
X0038403Y0189242D01*
X0037405Y0190241D02*
X0024000Y0190241D01*
X0024000Y0191239D02*
X0036758Y0191239D01*
X0036344Y0192238D02*
X0024000Y0192238D01*
X0024000Y0193237D02*
X0036200Y0193237D01*
X0036200Y0194235D02*
X0024000Y0194235D01*
X0024000Y0195234D02*
X0036423Y0195234D01*
X0036837Y0196232D02*
X0024000Y0196232D01*
X0024000Y0197231D02*
X0037594Y0197231D01*
X0038727Y0198229D02*
X0024000Y0198229D01*
X0024000Y0201225D02*
X0039229Y0201225D01*
X0037802Y0202223D02*
X0024000Y0202223D01*
X0024000Y0203222D02*
X0036923Y0203222D01*
X0036509Y0204220D02*
X0024000Y0204220D01*
X0024000Y0205219D02*
X0036200Y0205219D01*
X0036200Y0206217D02*
X0024000Y0206217D01*
X0024000Y0207216D02*
X0036258Y0207216D01*
X0036672Y0208214D02*
X0024000Y0208214D01*
X0024000Y0209213D02*
X0037197Y0209213D01*
X0038195Y0210211D02*
X0024000Y0210211D01*
X0024000Y0213207D02*
X0101920Y0213207D01*
X0103500Y0215374D02*
X0094626Y0215374D01*
X0070815Y0239185D01*
X0065815Y0239168D02*
X0045654Y0239168D01*
X0045654Y0238170D02*
X0065824Y0238170D01*
X0066237Y0237171D02*
X0045299Y0237171D01*
X0045654Y0238027D02*
X0044526Y0235305D01*
X0042443Y0233222D01*
X0039721Y0232094D01*
X0036775Y0232094D01*
X0034053Y0233222D01*
X0031970Y0235305D01*
X0030843Y0238027D01*
X0030843Y0240973D01*
X0031970Y0243695D01*
X0034053Y0245778D01*
X0036775Y0246905D01*
X0039721Y0246905D01*
X0042443Y0245778D01*
X0044526Y0243695D01*
X0045654Y0240973D01*
X0045654Y0238027D01*
X0044885Y0236172D02*
X0066756Y0236172D01*
X0067755Y0235174D02*
X0044395Y0235174D01*
X0043396Y0234175D02*
X0073279Y0234175D01*
X0074277Y0233177D02*
X0042334Y0233177D01*
X0039924Y0232178D02*
X0075276Y0232178D01*
X0076274Y0231180D02*
X0024000Y0231180D01*
X0024000Y0232178D02*
X0036572Y0232178D01*
X0034162Y0233177D02*
X0024000Y0233177D01*
X0024000Y0234175D02*
X0033100Y0234175D01*
X0032101Y0235174D02*
X0024000Y0235174D01*
X0024000Y0236172D02*
X0031611Y0236172D01*
X0031197Y0237171D02*
X0024000Y0237171D01*
X0024000Y0238170D02*
X0030843Y0238170D01*
X0030843Y0239168D02*
X0024000Y0239168D01*
X0024000Y0240167D02*
X0030843Y0240167D01*
X0030922Y0241165D02*
X0024000Y0241165D01*
X0024000Y0242164D02*
X0031336Y0242164D01*
X0031749Y0243162D02*
X0024000Y0243162D01*
X0024000Y0244161D02*
X0032436Y0244161D01*
X0033434Y0245159D02*
X0024066Y0245159D01*
X0024233Y0246158D02*
X0034969Y0246158D01*
X0041527Y0246158D02*
X0120365Y0246158D01*
X0120381Y0247156D02*
X0024558Y0247156D01*
X0043062Y0245159D02*
X0120365Y0245159D01*
X0120365Y0244161D02*
X0092329Y0244161D01*
X0091315Y0244161D02*
X0090315Y0244161D01*
X0090315Y0243162D02*
X0091315Y0243162D01*
X0091315Y0242164D02*
X0090315Y0242164D01*
X0090315Y0241165D02*
X0091315Y0241165D01*
X0091315Y0240167D02*
X0090315Y0240167D01*
X0091315Y0239168D02*
X0120165Y0239168D01*
X0120165Y0238170D02*
X0095919Y0238170D01*
X0095887Y0237967D02*
X0096001Y0238685D01*
X0091315Y0238685D01*
X0091315Y0233999D01*
X0092033Y0234113D01*
X0092811Y0234366D01*
X0093540Y0234738D01*
X0094203Y0235219D01*
X0094781Y0235797D01*
X0095262Y0236460D01*
X0095634Y0237189D01*
X0095887Y0237967D01*
X0095625Y0237171D02*
X0124118Y0237171D01*
X0124118Y0236850D02*
X0120165Y0236850D01*
X0120165Y0234594D01*
X0120268Y0234212D01*
X0120465Y0233870D01*
X0120744Y0233591D01*
X0121086Y0233394D01*
X0121468Y0233291D01*
X0124118Y0233291D01*
X0124118Y0236850D01*
X0124118Y0236172D02*
X0125118Y0236172D01*
X0125118Y0235174D02*
X0124118Y0235174D01*
X0124118Y0234175D02*
X0125118Y0234175D01*
X0125118Y0237171D02*
X0146357Y0237171D01*
X0146357Y0238170D02*
X0129071Y0238170D01*
X0129071Y0239168D02*
X0146357Y0239168D01*
X0146457Y0240167D02*
X0129055Y0240167D01*
X0128871Y0241165D02*
X0147456Y0241165D01*
X0148454Y0242164D02*
X0128871Y0242164D01*
X0128871Y0243162D02*
X0149453Y0243162D01*
X0150084Y0244161D02*
X0128871Y0244161D01*
X0129071Y0236172D02*
X0146357Y0236172D01*
X0146357Y0235174D02*
X0129071Y0235174D01*
X0128947Y0234175D02*
X0146357Y0234175D01*
X0146357Y0233177D02*
X0079369Y0233177D01*
X0080367Y0232178D02*
X0146357Y0232178D01*
X0146357Y0231180D02*
X0081366Y0231180D01*
X0082364Y0230181D02*
X0146357Y0230181D01*
X0136527Y0229183D02*
X0083363Y0229183D01*
X0084361Y0228184D02*
X0135170Y0228184D01*
X0134394Y0227186D02*
X0085360Y0227186D01*
X0086358Y0226187D02*
X0133980Y0226187D01*
X0133814Y0225189D02*
X0087357Y0225189D01*
X0088355Y0224190D02*
X0133814Y0224190D01*
X0133814Y0223192D02*
X0089354Y0223192D01*
X0090352Y0222193D02*
X0133814Y0222193D01*
X0133814Y0221195D02*
X0091351Y0221195D01*
X0092349Y0220196D02*
X0133814Y0220196D01*
X0133814Y0219198D02*
X0093348Y0219198D01*
X0094346Y0218199D02*
X0133814Y0218199D01*
X0133814Y0217201D02*
X0105421Y0217201D01*
X0106025Y0216202D02*
X0134051Y0216202D01*
X0134464Y0215204D02*
X0106150Y0215204D01*
X0101579Y0217201D02*
X0095345Y0217201D01*
X0093249Y0214205D02*
X0024000Y0214205D01*
X0024000Y0215204D02*
X0092251Y0215204D01*
X0091252Y0216202D02*
X0046624Y0216202D01*
X0046700Y0216279D02*
X0046898Y0216621D01*
X0047000Y0217003D01*
X0047000Y0220700D01*
X0042000Y0220700D01*
X0042000Y0221700D01*
X0041000Y0221700D01*
X0041000Y0226700D01*
X0037303Y0226700D01*
X0036921Y0226598D01*
X0036579Y0226400D01*
X0036300Y0226121D01*
X0036102Y0225779D01*
X0036000Y0225397D01*
X0036000Y0221700D01*
X0041000Y0221700D01*
X0041000Y0220700D01*
X0042000Y0220700D01*
X0042000Y0215700D01*
X0045697Y0215700D01*
X0046079Y0215802D01*
X0046421Y0216000D01*
X0046700Y0216279D01*
X0047000Y0217201D02*
X0090254Y0217201D01*
X0089255Y0218199D02*
X0047000Y0218199D01*
X0047000Y0219198D02*
X0088257Y0219198D01*
X0087258Y0220196D02*
X0047000Y0220196D01*
X0047000Y0221700D02*
X0042000Y0221700D01*
X0042000Y0226700D01*
X0045697Y0226700D01*
X0046079Y0226598D01*
X0046421Y0226400D01*
X0046700Y0226121D01*
X0046898Y0225779D01*
X0047000Y0225397D01*
X0047000Y0221700D01*
X0047000Y0222193D02*
X0085261Y0222193D01*
X0086260Y0221195D02*
X0042000Y0221195D01*
X0042000Y0222193D02*
X0041000Y0222193D01*
X0041000Y0221195D02*
X0024000Y0221195D01*
X0024000Y0222193D02*
X0036000Y0222193D01*
X0036000Y0223192D02*
X0024000Y0223192D01*
X0024000Y0224190D02*
X0036000Y0224190D01*
X0036000Y0225189D02*
X0024000Y0225189D01*
X0024000Y0226187D02*
X0036366Y0226187D01*
X0041000Y0226187D02*
X0042000Y0226187D01*
X0042000Y0225189D02*
X0041000Y0225189D01*
X0041000Y0224190D02*
X0042000Y0224190D01*
X0042000Y0223192D02*
X0041000Y0223192D01*
X0041000Y0220700D02*
X0036000Y0220700D01*
X0036000Y0217003D01*
X0036102Y0216621D01*
X0036300Y0216279D01*
X0036579Y0216000D01*
X0036921Y0215802D01*
X0037303Y0215700D01*
X0041000Y0215700D01*
X0041000Y0220700D01*
X0041000Y0220196D02*
X0042000Y0220196D01*
X0042000Y0219198D02*
X0041000Y0219198D01*
X0041000Y0218199D02*
X0042000Y0218199D01*
X0042000Y0217201D02*
X0041000Y0217201D01*
X0041000Y0216202D02*
X0042000Y0216202D01*
X0036376Y0216202D02*
X0024000Y0216202D01*
X0024000Y0217201D02*
X0036000Y0217201D01*
X0036000Y0218199D02*
X0024000Y0218199D01*
X0024000Y0219198D02*
X0036000Y0219198D01*
X0036000Y0220196D02*
X0024000Y0220196D01*
X0024000Y0227186D02*
X0080269Y0227186D01*
X0081267Y0226187D02*
X0046634Y0226187D01*
X0047000Y0225189D02*
X0082266Y0225189D01*
X0083264Y0224190D02*
X0047000Y0224190D01*
X0047000Y0223192D02*
X0084263Y0223192D01*
X0079270Y0228184D02*
X0024000Y0228184D01*
X0024000Y0229183D02*
X0078271Y0229183D01*
X0077273Y0230181D02*
X0024000Y0230181D01*
X0044060Y0244161D02*
X0069761Y0244161D01*
X0071869Y0244161D02*
X0079761Y0244161D01*
X0081869Y0244161D02*
X0089301Y0244161D01*
X0087442Y0243162D02*
X0083909Y0243162D01*
X0084907Y0242164D02*
X0086551Y0242164D01*
X0085991Y0241165D02*
X0085407Y0241165D01*
X0085393Y0237171D02*
X0086005Y0237171D01*
X0086576Y0236172D02*
X0084873Y0236172D01*
X0083875Y0235174D02*
X0087489Y0235174D01*
X0089405Y0234175D02*
X0078370Y0234175D01*
X0077755Y0235174D02*
X0077372Y0235174D01*
X0076756Y0236172D02*
X0076373Y0236172D01*
X0076237Y0237171D02*
X0075393Y0237171D01*
X0075806Y0238170D02*
X0075824Y0238170D01*
X0075815Y0239168D02*
X0075815Y0239168D01*
X0075815Y0240167D02*
X0075815Y0240167D01*
X0075407Y0241165D02*
X0076223Y0241165D01*
X0076722Y0242164D02*
X0074907Y0242164D01*
X0073909Y0243162D02*
X0077721Y0243162D01*
X0067721Y0243162D02*
X0044747Y0243162D01*
X0045160Y0242164D02*
X0066722Y0242164D01*
X0066223Y0241165D02*
X0045574Y0241165D01*
X0045654Y0240167D02*
X0065815Y0240167D01*
X0090315Y0238170D02*
X0091315Y0238170D01*
X0091315Y0237171D02*
X0090315Y0237171D01*
X0090315Y0236172D02*
X0091315Y0236172D01*
X0091315Y0235174D02*
X0090315Y0235174D01*
X0090315Y0234175D02*
X0091315Y0234175D01*
X0092225Y0234175D02*
X0120289Y0234175D01*
X0120165Y0235174D02*
X0094141Y0235174D01*
X0095054Y0236172D02*
X0120165Y0236172D01*
X0120181Y0240167D02*
X0095924Y0240167D01*
X0095639Y0241165D02*
X0120365Y0241165D01*
X0120365Y0242164D02*
X0095078Y0242164D01*
X0094188Y0243162D02*
X0120365Y0243162D01*
X0157442Y0209213D02*
X0161599Y0209213D01*
X0160914Y0208929D02*
X0159552Y0207566D01*
X0158814Y0205786D01*
X0158814Y0196773D01*
X0159552Y0194993D01*
X0160914Y0193630D01*
X0162694Y0192893D01*
X0164621Y0192893D01*
X0166401Y0193630D01*
X0167763Y0194993D01*
X0168501Y0196773D01*
X0168501Y0205786D01*
X0167763Y0207566D01*
X0166401Y0208929D01*
X0164621Y0209666D01*
X0162694Y0209666D01*
X0160914Y0208929D01*
X0160199Y0208214D02*
X0157116Y0208214D01*
X0157909Y0207216D02*
X0159406Y0207216D01*
X0158993Y0206217D02*
X0158322Y0206217D01*
X0158501Y0205219D02*
X0158814Y0205219D01*
X0158814Y0204220D02*
X0158501Y0204220D01*
X0158501Y0203222D02*
X0158814Y0203222D01*
X0158814Y0202223D02*
X0158501Y0202223D01*
X0158501Y0201225D02*
X0158814Y0201225D01*
X0158814Y0200226D02*
X0158501Y0200226D01*
X0158501Y0199228D02*
X0158814Y0199228D01*
X0158814Y0198229D02*
X0158501Y0198229D01*
X0158501Y0197231D02*
X0158814Y0197231D01*
X0159038Y0196232D02*
X0158277Y0196232D01*
X0157863Y0195234D02*
X0159452Y0195234D01*
X0160309Y0194235D02*
X0157006Y0194235D01*
X0155450Y0193237D02*
X0161865Y0193237D01*
X0165450Y0193237D02*
X0171865Y0193237D01*
X0172694Y0192893D02*
X0170914Y0193630D01*
X0169552Y0194993D01*
X0168814Y0196773D01*
X0168814Y0205786D01*
X0169552Y0207566D01*
X0170914Y0208929D01*
X0172694Y0209666D01*
X0174621Y0209666D01*
X0176401Y0208929D01*
X0177763Y0207566D01*
X0178501Y0205786D01*
X0178501Y0196773D01*
X0177763Y0194993D01*
X0176401Y0193630D01*
X0174621Y0192893D01*
X0172694Y0192893D01*
X0170309Y0194235D02*
X0167006Y0194235D01*
X0167863Y0195234D02*
X0169452Y0195234D01*
X0169038Y0196232D02*
X0168277Y0196232D01*
X0168501Y0197231D02*
X0168814Y0197231D01*
X0168814Y0198229D02*
X0168501Y0198229D01*
X0168501Y0199228D02*
X0168814Y0199228D01*
X0168814Y0200226D02*
X0168501Y0200226D01*
X0168501Y0201225D02*
X0168814Y0201225D01*
X0168814Y0202223D02*
X0168501Y0202223D01*
X0168501Y0203222D02*
X0168814Y0203222D01*
X0168814Y0204220D02*
X0168501Y0204220D01*
X0168501Y0205219D02*
X0168814Y0205219D01*
X0168993Y0206217D02*
X0168322Y0206217D01*
X0167909Y0207216D02*
X0169406Y0207216D01*
X0170199Y0208214D02*
X0167116Y0208214D01*
X0165716Y0209213D02*
X0171599Y0209213D01*
X0175716Y0209213D02*
X0181599Y0209213D01*
X0180914Y0208929D02*
X0179552Y0207566D01*
X0178814Y0205786D01*
X0178814Y0196773D01*
X0179552Y0194993D01*
X0180914Y0193630D01*
X0182694Y0192893D01*
X0184621Y0192893D01*
X0186401Y0193630D01*
X0187763Y0194993D01*
X0188501Y0196773D01*
X0188501Y0205786D01*
X0187763Y0207566D01*
X0186401Y0208929D01*
X0184621Y0209666D01*
X0182694Y0209666D01*
X0180914Y0208929D01*
X0180199Y0208214D02*
X0177116Y0208214D01*
X0177909Y0207216D02*
X0179406Y0207216D01*
X0178993Y0206217D02*
X0178322Y0206217D01*
X0178501Y0205219D02*
X0178814Y0205219D01*
X0178814Y0204220D02*
X0178501Y0204220D01*
X0178501Y0203222D02*
X0178814Y0203222D01*
X0178814Y0202223D02*
X0178501Y0202223D01*
X0178501Y0201225D02*
X0178814Y0201225D01*
X0178814Y0200226D02*
X0178501Y0200226D01*
X0178501Y0199228D02*
X0178814Y0199228D01*
X0178814Y0198229D02*
X0178501Y0198229D01*
X0178501Y0197231D02*
X0178814Y0197231D01*
X0179038Y0196232D02*
X0178277Y0196232D01*
X0177863Y0195234D02*
X0179452Y0195234D01*
X0180309Y0194235D02*
X0177006Y0194235D01*
X0175450Y0193237D02*
X0181865Y0193237D01*
X0185450Y0193237D02*
X0191865Y0193237D01*
X0190309Y0194235D02*
X0187006Y0194235D01*
X0187863Y0195234D02*
X0189452Y0195234D01*
X0189038Y0196232D02*
X0188277Y0196232D01*
X0188501Y0197231D02*
X0188814Y0197231D01*
X0188814Y0198229D02*
X0188501Y0198229D01*
X0188501Y0199228D02*
X0188814Y0199228D01*
X0188814Y0200226D02*
X0188501Y0200226D01*
X0188501Y0201225D02*
X0188814Y0201225D01*
X0188814Y0202223D02*
X0188501Y0202223D01*
X0188501Y0203222D02*
X0188814Y0203222D01*
X0188814Y0204220D02*
X0188501Y0204220D01*
X0188501Y0205219D02*
X0188814Y0205219D01*
X0188993Y0206217D02*
X0188322Y0206217D01*
X0187909Y0207216D02*
X0189406Y0207216D01*
X0190199Y0208214D02*
X0187116Y0208214D01*
X0185716Y0209213D02*
X0191357Y0209213D01*
X0191357Y0210211D02*
X0158440Y0210211D01*
X0159439Y0211210D02*
X0192303Y0211210D01*
X0191976Y0214205D02*
X0195339Y0214205D01*
X0194464Y0215204D02*
X0192851Y0215204D01*
X0193264Y0216202D02*
X0194051Y0216202D01*
X0193814Y0217201D02*
X0193501Y0217201D01*
X0193501Y0218199D02*
X0193814Y0218199D01*
X0193814Y0219198D02*
X0193501Y0219198D01*
X0193501Y0220196D02*
X0193814Y0220196D01*
X0193814Y0221195D02*
X0193501Y0221195D01*
X0193501Y0222193D02*
X0193814Y0222193D01*
X0193814Y0223192D02*
X0193501Y0223192D01*
X0193501Y0224190D02*
X0193814Y0224190D01*
X0193814Y0225189D02*
X0193501Y0225189D01*
X0193335Y0226187D02*
X0193980Y0226187D01*
X0194394Y0227186D02*
X0192921Y0227186D01*
X0192145Y0228184D02*
X0195170Y0228184D01*
X0196527Y0229183D02*
X0190787Y0229183D01*
X0200787Y0229183D02*
X0203308Y0229183D01*
X0202310Y0228184D02*
X0202145Y0228184D01*
X0212674Y0217201D02*
X0234420Y0217201D01*
X0234420Y0218199D02*
X0213672Y0218199D01*
X0214671Y0219198D02*
X0234420Y0219198D01*
X0234420Y0220196D02*
X0215669Y0220196D01*
X0216668Y0221195D02*
X0234420Y0221195D01*
X0234420Y0222193D02*
X0217666Y0222193D01*
X0218665Y0223192D02*
X0234420Y0223192D01*
X0234420Y0224190D02*
X0219663Y0224190D01*
X0220662Y0225189D02*
X0233305Y0225189D01*
X0232496Y0226187D02*
X0221661Y0226187D01*
X0222659Y0227186D02*
X0232082Y0227186D01*
X0231895Y0228184D02*
X0223658Y0228184D01*
X0224656Y0229183D02*
X0231895Y0229183D01*
X0231895Y0230181D02*
X0225655Y0230181D01*
X0226653Y0231180D02*
X0231895Y0231180D01*
X0231895Y0232178D02*
X0227652Y0232178D01*
X0228650Y0233177D02*
X0231895Y0233177D01*
X0231895Y0234175D02*
X0229649Y0234175D01*
X0230647Y0235174D02*
X0231895Y0235174D01*
X0231895Y0236172D02*
X0231646Y0236172D01*
X0222280Y0248155D02*
X0177249Y0248155D01*
X0211675Y0216202D02*
X0234420Y0216202D01*
X0234420Y0215204D02*
X0210677Y0215204D01*
X0209678Y0214205D02*
X0234420Y0214205D01*
X0234420Y0213207D02*
X0208680Y0213207D01*
X0207681Y0212208D02*
X0234420Y0212208D01*
X0234420Y0211210D02*
X0206683Y0211210D01*
X0205684Y0210211D02*
X0234985Y0210211D01*
X0235983Y0209213D02*
X0206151Y0209213D01*
X0207398Y0208214D02*
X0236982Y0208214D01*
X0237980Y0207216D02*
X0208098Y0207216D01*
X0208507Y0206217D02*
X0238979Y0206217D01*
X0239977Y0205219D02*
X0208701Y0205219D01*
X0208701Y0204220D02*
X0240976Y0204220D01*
X0241975Y0203222D02*
X0208701Y0203222D01*
X0208701Y0202223D02*
X0242973Y0202223D01*
X0243972Y0201225D02*
X0204158Y0201225D01*
X0204157Y0200226D02*
X0203157Y0200226D01*
X0203157Y0199228D02*
X0204157Y0199228D01*
X0204157Y0198229D02*
X0203157Y0198229D01*
X0203157Y0197231D02*
X0204157Y0197231D01*
X0204157Y0196232D02*
X0203157Y0196232D01*
X0203157Y0195234D02*
X0204157Y0195234D01*
X0204157Y0194235D02*
X0203157Y0194235D01*
X0203157Y0193237D02*
X0204157Y0193237D01*
X0205935Y0193237D02*
X0230323Y0193237D01*
X0230323Y0194235D02*
X0207289Y0194235D01*
X0208043Y0195234D02*
X0230340Y0195234D01*
X0231005Y0196232D02*
X0208472Y0196232D01*
X0208684Y0197231D02*
X0246578Y0197231D01*
X0246578Y0198229D02*
X0208701Y0198229D01*
X0208701Y0199228D02*
X0245969Y0199228D01*
X0244970Y0200226D02*
X0208701Y0200226D01*
X0203157Y0201225D02*
X0198501Y0201225D01*
X0198501Y0202223D02*
X0198614Y0202223D01*
X0198614Y0203222D02*
X0198501Y0203222D01*
X0198501Y0204220D02*
X0198614Y0204220D01*
X0198614Y0205219D02*
X0198501Y0205219D01*
X0198322Y0206217D02*
X0198808Y0206217D01*
X0199216Y0207216D02*
X0197909Y0207216D01*
X0197116Y0208214D02*
X0199917Y0208214D01*
X0198614Y0200226D02*
X0198501Y0200226D01*
X0198501Y0199228D02*
X0198614Y0199228D01*
X0198614Y0198229D02*
X0198501Y0198229D01*
X0198501Y0197231D02*
X0198631Y0197231D01*
X0198843Y0196232D02*
X0198277Y0196232D01*
X0197863Y0195234D02*
X0199272Y0195234D01*
X0200026Y0194235D02*
X0197006Y0194235D01*
X0195450Y0193237D02*
X0201380Y0193237D01*
X0216413Y0174265D02*
X0230323Y0174265D01*
X0230323Y0175263D02*
X0146517Y0175263D01*
X0145518Y0176262D02*
X0233882Y0176262D01*
X0233882Y0177260D02*
X0234882Y0177260D01*
X0234882Y0178259D02*
X0233882Y0178259D01*
X0233882Y0179257D02*
X0234882Y0179257D01*
X0234882Y0180256D02*
X0233882Y0180256D01*
X0230577Y0180256D02*
X0141524Y0180256D01*
X0140526Y0181254D02*
X0246225Y0181254D01*
X0246578Y0180256D02*
X0244630Y0180256D01*
X0244934Y0179257D02*
X0246578Y0179257D01*
X0251178Y0179257D02*
X0253074Y0179257D01*
X0253378Y0180256D02*
X0251178Y0180256D01*
X0251178Y0181254D02*
X0261326Y0181254D01*
X0261326Y0182253D02*
X0251178Y0182253D01*
X0250734Y0183251D02*
X0261326Y0183251D01*
X0261326Y0184250D02*
X0249735Y0184250D01*
X0248737Y0185248D02*
X0261326Y0185248D01*
X0261326Y0186247D02*
X0231990Y0186247D01*
X0231459Y0187245D02*
X0261326Y0187245D01*
X0267201Y0188244D02*
X0284248Y0188244D01*
X0284356Y0189242D02*
X0267485Y0189242D01*
X0267485Y0190241D02*
X0284566Y0190241D01*
X0284885Y0191239D02*
X0267485Y0191239D01*
X0267485Y0192238D02*
X0285324Y0192238D01*
X0285904Y0193237D02*
X0268095Y0193237D01*
X0269094Y0194235D02*
X0286653Y0194235D01*
X0287630Y0195234D02*
X0270093Y0195234D01*
X0253074Y0189242D02*
X0244934Y0189242D01*
X0244649Y0188244D02*
X0253359Y0188244D01*
X0246578Y0195234D02*
X0244934Y0195234D01*
X0244213Y0196232D02*
X0246578Y0196232D01*
X0237937Y0196232D02*
X0237759Y0196232D01*
X0234882Y0196232D02*
X0233882Y0196232D01*
X0233882Y0195234D02*
X0234882Y0195234D01*
X0234882Y0194235D02*
X0233882Y0194235D01*
X0233882Y0193237D02*
X0234882Y0193237D01*
X0233882Y0192238D02*
X0129542Y0192238D01*
X0130541Y0191239D02*
X0230323Y0191239D01*
X0230323Y0190241D02*
X0131539Y0190241D01*
X0132538Y0189242D02*
X0230323Y0189242D01*
X0230197Y0188244D02*
X0230566Y0188244D01*
X0228189Y0188244D02*
X0133536Y0188244D01*
X0134535Y0187245D02*
X0226927Y0187245D01*
X0226543Y0186247D02*
X0135533Y0186247D01*
X0136532Y0185248D02*
X0226549Y0185248D01*
X0226987Y0184250D02*
X0137530Y0184250D01*
X0138529Y0183251D02*
X0228400Y0183251D01*
X0229479Y0182253D02*
X0139527Y0182253D01*
X0142523Y0179257D02*
X0230323Y0179257D01*
X0230323Y0178259D02*
X0143521Y0178259D01*
X0144520Y0177260D02*
X0230323Y0177260D01*
X0230335Y0173266D02*
X0217412Y0173266D01*
X0218410Y0172268D02*
X0230971Y0172268D01*
X0229610Y0170271D02*
X0220407Y0170271D01*
X0219409Y0171269D02*
X0261326Y0171269D01*
X0261326Y0170271D02*
X0247966Y0170271D01*
X0248965Y0169272D02*
X0261326Y0169272D01*
X0261326Y0168274D02*
X0249963Y0168274D01*
X0250962Y0167275D02*
X0261326Y0167275D01*
X0261326Y0166277D02*
X0251178Y0166277D01*
X0251178Y0165278D02*
X0261326Y0165278D01*
X0253074Y0164280D02*
X0251178Y0164280D01*
X0251178Y0163281D02*
X0253074Y0163281D01*
X0253074Y0158289D02*
X0244934Y0158289D01*
X0244814Y0157290D02*
X0253194Y0157290D01*
X0249193Y0153296D02*
X0261326Y0153296D01*
X0261326Y0152298D02*
X0250191Y0152298D01*
X0251178Y0151299D02*
X0261326Y0151299D01*
X0261326Y0150301D02*
X0251178Y0150301D01*
X0251178Y0149302D02*
X0261326Y0149302D01*
X0261326Y0154295D02*
X0248194Y0154295D01*
X0246578Y0149302D02*
X0225590Y0149302D01*
X0224592Y0148303D02*
X0230710Y0148303D01*
X0230323Y0147305D02*
X0223765Y0147305D01*
X0223765Y0146306D02*
X0230323Y0146306D01*
X0230323Y0145308D02*
X0223765Y0145308D01*
X0223765Y0144309D02*
X0233882Y0144309D01*
X0233882Y0143311D02*
X0234882Y0143311D01*
X0234882Y0142312D02*
X0233882Y0142312D01*
X0233882Y0141314D02*
X0234882Y0141314D01*
X0234882Y0140315D02*
X0233882Y0140315D01*
X0230776Y0140315D02*
X0223917Y0140315D01*
X0223965Y0139317D02*
X0265619Y0139317D01*
X0266618Y0138318D02*
X0223965Y0138318D01*
X0223965Y0137320D02*
X0267616Y0137320D01*
X0268615Y0136321D02*
X0219972Y0136321D01*
X0219972Y0135323D02*
X0218972Y0135323D01*
X0218972Y0134324D02*
X0219972Y0134324D01*
X0219972Y0133326D02*
X0218972Y0133326D01*
X0218972Y0132327D02*
X0219972Y0132327D01*
X0223847Y0132327D02*
X0272169Y0132327D01*
X0271871Y0131329D02*
X0156217Y0131329D01*
X0157215Y0130330D02*
X0270873Y0130330D01*
X0269874Y0129332D02*
X0158214Y0129332D01*
X0159212Y0128333D02*
X0269302Y0128333D01*
X0269200Y0127335D02*
X0160211Y0127335D01*
X0161209Y0126336D02*
X0269200Y0126336D01*
X0269200Y0125338D02*
X0162208Y0125338D01*
X0163206Y0124339D02*
X0269302Y0124339D01*
X0269302Y0123341D02*
X0266356Y0123341D01*
X0266705Y0122342D02*
X0267512Y0122342D01*
X0267771Y0116351D02*
X0266705Y0116351D01*
X0266049Y0115353D02*
X0286838Y0115353D01*
X0286838Y0116351D02*
X0275434Y0116351D01*
X0276052Y0117350D02*
X0286838Y0117350D01*
X0286838Y0118348D02*
X0276052Y0118348D01*
X0276052Y0119347D02*
X0286838Y0119347D01*
X0286838Y0120345D02*
X0276052Y0120345D01*
X0276052Y0121344D02*
X0286838Y0121344D01*
X0287512Y0122342D02*
X0275693Y0122342D01*
X0266343Y0114354D02*
X0286838Y0114354D01*
X0286838Y0113356D02*
X0266705Y0113356D01*
X0271896Y0112357D02*
X0286838Y0112357D01*
X0286838Y0111359D02*
X0272894Y0111359D01*
X0273893Y0110360D02*
X0286838Y0110360D01*
X0286838Y0109362D02*
X0273902Y0109362D01*
X0273902Y0108363D02*
X0286838Y0108363D01*
X0286838Y0107365D02*
X0273902Y0107365D01*
X0273902Y0106366D02*
X0286838Y0106366D01*
X0286838Y0105368D02*
X0273902Y0105368D01*
X0275714Y0104369D02*
X0286838Y0104369D01*
X0286838Y0103370D02*
X0276052Y0103370D01*
X0276052Y0102372D02*
X0286838Y0102372D01*
X0286838Y0101373D02*
X0276052Y0101373D01*
X0276052Y0100375D02*
X0286838Y0100375D01*
X0286838Y0099376D02*
X0276052Y0099376D01*
X0275413Y0098378D02*
X0304483Y0098378D01*
X0304483Y0097379D02*
X0273902Y0097379D01*
X0273902Y0096381D02*
X0304483Y0096381D01*
X0304483Y0095382D02*
X0273902Y0095382D01*
X0273902Y0094384D02*
X0299534Y0094384D01*
X0299043Y0093385D02*
X0273902Y0093385D01*
X0273902Y0092387D02*
X0299043Y0092387D01*
X0299043Y0091163D02*
X0299043Y0089531D01*
X0299146Y0089149D01*
X0299343Y0088807D01*
X0299622Y0088528D01*
X0299964Y0088331D01*
X0300346Y0088228D01*
X0301880Y0088228D01*
X0301880Y0091163D01*
X0299043Y0091163D01*
X0299043Y0090390D02*
X0273902Y0090390D01*
X0273902Y0091388D02*
X0301880Y0091388D01*
X0301880Y0090390D02*
X0302553Y0090390D01*
X0302553Y0089391D02*
X0301880Y0089391D01*
X0301880Y0088393D02*
X0302553Y0088393D01*
X0304577Y0088393D02*
X0304940Y0088393D01*
X0304940Y0087394D02*
X0274858Y0087394D01*
X0273902Y0088393D02*
X0299857Y0088393D01*
X0299081Y0089391D02*
X0273902Y0089391D01*
X0275857Y0086396D02*
X0304940Y0086396D01*
X0303590Y0085397D02*
X0303410Y0085397D01*
X0296110Y0085397D02*
X0276855Y0085397D01*
X0273346Y0082402D02*
X0247144Y0082402D01*
X0246145Y0083400D02*
X0272347Y0083400D01*
X0271349Y0084399D02*
X0245147Y0084399D01*
X0244148Y0085397D02*
X0270350Y0085397D01*
X0269352Y0086396D02*
X0243150Y0086396D01*
X0242858Y0087394D02*
X0242151Y0087394D01*
X0242090Y0088393D02*
X0241153Y0088393D01*
X0241850Y0089391D02*
X0240154Y0089391D01*
X0239156Y0090390D02*
X0242000Y0090390D01*
X0242641Y0091388D02*
X0238157Y0091388D01*
X0237159Y0092387D02*
X0244134Y0092387D01*
X0245133Y0093385D02*
X0236300Y0093385D01*
X0236300Y0094384D02*
X0246131Y0094384D01*
X0247130Y0095382D02*
X0236300Y0095382D01*
X0236300Y0096381D02*
X0248128Y0096381D01*
X0249127Y0097379D02*
X0236300Y0097379D01*
X0236300Y0098378D02*
X0250125Y0098378D01*
X0251124Y0099376D02*
X0236300Y0099376D01*
X0236300Y0100375D02*
X0252122Y0100375D01*
X0253121Y0101373D02*
X0236300Y0101373D01*
X0236300Y0102372D02*
X0254119Y0102372D01*
X0255118Y0103370D02*
X0236300Y0103370D01*
X0236300Y0104369D02*
X0267491Y0104369D01*
X0269302Y0105368D02*
X0236300Y0105368D01*
X0236300Y0106366D02*
X0252654Y0106366D01*
X0252094Y0107365D02*
X0236300Y0107365D01*
X0236300Y0108363D02*
X0252094Y0108363D01*
X0252094Y0109362D02*
X0236300Y0109362D01*
X0236300Y0110360D02*
X0255653Y0110360D01*
X0255654Y0109362D02*
X0256654Y0109362D01*
X0256654Y0108363D02*
X0255654Y0108363D01*
X0255654Y0107365D02*
X0256654Y0107365D01*
X0256654Y0106366D02*
X0255654Y0106366D01*
X0255654Y0111359D02*
X0256654Y0111359D01*
X0256654Y0112357D02*
X0255654Y0112357D01*
X0255654Y0113356D02*
X0256654Y0113356D01*
X0256654Y0114354D02*
X0255654Y0114354D01*
X0255654Y0115353D02*
X0256654Y0115353D01*
X0256654Y0116351D02*
X0255654Y0116351D01*
X0255654Y0117350D02*
X0256654Y0117350D01*
X0256654Y0118348D02*
X0255654Y0118348D01*
X0255653Y0119347D02*
X0229199Y0119347D01*
X0230197Y0118348D02*
X0252094Y0118348D01*
X0252094Y0117350D02*
X0231196Y0117350D01*
X0232194Y0116351D02*
X0252094Y0116351D01*
X0252668Y0115353D02*
X0233193Y0115353D01*
X0234191Y0114354D02*
X0252383Y0114354D01*
X0252094Y0113356D02*
X0235190Y0113356D01*
X0236188Y0112357D02*
X0252094Y0112357D01*
X0252094Y0111359D02*
X0236300Y0111359D01*
X0229700Y0105368D02*
X0229300Y0105368D01*
X0229300Y0104369D02*
X0229700Y0104369D01*
X0229700Y0103370D02*
X0229300Y0103370D01*
X0229300Y0102372D02*
X0229700Y0102372D01*
X0229700Y0101373D02*
X0229300Y0101373D01*
X0229300Y0100375D02*
X0229700Y0100375D01*
X0229700Y0099376D02*
X0229300Y0099376D01*
X0229300Y0098378D02*
X0229700Y0098378D01*
X0229700Y0097379D02*
X0229300Y0097379D01*
X0229300Y0096381D02*
X0229700Y0096381D01*
X0229700Y0095382D02*
X0229300Y0095382D01*
X0229300Y0094384D02*
X0229700Y0094384D01*
X0229700Y0093385D02*
X0229300Y0093385D01*
X0229300Y0092387D02*
X0229700Y0092387D01*
X0229700Y0091388D02*
X0229300Y0091388D01*
X0229300Y0090390D02*
X0229700Y0090390D01*
X0229700Y0089391D02*
X0229300Y0089391D01*
X0229300Y0088393D02*
X0230062Y0088393D01*
X0229300Y0087394D02*
X0231060Y0087394D01*
X0232059Y0086396D02*
X0229300Y0086396D01*
X0229300Y0085397D02*
X0233057Y0085397D01*
X0234056Y0084399D02*
X0229300Y0084399D01*
X0229300Y0083400D02*
X0235054Y0083400D01*
X0236053Y0082402D02*
X0229300Y0082402D01*
X0229300Y0081403D02*
X0237051Y0081403D01*
X0238050Y0080405D02*
X0229300Y0080405D01*
X0229300Y0079406D02*
X0239048Y0079406D01*
X0240047Y0078408D02*
X0229300Y0078408D01*
X0229300Y0077409D02*
X0241045Y0077409D01*
X0242044Y0076411D02*
X0229300Y0076411D01*
X0229300Y0075412D02*
X0243042Y0075412D01*
X0248142Y0081403D02*
X0274344Y0081403D01*
X0269302Y0087394D02*
X0246142Y0087394D01*
X0246910Y0088393D02*
X0269302Y0088393D01*
X0269302Y0089391D02*
X0247644Y0089391D01*
X0248643Y0090390D02*
X0269302Y0090390D01*
X0269302Y0091388D02*
X0249641Y0091388D01*
X0250640Y0092387D02*
X0269302Y0092387D01*
X0269302Y0093385D02*
X0251638Y0093385D01*
X0252637Y0094384D02*
X0269302Y0094384D01*
X0269302Y0095382D02*
X0253635Y0095382D01*
X0254634Y0096381D02*
X0269302Y0096381D01*
X0269302Y0097379D02*
X0255632Y0097379D01*
X0256631Y0098378D02*
X0267791Y0098378D01*
X0269302Y0106366D02*
X0266063Y0106366D01*
X0266705Y0107365D02*
X0269302Y0107365D01*
X0259644Y0115353D02*
X0259639Y0115353D01*
X0256654Y0120345D02*
X0255654Y0120345D01*
X0255654Y0121344D02*
X0256654Y0121344D01*
X0256654Y0122342D02*
X0255654Y0122342D01*
X0255654Y0123341D02*
X0256654Y0123341D01*
X0252375Y0123341D02*
X0164205Y0123341D01*
X0165203Y0122342D02*
X0252094Y0122342D01*
X0252094Y0121344D02*
X0166202Y0121344D01*
X0167200Y0120345D02*
X0252094Y0120345D01*
X0269613Y0135323D02*
X0223965Y0135323D01*
X0223965Y0134324D02*
X0270612Y0134324D01*
X0271610Y0133326D02*
X0223965Y0133326D01*
X0223086Y0141314D02*
X0230323Y0141314D01*
X0230323Y0142312D02*
X0223682Y0142312D01*
X0223765Y0143311D02*
X0230323Y0143311D01*
X0233882Y0145308D02*
X0234882Y0145308D01*
X0234882Y0146306D02*
X0233882Y0146306D01*
X0233882Y0147305D02*
X0234882Y0147305D01*
X0234882Y0148303D02*
X0233882Y0148303D01*
X0229440Y0150301D02*
X0226589Y0150301D01*
X0227556Y0151299D02*
X0228719Y0151299D01*
X0228511Y0152298D02*
X0227556Y0152298D01*
X0227556Y0153296D02*
X0228695Y0153296D01*
X0229382Y0154295D02*
X0227556Y0154295D01*
X0227556Y0155293D02*
X0261326Y0155293D01*
X0261326Y0156292D02*
X0227556Y0156292D01*
X0227556Y0157290D02*
X0230471Y0157290D01*
X0230323Y0158289D02*
X0227556Y0158289D01*
X0227556Y0159287D02*
X0230323Y0159287D01*
X0230323Y0160286D02*
X0227556Y0160286D01*
X0227556Y0161284D02*
X0233882Y0161284D01*
X0233882Y0160286D02*
X0234882Y0160286D01*
X0234882Y0159287D02*
X0233882Y0159287D01*
X0233882Y0158289D02*
X0234882Y0158289D01*
X0234882Y0157290D02*
X0233882Y0157290D01*
X0233882Y0162283D02*
X0234882Y0162283D01*
X0234882Y0163281D02*
X0233882Y0163281D01*
X0233882Y0164280D02*
X0234882Y0164280D01*
X0234882Y0165278D02*
X0233882Y0165278D01*
X0231341Y0165278D02*
X0225400Y0165278D01*
X0226398Y0164280D02*
X0230384Y0164280D01*
X0230323Y0163281D02*
X0227397Y0163281D01*
X0227556Y0162283D02*
X0230323Y0162283D01*
X0229212Y0166277D02*
X0224401Y0166277D01*
X0223403Y0167275D02*
X0228624Y0167275D01*
X0228511Y0168274D02*
X0222404Y0168274D01*
X0221406Y0169272D02*
X0228789Y0169272D01*
X0233882Y0172268D02*
X0234882Y0172268D01*
X0234882Y0173266D02*
X0233882Y0173266D01*
X0233882Y0174265D02*
X0234882Y0174265D01*
X0234882Y0175263D02*
X0233882Y0175263D01*
X0237793Y0172268D02*
X0237917Y0172268D01*
X0244232Y0172268D02*
X0253776Y0172268D01*
X0253074Y0173266D02*
X0244934Y0173266D01*
X0246453Y0165278D02*
X0237423Y0165278D01*
X0244934Y0164280D02*
X0246578Y0164280D01*
X0246578Y0163281D02*
X0244934Y0163281D01*
X0260090Y0172268D02*
X0260469Y0172268D01*
X0234882Y0188244D02*
X0233882Y0188244D01*
X0233882Y0189242D02*
X0234882Y0189242D01*
X0234882Y0190241D02*
X0233882Y0190241D01*
X0233882Y0191239D02*
X0234882Y0191239D01*
X0214900Y0169272D02*
X0128024Y0169272D01*
X0128024Y0168274D02*
X0215899Y0168274D01*
X0244464Y0148303D02*
X0246578Y0148303D01*
X0246578Y0147305D02*
X0244934Y0147305D01*
X0244934Y0141314D02*
X0253074Y0141314D01*
X0253830Y0140315D02*
X0244398Y0140315D01*
X0251178Y0147305D02*
X0253074Y0147305D01*
X0253323Y0148303D02*
X0251178Y0148303D01*
X0260036Y0140315D02*
X0260523Y0140315D01*
X0226096Y0111359D02*
X0167187Y0111359D01*
X0166188Y0112357D02*
X0225097Y0112357D01*
X0224099Y0113356D02*
X0165190Y0113356D01*
X0168185Y0110360D02*
X0214144Y0110360D01*
X0214216Y0110402D02*
X0213874Y0110204D01*
X0213595Y0109925D01*
X0213398Y0109583D01*
X0213295Y0109201D01*
X0213295Y0106000D01*
X0217287Y0106000D01*
X0217287Y0105000D01*
X0213295Y0105000D01*
X0213295Y0101799D01*
X0213398Y0101417D01*
X0213595Y0101075D01*
X0213874Y0100796D01*
X0214216Y0100598D01*
X0214598Y0100496D01*
X0217287Y0100496D01*
X0217287Y0105000D01*
X0218287Y0105000D01*
X0218287Y0100496D01*
X0220977Y0100496D01*
X0221359Y0100598D01*
X0221701Y0100796D01*
X0221980Y0101075D01*
X0222177Y0101417D01*
X0222280Y0101799D01*
X0222280Y0105000D01*
X0218287Y0105000D01*
X0218287Y0106000D01*
X0217287Y0106000D01*
X0217287Y0110504D01*
X0214598Y0110504D01*
X0214216Y0110402D01*
X0213338Y0109362D02*
X0185505Y0109362D01*
X0185505Y0108363D02*
X0213295Y0108363D01*
X0213295Y0107365D02*
X0185505Y0107365D01*
X0185505Y0106366D02*
X0213295Y0106366D01*
X0213295Y0104369D02*
X0185505Y0104369D01*
X0185505Y0103370D02*
X0213295Y0103370D01*
X0213295Y0102372D02*
X0185505Y0102372D01*
X0185421Y0101373D02*
X0213423Y0101373D01*
X0213495Y0099376D02*
X0185658Y0099376D01*
X0185705Y0099201D02*
X0185602Y0099583D01*
X0185405Y0099925D01*
X0185126Y0100204D01*
X0184784Y0100402D01*
X0184402Y0100504D01*
X0181713Y0100504D01*
X0181713Y0096000D01*
X0185705Y0096000D01*
X0185705Y0099201D01*
X0185705Y0098378D02*
X0213495Y0098378D01*
X0213495Y0097379D02*
X0185705Y0097379D01*
X0185705Y0096381D02*
X0213495Y0096381D01*
X0213495Y0095382D02*
X0181713Y0095382D01*
X0181713Y0095000D02*
X0181713Y0096000D01*
X0180713Y0096000D01*
X0180713Y0100504D01*
X0178023Y0100504D01*
X0177641Y0100402D01*
X0177299Y0100204D01*
X0177020Y0099925D01*
X0176823Y0099583D01*
X0176720Y0099201D01*
X0176720Y0096000D01*
X0180713Y0096000D01*
X0180713Y0095000D01*
X0181713Y0095000D01*
X0185705Y0095000D01*
X0185705Y0091799D01*
X0185602Y0091417D01*
X0185405Y0091075D01*
X0185126Y0090796D01*
X0184784Y0090598D01*
X0184402Y0090496D01*
X0181713Y0090496D01*
X0181713Y0095000D01*
X0181713Y0094384D02*
X0180713Y0094384D01*
X0180713Y0095000D02*
X0180713Y0090496D01*
X0178023Y0090496D01*
X0177641Y0090598D01*
X0177299Y0090796D01*
X0177020Y0091075D01*
X0176823Y0091417D01*
X0176720Y0091799D01*
X0176720Y0095000D01*
X0180713Y0095000D01*
X0180713Y0095382D02*
X0172300Y0095382D01*
X0172300Y0094384D02*
X0176720Y0094384D01*
X0176720Y0093385D02*
X0172300Y0093385D01*
X0172300Y0092387D02*
X0176720Y0092387D01*
X0176839Y0091388D02*
X0172300Y0091388D01*
X0172300Y0090390D02*
X0214196Y0090390D01*
X0214216Y0090402D02*
X0213874Y0090204D01*
X0213595Y0089925D01*
X0213398Y0089583D01*
X0213295Y0089201D01*
X0213295Y0086000D01*
X0217287Y0086000D01*
X0217287Y0085000D01*
X0213295Y0085000D01*
X0213295Y0081799D01*
X0213398Y0081417D01*
X0213595Y0081075D01*
X0213874Y0080796D01*
X0214216Y0080598D01*
X0214598Y0080496D01*
X0217287Y0080496D01*
X0217287Y0085000D01*
X0218287Y0085000D01*
X0218287Y0080496D01*
X0220977Y0080496D01*
X0221359Y0080598D01*
X0221701Y0080796D01*
X0221980Y0081075D01*
X0222177Y0081417D01*
X0222280Y0081799D01*
X0222280Y0085000D01*
X0218287Y0085000D01*
X0218287Y0086000D01*
X0217287Y0086000D01*
X0217287Y0090504D01*
X0214598Y0090504D01*
X0214216Y0090402D01*
X0213565Y0091388D02*
X0185586Y0091388D01*
X0185705Y0092387D02*
X0213495Y0092387D01*
X0213495Y0093385D02*
X0185705Y0093385D01*
X0185705Y0094384D02*
X0213495Y0094384D01*
X0217787Y0095500D02*
X0223141Y0095500D01*
X0224850Y0097209D01*
X0222466Y0098378D02*
X0222080Y0098378D01*
X0222080Y0099376D02*
X0223270Y0099376D01*
X0222200Y0097379D02*
X0222080Y0097379D01*
X0224571Y0094384D02*
X0225700Y0094384D01*
X0225700Y0093385D02*
X0222080Y0093385D01*
X0222080Y0092387D02*
X0225700Y0092387D01*
X0225700Y0091388D02*
X0222010Y0091388D01*
X0221379Y0090390D02*
X0225700Y0090390D01*
X0225700Y0089391D02*
X0222229Y0089391D01*
X0222280Y0089201D02*
X0222177Y0089583D01*
X0221980Y0089925D01*
X0221701Y0090204D01*
X0221359Y0090402D01*
X0220977Y0090504D01*
X0218287Y0090504D01*
X0218287Y0086000D01*
X0222280Y0086000D01*
X0222280Y0089201D01*
X0222280Y0088393D02*
X0225700Y0088393D01*
X0225700Y0087394D02*
X0222280Y0087394D01*
X0222280Y0086396D02*
X0225700Y0086396D01*
X0225700Y0085397D02*
X0218287Y0085397D01*
X0218287Y0084399D02*
X0217287Y0084399D01*
X0217287Y0085397D02*
X0185505Y0085397D01*
X0185505Y0084399D02*
X0213295Y0084399D01*
X0213295Y0083400D02*
X0185505Y0083400D01*
X0185505Y0082402D02*
X0213295Y0082402D01*
X0213405Y0081403D02*
X0185450Y0081403D01*
X0185505Y0081458D02*
X0185505Y0089542D01*
X0184743Y0090304D01*
X0177682Y0090304D01*
X0176920Y0089542D01*
X0176920Y0081458D01*
X0177682Y0080696D01*
X0184743Y0080696D01*
X0185505Y0081458D01*
X0185505Y0086396D02*
X0213295Y0086396D01*
X0213295Y0087394D02*
X0185505Y0087394D01*
X0185505Y0088393D02*
X0213295Y0088393D01*
X0213346Y0089391D02*
X0185505Y0089391D01*
X0181713Y0091388D02*
X0180713Y0091388D01*
X0180713Y0092387D02*
X0181713Y0092387D01*
X0181713Y0093385D02*
X0180713Y0093385D01*
X0180713Y0096381D02*
X0181713Y0096381D01*
X0181713Y0097379D02*
X0180713Y0097379D01*
X0180713Y0098378D02*
X0181713Y0098378D01*
X0181713Y0099376D02*
X0180713Y0099376D01*
X0180713Y0100375D02*
X0181713Y0100375D01*
X0184830Y0100375D02*
X0225700Y0100375D01*
X0225700Y0101373D02*
X0222152Y0101373D01*
X0222280Y0102372D02*
X0225700Y0102372D01*
X0225700Y0103370D02*
X0222280Y0103370D01*
X0222280Y0104369D02*
X0225700Y0104369D01*
X0225700Y0105368D02*
X0218287Y0105368D01*
X0218287Y0106000D02*
X0222280Y0106000D01*
X0222280Y0109201D01*
X0222177Y0109583D01*
X0221980Y0109925D01*
X0221701Y0110204D01*
X0221359Y0110402D01*
X0220977Y0110504D01*
X0218287Y0110504D01*
X0218287Y0106000D01*
X0218287Y0106366D02*
X0217287Y0106366D01*
X0217287Y0105368D02*
X0185505Y0105368D01*
X0181213Y0105500D02*
X0173500Y0105500D01*
X0175383Y0107365D02*
X0176920Y0107365D01*
X0176920Y0108363D02*
X0170183Y0108363D01*
X0171181Y0107365D02*
X0171617Y0107365D01*
X0170500Y0105500D02*
X0141776Y0134224D01*
X0138400Y0134224D01*
X0138450Y0131125D02*
X0142330Y0131125D01*
X0146879Y0126576D01*
X0146479Y0126576D01*
X0142200Y0126576D01*
X0142200Y0129226D01*
X0142298Y0129396D01*
X0142400Y0129777D01*
X0142400Y0131025D01*
X0138450Y0131025D01*
X0138450Y0131125D01*
X0142400Y0130330D02*
X0143124Y0130330D01*
X0142261Y0129332D02*
X0144123Y0129332D01*
X0145121Y0128333D02*
X0142200Y0128333D01*
X0142200Y0127335D02*
X0146120Y0127335D01*
X0147224Y0124776D02*
X0167500Y0104500D01*
X0167500Y0082500D01*
X0211476Y0038524D01*
X0211476Y0036185D01*
X0206685Y0038467D02*
X0202488Y0038467D01*
X0202190Y0039187D02*
X0200699Y0040678D01*
X0198751Y0041485D01*
X0196643Y0041485D01*
X0194695Y0040678D01*
X0193204Y0039187D01*
X0192397Y0037239D01*
X0192397Y0035131D01*
X0193204Y0033183D01*
X0194695Y0031692D01*
X0196643Y0030885D01*
X0198751Y0030885D01*
X0200699Y0031692D01*
X0202190Y0033183D01*
X0202997Y0035131D01*
X0202997Y0037239D01*
X0202190Y0039187D01*
X0201911Y0039466D02*
X0207262Y0039466D01*
X0206990Y0040464D02*
X0200913Y0040464D01*
X0198805Y0041463D02*
X0205992Y0041463D01*
X0204993Y0042461D02*
X0170669Y0042461D01*
X0170669Y0041463D02*
X0179130Y0041463D01*
X0178996Y0041385D02*
X0178717Y0041106D01*
X0178520Y0040764D01*
X0178417Y0040383D01*
X0178417Y0036685D01*
X0183417Y0036685D01*
X0183417Y0035685D01*
X0178417Y0035685D01*
X0178417Y0031988D01*
X0178520Y0031606D01*
X0178717Y0031264D01*
X0178996Y0030985D01*
X0179338Y0030787D01*
X0179720Y0030685D01*
X0183417Y0030685D01*
X0183417Y0035685D01*
X0184417Y0035685D01*
X0184417Y0030685D01*
X0188115Y0030685D01*
X0188496Y0030787D01*
X0188838Y0030985D01*
X0189118Y0031264D01*
X0189315Y0031606D01*
X0189417Y0031988D01*
X0189417Y0035685D01*
X0184417Y0035685D01*
X0184417Y0036685D01*
X0183417Y0036685D01*
X0183417Y0041685D01*
X0179720Y0041685D01*
X0179338Y0041583D01*
X0178996Y0041385D01*
X0178439Y0040464D02*
X0172085Y0040464D01*
X0173084Y0039466D02*
X0178417Y0039466D01*
X0178417Y0038467D02*
X0173661Y0038467D01*
X0174074Y0037469D02*
X0178417Y0037469D01*
X0178417Y0035472D02*
X0174169Y0035472D01*
X0174169Y0036470D02*
X0183417Y0036470D01*
X0183417Y0035472D02*
X0184417Y0035472D01*
X0184417Y0036470D02*
X0192397Y0036470D01*
X0192397Y0035472D02*
X0189417Y0035472D01*
X0189417Y0034473D02*
X0192669Y0034473D01*
X0193083Y0033475D02*
X0189417Y0033475D01*
X0189417Y0032476D02*
X0193910Y0032476D01*
X0195212Y0031478D02*
X0189241Y0031478D01*
X0184417Y0031478D02*
X0183417Y0031478D01*
X0183417Y0032476D02*
X0184417Y0032476D01*
X0184417Y0033475D02*
X0183417Y0033475D01*
X0183417Y0034473D02*
X0184417Y0034473D01*
X0184417Y0036685D02*
X0189417Y0036685D01*
X0189417Y0040383D01*
X0189315Y0040764D01*
X0189118Y0041106D01*
X0188838Y0041385D01*
X0188496Y0041583D01*
X0188115Y0041685D01*
X0184417Y0041685D01*
X0184417Y0036685D01*
X0184417Y0037469D02*
X0183417Y0037469D01*
X0183417Y0038467D02*
X0184417Y0038467D01*
X0184417Y0039466D02*
X0183417Y0039466D01*
X0183417Y0040464D02*
X0184417Y0040464D01*
X0184417Y0041463D02*
X0183417Y0041463D01*
X0188704Y0041463D02*
X0196589Y0041463D01*
X0194481Y0040464D02*
X0189395Y0040464D01*
X0189417Y0039466D02*
X0193482Y0039466D01*
X0192905Y0038467D02*
X0189417Y0038467D01*
X0189417Y0037469D02*
X0192492Y0037469D01*
X0200182Y0031478D02*
X0208991Y0031478D01*
X0207690Y0032476D02*
X0201483Y0032476D01*
X0202311Y0033475D02*
X0206862Y0033475D01*
X0206449Y0034473D02*
X0202724Y0034473D01*
X0202997Y0035472D02*
X0206176Y0035472D01*
X0206176Y0036470D02*
X0202997Y0036470D01*
X0202902Y0037469D02*
X0206271Y0037469D01*
X0203995Y0043460D02*
X0170669Y0043460D01*
X0170669Y0044458D02*
X0202996Y0044458D01*
X0201998Y0045457D02*
X0170669Y0045457D01*
X0170669Y0046455D02*
X0200999Y0046455D01*
X0200001Y0047454D02*
X0170669Y0047454D01*
X0170669Y0048452D02*
X0199002Y0048452D01*
X0198004Y0049451D02*
X0170669Y0049451D01*
X0170669Y0050449D02*
X0197005Y0050449D01*
X0196007Y0051448D02*
X0170669Y0051448D01*
X0170669Y0052446D02*
X0195008Y0052446D01*
X0194009Y0053445D02*
X0170669Y0053445D01*
X0170669Y0054443D02*
X0193011Y0054443D01*
X0192012Y0055442D02*
X0170669Y0055442D01*
X0170669Y0056440D02*
X0191014Y0056440D01*
X0190015Y0057439D02*
X0170669Y0057439D01*
X0170669Y0058437D02*
X0189017Y0058437D01*
X0188018Y0059436D02*
X0170669Y0059436D01*
X0170669Y0060434D02*
X0187020Y0060434D01*
X0186021Y0061433D02*
X0170669Y0061433D01*
X0170669Y0062432D02*
X0185023Y0062432D01*
X0184024Y0063430D02*
X0170669Y0063430D01*
X0170669Y0064429D02*
X0183026Y0064429D01*
X0182027Y0065427D02*
X0170157Y0065427D01*
X0169159Y0066426D02*
X0181029Y0066426D01*
X0180030Y0067424D02*
X0168160Y0067424D01*
X0167162Y0068423D02*
X0179032Y0068423D01*
X0178033Y0069421D02*
X0166163Y0069421D01*
X0165165Y0070420D02*
X0177035Y0070420D01*
X0176036Y0071418D02*
X0164166Y0071418D01*
X0163168Y0072417D02*
X0175038Y0072417D01*
X0174039Y0073415D02*
X0162169Y0073415D01*
X0161170Y0074414D02*
X0173041Y0074414D01*
X0172042Y0075412D02*
X0160172Y0075412D01*
X0160956Y0076411D02*
X0171044Y0076411D01*
X0170045Y0077409D02*
X0161955Y0077409D01*
X0162953Y0078408D02*
X0169047Y0078408D01*
X0168048Y0079406D02*
X0163952Y0079406D01*
X0164300Y0080405D02*
X0167050Y0080405D01*
X0166051Y0081403D02*
X0164300Y0081403D01*
X0164300Y0082402D02*
X0165700Y0082402D01*
X0165700Y0083400D02*
X0164300Y0083400D01*
X0164300Y0084399D02*
X0165700Y0084399D01*
X0165700Y0085397D02*
X0164300Y0085397D01*
X0164300Y0086396D02*
X0165700Y0086396D01*
X0165700Y0087394D02*
X0164300Y0087394D01*
X0164300Y0088393D02*
X0165700Y0088393D01*
X0165700Y0089391D02*
X0164300Y0089391D01*
X0164300Y0090390D02*
X0165700Y0090390D01*
X0165700Y0091388D02*
X0164300Y0091388D01*
X0164300Y0092387D02*
X0165700Y0092387D01*
X0165700Y0093385D02*
X0164300Y0093385D01*
X0164300Y0094384D02*
X0165700Y0094384D01*
X0165700Y0095382D02*
X0164300Y0095382D01*
X0164300Y0096381D02*
X0165700Y0096381D01*
X0165700Y0097379D02*
X0164300Y0097379D01*
X0164300Y0098378D02*
X0165700Y0098378D01*
X0165700Y0099376D02*
X0164300Y0099376D01*
X0164300Y0100375D02*
X0165700Y0100375D01*
X0165700Y0101373D02*
X0164300Y0101373D01*
X0164901Y0102372D02*
X0165700Y0102372D01*
X0165700Y0103370D02*
X0165150Y0103370D01*
X0165085Y0104369D02*
X0165008Y0104369D01*
X0163501Y0105954D02*
X0148150Y0121304D01*
X0148150Y0120973D01*
X0147747Y0119999D01*
X0147001Y0119253D01*
X0146027Y0118850D01*
X0144973Y0118850D01*
X0144499Y0119046D01*
X0148300Y0115246D01*
X0148300Y0112664D01*
X0148951Y0113315D01*
X0150605Y0114000D01*
X0152395Y0114000D01*
X0154049Y0113315D01*
X0155315Y0112049D01*
X0156000Y0110395D01*
X0156000Y0108605D01*
X0155315Y0106951D01*
X0154049Y0105685D01*
X0152395Y0105000D01*
X0150605Y0105000D01*
X0148951Y0105685D01*
X0148300Y0106336D01*
X0148300Y0103754D01*
X0145690Y0101144D01*
X0146000Y0100395D01*
X0146000Y0098605D01*
X0145315Y0096951D01*
X0144664Y0096300D01*
X0145754Y0096300D01*
X0147310Y0097856D01*
X0147000Y0098605D01*
X0147000Y0100395D01*
X0147685Y0102049D01*
X0148951Y0103315D01*
X0150605Y0104000D01*
X0152395Y0104000D01*
X0154049Y0103315D01*
X0155315Y0102049D01*
X0156000Y0100395D01*
X0156000Y0098605D01*
X0155315Y0096951D01*
X0154049Y0095685D01*
X0152395Y0095000D01*
X0150605Y0095000D01*
X0149856Y0095310D01*
X0148300Y0093754D01*
X0147246Y0092700D01*
X0144664Y0092700D01*
X0145315Y0092049D01*
X0146000Y0090395D01*
X0146000Y0088605D01*
X0145315Y0086951D01*
X0144049Y0085685D01*
X0142395Y0085000D01*
X0140605Y0085000D01*
X0138951Y0085685D01*
X0137685Y0086951D01*
X0137000Y0088605D01*
X0137000Y0090395D01*
X0137685Y0092049D01*
X0138336Y0092700D01*
X0137754Y0092700D01*
X0128024Y0102430D01*
X0128024Y0090521D01*
X0139246Y0079300D01*
X0158754Y0079300D01*
X0160700Y0081246D01*
X0160700Y0101552D01*
X0160253Y0101999D01*
X0159850Y0102973D01*
X0159850Y0104027D01*
X0160253Y0105001D01*
X0160999Y0105747D01*
X0161973Y0106150D01*
X0163027Y0106150D01*
X0163501Y0105954D01*
X0163088Y0106366D02*
X0154730Y0106366D01*
X0155486Y0107365D02*
X0162090Y0107365D01*
X0161091Y0108363D02*
X0155900Y0108363D01*
X0156000Y0109362D02*
X0160093Y0109362D01*
X0159094Y0110360D02*
X0156000Y0110360D01*
X0155601Y0111359D02*
X0158096Y0111359D01*
X0157097Y0112357D02*
X0155007Y0112357D01*
X0153951Y0113356D02*
X0156099Y0113356D01*
X0155100Y0114354D02*
X0148300Y0114354D01*
X0148300Y0113356D02*
X0149049Y0113356D01*
X0148193Y0115353D02*
X0154102Y0115353D01*
X0153103Y0116351D02*
X0147194Y0116351D01*
X0146196Y0117350D02*
X0152105Y0117350D01*
X0151106Y0118348D02*
X0145197Y0118348D01*
X0147094Y0119347D02*
X0150108Y0119347D01*
X0149109Y0120345D02*
X0147890Y0120345D01*
X0145500Y0121500D02*
X0138526Y0121500D01*
X0138400Y0121626D01*
X0127374Y0121626D01*
X0122500Y0126500D01*
X0115500Y0126500D01*
X0115500Y0129500D01*
X0113925Y0131075D01*
X0104600Y0131075D01*
X0104650Y0127975D02*
X0108600Y0127975D01*
X0108600Y0129223D01*
X0108586Y0129275D01*
X0113180Y0129275D01*
X0113700Y0128754D01*
X0113700Y0127246D01*
X0112754Y0126300D01*
X0108512Y0126300D01*
X0108600Y0126628D01*
X0108600Y0127875D01*
X0104650Y0127875D01*
X0104650Y0127975D01*
X0104600Y0124776D02*
X0104876Y0124500D01*
X0113500Y0124500D01*
X0115500Y0126500D01*
X0113700Y0127335D02*
X0108600Y0127335D01*
X0108600Y0128333D02*
X0113700Y0128333D01*
X0112791Y0126336D02*
X0108522Y0126336D01*
X0104600Y0121626D02*
X0087374Y0121626D01*
X0084500Y0124500D01*
X0084500Y0137500D01*
X0065760Y0137500D01*
X0065500Y0137240D01*
X0069753Y0135323D02*
X0079400Y0135323D01*
X0079400Y0134324D02*
X0069753Y0134324D01*
X0069567Y0133326D02*
X0079400Y0133326D01*
X0079400Y0132327D02*
X0069953Y0132327D01*
X0069953Y0131329D02*
X0079400Y0131329D01*
X0079400Y0130330D02*
X0069953Y0130330D01*
X0069953Y0129260D02*
X0066000Y0129260D01*
X0066000Y0125701D01*
X0068650Y0125701D01*
X0069032Y0125803D01*
X0069374Y0126000D01*
X0069653Y0126280D01*
X0069851Y0126622D01*
X0069953Y0127003D01*
X0069953Y0129260D01*
X0069953Y0128333D02*
X0079400Y0128333D01*
X0079400Y0127335D02*
X0069953Y0127335D01*
X0069686Y0126336D02*
X0079525Y0126336D01*
X0079400Y0129332D02*
X0066000Y0129332D01*
X0066000Y0128333D02*
X0065000Y0128333D01*
X0065000Y0127335D02*
X0066000Y0127335D01*
X0066000Y0126336D02*
X0065000Y0126336D01*
X0065000Y0129332D02*
X0045686Y0129332D01*
X0045993Y0129639D02*
X0046800Y0131587D01*
X0046800Y0133695D01*
X0045993Y0135643D01*
X0044502Y0137134D01*
X0042554Y0137941D01*
X0040446Y0137941D01*
X0038498Y0137134D01*
X0037007Y0135643D01*
X0036200Y0133695D01*
X0036200Y0131587D01*
X0037007Y0129639D01*
X0038498Y0128148D01*
X0040446Y0127341D01*
X0042554Y0127341D01*
X0044502Y0128148D01*
X0045993Y0129639D01*
X0046280Y0130330D02*
X0061047Y0130330D01*
X0061047Y0131329D02*
X0046693Y0131329D01*
X0046800Y0132327D02*
X0061047Y0132327D01*
X0061433Y0133326D02*
X0046800Y0133326D01*
X0046539Y0134324D02*
X0061247Y0134324D01*
X0061247Y0135323D02*
X0046126Y0135323D01*
X0045315Y0136321D02*
X0061247Y0136321D01*
X0061247Y0137320D02*
X0044054Y0137320D01*
X0042554Y0139720D02*
X0040446Y0139720D01*
X0038498Y0140527D01*
X0037007Y0142018D01*
X0036200Y0143966D01*
X0036200Y0146075D01*
X0037007Y0148023D01*
X0038498Y0149514D01*
X0040446Y0150320D01*
X0042554Y0150320D01*
X0044502Y0149514D01*
X0045993Y0148023D01*
X0046800Y0146075D01*
X0046800Y0143966D01*
X0045993Y0142018D01*
X0044502Y0140527D01*
X0042554Y0139720D01*
X0043991Y0140315D02*
X0061247Y0140315D01*
X0061247Y0139317D02*
X0024000Y0139317D01*
X0024000Y0140315D02*
X0039009Y0140315D01*
X0037711Y0141314D02*
X0024000Y0141314D01*
X0024000Y0142312D02*
X0036885Y0142312D01*
X0036471Y0143311D02*
X0024000Y0143311D01*
X0024000Y0144309D02*
X0036200Y0144309D01*
X0036200Y0145308D02*
X0024000Y0145308D01*
X0024000Y0146306D02*
X0036296Y0146306D01*
X0036710Y0147305D02*
X0024000Y0147305D01*
X0024000Y0148303D02*
X0037288Y0148303D01*
X0038286Y0149302D02*
X0024000Y0149302D01*
X0024000Y0150301D02*
X0040398Y0150301D01*
X0042602Y0150301D02*
X0109154Y0150301D01*
X0108155Y0151299D02*
X0024000Y0151299D01*
X0024000Y0152298D02*
X0107157Y0152298D01*
X0106158Y0153296D02*
X0024000Y0153296D01*
X0024000Y0154295D02*
X0105160Y0154295D01*
X0104161Y0155293D02*
X0046708Y0155293D01*
X0046700Y0155279D02*
X0046898Y0155621D01*
X0047000Y0156003D01*
X0047000Y0159700D01*
X0042000Y0159700D01*
X0042000Y0160700D01*
X0041000Y0160700D01*
X0041000Y0165700D01*
X0037303Y0165700D01*
X0036921Y0165598D01*
X0036579Y0165400D01*
X0036300Y0165121D01*
X0036102Y0164779D01*
X0036000Y0164397D01*
X0036000Y0160700D01*
X0041000Y0160700D01*
X0041000Y0159700D01*
X0042000Y0159700D01*
X0042000Y0154700D01*
X0045697Y0154700D01*
X0046079Y0154802D01*
X0046421Y0155000D01*
X0046700Y0155279D01*
X0047000Y0156292D02*
X0103163Y0156292D01*
X0102164Y0157290D02*
X0047000Y0157290D01*
X0047000Y0158289D02*
X0101166Y0158289D01*
X0100167Y0159287D02*
X0047000Y0159287D01*
X0047000Y0160700D02*
X0042000Y0160700D01*
X0042000Y0165700D01*
X0045697Y0165700D01*
X0046079Y0165598D01*
X0046421Y0165400D01*
X0046700Y0165121D01*
X0046898Y0164779D01*
X0047000Y0164397D01*
X0047000Y0160700D01*
X0047000Y0161284D02*
X0098170Y0161284D01*
X0097172Y0162283D02*
X0047000Y0162283D01*
X0047000Y0163281D02*
X0096173Y0163281D01*
X0095175Y0164280D02*
X0047000Y0164280D01*
X0046543Y0165278D02*
X0094176Y0165278D01*
X0099169Y0160286D02*
X0042000Y0160286D01*
X0042000Y0161284D02*
X0041000Y0161284D01*
X0041000Y0160286D02*
X0024000Y0160286D01*
X0024000Y0161284D02*
X0036000Y0161284D01*
X0036000Y0162283D02*
X0024000Y0162283D01*
X0024000Y0163281D02*
X0036000Y0163281D01*
X0036000Y0164280D02*
X0024000Y0164280D01*
X0024000Y0165278D02*
X0036457Y0165278D01*
X0041000Y0165278D02*
X0042000Y0165278D01*
X0042000Y0164280D02*
X0041000Y0164280D01*
X0041000Y0163281D02*
X0042000Y0163281D01*
X0042000Y0162283D02*
X0041000Y0162283D01*
X0041000Y0159700D02*
X0036000Y0159700D01*
X0036000Y0156003D01*
X0036102Y0155621D01*
X0036300Y0155279D01*
X0036579Y0155000D01*
X0036921Y0154802D01*
X0037303Y0154700D01*
X0041000Y0154700D01*
X0041000Y0159700D01*
X0041000Y0159287D02*
X0042000Y0159287D01*
X0042000Y0158289D02*
X0041000Y0158289D01*
X0041000Y0157290D02*
X0042000Y0157290D01*
X0042000Y0156292D02*
X0041000Y0156292D01*
X0041000Y0155293D02*
X0042000Y0155293D01*
X0036292Y0155293D02*
X0024000Y0155293D01*
X0024000Y0156292D02*
X0036000Y0156292D01*
X0036000Y0157290D02*
X0024000Y0157290D01*
X0024000Y0158289D02*
X0036000Y0158289D01*
X0036000Y0159287D02*
X0024000Y0159287D01*
X0044714Y0149302D02*
X0108076Y0149302D01*
X0108076Y0148303D02*
X0099444Y0148303D01*
X0097500Y0146500D02*
X0110376Y0146500D01*
X0110476Y0146400D01*
X0108076Y0144309D02*
X0099057Y0144309D01*
X0097565Y0142312D02*
X0089600Y0142312D01*
X0089600Y0141314D02*
X0096969Y0141314D01*
X0096850Y0140315D02*
X0089600Y0140315D01*
X0089600Y0139317D02*
X0097122Y0139317D01*
X0097934Y0138318D02*
X0089600Y0138318D01*
X0089600Y0137320D02*
X0098774Y0137320D01*
X0096574Y0136321D02*
X0089600Y0136321D01*
X0089600Y0135323D02*
X0095973Y0135323D01*
X0095850Y0134324D02*
X0089600Y0134324D01*
X0089600Y0133326D02*
X0096118Y0133326D01*
X0096925Y0132327D02*
X0089600Y0132327D01*
X0089600Y0131329D02*
X0100800Y0131329D01*
X0100800Y0132327D02*
X0100075Y0132327D01*
X0100800Y0130330D02*
X0089600Y0130330D01*
X0089600Y0129332D02*
X0100629Y0129332D01*
X0100600Y0128333D02*
X0089600Y0128333D01*
X0089600Y0127335D02*
X0100600Y0127335D01*
X0100678Y0126336D02*
X0089475Y0126336D01*
X0087206Y0124339D02*
X0100800Y0124339D01*
X0100800Y0125338D02*
X0086300Y0125338D01*
X0082700Y0125338D02*
X0024000Y0125338D01*
X0024000Y0126336D02*
X0061314Y0126336D01*
X0061047Y0127335D02*
X0024000Y0127335D01*
X0024000Y0128333D02*
X0038312Y0128333D01*
X0037314Y0129332D02*
X0024000Y0129332D01*
X0024000Y0130330D02*
X0036720Y0130330D01*
X0036307Y0131329D02*
X0024000Y0131329D01*
X0024000Y0132327D02*
X0036200Y0132327D01*
X0036200Y0133326D02*
X0024000Y0133326D01*
X0024000Y0134324D02*
X0036461Y0134324D01*
X0036874Y0135323D02*
X0024000Y0135323D01*
X0024000Y0136321D02*
X0037685Y0136321D01*
X0038946Y0137320D02*
X0024000Y0137320D01*
X0024000Y0138318D02*
X0061247Y0138318D01*
X0069753Y0139317D02*
X0079400Y0139317D01*
X0079400Y0140315D02*
X0069753Y0140315D01*
X0079400Y0141314D02*
X0045289Y0141314D01*
X0046115Y0142312D02*
X0079400Y0142312D01*
X0079400Y0143311D02*
X0046529Y0143311D01*
X0046800Y0144309D02*
X0079400Y0144309D01*
X0079400Y0145308D02*
X0046800Y0145308D01*
X0046704Y0146306D02*
X0079400Y0146306D01*
X0079400Y0147305D02*
X0046290Y0147305D01*
X0045712Y0148303D02*
X0079400Y0148303D01*
X0089600Y0148303D02*
X0095556Y0148303D01*
X0094965Y0147305D02*
X0089600Y0147305D01*
X0089600Y0146306D02*
X0094850Y0146306D01*
X0095125Y0145308D02*
X0089600Y0145308D01*
X0089600Y0144309D02*
X0095943Y0144309D01*
X0089600Y0143311D02*
X0108127Y0143311D01*
X0104600Y0140524D02*
X0104576Y0140500D01*
X0099500Y0140500D01*
X0101374Y0137374D02*
X0098500Y0134500D01*
X0101374Y0137374D02*
X0104600Y0137374D01*
X0115218Y0132327D02*
X0134400Y0132327D01*
X0134400Y0131329D02*
X0116217Y0131329D01*
X0117215Y0130330D02*
X0134400Y0130330D01*
X0134539Y0129332D02*
X0117300Y0129332D01*
X0117300Y0128333D02*
X0134600Y0128333D01*
X0134600Y0127335D02*
X0124211Y0127335D01*
X0125209Y0126336D02*
X0134600Y0126336D01*
X0134600Y0125338D02*
X0126208Y0125338D01*
X0127206Y0124339D02*
X0134600Y0124339D01*
X0138400Y0124776D02*
X0147224Y0124776D01*
X0142524Y0118476D02*
X0138400Y0118476D01*
X0142524Y0118476D02*
X0146500Y0114500D01*
X0146500Y0104500D01*
X0141500Y0099500D01*
X0144745Y0096381D02*
X0145835Y0096381D01*
X0145492Y0097379D02*
X0146834Y0097379D01*
X0147094Y0098378D02*
X0145906Y0098378D01*
X0146000Y0099376D02*
X0147000Y0099376D01*
X0147000Y0100375D02*
X0146000Y0100375D01*
X0145919Y0101373D02*
X0147405Y0101373D01*
X0146918Y0102372D02*
X0148008Y0102372D01*
X0147916Y0103370D02*
X0149085Y0103370D01*
X0148300Y0104369D02*
X0159992Y0104369D01*
X0159850Y0103370D02*
X0153915Y0103370D01*
X0154992Y0102372D02*
X0160099Y0102372D01*
X0160700Y0101373D02*
X0155595Y0101373D01*
X0156000Y0100375D02*
X0160700Y0100375D01*
X0160700Y0099376D02*
X0156000Y0099376D01*
X0155906Y0098378D02*
X0160700Y0098378D01*
X0160700Y0097379D02*
X0155492Y0097379D01*
X0154745Y0096381D02*
X0160700Y0096381D01*
X0160700Y0095382D02*
X0153318Y0095382D01*
X0152601Y0094084D02*
X0151886Y0094197D01*
X0151886Y0089886D01*
X0156197Y0089886D01*
X0156084Y0090601D01*
X0155856Y0091304D01*
X0155520Y0091963D01*
X0155085Y0092562D01*
X0154562Y0093085D01*
X0153963Y0093520D01*
X0153304Y0093856D01*
X0152601Y0094084D01*
X0151886Y0093385D02*
X0151114Y0093385D01*
X0151114Y0094197D02*
X0150399Y0094084D01*
X0149696Y0093856D01*
X0149037Y0093520D01*
X0148438Y0093085D01*
X0147915Y0092562D01*
X0147480Y0091963D01*
X0147144Y0091304D01*
X0146916Y0090601D01*
X0146803Y0089886D01*
X0151114Y0089886D01*
X0151114Y0094197D01*
X0151114Y0092387D02*
X0151886Y0092387D01*
X0151886Y0091388D02*
X0151114Y0091388D01*
X0151114Y0090390D02*
X0151886Y0090390D01*
X0151886Y0089886D02*
X0151114Y0089886D01*
X0151114Y0089114D01*
X0151886Y0089114D01*
X0151886Y0089886D01*
X0151886Y0089391D02*
X0160700Y0089391D01*
X0160700Y0088393D02*
X0156082Y0088393D01*
X0156084Y0088399D02*
X0156197Y0089114D01*
X0151886Y0089114D01*
X0151886Y0084803D01*
X0152601Y0084916D01*
X0153304Y0085144D01*
X0153963Y0085480D01*
X0154562Y0085915D01*
X0155085Y0086438D01*
X0155520Y0087037D01*
X0155856Y0087696D01*
X0156084Y0088399D01*
X0155702Y0087394D02*
X0160700Y0087394D01*
X0160700Y0086396D02*
X0155043Y0086396D01*
X0153801Y0085397D02*
X0160700Y0085397D01*
X0160700Y0084399D02*
X0134147Y0084399D01*
X0133148Y0085397D02*
X0139646Y0085397D01*
X0138240Y0086396D02*
X0132150Y0086396D01*
X0131151Y0087394D02*
X0137501Y0087394D01*
X0137088Y0088393D02*
X0130153Y0088393D01*
X0129154Y0089391D02*
X0137000Y0089391D01*
X0137000Y0090390D02*
X0128156Y0090390D01*
X0128024Y0091388D02*
X0137411Y0091388D01*
X0138023Y0092387D02*
X0128024Y0092387D01*
X0128024Y0093385D02*
X0137069Y0093385D01*
X0136071Y0094384D02*
X0128024Y0094384D01*
X0128024Y0095382D02*
X0135072Y0095382D01*
X0134073Y0096381D02*
X0128024Y0096381D01*
X0128024Y0097379D02*
X0133075Y0097379D01*
X0132076Y0098378D02*
X0128024Y0098378D01*
X0128024Y0099376D02*
X0131078Y0099376D01*
X0130079Y0100375D02*
X0128024Y0100375D01*
X0128024Y0101373D02*
X0129081Y0101373D01*
X0128082Y0102372D02*
X0128024Y0102372D01*
X0129374Y0103626D02*
X0138500Y0094500D01*
X0146500Y0094500D01*
X0151500Y0099500D01*
X0148929Y0094384D02*
X0160700Y0094384D01*
X0160700Y0093385D02*
X0154148Y0093385D01*
X0155212Y0092387D02*
X0160700Y0092387D01*
X0160700Y0091388D02*
X0155813Y0091388D01*
X0156118Y0090390D02*
X0160700Y0090390D01*
X0160700Y0083400D02*
X0135145Y0083400D01*
X0136144Y0082402D02*
X0160700Y0082402D01*
X0160700Y0081403D02*
X0137142Y0081403D01*
X0138141Y0080405D02*
X0159859Y0080405D01*
X0158861Y0079406D02*
X0139139Y0079406D01*
X0138500Y0077500D02*
X0126224Y0089776D01*
X0126224Y0112600D01*
X0123075Y0112600D02*
X0123075Y0088925D01*
X0137500Y0074500D01*
X0158539Y0074500D01*
X0168869Y0064169D01*
X0168869Y0036185D01*
X0173897Y0034473D02*
X0178417Y0034473D01*
X0178417Y0033475D02*
X0173483Y0033475D01*
X0172656Y0032476D02*
X0178417Y0032476D01*
X0178594Y0031478D02*
X0171354Y0031478D01*
X0166384Y0031478D02*
X0156175Y0031478D01*
X0157476Y0032476D02*
X0165083Y0032476D01*
X0164255Y0033475D02*
X0158304Y0033475D01*
X0158717Y0034473D02*
X0163842Y0034473D01*
X0163569Y0035472D02*
X0158990Y0035472D01*
X0158990Y0036470D02*
X0163569Y0036470D01*
X0163664Y0037469D02*
X0158895Y0037469D01*
X0158481Y0038467D02*
X0164078Y0038467D01*
X0164655Y0039466D02*
X0157904Y0039466D01*
X0156906Y0040464D02*
X0165653Y0040464D01*
X0167069Y0041463D02*
X0155490Y0041463D01*
X0155490Y0042461D02*
X0167069Y0042461D01*
X0167069Y0043460D02*
X0155490Y0043460D01*
X0155490Y0044458D02*
X0167069Y0044458D01*
X0167069Y0045457D02*
X0155490Y0045457D01*
X0155490Y0046455D02*
X0167069Y0046455D01*
X0167069Y0047454D02*
X0155490Y0047454D01*
X0155490Y0048452D02*
X0167069Y0048452D01*
X0167069Y0049451D02*
X0155490Y0049451D01*
X0155490Y0050449D02*
X0167069Y0050449D01*
X0167069Y0051448D02*
X0155490Y0051448D01*
X0155490Y0052446D02*
X0167069Y0052446D01*
X0167069Y0053445D02*
X0155490Y0053445D01*
X0155490Y0054443D02*
X0167069Y0054443D01*
X0167069Y0055442D02*
X0155104Y0055442D01*
X0154105Y0056440D02*
X0167069Y0056440D01*
X0167069Y0057439D02*
X0153107Y0057439D01*
X0152108Y0058437D02*
X0167069Y0058437D01*
X0167069Y0059436D02*
X0151110Y0059436D01*
X0150111Y0060434D02*
X0167069Y0060434D01*
X0167069Y0061433D02*
X0149113Y0061433D01*
X0148114Y0062432D02*
X0167069Y0062432D01*
X0167063Y0063430D02*
X0147116Y0063430D01*
X0146117Y0064429D02*
X0166064Y0064429D01*
X0165066Y0065427D02*
X0145119Y0065427D01*
X0144120Y0066426D02*
X0164067Y0066426D01*
X0163069Y0067424D02*
X0143121Y0067424D01*
X0142123Y0068423D02*
X0162070Y0068423D01*
X0161072Y0069421D02*
X0141124Y0069421D01*
X0140126Y0070420D02*
X0160073Y0070420D01*
X0159075Y0071418D02*
X0139127Y0071418D01*
X0138129Y0072417D02*
X0158076Y0072417D01*
X0159500Y0077500D02*
X0138500Y0077500D01*
X0133038Y0072417D02*
X0112300Y0072417D01*
X0112300Y0073415D02*
X0132039Y0073415D01*
X0131041Y0074414D02*
X0112300Y0074414D01*
X0112300Y0075412D02*
X0130042Y0075412D01*
X0129044Y0076411D02*
X0112300Y0076411D01*
X0112300Y0077409D02*
X0128045Y0077409D01*
X0127047Y0078408D02*
X0112300Y0078408D01*
X0112300Y0079406D02*
X0126048Y0079406D01*
X0125050Y0080405D02*
X0112300Y0080405D01*
X0112300Y0081403D02*
X0124051Y0081403D01*
X0123053Y0082402D02*
X0112300Y0082402D01*
X0112300Y0083400D02*
X0122054Y0083400D01*
X0121056Y0084399D02*
X0112300Y0084399D01*
X0112300Y0085397D02*
X0120057Y0085397D01*
X0119059Y0086396D02*
X0112300Y0086396D01*
X0112300Y0087394D02*
X0118125Y0087394D01*
X0118125Y0088393D02*
X0112300Y0088393D01*
X0112300Y0089391D02*
X0118125Y0089391D01*
X0118125Y0090390D02*
X0112300Y0090390D01*
X0112300Y0091388D02*
X0118125Y0091388D01*
X0118125Y0092387D02*
X0112300Y0092387D01*
X0112300Y0093385D02*
X0118125Y0093385D01*
X0118125Y0094384D02*
X0112300Y0094384D01*
X0112300Y0095382D02*
X0118125Y0095382D01*
X0118125Y0096381D02*
X0112300Y0096381D01*
X0112300Y0097379D02*
X0118125Y0097379D01*
X0118125Y0098378D02*
X0112300Y0098378D01*
X0112300Y0099376D02*
X0118125Y0099376D01*
X0118125Y0100375D02*
X0112921Y0100375D01*
X0113919Y0101373D02*
X0118125Y0101373D01*
X0118125Y0102372D02*
X0114918Y0102372D01*
X0115916Y0103370D02*
X0118125Y0103370D01*
X0118125Y0104369D02*
X0116915Y0104369D01*
X0117913Y0105368D02*
X0118125Y0105368D01*
X0116776Y0106776D02*
X0110500Y0100500D01*
X0110500Y0036871D01*
X0109814Y0036185D01*
X0105023Y0038467D02*
X0099426Y0038467D01*
X0099840Y0037469D02*
X0104609Y0037469D01*
X0104514Y0036470D02*
X0099935Y0036470D01*
X0099935Y0035472D02*
X0104514Y0035472D01*
X0104787Y0034473D02*
X0099662Y0034473D01*
X0099249Y0033475D02*
X0105200Y0033475D01*
X0106028Y0032476D02*
X0098421Y0032476D01*
X0097120Y0031478D02*
X0107329Y0031478D01*
X0112299Y0031478D02*
X0120807Y0031478D01*
X0120733Y0031606D02*
X0120930Y0031264D01*
X0121210Y0030985D01*
X0121552Y0030787D01*
X0121933Y0030685D01*
X0125631Y0030685D01*
X0125631Y0035685D01*
X0126631Y0035685D01*
X0126631Y0036685D01*
X0131631Y0036685D01*
X0131631Y0040383D01*
X0131528Y0040764D01*
X0131331Y0041106D01*
X0131052Y0041385D01*
X0130710Y0041583D01*
X0130328Y0041685D01*
X0126631Y0041685D01*
X0126631Y0036685D01*
X0125631Y0036685D01*
X0125631Y0041685D01*
X0121933Y0041685D01*
X0121552Y0041583D01*
X0121210Y0041385D01*
X0120930Y0041106D01*
X0120733Y0040764D01*
X0120631Y0040383D01*
X0120631Y0036685D01*
X0125631Y0036685D01*
X0125631Y0035685D01*
X0120631Y0035685D01*
X0120631Y0031988D01*
X0120733Y0031606D01*
X0120631Y0032476D02*
X0113601Y0032476D01*
X0114428Y0033475D02*
X0120631Y0033475D01*
X0120631Y0034473D02*
X0114842Y0034473D01*
X0115114Y0035472D02*
X0120631Y0035472D01*
X0120631Y0037469D02*
X0115019Y0037469D01*
X0115114Y0036470D02*
X0125631Y0036470D01*
X0125631Y0035472D02*
X0126631Y0035472D01*
X0126631Y0035685D02*
X0126631Y0030685D01*
X0130328Y0030685D01*
X0130710Y0030787D01*
X0131052Y0030985D01*
X0131331Y0031264D01*
X0131528Y0031606D01*
X0131631Y0031988D01*
X0131631Y0035685D01*
X0126631Y0035685D01*
X0126631Y0036470D02*
X0136010Y0036470D01*
X0136010Y0037239D02*
X0136010Y0035131D01*
X0136817Y0033183D01*
X0138308Y0031692D01*
X0140256Y0030885D01*
X0142364Y0030885D01*
X0144312Y0031692D01*
X0145803Y0033183D01*
X0146610Y0035131D01*
X0146610Y0037239D01*
X0145803Y0039187D01*
X0144312Y0040678D01*
X0142364Y0041485D01*
X0140256Y0041485D01*
X0138308Y0040678D01*
X0136817Y0039187D01*
X0136010Y0037239D01*
X0136105Y0037469D02*
X0131631Y0037469D01*
X0131631Y0038467D02*
X0136519Y0038467D01*
X0137096Y0039466D02*
X0131631Y0039466D01*
X0131609Y0040464D02*
X0138094Y0040464D01*
X0140202Y0041463D02*
X0130918Y0041463D01*
X0126631Y0041463D02*
X0125631Y0041463D01*
X0125631Y0040464D02*
X0126631Y0040464D01*
X0126631Y0039466D02*
X0125631Y0039466D01*
X0125631Y0038467D02*
X0126631Y0038467D01*
X0126631Y0037469D02*
X0125631Y0037469D01*
X0125631Y0034473D02*
X0126631Y0034473D01*
X0126631Y0033475D02*
X0125631Y0033475D01*
X0125631Y0032476D02*
X0126631Y0032476D01*
X0126631Y0031478D02*
X0125631Y0031478D01*
X0131454Y0031478D02*
X0138825Y0031478D01*
X0137524Y0032476D02*
X0131631Y0032476D01*
X0131631Y0033475D02*
X0136696Y0033475D01*
X0136283Y0034473D02*
X0131631Y0034473D01*
X0131631Y0035472D02*
X0136010Y0035472D01*
X0143795Y0031478D02*
X0151205Y0031478D01*
X0149903Y0032476D02*
X0145097Y0032476D01*
X0145924Y0033475D02*
X0149076Y0033475D01*
X0148662Y0034473D02*
X0146338Y0034473D01*
X0146610Y0035472D02*
X0148390Y0035472D01*
X0148390Y0036470D02*
X0146610Y0036470D01*
X0146515Y0037469D02*
X0148485Y0037469D01*
X0148898Y0038467D02*
X0146102Y0038467D01*
X0145525Y0039466D02*
X0149475Y0039466D01*
X0150474Y0040464D02*
X0144526Y0040464D01*
X0142418Y0041463D02*
X0151890Y0041463D01*
X0151890Y0042461D02*
X0112300Y0042461D01*
X0112300Y0041463D02*
X0121344Y0041463D01*
X0120653Y0040464D02*
X0113030Y0040464D01*
X0114029Y0039466D02*
X0120631Y0039466D01*
X0120631Y0038467D02*
X0114606Y0038467D01*
X0112300Y0043460D02*
X0151890Y0043460D01*
X0151890Y0044458D02*
X0112300Y0044458D01*
X0112300Y0045457D02*
X0151890Y0045457D01*
X0151890Y0046455D02*
X0112300Y0046455D01*
X0112300Y0047454D02*
X0151890Y0047454D01*
X0151890Y0048452D02*
X0112300Y0048452D01*
X0112300Y0049451D02*
X0151890Y0049451D01*
X0151890Y0050449D02*
X0112300Y0050449D01*
X0112300Y0051448D02*
X0151890Y0051448D01*
X0151890Y0052446D02*
X0112300Y0052446D01*
X0112300Y0053445D02*
X0151890Y0053445D01*
X0151011Y0054443D02*
X0112300Y0054443D01*
X0112300Y0055442D02*
X0150012Y0055442D01*
X0149014Y0056440D02*
X0112300Y0056440D01*
X0112300Y0057439D02*
X0148015Y0057439D01*
X0147017Y0058437D02*
X0112300Y0058437D01*
X0112300Y0059436D02*
X0146018Y0059436D01*
X0145020Y0060434D02*
X0112300Y0060434D01*
X0112300Y0061433D02*
X0144021Y0061433D01*
X0143023Y0062432D02*
X0112300Y0062432D01*
X0112300Y0063430D02*
X0142024Y0063430D01*
X0141026Y0064429D02*
X0112300Y0064429D01*
X0112300Y0065427D02*
X0140027Y0065427D01*
X0139029Y0066426D02*
X0112300Y0066426D01*
X0112300Y0067424D02*
X0138030Y0067424D01*
X0137032Y0068423D02*
X0112300Y0068423D01*
X0112300Y0069421D02*
X0136033Y0069421D01*
X0135035Y0070420D02*
X0112300Y0070420D01*
X0112300Y0071418D02*
X0134036Y0071418D01*
X0143354Y0085397D02*
X0149199Y0085397D01*
X0149037Y0085480D02*
X0149696Y0085144D01*
X0150399Y0084916D01*
X0151114Y0084803D01*
X0151114Y0089114D01*
X0146803Y0089114D01*
X0146916Y0088399D01*
X0147144Y0087696D01*
X0147480Y0087037D01*
X0147915Y0086438D01*
X0148438Y0085915D01*
X0149037Y0085480D01*
X0147957Y0086396D02*
X0144760Y0086396D01*
X0145499Y0087394D02*
X0147298Y0087394D01*
X0146918Y0088393D02*
X0145912Y0088393D01*
X0146000Y0089391D02*
X0151114Y0089391D01*
X0151114Y0088393D02*
X0151886Y0088393D01*
X0151886Y0087394D02*
X0151114Y0087394D01*
X0151114Y0086396D02*
X0151886Y0086396D01*
X0151886Y0085397D02*
X0151114Y0085397D01*
X0146882Y0090390D02*
X0146000Y0090390D01*
X0145589Y0091388D02*
X0147187Y0091388D01*
X0147788Y0092387D02*
X0144977Y0092387D01*
X0147931Y0093385D02*
X0148852Y0093385D01*
X0162500Y0103500D02*
X0162500Y0080500D01*
X0159500Y0077500D01*
X0170500Y0083500D02*
X0170500Y0105500D01*
X0169184Y0109362D02*
X0176920Y0109362D01*
X0176920Y0103370D02*
X0175118Y0103370D01*
X0176920Y0102372D02*
X0172300Y0102372D01*
X0172300Y0101373D02*
X0177005Y0101373D01*
X0177595Y0100375D02*
X0172300Y0100375D01*
X0172300Y0099376D02*
X0176767Y0099376D01*
X0176720Y0098378D02*
X0172300Y0098378D01*
X0172300Y0097379D02*
X0176720Y0097379D01*
X0176720Y0096381D02*
X0172300Y0096381D01*
X0172300Y0089391D02*
X0176920Y0089391D01*
X0176920Y0088393D02*
X0172300Y0088393D01*
X0172300Y0087394D02*
X0176920Y0087394D01*
X0176920Y0086396D02*
X0172300Y0086396D01*
X0172300Y0085397D02*
X0176920Y0085397D01*
X0176920Y0084399D02*
X0172300Y0084399D01*
X0173145Y0083400D02*
X0176920Y0083400D01*
X0176920Y0082402D02*
X0174144Y0082402D01*
X0175142Y0081403D02*
X0176975Y0081403D01*
X0176141Y0080405D02*
X0225700Y0080405D01*
X0225700Y0081403D02*
X0222169Y0081403D01*
X0222280Y0082402D02*
X0225700Y0082402D01*
X0225700Y0083400D02*
X0222280Y0083400D01*
X0222280Y0084399D02*
X0225700Y0084399D01*
X0225700Y0079406D02*
X0177139Y0079406D01*
X0178138Y0078408D02*
X0225700Y0078408D01*
X0225700Y0077409D02*
X0179136Y0077409D01*
X0179958Y0076587D02*
X0179958Y0076587D01*
X0180135Y0076411D02*
X0225700Y0076411D01*
X0225700Y0075412D02*
X0181133Y0075412D01*
X0182132Y0074414D02*
X0225700Y0074414D01*
X0225700Y0073415D02*
X0183130Y0073415D01*
X0184129Y0072417D02*
X0225700Y0072417D01*
X0225700Y0071418D02*
X0185127Y0071418D01*
X0186126Y0070420D02*
X0225700Y0070420D01*
X0225700Y0069421D02*
X0187124Y0069421D01*
X0188123Y0068423D02*
X0225700Y0068423D01*
X0225700Y0067424D02*
X0189121Y0067424D01*
X0190120Y0066426D02*
X0225700Y0066426D01*
X0225700Y0065427D02*
X0191119Y0065427D01*
X0192117Y0064429D02*
X0225700Y0064429D01*
X0225700Y0063430D02*
X0193116Y0063430D01*
X0194114Y0062432D02*
X0225700Y0062432D01*
X0225700Y0061433D02*
X0195113Y0061433D01*
X0196111Y0060434D02*
X0225700Y0060434D01*
X0225700Y0059436D02*
X0197110Y0059436D01*
X0198108Y0058437D02*
X0225700Y0058437D01*
X0225700Y0057439D02*
X0199107Y0057439D01*
X0200105Y0056440D02*
X0225700Y0056440D01*
X0225700Y0055442D02*
X0201104Y0055442D01*
X0202102Y0054443D02*
X0225700Y0054443D01*
X0225700Y0053445D02*
X0203101Y0053445D01*
X0204099Y0052446D02*
X0225700Y0052446D01*
X0225700Y0051448D02*
X0205098Y0051448D01*
X0206096Y0050449D02*
X0225700Y0050449D01*
X0225700Y0049451D02*
X0207095Y0049451D01*
X0208093Y0048452D02*
X0225700Y0048452D01*
X0225700Y0047454D02*
X0209092Y0047454D01*
X0210090Y0046455D02*
X0226220Y0046455D01*
X0227218Y0045457D02*
X0220498Y0045457D01*
X0221497Y0044458D02*
X0228217Y0044458D01*
X0229215Y0043460D02*
X0222495Y0043460D01*
X0223494Y0042461D02*
X0230214Y0042461D01*
X0231212Y0041463D02*
X0226364Y0041463D01*
X0228472Y0040464D02*
X0232211Y0040464D01*
X0233209Y0039466D02*
X0229470Y0039466D01*
X0230047Y0038467D02*
X0234208Y0038467D01*
X0233830Y0037469D02*
X0230461Y0037469D01*
X0230556Y0036470D02*
X0233735Y0036470D01*
X0233735Y0035472D02*
X0230556Y0035472D01*
X0230284Y0034473D02*
X0234008Y0034473D01*
X0234421Y0033475D02*
X0229870Y0033475D01*
X0229042Y0032476D02*
X0235249Y0032476D01*
X0236550Y0031478D02*
X0227741Y0031478D01*
X0222771Y0031478D02*
X0213961Y0031478D01*
X0215263Y0032476D02*
X0221469Y0032476D01*
X0220642Y0033475D02*
X0216090Y0033475D01*
X0216504Y0034473D02*
X0220228Y0034473D01*
X0219956Y0035472D02*
X0216776Y0035472D01*
X0216776Y0036470D02*
X0219956Y0036470D01*
X0220051Y0037469D02*
X0216681Y0037469D01*
X0216268Y0038467D02*
X0220465Y0038467D01*
X0221041Y0039466D02*
X0215691Y0039466D01*
X0214692Y0040464D02*
X0220400Y0040464D01*
X0219401Y0041463D02*
X0212584Y0041463D01*
X0209941Y0044059D02*
X0219350Y0044059D01*
X0225256Y0038154D01*
X0225256Y0036185D01*
X0227500Y0047720D02*
X0239035Y0036185D01*
X0244063Y0034473D02*
X0248583Y0034473D01*
X0248583Y0033475D02*
X0243649Y0033475D01*
X0242822Y0032476D02*
X0248583Y0032476D01*
X0248760Y0031478D02*
X0241520Y0031478D01*
X0227500Y0047720D02*
X0227500Y0079492D01*
X0227500Y0077618D01*
X0227500Y0079492D02*
X0227500Y0107500D01*
X0225614Y0109362D02*
X0222237Y0109362D01*
X0222280Y0108363D02*
X0224989Y0108363D01*
X0224850Y0107365D02*
X0222280Y0107365D01*
X0222280Y0106366D02*
X0225101Y0106366D01*
X0227094Y0110360D02*
X0221431Y0110360D01*
X0218287Y0110360D02*
X0217287Y0110360D01*
X0217287Y0109362D02*
X0218287Y0109362D01*
X0218287Y0108363D02*
X0217287Y0108363D01*
X0217287Y0107365D02*
X0218287Y0107365D01*
X0218287Y0104369D02*
X0217287Y0104369D01*
X0217287Y0103370D02*
X0218287Y0103370D01*
X0218287Y0102372D02*
X0217287Y0102372D01*
X0217287Y0101373D02*
X0218287Y0101373D01*
X0218287Y0090390D02*
X0217287Y0090390D01*
X0217287Y0089391D02*
X0218287Y0089391D01*
X0218287Y0088393D02*
X0217287Y0088393D01*
X0217287Y0087394D02*
X0218287Y0087394D01*
X0218287Y0086396D02*
X0217287Y0086396D01*
X0217287Y0083400D02*
X0218287Y0083400D01*
X0218287Y0082402D02*
X0217287Y0082402D01*
X0217287Y0081403D02*
X0218287Y0081403D01*
X0209941Y0044059D02*
X0179213Y0074787D01*
X0180500Y0073500D01*
X0179213Y0074787D02*
X0170500Y0083500D01*
X0160620Y0105368D02*
X0153282Y0105368D01*
X0149718Y0105368D02*
X0148300Y0105368D01*
X0141500Y0109500D02*
X0138400Y0112600D01*
X0132524Y0112600D01*
X0129374Y0112600D02*
X0129374Y0103626D01*
X0119925Y0112600D02*
X0119925Y0088075D01*
X0153690Y0054310D01*
X0153690Y0036185D01*
X0108700Y0041463D02*
X0095743Y0041463D01*
X0095166Y0042461D02*
X0108700Y0042461D01*
X0108700Y0043460D02*
X0095166Y0043460D01*
X0095166Y0044458D02*
X0108700Y0044458D01*
X0108700Y0045457D02*
X0095166Y0045457D01*
X0095166Y0046455D02*
X0108700Y0046455D01*
X0108700Y0047454D02*
X0095166Y0047454D01*
X0095166Y0048452D02*
X0108700Y0048452D01*
X0108700Y0049451D02*
X0095166Y0049451D01*
X0095166Y0050449D02*
X0108700Y0050449D01*
X0108700Y0051448D02*
X0095166Y0051448D01*
X0095166Y0052446D02*
X0108700Y0052446D01*
X0108700Y0053445D02*
X0095166Y0053445D01*
X0095166Y0054443D02*
X0108700Y0054443D01*
X0108700Y0055442D02*
X0095166Y0055442D01*
X0095166Y0056440D02*
X0108700Y0056440D01*
X0108700Y0057439D02*
X0095166Y0057439D01*
X0095166Y0058437D02*
X0108700Y0058437D01*
X0108700Y0059436D02*
X0095166Y0059436D01*
X0095166Y0060434D02*
X0108700Y0060434D01*
X0108700Y0061433D02*
X0095166Y0061433D01*
X0095166Y0062432D02*
X0108700Y0062432D01*
X0108700Y0063430D02*
X0095166Y0063430D01*
X0095166Y0064429D02*
X0108700Y0064429D01*
X0108700Y0065427D02*
X0095166Y0065427D01*
X0095166Y0066426D02*
X0108700Y0066426D01*
X0108700Y0067424D02*
X0095166Y0067424D01*
X0095166Y0068423D02*
X0108700Y0068423D01*
X0108700Y0069421D02*
X0095166Y0069421D01*
X0095166Y0070420D02*
X0108700Y0070420D01*
X0108700Y0071418D02*
X0095166Y0071418D01*
X0095166Y0072417D02*
X0108700Y0072417D01*
X0108700Y0073415D02*
X0095166Y0073415D01*
X0095166Y0074414D02*
X0108700Y0074414D01*
X0108700Y0075412D02*
X0095166Y0075412D01*
X0095166Y0076411D02*
X0108700Y0076411D01*
X0108700Y0077409D02*
X0095166Y0077409D01*
X0095166Y0078408D02*
X0108700Y0078408D01*
X0108700Y0079406D02*
X0095166Y0079406D01*
X0095166Y0080405D02*
X0108700Y0080405D01*
X0108700Y0081403D02*
X0095166Y0081403D01*
X0095166Y0082402D02*
X0108700Y0082402D01*
X0108700Y0083400D02*
X0095166Y0083400D01*
X0095166Y0084399D02*
X0108700Y0084399D01*
X0108700Y0085397D02*
X0095166Y0085397D01*
X0095166Y0086396D02*
X0108700Y0086396D01*
X0108700Y0087394D02*
X0095940Y0087394D01*
X0096938Y0088393D02*
X0108700Y0088393D01*
X0108700Y0089391D02*
X0097937Y0089391D01*
X0098935Y0090390D02*
X0108700Y0090390D01*
X0108700Y0091388D02*
X0099934Y0091388D01*
X0100932Y0092387D02*
X0108700Y0092387D01*
X0108700Y0093385D02*
X0101931Y0093385D01*
X0102929Y0094384D02*
X0108700Y0094384D01*
X0108700Y0095382D02*
X0103928Y0095382D01*
X0104926Y0096381D02*
X0108700Y0096381D01*
X0108700Y0097379D02*
X0105925Y0097379D01*
X0106923Y0098378D02*
X0108700Y0098378D01*
X0108700Y0099376D02*
X0107922Y0099376D01*
X0113626Y0107626D02*
X0093366Y0087366D01*
X0093366Y0037454D01*
X0094635Y0036185D01*
X0089843Y0038467D02*
X0087046Y0038467D01*
X0086748Y0039187D02*
X0087555Y0037239D01*
X0087555Y0035131D01*
X0086748Y0033183D01*
X0085257Y0031692D01*
X0083309Y0030885D01*
X0081201Y0030885D01*
X0079253Y0031692D01*
X0077762Y0033183D01*
X0076955Y0035131D01*
X0076955Y0037239D01*
X0077762Y0039187D01*
X0079253Y0040678D01*
X0081201Y0041485D01*
X0083309Y0041485D01*
X0085257Y0040678D01*
X0086748Y0039187D01*
X0086470Y0039466D02*
X0090420Y0039466D01*
X0091419Y0040464D02*
X0085471Y0040464D01*
X0083363Y0041463D02*
X0091566Y0041463D01*
X0091566Y0042461D02*
X0024000Y0042461D01*
X0024000Y0043460D02*
X0091566Y0043460D01*
X0091566Y0044458D02*
X0024000Y0044458D01*
X0024000Y0045457D02*
X0091566Y0045457D01*
X0091566Y0046455D02*
X0024000Y0046455D01*
X0024000Y0047454D02*
X0091566Y0047454D01*
X0091566Y0048452D02*
X0024000Y0048452D01*
X0024000Y0049451D02*
X0091566Y0049451D01*
X0091566Y0050449D02*
X0024000Y0050449D01*
X0024000Y0051448D02*
X0039754Y0051448D01*
X0038020Y0052446D02*
X0024000Y0052446D01*
X0024000Y0053445D02*
X0037021Y0053445D01*
X0036599Y0054443D02*
X0024000Y0054443D01*
X0024000Y0055442D02*
X0036200Y0055442D01*
X0036200Y0056440D02*
X0024000Y0056440D01*
X0024000Y0057439D02*
X0036200Y0057439D01*
X0036582Y0058437D02*
X0024000Y0058437D01*
X0024000Y0059436D02*
X0036995Y0059436D01*
X0037978Y0060434D02*
X0024000Y0060434D01*
X0024000Y0061433D02*
X0039653Y0061433D01*
X0043347Y0061433D02*
X0043887Y0061433D01*
X0044886Y0062432D02*
X0024000Y0062432D01*
X0024000Y0063430D02*
X0045884Y0063430D01*
X0046883Y0064429D02*
X0024000Y0064429D01*
X0024000Y0065427D02*
X0047881Y0065427D01*
X0048880Y0066426D02*
X0042759Y0066426D01*
X0042554Y0066341D02*
X0044502Y0067148D01*
X0045993Y0068639D01*
X0046800Y0070587D01*
X0046800Y0072695D01*
X0045993Y0074643D01*
X0044502Y0076134D01*
X0042554Y0076941D01*
X0040446Y0076941D01*
X0038498Y0076134D01*
X0037007Y0074643D01*
X0036200Y0072695D01*
X0036200Y0070587D01*
X0037007Y0068639D01*
X0038498Y0067148D01*
X0040446Y0066341D01*
X0042554Y0066341D01*
X0040241Y0066426D02*
X0024000Y0066426D01*
X0024000Y0067424D02*
X0038222Y0067424D01*
X0037223Y0068423D02*
X0024000Y0068423D01*
X0024000Y0069421D02*
X0036683Y0069421D01*
X0036269Y0070420D02*
X0024000Y0070420D01*
X0024000Y0071418D02*
X0036200Y0071418D01*
X0036200Y0072417D02*
X0024000Y0072417D01*
X0024000Y0073415D02*
X0036498Y0073415D01*
X0036912Y0074414D02*
X0024000Y0074414D01*
X0024000Y0075412D02*
X0037776Y0075412D01*
X0039166Y0076411D02*
X0024000Y0076411D01*
X0024000Y0077409D02*
X0059864Y0077409D01*
X0060862Y0078408D02*
X0024000Y0078408D01*
X0024000Y0079406D02*
X0038790Y0079406D01*
X0038498Y0079527D02*
X0040446Y0078720D01*
X0042554Y0078720D01*
X0044502Y0079527D01*
X0045993Y0081018D01*
X0046800Y0082966D01*
X0046800Y0085075D01*
X0045993Y0087023D01*
X0044502Y0088514D01*
X0042554Y0089320D01*
X0040446Y0089320D01*
X0038498Y0088514D01*
X0037007Y0087023D01*
X0036200Y0085075D01*
X0036200Y0082966D01*
X0037007Y0081018D01*
X0038498Y0079527D01*
X0037620Y0080405D02*
X0024000Y0080405D01*
X0024000Y0081403D02*
X0036847Y0081403D01*
X0036434Y0082402D02*
X0024000Y0082402D01*
X0024000Y0083400D02*
X0036200Y0083400D01*
X0036200Y0084399D02*
X0024000Y0084399D01*
X0024000Y0085397D02*
X0036334Y0085397D01*
X0036747Y0086396D02*
X0024000Y0086396D01*
X0024000Y0087394D02*
X0037379Y0087394D01*
X0038377Y0088393D02*
X0024000Y0088393D01*
X0024000Y0089391D02*
X0079400Y0089391D01*
X0079400Y0090390D02*
X0024000Y0090390D01*
X0024000Y0091388D02*
X0079400Y0091388D01*
X0079400Y0092387D02*
X0024000Y0092387D01*
X0024000Y0093385D02*
X0079400Y0093385D01*
X0079400Y0094384D02*
X0046761Y0094384D01*
X0046700Y0094279D02*
X0046898Y0094621D01*
X0047000Y0095003D01*
X0047000Y0098700D01*
X0042000Y0098700D01*
X0042000Y0099700D01*
X0041000Y0099700D01*
X0041000Y0104700D01*
X0037303Y0104700D01*
X0036921Y0104598D01*
X0036579Y0104400D01*
X0036300Y0104121D01*
X0036102Y0103779D01*
X0036000Y0103397D01*
X0036000Y0099700D01*
X0041000Y0099700D01*
X0041000Y0098700D01*
X0042000Y0098700D01*
X0042000Y0093700D01*
X0045697Y0093700D01*
X0046079Y0093802D01*
X0046421Y0094000D01*
X0046700Y0094279D01*
X0047000Y0095382D02*
X0079400Y0095382D01*
X0079400Y0096381D02*
X0047000Y0096381D01*
X0047000Y0097379D02*
X0079400Y0097379D01*
X0079400Y0098378D02*
X0067468Y0098378D01*
X0067753Y0099376D02*
X0079400Y0099376D01*
X0083240Y0101760D02*
X0085500Y0099500D01*
X0095500Y0099500D01*
X0104600Y0108600D01*
X0104600Y0118476D01*
X0102800Y0115353D02*
X0046363Y0115353D01*
X0045993Y0114459D02*
X0046800Y0116407D01*
X0046800Y0118516D01*
X0045993Y0120464D01*
X0044502Y0121955D01*
X0042554Y0122761D01*
X0040446Y0122761D01*
X0038498Y0121955D01*
X0037007Y0120464D01*
X0036200Y0118516D01*
X0036200Y0116407D01*
X0037007Y0114459D01*
X0038498Y0112968D01*
X0040446Y0112161D01*
X0042554Y0112161D01*
X0044502Y0112968D01*
X0045993Y0114459D01*
X0045888Y0114354D02*
X0102800Y0114354D01*
X0102800Y0113356D02*
X0044890Y0113356D01*
X0043027Y0112357D02*
X0059144Y0112357D01*
X0059149Y0112378D02*
X0059047Y0111997D01*
X0059047Y0109740D01*
X0063000Y0109740D01*
X0063000Y0113299D01*
X0060350Y0113299D01*
X0059968Y0113197D01*
X0059626Y0112999D01*
X0059347Y0112720D01*
X0059149Y0112378D01*
X0059047Y0111359D02*
X0024000Y0111359D01*
X0024000Y0112357D02*
X0039973Y0112357D01*
X0038110Y0113356D02*
X0024000Y0113356D01*
X0024000Y0114354D02*
X0037112Y0114354D01*
X0036637Y0115353D02*
X0024000Y0115353D01*
X0024000Y0116351D02*
X0036223Y0116351D01*
X0036200Y0117350D02*
X0024000Y0117350D01*
X0024000Y0118348D02*
X0036200Y0118348D01*
X0036544Y0119347D02*
X0024000Y0119347D01*
X0024000Y0120345D02*
X0036958Y0120345D01*
X0037887Y0121344D02*
X0024000Y0121344D01*
X0024000Y0122342D02*
X0039434Y0122342D01*
X0043566Y0122342D02*
X0084112Y0122342D01*
X0083114Y0123341D02*
X0024000Y0123341D01*
X0024000Y0124339D02*
X0082700Y0124339D01*
X0085111Y0121344D02*
X0045113Y0121344D01*
X0046042Y0120345D02*
X0086109Y0120345D01*
X0085574Y0120880D02*
X0085574Y0120880D01*
X0089600Y0110360D02*
X0102800Y0110360D01*
X0102800Y0109362D02*
X0089600Y0109362D01*
X0089600Y0108363D02*
X0101817Y0108363D01*
X0100819Y0107365D02*
X0089600Y0107365D01*
X0089600Y0106366D02*
X0099820Y0106366D01*
X0098822Y0105368D02*
X0089600Y0105368D01*
X0089600Y0104369D02*
X0097823Y0104369D01*
X0096825Y0103370D02*
X0089600Y0103370D01*
X0089600Y0102372D02*
X0095826Y0102372D01*
X0094828Y0101373D02*
X0089600Y0101373D01*
X0085500Y0099500D02*
X0084500Y0099500D01*
X0083240Y0101760D02*
X0063500Y0101760D01*
X0059247Y0101373D02*
X0047000Y0101373D01*
X0047000Y0100375D02*
X0059247Y0100375D01*
X0059247Y0099376D02*
X0042000Y0099376D01*
X0042000Y0099700D02*
X0047000Y0099700D01*
X0047000Y0103397D01*
X0046898Y0103779D01*
X0046700Y0104121D01*
X0046421Y0104400D01*
X0046079Y0104598D01*
X0045697Y0104700D01*
X0042000Y0104700D01*
X0042000Y0099700D01*
X0042000Y0100375D02*
X0041000Y0100375D01*
X0041000Y0101373D02*
X0042000Y0101373D01*
X0042000Y0102372D02*
X0041000Y0102372D01*
X0041000Y0103370D02*
X0042000Y0103370D01*
X0042000Y0104369D02*
X0041000Y0104369D01*
X0036548Y0104369D02*
X0024000Y0104369D01*
X0024000Y0103370D02*
X0036000Y0103370D01*
X0036000Y0102372D02*
X0024000Y0102372D01*
X0024000Y0101373D02*
X0036000Y0101373D01*
X0036000Y0100375D02*
X0024000Y0100375D01*
X0024000Y0099376D02*
X0041000Y0099376D01*
X0041000Y0098700D02*
X0036000Y0098700D01*
X0036000Y0095003D01*
X0036102Y0094621D01*
X0036300Y0094279D01*
X0036579Y0094000D01*
X0036921Y0093802D01*
X0037303Y0093700D01*
X0041000Y0093700D01*
X0041000Y0098700D01*
X0041000Y0098378D02*
X0042000Y0098378D01*
X0042000Y0097379D02*
X0041000Y0097379D01*
X0041000Y0096381D02*
X0042000Y0096381D01*
X0042000Y0095382D02*
X0041000Y0095382D01*
X0041000Y0094384D02*
X0042000Y0094384D01*
X0047000Y0098378D02*
X0059532Y0098378D01*
X0059247Y0102372D02*
X0047000Y0102372D01*
X0047000Y0103370D02*
X0059247Y0103370D01*
X0059247Y0104369D02*
X0046452Y0104369D01*
X0036000Y0098378D02*
X0024000Y0098378D01*
X0024000Y0097379D02*
X0036000Y0097379D01*
X0036000Y0096381D02*
X0024000Y0096381D01*
X0024000Y0095382D02*
X0036000Y0095382D01*
X0036239Y0094384D02*
X0024000Y0094384D01*
X0024000Y0105368D02*
X0059757Y0105368D01*
X0059079Y0106366D02*
X0024000Y0106366D01*
X0024000Y0107365D02*
X0059047Y0107365D01*
X0059047Y0108363D02*
X0024000Y0108363D01*
X0024000Y0109362D02*
X0063000Y0109362D01*
X0063000Y0110360D02*
X0064000Y0110360D01*
X0064000Y0109362D02*
X0079400Y0109362D01*
X0079400Y0110360D02*
X0067953Y0110360D01*
X0067953Y0111359D02*
X0102800Y0111359D01*
X0102800Y0112357D02*
X0067856Y0112357D01*
X0064000Y0112357D02*
X0063000Y0112357D01*
X0063000Y0111359D02*
X0064000Y0111359D01*
X0067953Y0108363D02*
X0079400Y0108363D01*
X0079400Y0107365D02*
X0067953Y0107365D01*
X0067921Y0106366D02*
X0079400Y0106366D01*
X0079400Y0105368D02*
X0067243Y0105368D01*
X0067753Y0104369D02*
X0079400Y0104369D01*
X0079469Y0088393D02*
X0044623Y0088393D01*
X0045621Y0087394D02*
X0086849Y0087394D01*
X0085850Y0086396D02*
X0046253Y0086396D01*
X0046666Y0085397D02*
X0067852Y0085397D01*
X0066853Y0084399D02*
X0046800Y0084399D01*
X0046800Y0083400D02*
X0065855Y0083400D01*
X0064856Y0082402D02*
X0046566Y0082402D01*
X0046153Y0081403D02*
X0063858Y0081403D01*
X0062859Y0080405D02*
X0045380Y0080405D01*
X0044210Y0079406D02*
X0061861Y0079406D01*
X0063956Y0076411D02*
X0091566Y0076411D01*
X0091566Y0077409D02*
X0064955Y0077409D01*
X0065953Y0078408D02*
X0091566Y0078408D01*
X0091566Y0079406D02*
X0066952Y0079406D01*
X0067950Y0080405D02*
X0091566Y0080405D01*
X0091566Y0081403D02*
X0068949Y0081403D01*
X0069947Y0082402D02*
X0091566Y0082402D01*
X0091566Y0083400D02*
X0087946Y0083400D01*
X0088944Y0084399D02*
X0091566Y0084399D01*
X0091566Y0085397D02*
X0089943Y0085397D01*
X0090941Y0086396D02*
X0091566Y0086396D01*
X0086500Y0084500D02*
X0110476Y0108476D01*
X0110476Y0112600D01*
X0113626Y0112600D02*
X0113626Y0107626D01*
X0116776Y0106776D02*
X0116776Y0112600D01*
X0101287Y0116351D02*
X0046777Y0116351D01*
X0046800Y0117350D02*
X0100800Y0117350D01*
X0100800Y0118348D02*
X0046800Y0118348D01*
X0046456Y0119347D02*
X0100800Y0119347D01*
X0061047Y0128333D02*
X0044688Y0128333D01*
X0059047Y0110360D02*
X0024000Y0110360D01*
X0043834Y0076411D02*
X0058865Y0076411D01*
X0057867Y0075412D02*
X0045224Y0075412D01*
X0046088Y0074414D02*
X0056868Y0074414D01*
X0055870Y0073415D02*
X0046502Y0073415D01*
X0046800Y0072417D02*
X0054871Y0072417D01*
X0053873Y0071418D02*
X0046800Y0071418D01*
X0046731Y0070420D02*
X0052874Y0070420D01*
X0051876Y0069421D02*
X0046317Y0069421D01*
X0045777Y0068423D02*
X0050877Y0068423D01*
X0049879Y0067424D02*
X0044778Y0067424D01*
X0049977Y0062432D02*
X0091566Y0062432D01*
X0091566Y0063430D02*
X0050976Y0063430D01*
X0051974Y0064429D02*
X0091566Y0064429D01*
X0091566Y0065427D02*
X0052973Y0065427D01*
X0053971Y0066426D02*
X0091566Y0066426D01*
X0091566Y0067424D02*
X0054970Y0067424D01*
X0055968Y0068423D02*
X0091566Y0068423D01*
X0091566Y0069421D02*
X0056967Y0069421D01*
X0057965Y0070420D02*
X0091566Y0070420D01*
X0091566Y0071418D02*
X0058964Y0071418D01*
X0059962Y0072417D02*
X0091566Y0072417D01*
X0091566Y0073415D02*
X0060961Y0073415D01*
X0061959Y0074414D02*
X0091566Y0074414D01*
X0091566Y0075412D02*
X0062958Y0075412D01*
X0069500Y0084500D02*
X0041500Y0056500D01*
X0041500Y0056461D01*
X0046401Y0054443D02*
X0091566Y0054443D01*
X0091566Y0053445D02*
X0045979Y0053445D01*
X0044980Y0052446D02*
X0091566Y0052446D01*
X0091566Y0051448D02*
X0043246Y0051448D01*
X0046800Y0055442D02*
X0091566Y0055442D01*
X0091566Y0056440D02*
X0046800Y0056440D01*
X0046800Y0057439D02*
X0091566Y0057439D01*
X0091566Y0058437D02*
X0046418Y0058437D01*
X0046982Y0059436D02*
X0091566Y0059436D01*
X0091566Y0060434D02*
X0047980Y0060434D01*
X0048979Y0061433D02*
X0091566Y0061433D01*
X0097851Y0040464D02*
X0106598Y0040464D01*
X0105600Y0039466D02*
X0098849Y0039466D01*
X0089607Y0034473D02*
X0087283Y0034473D01*
X0087555Y0035472D02*
X0089335Y0035472D01*
X0089335Y0036470D02*
X0087555Y0036470D01*
X0087460Y0037469D02*
X0089430Y0037469D01*
X0090021Y0033475D02*
X0086869Y0033475D01*
X0086042Y0032476D02*
X0090848Y0032476D01*
X0092150Y0031478D02*
X0084740Y0031478D01*
X0079770Y0031478D02*
X0072399Y0031478D01*
X0072473Y0031606D02*
X0072576Y0031988D01*
X0072576Y0035685D01*
X0067576Y0035685D01*
X0067576Y0030685D01*
X0071273Y0030685D01*
X0071655Y0030787D01*
X0071997Y0030985D01*
X0072276Y0031264D01*
X0072473Y0031606D01*
X0072576Y0032476D02*
X0078469Y0032476D01*
X0077641Y0033475D02*
X0072576Y0033475D01*
X0072576Y0034473D02*
X0077227Y0034473D01*
X0076955Y0035472D02*
X0072576Y0035472D01*
X0072576Y0037469D02*
X0077050Y0037469D01*
X0076955Y0036470D02*
X0067576Y0036470D01*
X0067576Y0035472D02*
X0066576Y0035472D01*
X0066576Y0036470D02*
X0044499Y0036470D01*
X0066576Y0037469D02*
X0067576Y0037469D01*
X0067576Y0038467D02*
X0066576Y0038467D01*
X0066576Y0039466D02*
X0067576Y0039466D01*
X0067576Y0040464D02*
X0066576Y0040464D01*
X0066576Y0041463D02*
X0067576Y0041463D01*
X0071862Y0041463D02*
X0081147Y0041463D01*
X0079039Y0040464D02*
X0072554Y0040464D01*
X0072576Y0039466D02*
X0078041Y0039466D01*
X0077464Y0038467D02*
X0072576Y0038467D01*
X0067576Y0034473D02*
X0066576Y0034473D01*
X0066576Y0033475D02*
X0067576Y0033475D01*
X0067576Y0032476D02*
X0066576Y0032476D01*
X0066576Y0031478D02*
X0067576Y0031478D01*
X0069500Y0084500D02*
X0086500Y0084500D01*
X0149227Y0138318D02*
X0178606Y0138318D01*
X0178606Y0137320D02*
X0150226Y0137320D01*
X0151224Y0136321D02*
X0178606Y0136321D01*
X0178606Y0135323D02*
X0152223Y0135323D01*
X0153221Y0134324D02*
X0178606Y0134324D01*
X0178606Y0133326D02*
X0154220Y0133326D01*
X0155218Y0132327D02*
X0178673Y0132327D01*
X0178606Y0139317D02*
X0148229Y0139317D01*
X0147230Y0140315D02*
X0178606Y0140315D01*
X0178533Y0158289D02*
X0178606Y0158289D01*
X0178606Y0159287D02*
X0177534Y0159287D01*
X0176536Y0160286D02*
X0178606Y0160286D01*
X0132730Y0167275D02*
X0128024Y0167275D01*
X0128024Y0166277D02*
X0131731Y0166277D01*
X0130733Y0165278D02*
X0128024Y0165278D01*
X0128024Y0164280D02*
X0129734Y0164280D01*
X0128736Y0163281D02*
X0128024Y0163281D01*
X0104850Y0181254D02*
X0084454Y0181254D01*
X0085572Y0182253D02*
X0103691Y0182253D01*
X0103005Y0183251D02*
X0086203Y0183251D01*
X0086576Y0184250D02*
X0102591Y0184250D01*
X0082091Y0184250D02*
X0081319Y0184250D01*
X0081319Y0183251D02*
X0082091Y0183251D01*
X0082091Y0182253D02*
X0081319Y0182253D01*
X0081319Y0181254D02*
X0082091Y0181254D01*
X0078955Y0181254D02*
X0056432Y0181254D01*
X0055434Y0182253D02*
X0077838Y0182253D01*
X0077207Y0183251D02*
X0054435Y0183251D01*
X0053437Y0184250D02*
X0076833Y0184250D01*
X0081319Y0186247D02*
X0082091Y0186247D01*
X0082091Y0187245D02*
X0081319Y0187245D01*
X0081319Y0188244D02*
X0082091Y0188244D01*
X0082091Y0189242D02*
X0081319Y0189242D01*
X0062641Y0172500D02*
X0041500Y0193641D01*
X0045350Y0187245D02*
X0024000Y0187245D01*
X0024000Y0186247D02*
X0046348Y0186247D01*
X0047347Y0185248D02*
X0024000Y0185248D01*
X0024000Y0184250D02*
X0048345Y0184250D01*
X0049193Y0176262D02*
X0046326Y0176262D01*
X0045797Y0175263D02*
X0050191Y0175263D01*
X0051190Y0174265D02*
X0044799Y0174265D01*
X0042807Y0173266D02*
X0052188Y0173266D01*
X0286216Y0178259D02*
X0291010Y0178259D01*
X0304248Y0188244D02*
X0321000Y0188244D01*
X0321000Y0189242D02*
X0304140Y0189242D01*
X0303930Y0190241D02*
X0321000Y0190241D01*
X0321000Y0191239D02*
X0303611Y0191239D01*
X0303172Y0192238D02*
X0321000Y0192238D01*
X0321000Y0193237D02*
X0302592Y0193237D01*
X0301843Y0194235D02*
X0321000Y0194235D01*
X0321000Y0195234D02*
X0300866Y0195234D01*
X0299498Y0196232D02*
X0321000Y0196232D01*
X0321000Y0201225D02*
X0309737Y0201225D01*
X0311444Y0202223D02*
X0321000Y0202223D01*
X0321000Y0203222D02*
X0312443Y0203222D01*
X0313200Y0204220D02*
X0321000Y0204220D01*
X0321000Y0205219D02*
X0313614Y0205219D01*
X0314028Y0206217D02*
X0321000Y0206217D01*
X0321000Y0207216D02*
X0314157Y0207216D01*
X0314157Y0208214D02*
X0321000Y0208214D01*
X0321000Y0209213D02*
X0314157Y0209213D01*
X0313853Y0210211D02*
X0321000Y0210211D01*
X0321000Y0211210D02*
X0313440Y0211210D01*
X0313021Y0212208D02*
X0321000Y0212208D01*
X0321000Y0213207D02*
X0312022Y0213207D01*
X0311024Y0214205D02*
X0321000Y0214205D01*
X0298373Y0224190D02*
X0295663Y0224190D01*
X0296662Y0225189D02*
X0296927Y0225189D01*
X0315873Y0167275D02*
X0321000Y0167275D01*
X0321000Y0166277D02*
X0315625Y0166277D01*
X0315262Y0165278D02*
X0321000Y0165278D01*
X0321000Y0164280D02*
X0314767Y0164280D01*
X0314116Y0163281D02*
X0321000Y0163281D01*
X0321000Y0162283D02*
X0313267Y0162283D01*
X0312151Y0161284D02*
X0321000Y0161284D01*
X0321000Y0160286D02*
X0310561Y0160286D01*
X0308346Y0132327D02*
X0307346Y0132327D01*
X0307346Y0131329D02*
X0308346Y0131329D01*
X0308346Y0130330D02*
X0307346Y0130330D01*
X0307346Y0129332D02*
X0308346Y0129332D01*
X0302553Y0094384D02*
X0301880Y0094384D01*
X0301880Y0093385D02*
X0302553Y0093385D01*
X0302553Y0092387D02*
X0301880Y0092387D01*
X0295901Y0079406D02*
X0289139Y0079406D01*
X0290138Y0078408D02*
X0295901Y0078408D01*
X0296304Y0077409D02*
X0291136Y0077409D01*
X0303216Y0077409D02*
X0303784Y0077409D01*
D29*
X0244500Y0089500D03*
X0224850Y0097209D03*
X0227500Y0107500D03*
X0231161Y0152327D03*
X0231161Y0168075D03*
X0229193Y0185791D03*
X0254783Y0199571D03*
X0260689Y0203508D03*
X0270531Y0207445D03*
X0280374Y0205476D03*
X0158500Y0160500D03*
X0120500Y0138500D03*
X0099500Y0140500D03*
X0098500Y0134500D03*
X0097500Y0146500D03*
X0145500Y0121500D03*
X0162500Y0103500D03*
X0158500Y0095500D03*
X0174500Y0095500D03*
X0173500Y0105500D03*
X0103500Y0215374D03*
X0152421Y0242878D03*
D30*
X0148657Y0239114D01*
X0148657Y0221280D01*
X0158327Y0220949D02*
X0158327Y0213350D01*
X0156358Y0211382D01*
X0124862Y0211382D01*
X0122894Y0209413D01*
X0122894Y0195634D01*
X0146516Y0172012D01*
X0215413Y0172012D01*
X0225256Y0162169D01*
X0225256Y0152220D01*
X0219472Y0146437D01*
X0231161Y0152327D02*
X0246909Y0152327D01*
X0248878Y0150358D01*
X0248878Y0144563D01*
X0256933Y0144563D01*
X0263626Y0144563D02*
X0274469Y0133720D01*
X0274469Y0130673D01*
X0271602Y0127807D01*
X0271602Y0125398D01*
X0271500Y0125500D01*
X0271500Y0126500D01*
X0271602Y0125398D02*
X0271602Y0119476D01*
X0271579Y0119500D01*
X0262846Y0119500D01*
X0262846Y0110500D02*
X0270500Y0110500D01*
X0271602Y0109398D01*
X0271602Y0101524D01*
X0271602Y0087398D01*
X0276500Y0082500D01*
X0298760Y0082500D01*
X0299760Y0081500D01*
X0307240Y0081500D02*
X0307240Y0091043D01*
X0306783Y0091500D01*
X0306783Y0104059D01*
X0300343Y0110500D01*
X0301154Y0128500D02*
X0298980Y0130673D01*
X0274469Y0130673D01*
X0263626Y0144563D02*
X0263626Y0160902D01*
X0263626Y0168075D01*
X0264768Y0169217D01*
X0282437Y0169217D01*
X0263626Y0168075D02*
X0263626Y0176461D01*
X0263626Y0192020D01*
X0269209Y0197602D01*
X0276437Y0197602D01*
X0280374Y0201539D01*
X0280374Y0205476D01*
X0275665Y0207445D02*
X0270531Y0207445D01*
X0275665Y0207445D02*
X0300343Y0232122D01*
X0300343Y0234720D01*
X0300059Y0235004D01*
X0300059Y0242878D01*
X0296122Y0246815D01*
X0224193Y0246815D01*
X0198657Y0221280D01*
X0195728Y0211382D02*
X0193657Y0209311D01*
X0193657Y0201280D01*
X0195728Y0211382D02*
X0203602Y0211382D01*
X0235098Y0242878D01*
X0269902Y0242878D01*
X0280657Y0232122D01*
X0280657Y0223476D01*
X0260689Y0203508D01*
X0256406Y0201193D02*
X0254783Y0199571D01*
X0256406Y0201193D02*
X0256406Y0232122D01*
X0236720Y0232122D02*
X0236720Y0211728D01*
X0248878Y0199571D01*
X0248878Y0192020D01*
X0256933Y0192020D01*
X0248878Y0192020D02*
X0241075Y0192020D01*
X0246909Y0183823D02*
X0231161Y0183823D01*
X0229193Y0185791D01*
X0241075Y0176461D02*
X0248878Y0176461D01*
X0248878Y0181854D01*
X0246909Y0183823D01*
X0248878Y0176461D02*
X0256933Y0176461D01*
X0246909Y0168075D02*
X0248878Y0166106D01*
X0248878Y0160902D01*
X0256933Y0160902D01*
X0248878Y0160902D02*
X0241075Y0160902D01*
X0246909Y0168075D02*
X0231161Y0168075D01*
X0241295Y0144563D02*
X0248878Y0144563D01*
X0241295Y0144563D02*
X0241075Y0144343D01*
X0256500Y0101500D02*
X0244500Y0089500D01*
X0256500Y0101500D02*
X0271579Y0101500D01*
X0271602Y0101524D01*
X0181213Y0095500D02*
X0174500Y0095500D01*
X0158500Y0095500D02*
X0152500Y0089500D01*
X0151500Y0089500D01*
X0158327Y0220949D02*
X0158657Y0221280D01*
M02*
