G75*
%MOIN*%
%OFA0B0*%
%FSLAX25Y25*%
%IPPOS*%
%LPD*%
%AMOC8*
5,1,8,0,0,1.08239X$1,22.5*
%
%ADD10C,0.00000*%
D10*
X0022500Y0029942D02*
X0022500Y0244322D01*
X0022503Y0244586D01*
X0022513Y0244850D01*
X0022529Y0245113D01*
X0022551Y0245377D01*
X0022580Y0245639D01*
X0022615Y0245901D01*
X0022656Y0246161D01*
X0022704Y0246421D01*
X0022757Y0246680D01*
X0022817Y0246937D01*
X0022884Y0247192D01*
X0022956Y0247446D01*
X0023035Y0247698D01*
X0023119Y0247948D01*
X0023210Y0248196D01*
X0023307Y0248442D01*
X0023409Y0248685D01*
X0023517Y0248926D01*
X0023632Y0249164D01*
X0023752Y0249400D01*
X0023877Y0249632D01*
X0024008Y0249861D01*
X0024145Y0250087D01*
X0024287Y0250310D01*
X0024434Y0250529D01*
X0024587Y0250744D01*
X0024744Y0250956D01*
X0024907Y0251164D01*
X0025075Y0251368D01*
X0025248Y0251567D01*
X0025425Y0251763D01*
X0025607Y0251954D01*
X0025794Y0252141D01*
X0025985Y0252323D01*
X0026181Y0252500D01*
X0026380Y0252673D01*
X0026584Y0252841D01*
X0026792Y0253004D01*
X0027004Y0253161D01*
X0027219Y0253314D01*
X0027438Y0253461D01*
X0027661Y0253603D01*
X0027887Y0253740D01*
X0028116Y0253871D01*
X0028348Y0253996D01*
X0028584Y0254116D01*
X0028822Y0254231D01*
X0029063Y0254339D01*
X0029306Y0254441D01*
X0029552Y0254538D01*
X0029800Y0254629D01*
X0030050Y0254713D01*
X0030302Y0254792D01*
X0030556Y0254864D01*
X0030811Y0254931D01*
X0031068Y0254991D01*
X0031327Y0255044D01*
X0031587Y0255092D01*
X0031847Y0255133D01*
X0032109Y0255168D01*
X0032371Y0255197D01*
X0032635Y0255219D01*
X0032898Y0255235D01*
X0033162Y0255245D01*
X0033426Y0255248D01*
X0310270Y0255248D01*
X0310566Y0255244D01*
X0310861Y0255234D01*
X0311156Y0255216D01*
X0311450Y0255191D01*
X0311744Y0255159D01*
X0312037Y0255120D01*
X0312329Y0255073D01*
X0312620Y0255020D01*
X0312909Y0254960D01*
X0313197Y0254893D01*
X0313483Y0254818D01*
X0313767Y0254737D01*
X0314049Y0254649D01*
X0314329Y0254555D01*
X0314607Y0254453D01*
X0314882Y0254345D01*
X0315154Y0254230D01*
X0315424Y0254109D01*
X0315690Y0253981D01*
X0315954Y0253847D01*
X0316214Y0253707D01*
X0316470Y0253560D01*
X0316723Y0253407D01*
X0316972Y0253248D01*
X0317217Y0253083D01*
X0317459Y0252912D01*
X0317696Y0252736D01*
X0317928Y0252553D01*
X0318156Y0252366D01*
X0318380Y0252172D01*
X0318599Y0251974D01*
X0318813Y0251770D01*
X0319022Y0251561D01*
X0319226Y0251347D01*
X0319424Y0251128D01*
X0319618Y0250904D01*
X0319805Y0250676D01*
X0319988Y0250444D01*
X0320164Y0250207D01*
X0320335Y0249965D01*
X0320500Y0249720D01*
X0320659Y0249471D01*
X0320812Y0249218D01*
X0320959Y0248962D01*
X0321099Y0248702D01*
X0321233Y0248438D01*
X0321361Y0248172D01*
X0321482Y0247902D01*
X0321597Y0247630D01*
X0321705Y0247355D01*
X0321807Y0247077D01*
X0321901Y0246797D01*
X0321989Y0246515D01*
X0322070Y0246231D01*
X0322145Y0245945D01*
X0322212Y0245657D01*
X0322272Y0245368D01*
X0322325Y0245077D01*
X0322372Y0244785D01*
X0322411Y0244492D01*
X0322443Y0244198D01*
X0322468Y0243904D01*
X0322486Y0243609D01*
X0322496Y0243314D01*
X0322500Y0243018D01*
X0322500Y0027506D01*
X0322497Y0027240D01*
X0322487Y0026974D01*
X0322471Y0026709D01*
X0322449Y0026444D01*
X0322420Y0026179D01*
X0322385Y0025916D01*
X0322343Y0025653D01*
X0322295Y0025391D01*
X0322241Y0025131D01*
X0322180Y0024872D01*
X0322113Y0024615D01*
X0322040Y0024359D01*
X0321961Y0024105D01*
X0321876Y0023853D01*
X0321785Y0023603D01*
X0321687Y0023356D01*
X0321584Y0023111D01*
X0321475Y0022868D01*
X0321360Y0022628D01*
X0321239Y0022391D01*
X0321113Y0022157D01*
X0320981Y0021926D01*
X0320843Y0021699D01*
X0320700Y0021475D01*
X0320552Y0021254D01*
X0320398Y0021037D01*
X0320239Y0020824D01*
X0320075Y0020614D01*
X0319906Y0020409D01*
X0319732Y0020208D01*
X0319553Y0020011D01*
X0319370Y0019818D01*
X0319182Y0019630D01*
X0318989Y0019447D01*
X0318792Y0019268D01*
X0318591Y0019094D01*
X0318386Y0018925D01*
X0318176Y0018761D01*
X0317963Y0018602D01*
X0317746Y0018448D01*
X0317525Y0018300D01*
X0317301Y0018157D01*
X0317074Y0018019D01*
X0316843Y0017887D01*
X0316609Y0017761D01*
X0316372Y0017640D01*
X0316132Y0017525D01*
X0315889Y0017416D01*
X0315644Y0017313D01*
X0315397Y0017215D01*
X0315147Y0017124D01*
X0314895Y0017039D01*
X0314641Y0016960D01*
X0314385Y0016887D01*
X0314128Y0016820D01*
X0313869Y0016759D01*
X0313609Y0016705D01*
X0313347Y0016657D01*
X0313084Y0016615D01*
X0312821Y0016580D01*
X0312556Y0016551D01*
X0312291Y0016529D01*
X0312026Y0016513D01*
X0311760Y0016503D01*
X0311494Y0016500D01*
X0035942Y0016500D01*
X0035617Y0016504D01*
X0035293Y0016516D01*
X0034968Y0016535D01*
X0034645Y0016563D01*
X0034322Y0016598D01*
X0034000Y0016641D01*
X0033679Y0016692D01*
X0033359Y0016750D01*
X0033041Y0016817D01*
X0032725Y0016891D01*
X0032411Y0016972D01*
X0032098Y0017061D01*
X0031788Y0017158D01*
X0031480Y0017262D01*
X0031175Y0017374D01*
X0030873Y0017492D01*
X0030574Y0017618D01*
X0030278Y0017752D01*
X0029985Y0017892D01*
X0029695Y0018040D01*
X0029409Y0018194D01*
X0029127Y0018355D01*
X0028849Y0018523D01*
X0028576Y0018698D01*
X0028306Y0018879D01*
X0028041Y0019067D01*
X0027781Y0019261D01*
X0027525Y0019462D01*
X0027274Y0019668D01*
X0027028Y0019881D01*
X0026788Y0020099D01*
X0026553Y0020323D01*
X0026323Y0020553D01*
X0026099Y0020788D01*
X0025881Y0021028D01*
X0025668Y0021274D01*
X0025462Y0021525D01*
X0025261Y0021781D01*
X0025067Y0022041D01*
X0024879Y0022306D01*
X0024698Y0022576D01*
X0024523Y0022849D01*
X0024355Y0023127D01*
X0024194Y0023409D01*
X0024040Y0023695D01*
X0023892Y0023985D01*
X0023752Y0024278D01*
X0023618Y0024574D01*
X0023492Y0024873D01*
X0023374Y0025175D01*
X0023262Y0025480D01*
X0023158Y0025788D01*
X0023061Y0026098D01*
X0022972Y0026411D01*
X0022891Y0026725D01*
X0022817Y0027041D01*
X0022750Y0027359D01*
X0022692Y0027679D01*
X0022641Y0028000D01*
X0022598Y0028322D01*
X0022563Y0028645D01*
X0022535Y0028968D01*
X0022516Y0029293D01*
X0022504Y0029617D01*
X0022500Y0029942D01*
X0032342Y0032248D02*
X0032344Y0032401D01*
X0032350Y0032555D01*
X0032360Y0032708D01*
X0032374Y0032860D01*
X0032392Y0033013D01*
X0032414Y0033164D01*
X0032439Y0033315D01*
X0032469Y0033466D01*
X0032503Y0033616D01*
X0032540Y0033764D01*
X0032581Y0033912D01*
X0032626Y0034058D01*
X0032675Y0034204D01*
X0032728Y0034348D01*
X0032784Y0034490D01*
X0032844Y0034631D01*
X0032908Y0034771D01*
X0032975Y0034909D01*
X0033046Y0035045D01*
X0033121Y0035179D01*
X0033198Y0035311D01*
X0033280Y0035441D01*
X0033364Y0035569D01*
X0033452Y0035695D01*
X0033543Y0035818D01*
X0033637Y0035939D01*
X0033735Y0036057D01*
X0033835Y0036173D01*
X0033939Y0036286D01*
X0034045Y0036397D01*
X0034154Y0036505D01*
X0034266Y0036610D01*
X0034380Y0036711D01*
X0034498Y0036810D01*
X0034617Y0036906D01*
X0034739Y0036999D01*
X0034864Y0037088D01*
X0034991Y0037175D01*
X0035120Y0037257D01*
X0035251Y0037337D01*
X0035384Y0037413D01*
X0035519Y0037486D01*
X0035656Y0037555D01*
X0035795Y0037620D01*
X0035935Y0037682D01*
X0036077Y0037740D01*
X0036220Y0037795D01*
X0036365Y0037846D01*
X0036511Y0037893D01*
X0036658Y0037936D01*
X0036806Y0037975D01*
X0036955Y0038011D01*
X0037105Y0038042D01*
X0037256Y0038070D01*
X0037407Y0038094D01*
X0037560Y0038114D01*
X0037712Y0038130D01*
X0037865Y0038142D01*
X0038018Y0038150D01*
X0038171Y0038154D01*
X0038325Y0038154D01*
X0038478Y0038150D01*
X0038631Y0038142D01*
X0038784Y0038130D01*
X0038936Y0038114D01*
X0039089Y0038094D01*
X0039240Y0038070D01*
X0039391Y0038042D01*
X0039541Y0038011D01*
X0039690Y0037975D01*
X0039838Y0037936D01*
X0039985Y0037893D01*
X0040131Y0037846D01*
X0040276Y0037795D01*
X0040419Y0037740D01*
X0040561Y0037682D01*
X0040701Y0037620D01*
X0040840Y0037555D01*
X0040977Y0037486D01*
X0041112Y0037413D01*
X0041245Y0037337D01*
X0041376Y0037257D01*
X0041505Y0037175D01*
X0041632Y0037088D01*
X0041757Y0036999D01*
X0041879Y0036906D01*
X0041998Y0036810D01*
X0042116Y0036711D01*
X0042230Y0036610D01*
X0042342Y0036505D01*
X0042451Y0036397D01*
X0042557Y0036286D01*
X0042661Y0036173D01*
X0042761Y0036057D01*
X0042859Y0035939D01*
X0042953Y0035818D01*
X0043044Y0035695D01*
X0043132Y0035569D01*
X0043216Y0035441D01*
X0043298Y0035311D01*
X0043375Y0035179D01*
X0043450Y0035045D01*
X0043521Y0034909D01*
X0043588Y0034771D01*
X0043652Y0034631D01*
X0043712Y0034490D01*
X0043768Y0034348D01*
X0043821Y0034204D01*
X0043870Y0034058D01*
X0043915Y0033912D01*
X0043956Y0033764D01*
X0043993Y0033616D01*
X0044027Y0033466D01*
X0044057Y0033315D01*
X0044082Y0033164D01*
X0044104Y0033013D01*
X0044122Y0032860D01*
X0044136Y0032708D01*
X0044146Y0032555D01*
X0044152Y0032401D01*
X0044154Y0032248D01*
X0044152Y0032095D01*
X0044146Y0031941D01*
X0044136Y0031788D01*
X0044122Y0031636D01*
X0044104Y0031483D01*
X0044082Y0031332D01*
X0044057Y0031181D01*
X0044027Y0031030D01*
X0043993Y0030880D01*
X0043956Y0030732D01*
X0043915Y0030584D01*
X0043870Y0030438D01*
X0043821Y0030292D01*
X0043768Y0030148D01*
X0043712Y0030006D01*
X0043652Y0029865D01*
X0043588Y0029725D01*
X0043521Y0029587D01*
X0043450Y0029451D01*
X0043375Y0029317D01*
X0043298Y0029185D01*
X0043216Y0029055D01*
X0043132Y0028927D01*
X0043044Y0028801D01*
X0042953Y0028678D01*
X0042859Y0028557D01*
X0042761Y0028439D01*
X0042661Y0028323D01*
X0042557Y0028210D01*
X0042451Y0028099D01*
X0042342Y0027991D01*
X0042230Y0027886D01*
X0042116Y0027785D01*
X0041998Y0027686D01*
X0041879Y0027590D01*
X0041757Y0027497D01*
X0041632Y0027408D01*
X0041505Y0027321D01*
X0041376Y0027239D01*
X0041245Y0027159D01*
X0041112Y0027083D01*
X0040977Y0027010D01*
X0040840Y0026941D01*
X0040701Y0026876D01*
X0040561Y0026814D01*
X0040419Y0026756D01*
X0040276Y0026701D01*
X0040131Y0026650D01*
X0039985Y0026603D01*
X0039838Y0026560D01*
X0039690Y0026521D01*
X0039541Y0026485D01*
X0039391Y0026454D01*
X0039240Y0026426D01*
X0039089Y0026402D01*
X0038936Y0026382D01*
X0038784Y0026366D01*
X0038631Y0026354D01*
X0038478Y0026346D01*
X0038325Y0026342D01*
X0038171Y0026342D01*
X0038018Y0026346D01*
X0037865Y0026354D01*
X0037712Y0026366D01*
X0037560Y0026382D01*
X0037407Y0026402D01*
X0037256Y0026426D01*
X0037105Y0026454D01*
X0036955Y0026485D01*
X0036806Y0026521D01*
X0036658Y0026560D01*
X0036511Y0026603D01*
X0036365Y0026650D01*
X0036220Y0026701D01*
X0036077Y0026756D01*
X0035935Y0026814D01*
X0035795Y0026876D01*
X0035656Y0026941D01*
X0035519Y0027010D01*
X0035384Y0027083D01*
X0035251Y0027159D01*
X0035120Y0027239D01*
X0034991Y0027321D01*
X0034864Y0027408D01*
X0034739Y0027497D01*
X0034617Y0027590D01*
X0034498Y0027686D01*
X0034380Y0027785D01*
X0034266Y0027886D01*
X0034154Y0027991D01*
X0034045Y0028099D01*
X0033939Y0028210D01*
X0033835Y0028323D01*
X0033735Y0028439D01*
X0033637Y0028557D01*
X0033543Y0028678D01*
X0033452Y0028801D01*
X0033364Y0028927D01*
X0033280Y0029055D01*
X0033198Y0029185D01*
X0033121Y0029317D01*
X0033046Y0029451D01*
X0032975Y0029587D01*
X0032908Y0029725D01*
X0032844Y0029865D01*
X0032784Y0030006D01*
X0032728Y0030148D01*
X0032675Y0030292D01*
X0032626Y0030438D01*
X0032581Y0030584D01*
X0032540Y0030732D01*
X0032503Y0030880D01*
X0032469Y0031030D01*
X0032439Y0031181D01*
X0032414Y0031332D01*
X0032392Y0031483D01*
X0032374Y0031636D01*
X0032360Y0031788D01*
X0032350Y0031941D01*
X0032344Y0032095D01*
X0032342Y0032248D01*
X0032342Y0239500D02*
X0032344Y0239653D01*
X0032350Y0239807D01*
X0032360Y0239960D01*
X0032374Y0240112D01*
X0032392Y0240265D01*
X0032414Y0240416D01*
X0032439Y0240567D01*
X0032469Y0240718D01*
X0032503Y0240868D01*
X0032540Y0241016D01*
X0032581Y0241164D01*
X0032626Y0241310D01*
X0032675Y0241456D01*
X0032728Y0241600D01*
X0032784Y0241742D01*
X0032844Y0241883D01*
X0032908Y0242023D01*
X0032975Y0242161D01*
X0033046Y0242297D01*
X0033121Y0242431D01*
X0033198Y0242563D01*
X0033280Y0242693D01*
X0033364Y0242821D01*
X0033452Y0242947D01*
X0033543Y0243070D01*
X0033637Y0243191D01*
X0033735Y0243309D01*
X0033835Y0243425D01*
X0033939Y0243538D01*
X0034045Y0243649D01*
X0034154Y0243757D01*
X0034266Y0243862D01*
X0034380Y0243963D01*
X0034498Y0244062D01*
X0034617Y0244158D01*
X0034739Y0244251D01*
X0034864Y0244340D01*
X0034991Y0244427D01*
X0035120Y0244509D01*
X0035251Y0244589D01*
X0035384Y0244665D01*
X0035519Y0244738D01*
X0035656Y0244807D01*
X0035795Y0244872D01*
X0035935Y0244934D01*
X0036077Y0244992D01*
X0036220Y0245047D01*
X0036365Y0245098D01*
X0036511Y0245145D01*
X0036658Y0245188D01*
X0036806Y0245227D01*
X0036955Y0245263D01*
X0037105Y0245294D01*
X0037256Y0245322D01*
X0037407Y0245346D01*
X0037560Y0245366D01*
X0037712Y0245382D01*
X0037865Y0245394D01*
X0038018Y0245402D01*
X0038171Y0245406D01*
X0038325Y0245406D01*
X0038478Y0245402D01*
X0038631Y0245394D01*
X0038784Y0245382D01*
X0038936Y0245366D01*
X0039089Y0245346D01*
X0039240Y0245322D01*
X0039391Y0245294D01*
X0039541Y0245263D01*
X0039690Y0245227D01*
X0039838Y0245188D01*
X0039985Y0245145D01*
X0040131Y0245098D01*
X0040276Y0245047D01*
X0040419Y0244992D01*
X0040561Y0244934D01*
X0040701Y0244872D01*
X0040840Y0244807D01*
X0040977Y0244738D01*
X0041112Y0244665D01*
X0041245Y0244589D01*
X0041376Y0244509D01*
X0041505Y0244427D01*
X0041632Y0244340D01*
X0041757Y0244251D01*
X0041879Y0244158D01*
X0041998Y0244062D01*
X0042116Y0243963D01*
X0042230Y0243862D01*
X0042342Y0243757D01*
X0042451Y0243649D01*
X0042557Y0243538D01*
X0042661Y0243425D01*
X0042761Y0243309D01*
X0042859Y0243191D01*
X0042953Y0243070D01*
X0043044Y0242947D01*
X0043132Y0242821D01*
X0043216Y0242693D01*
X0043298Y0242563D01*
X0043375Y0242431D01*
X0043450Y0242297D01*
X0043521Y0242161D01*
X0043588Y0242023D01*
X0043652Y0241883D01*
X0043712Y0241742D01*
X0043768Y0241600D01*
X0043821Y0241456D01*
X0043870Y0241310D01*
X0043915Y0241164D01*
X0043956Y0241016D01*
X0043993Y0240868D01*
X0044027Y0240718D01*
X0044057Y0240567D01*
X0044082Y0240416D01*
X0044104Y0240265D01*
X0044122Y0240112D01*
X0044136Y0239960D01*
X0044146Y0239807D01*
X0044152Y0239653D01*
X0044154Y0239500D01*
X0044152Y0239347D01*
X0044146Y0239193D01*
X0044136Y0239040D01*
X0044122Y0238888D01*
X0044104Y0238735D01*
X0044082Y0238584D01*
X0044057Y0238433D01*
X0044027Y0238282D01*
X0043993Y0238132D01*
X0043956Y0237984D01*
X0043915Y0237836D01*
X0043870Y0237690D01*
X0043821Y0237544D01*
X0043768Y0237400D01*
X0043712Y0237258D01*
X0043652Y0237117D01*
X0043588Y0236977D01*
X0043521Y0236839D01*
X0043450Y0236703D01*
X0043375Y0236569D01*
X0043298Y0236437D01*
X0043216Y0236307D01*
X0043132Y0236179D01*
X0043044Y0236053D01*
X0042953Y0235930D01*
X0042859Y0235809D01*
X0042761Y0235691D01*
X0042661Y0235575D01*
X0042557Y0235462D01*
X0042451Y0235351D01*
X0042342Y0235243D01*
X0042230Y0235138D01*
X0042116Y0235037D01*
X0041998Y0234938D01*
X0041879Y0234842D01*
X0041757Y0234749D01*
X0041632Y0234660D01*
X0041505Y0234573D01*
X0041376Y0234491D01*
X0041245Y0234411D01*
X0041112Y0234335D01*
X0040977Y0234262D01*
X0040840Y0234193D01*
X0040701Y0234128D01*
X0040561Y0234066D01*
X0040419Y0234008D01*
X0040276Y0233953D01*
X0040131Y0233902D01*
X0039985Y0233855D01*
X0039838Y0233812D01*
X0039690Y0233773D01*
X0039541Y0233737D01*
X0039391Y0233706D01*
X0039240Y0233678D01*
X0039089Y0233654D01*
X0038936Y0233634D01*
X0038784Y0233618D01*
X0038631Y0233606D01*
X0038478Y0233598D01*
X0038325Y0233594D01*
X0038171Y0233594D01*
X0038018Y0233598D01*
X0037865Y0233606D01*
X0037712Y0233618D01*
X0037560Y0233634D01*
X0037407Y0233654D01*
X0037256Y0233678D01*
X0037105Y0233706D01*
X0036955Y0233737D01*
X0036806Y0233773D01*
X0036658Y0233812D01*
X0036511Y0233855D01*
X0036365Y0233902D01*
X0036220Y0233953D01*
X0036077Y0234008D01*
X0035935Y0234066D01*
X0035795Y0234128D01*
X0035656Y0234193D01*
X0035519Y0234262D01*
X0035384Y0234335D01*
X0035251Y0234411D01*
X0035120Y0234491D01*
X0034991Y0234573D01*
X0034864Y0234660D01*
X0034739Y0234749D01*
X0034617Y0234842D01*
X0034498Y0234938D01*
X0034380Y0235037D01*
X0034266Y0235138D01*
X0034154Y0235243D01*
X0034045Y0235351D01*
X0033939Y0235462D01*
X0033835Y0235575D01*
X0033735Y0235691D01*
X0033637Y0235809D01*
X0033543Y0235930D01*
X0033452Y0236053D01*
X0033364Y0236179D01*
X0033280Y0236307D01*
X0033198Y0236437D01*
X0033121Y0236569D01*
X0033046Y0236703D01*
X0032975Y0236839D01*
X0032908Y0236977D01*
X0032844Y0237117D01*
X0032784Y0237258D01*
X0032728Y0237400D01*
X0032675Y0237544D01*
X0032626Y0237690D01*
X0032581Y0237836D01*
X0032540Y0237984D01*
X0032503Y0238132D01*
X0032469Y0238282D01*
X0032439Y0238433D01*
X0032414Y0238584D01*
X0032392Y0238735D01*
X0032374Y0238888D01*
X0032360Y0239040D01*
X0032350Y0239193D01*
X0032344Y0239347D01*
X0032342Y0239500D01*
X0300846Y0208004D02*
X0300848Y0208157D01*
X0300854Y0208311D01*
X0300864Y0208464D01*
X0300878Y0208616D01*
X0300896Y0208769D01*
X0300918Y0208920D01*
X0300943Y0209071D01*
X0300973Y0209222D01*
X0301007Y0209372D01*
X0301044Y0209520D01*
X0301085Y0209668D01*
X0301130Y0209814D01*
X0301179Y0209960D01*
X0301232Y0210104D01*
X0301288Y0210246D01*
X0301348Y0210387D01*
X0301412Y0210527D01*
X0301479Y0210665D01*
X0301550Y0210801D01*
X0301625Y0210935D01*
X0301702Y0211067D01*
X0301784Y0211197D01*
X0301868Y0211325D01*
X0301956Y0211451D01*
X0302047Y0211574D01*
X0302141Y0211695D01*
X0302239Y0211813D01*
X0302339Y0211929D01*
X0302443Y0212042D01*
X0302549Y0212153D01*
X0302658Y0212261D01*
X0302770Y0212366D01*
X0302884Y0212467D01*
X0303002Y0212566D01*
X0303121Y0212662D01*
X0303243Y0212755D01*
X0303368Y0212844D01*
X0303495Y0212931D01*
X0303624Y0213013D01*
X0303755Y0213093D01*
X0303888Y0213169D01*
X0304023Y0213242D01*
X0304160Y0213311D01*
X0304299Y0213376D01*
X0304439Y0213438D01*
X0304581Y0213496D01*
X0304724Y0213551D01*
X0304869Y0213602D01*
X0305015Y0213649D01*
X0305162Y0213692D01*
X0305310Y0213731D01*
X0305459Y0213767D01*
X0305609Y0213798D01*
X0305760Y0213826D01*
X0305911Y0213850D01*
X0306064Y0213870D01*
X0306216Y0213886D01*
X0306369Y0213898D01*
X0306522Y0213906D01*
X0306675Y0213910D01*
X0306829Y0213910D01*
X0306982Y0213906D01*
X0307135Y0213898D01*
X0307288Y0213886D01*
X0307440Y0213870D01*
X0307593Y0213850D01*
X0307744Y0213826D01*
X0307895Y0213798D01*
X0308045Y0213767D01*
X0308194Y0213731D01*
X0308342Y0213692D01*
X0308489Y0213649D01*
X0308635Y0213602D01*
X0308780Y0213551D01*
X0308923Y0213496D01*
X0309065Y0213438D01*
X0309205Y0213376D01*
X0309344Y0213311D01*
X0309481Y0213242D01*
X0309616Y0213169D01*
X0309749Y0213093D01*
X0309880Y0213013D01*
X0310009Y0212931D01*
X0310136Y0212844D01*
X0310261Y0212755D01*
X0310383Y0212662D01*
X0310502Y0212566D01*
X0310620Y0212467D01*
X0310734Y0212366D01*
X0310846Y0212261D01*
X0310955Y0212153D01*
X0311061Y0212042D01*
X0311165Y0211929D01*
X0311265Y0211813D01*
X0311363Y0211695D01*
X0311457Y0211574D01*
X0311548Y0211451D01*
X0311636Y0211325D01*
X0311720Y0211197D01*
X0311802Y0211067D01*
X0311879Y0210935D01*
X0311954Y0210801D01*
X0312025Y0210665D01*
X0312092Y0210527D01*
X0312156Y0210387D01*
X0312216Y0210246D01*
X0312272Y0210104D01*
X0312325Y0209960D01*
X0312374Y0209814D01*
X0312419Y0209668D01*
X0312460Y0209520D01*
X0312497Y0209372D01*
X0312531Y0209222D01*
X0312561Y0209071D01*
X0312586Y0208920D01*
X0312608Y0208769D01*
X0312626Y0208616D01*
X0312640Y0208464D01*
X0312650Y0208311D01*
X0312656Y0208157D01*
X0312658Y0208004D01*
X0312656Y0207851D01*
X0312650Y0207697D01*
X0312640Y0207544D01*
X0312626Y0207392D01*
X0312608Y0207239D01*
X0312586Y0207088D01*
X0312561Y0206937D01*
X0312531Y0206786D01*
X0312497Y0206636D01*
X0312460Y0206488D01*
X0312419Y0206340D01*
X0312374Y0206194D01*
X0312325Y0206048D01*
X0312272Y0205904D01*
X0312216Y0205762D01*
X0312156Y0205621D01*
X0312092Y0205481D01*
X0312025Y0205343D01*
X0311954Y0205207D01*
X0311879Y0205073D01*
X0311802Y0204941D01*
X0311720Y0204811D01*
X0311636Y0204683D01*
X0311548Y0204557D01*
X0311457Y0204434D01*
X0311363Y0204313D01*
X0311265Y0204195D01*
X0311165Y0204079D01*
X0311061Y0203966D01*
X0310955Y0203855D01*
X0310846Y0203747D01*
X0310734Y0203642D01*
X0310620Y0203541D01*
X0310502Y0203442D01*
X0310383Y0203346D01*
X0310261Y0203253D01*
X0310136Y0203164D01*
X0310009Y0203077D01*
X0309880Y0202995D01*
X0309749Y0202915D01*
X0309616Y0202839D01*
X0309481Y0202766D01*
X0309344Y0202697D01*
X0309205Y0202632D01*
X0309065Y0202570D01*
X0308923Y0202512D01*
X0308780Y0202457D01*
X0308635Y0202406D01*
X0308489Y0202359D01*
X0308342Y0202316D01*
X0308194Y0202277D01*
X0308045Y0202241D01*
X0307895Y0202210D01*
X0307744Y0202182D01*
X0307593Y0202158D01*
X0307440Y0202138D01*
X0307288Y0202122D01*
X0307135Y0202110D01*
X0306982Y0202102D01*
X0306829Y0202098D01*
X0306675Y0202098D01*
X0306522Y0202102D01*
X0306369Y0202110D01*
X0306216Y0202122D01*
X0306064Y0202138D01*
X0305911Y0202158D01*
X0305760Y0202182D01*
X0305609Y0202210D01*
X0305459Y0202241D01*
X0305310Y0202277D01*
X0305162Y0202316D01*
X0305015Y0202359D01*
X0304869Y0202406D01*
X0304724Y0202457D01*
X0304581Y0202512D01*
X0304439Y0202570D01*
X0304299Y0202632D01*
X0304160Y0202697D01*
X0304023Y0202766D01*
X0303888Y0202839D01*
X0303755Y0202915D01*
X0303624Y0202995D01*
X0303495Y0203077D01*
X0303368Y0203164D01*
X0303243Y0203253D01*
X0303121Y0203346D01*
X0303002Y0203442D01*
X0302884Y0203541D01*
X0302770Y0203642D01*
X0302658Y0203747D01*
X0302549Y0203855D01*
X0302443Y0203966D01*
X0302339Y0204079D01*
X0302239Y0204195D01*
X0302141Y0204313D01*
X0302047Y0204434D01*
X0301956Y0204557D01*
X0301868Y0204683D01*
X0301784Y0204811D01*
X0301702Y0204941D01*
X0301625Y0205073D01*
X0301550Y0205207D01*
X0301479Y0205343D01*
X0301412Y0205481D01*
X0301348Y0205621D01*
X0301288Y0205762D01*
X0301232Y0205904D01*
X0301179Y0206048D01*
X0301130Y0206194D01*
X0301085Y0206340D01*
X0301044Y0206488D01*
X0301007Y0206636D01*
X0300973Y0206786D01*
X0300943Y0206937D01*
X0300918Y0207088D01*
X0300896Y0207239D01*
X0300878Y0207392D01*
X0300864Y0207544D01*
X0300854Y0207697D01*
X0300848Y0207851D01*
X0300846Y0208004D01*
X0300846Y0063744D02*
X0300848Y0063897D01*
X0300854Y0064051D01*
X0300864Y0064204D01*
X0300878Y0064356D01*
X0300896Y0064509D01*
X0300918Y0064660D01*
X0300943Y0064811D01*
X0300973Y0064962D01*
X0301007Y0065112D01*
X0301044Y0065260D01*
X0301085Y0065408D01*
X0301130Y0065554D01*
X0301179Y0065700D01*
X0301232Y0065844D01*
X0301288Y0065986D01*
X0301348Y0066127D01*
X0301412Y0066267D01*
X0301479Y0066405D01*
X0301550Y0066541D01*
X0301625Y0066675D01*
X0301702Y0066807D01*
X0301784Y0066937D01*
X0301868Y0067065D01*
X0301956Y0067191D01*
X0302047Y0067314D01*
X0302141Y0067435D01*
X0302239Y0067553D01*
X0302339Y0067669D01*
X0302443Y0067782D01*
X0302549Y0067893D01*
X0302658Y0068001D01*
X0302770Y0068106D01*
X0302884Y0068207D01*
X0303002Y0068306D01*
X0303121Y0068402D01*
X0303243Y0068495D01*
X0303368Y0068584D01*
X0303495Y0068671D01*
X0303624Y0068753D01*
X0303755Y0068833D01*
X0303888Y0068909D01*
X0304023Y0068982D01*
X0304160Y0069051D01*
X0304299Y0069116D01*
X0304439Y0069178D01*
X0304581Y0069236D01*
X0304724Y0069291D01*
X0304869Y0069342D01*
X0305015Y0069389D01*
X0305162Y0069432D01*
X0305310Y0069471D01*
X0305459Y0069507D01*
X0305609Y0069538D01*
X0305760Y0069566D01*
X0305911Y0069590D01*
X0306064Y0069610D01*
X0306216Y0069626D01*
X0306369Y0069638D01*
X0306522Y0069646D01*
X0306675Y0069650D01*
X0306829Y0069650D01*
X0306982Y0069646D01*
X0307135Y0069638D01*
X0307288Y0069626D01*
X0307440Y0069610D01*
X0307593Y0069590D01*
X0307744Y0069566D01*
X0307895Y0069538D01*
X0308045Y0069507D01*
X0308194Y0069471D01*
X0308342Y0069432D01*
X0308489Y0069389D01*
X0308635Y0069342D01*
X0308780Y0069291D01*
X0308923Y0069236D01*
X0309065Y0069178D01*
X0309205Y0069116D01*
X0309344Y0069051D01*
X0309481Y0068982D01*
X0309616Y0068909D01*
X0309749Y0068833D01*
X0309880Y0068753D01*
X0310009Y0068671D01*
X0310136Y0068584D01*
X0310261Y0068495D01*
X0310383Y0068402D01*
X0310502Y0068306D01*
X0310620Y0068207D01*
X0310734Y0068106D01*
X0310846Y0068001D01*
X0310955Y0067893D01*
X0311061Y0067782D01*
X0311165Y0067669D01*
X0311265Y0067553D01*
X0311363Y0067435D01*
X0311457Y0067314D01*
X0311548Y0067191D01*
X0311636Y0067065D01*
X0311720Y0066937D01*
X0311802Y0066807D01*
X0311879Y0066675D01*
X0311954Y0066541D01*
X0312025Y0066405D01*
X0312092Y0066267D01*
X0312156Y0066127D01*
X0312216Y0065986D01*
X0312272Y0065844D01*
X0312325Y0065700D01*
X0312374Y0065554D01*
X0312419Y0065408D01*
X0312460Y0065260D01*
X0312497Y0065112D01*
X0312531Y0064962D01*
X0312561Y0064811D01*
X0312586Y0064660D01*
X0312608Y0064509D01*
X0312626Y0064356D01*
X0312640Y0064204D01*
X0312650Y0064051D01*
X0312656Y0063897D01*
X0312658Y0063744D01*
X0312656Y0063591D01*
X0312650Y0063437D01*
X0312640Y0063284D01*
X0312626Y0063132D01*
X0312608Y0062979D01*
X0312586Y0062828D01*
X0312561Y0062677D01*
X0312531Y0062526D01*
X0312497Y0062376D01*
X0312460Y0062228D01*
X0312419Y0062080D01*
X0312374Y0061934D01*
X0312325Y0061788D01*
X0312272Y0061644D01*
X0312216Y0061502D01*
X0312156Y0061361D01*
X0312092Y0061221D01*
X0312025Y0061083D01*
X0311954Y0060947D01*
X0311879Y0060813D01*
X0311802Y0060681D01*
X0311720Y0060551D01*
X0311636Y0060423D01*
X0311548Y0060297D01*
X0311457Y0060174D01*
X0311363Y0060053D01*
X0311265Y0059935D01*
X0311165Y0059819D01*
X0311061Y0059706D01*
X0310955Y0059595D01*
X0310846Y0059487D01*
X0310734Y0059382D01*
X0310620Y0059281D01*
X0310502Y0059182D01*
X0310383Y0059086D01*
X0310261Y0058993D01*
X0310136Y0058904D01*
X0310009Y0058817D01*
X0309880Y0058735D01*
X0309749Y0058655D01*
X0309616Y0058579D01*
X0309481Y0058506D01*
X0309344Y0058437D01*
X0309205Y0058372D01*
X0309065Y0058310D01*
X0308923Y0058252D01*
X0308780Y0058197D01*
X0308635Y0058146D01*
X0308489Y0058099D01*
X0308342Y0058056D01*
X0308194Y0058017D01*
X0308045Y0057981D01*
X0307895Y0057950D01*
X0307744Y0057922D01*
X0307593Y0057898D01*
X0307440Y0057878D01*
X0307288Y0057862D01*
X0307135Y0057850D01*
X0306982Y0057842D01*
X0306829Y0057838D01*
X0306675Y0057838D01*
X0306522Y0057842D01*
X0306369Y0057850D01*
X0306216Y0057862D01*
X0306064Y0057878D01*
X0305911Y0057898D01*
X0305760Y0057922D01*
X0305609Y0057950D01*
X0305459Y0057981D01*
X0305310Y0058017D01*
X0305162Y0058056D01*
X0305015Y0058099D01*
X0304869Y0058146D01*
X0304724Y0058197D01*
X0304581Y0058252D01*
X0304439Y0058310D01*
X0304299Y0058372D01*
X0304160Y0058437D01*
X0304023Y0058506D01*
X0303888Y0058579D01*
X0303755Y0058655D01*
X0303624Y0058735D01*
X0303495Y0058817D01*
X0303368Y0058904D01*
X0303243Y0058993D01*
X0303121Y0059086D01*
X0303002Y0059182D01*
X0302884Y0059281D01*
X0302770Y0059382D01*
X0302658Y0059487D01*
X0302549Y0059595D01*
X0302443Y0059706D01*
X0302339Y0059819D01*
X0302239Y0059935D01*
X0302141Y0060053D01*
X0302047Y0060174D01*
X0301956Y0060297D01*
X0301868Y0060423D01*
X0301784Y0060551D01*
X0301702Y0060681D01*
X0301625Y0060813D01*
X0301550Y0060947D01*
X0301479Y0061083D01*
X0301412Y0061221D01*
X0301348Y0061361D01*
X0301288Y0061502D01*
X0301232Y0061644D01*
X0301179Y0061788D01*
X0301130Y0061934D01*
X0301085Y0062080D01*
X0301044Y0062228D01*
X0301007Y0062376D01*
X0300973Y0062526D01*
X0300943Y0062677D01*
X0300918Y0062828D01*
X0300896Y0062979D01*
X0300878Y0063132D01*
X0300864Y0063284D01*
X0300854Y0063437D01*
X0300848Y0063591D01*
X0300846Y0063744D01*
M02*
