G75*
%MOIN*%
%OFA0B0*%
%FSLAX25Y25*%
%IPPOS*%
%LPD*%
%AMOC8*
5,1,8,0,0,1.08239X$1,22.5*
%
%ADD10C,0.00900*%
D10*
X0145795Y0119044D02*
X0148528Y0119044D01*
X0150595Y0121550D02*
X0151961Y0117450D01*
X0153328Y0121550D01*
X0154997Y0121550D02*
X0155225Y0121550D01*
X0155225Y0121322D01*
X0154997Y0121322D01*
X0154997Y0121550D01*
X0155111Y0120183D02*
X0155111Y0117450D01*
X0157811Y0117450D02*
X0158722Y0120183D01*
X0160511Y0120183D02*
X0160511Y0117450D01*
X0163210Y0117450D02*
X0164235Y0117450D01*
X0164235Y0119500D01*
X0164235Y0119044D02*
X0163210Y0119044D01*
X0164234Y0119500D02*
X0164232Y0119551D01*
X0164226Y0119602D01*
X0164217Y0119652D01*
X0164204Y0119701D01*
X0164187Y0119750D01*
X0164166Y0119796D01*
X0164142Y0119842D01*
X0164115Y0119885D01*
X0164085Y0119926D01*
X0164052Y0119965D01*
X0164016Y0120001D01*
X0163977Y0120034D01*
X0163936Y0120064D01*
X0163892Y0120091D01*
X0163847Y0120115D01*
X0163801Y0120136D01*
X0163752Y0120153D01*
X0163703Y0120166D01*
X0163653Y0120175D01*
X0163602Y0120181D01*
X0163551Y0120183D01*
X0162640Y0120183D01*
X0163210Y0119044D02*
X0163154Y0119042D01*
X0163099Y0119036D01*
X0163044Y0119027D01*
X0162990Y0119013D01*
X0162937Y0118996D01*
X0162886Y0118975D01*
X0162836Y0118951D01*
X0162788Y0118923D01*
X0162742Y0118892D01*
X0162698Y0118858D01*
X0162656Y0118820D01*
X0162618Y0118780D01*
X0162582Y0118738D01*
X0162549Y0118693D01*
X0162520Y0118646D01*
X0162494Y0118596D01*
X0162471Y0118546D01*
X0162452Y0118493D01*
X0162437Y0118440D01*
X0162425Y0118385D01*
X0162417Y0118330D01*
X0162413Y0118275D01*
X0162413Y0118219D01*
X0162417Y0118164D01*
X0162425Y0118109D01*
X0162437Y0118054D01*
X0162452Y0118001D01*
X0162471Y0117948D01*
X0162494Y0117898D01*
X0162520Y0117849D01*
X0162549Y0117801D01*
X0162582Y0117756D01*
X0162618Y0117714D01*
X0162656Y0117674D01*
X0162698Y0117636D01*
X0162742Y0117602D01*
X0162788Y0117571D01*
X0162836Y0117543D01*
X0162886Y0117519D01*
X0162937Y0117498D01*
X0162990Y0117481D01*
X0163044Y0117467D01*
X0163099Y0117458D01*
X0163154Y0117452D01*
X0163210Y0117450D01*
X0166650Y0117450D02*
X0166650Y0120183D01*
X0167789Y0120183D01*
X0167840Y0120181D01*
X0167891Y0120175D01*
X0167941Y0120166D01*
X0167990Y0120153D01*
X0168039Y0120136D01*
X0168085Y0120115D01*
X0168130Y0120091D01*
X0168174Y0120064D01*
X0168215Y0120034D01*
X0168254Y0120001D01*
X0168290Y0119965D01*
X0168323Y0119926D01*
X0168353Y0119885D01*
X0168380Y0119842D01*
X0168404Y0119796D01*
X0168425Y0119750D01*
X0168442Y0119701D01*
X0168455Y0119652D01*
X0168464Y0119602D01*
X0168470Y0119551D01*
X0168472Y0119500D01*
X0168472Y0117450D01*
X0173172Y0118589D02*
X0173172Y0120411D01*
X0173174Y0120477D01*
X0173180Y0120543D01*
X0173189Y0120609D01*
X0173203Y0120674D01*
X0173220Y0120738D01*
X0173241Y0120801D01*
X0173265Y0120862D01*
X0173293Y0120922D01*
X0173325Y0120981D01*
X0173359Y0121037D01*
X0173397Y0121091D01*
X0173438Y0121143D01*
X0173483Y0121193D01*
X0173529Y0121239D01*
X0173579Y0121284D01*
X0173631Y0121325D01*
X0173685Y0121363D01*
X0173742Y0121397D01*
X0173800Y0121429D01*
X0173860Y0121457D01*
X0173921Y0121481D01*
X0173984Y0121502D01*
X0174048Y0121519D01*
X0174113Y0121533D01*
X0174179Y0121542D01*
X0174245Y0121548D01*
X0174311Y0121550D01*
X0174377Y0121548D01*
X0174443Y0121542D01*
X0174509Y0121533D01*
X0174574Y0121519D01*
X0174638Y0121502D01*
X0174701Y0121481D01*
X0174762Y0121457D01*
X0174822Y0121429D01*
X0174881Y0121397D01*
X0174937Y0121363D01*
X0174991Y0121325D01*
X0175043Y0121284D01*
X0175093Y0121239D01*
X0175139Y0121193D01*
X0175184Y0121143D01*
X0175225Y0121091D01*
X0175263Y0121037D01*
X0175297Y0120981D01*
X0175329Y0120922D01*
X0175357Y0120862D01*
X0175381Y0120801D01*
X0175402Y0120738D01*
X0175419Y0120674D01*
X0175433Y0120609D01*
X0175442Y0120543D01*
X0175448Y0120477D01*
X0175450Y0120411D01*
X0175450Y0118589D01*
X0175448Y0118523D01*
X0175442Y0118457D01*
X0175433Y0118391D01*
X0175419Y0118326D01*
X0175402Y0118262D01*
X0175381Y0118199D01*
X0175357Y0118138D01*
X0175329Y0118078D01*
X0175297Y0118020D01*
X0175263Y0117963D01*
X0175225Y0117909D01*
X0175184Y0117857D01*
X0175139Y0117807D01*
X0175093Y0117761D01*
X0175043Y0117716D01*
X0174991Y0117675D01*
X0174937Y0117637D01*
X0174881Y0117603D01*
X0174822Y0117571D01*
X0174762Y0117543D01*
X0174701Y0117519D01*
X0174638Y0117498D01*
X0174574Y0117481D01*
X0174509Y0117467D01*
X0174443Y0117458D01*
X0174377Y0117452D01*
X0174311Y0117450D01*
X0174245Y0117452D01*
X0174179Y0117458D01*
X0174113Y0117467D01*
X0174048Y0117481D01*
X0173984Y0117498D01*
X0173921Y0117519D01*
X0173860Y0117543D01*
X0173800Y0117571D01*
X0173742Y0117603D01*
X0173685Y0117637D01*
X0173631Y0117675D01*
X0173579Y0117716D01*
X0173529Y0117761D01*
X0173483Y0117807D01*
X0173438Y0117857D01*
X0173397Y0117909D01*
X0173359Y0117963D01*
X0173325Y0118020D01*
X0173293Y0118078D01*
X0173265Y0118138D01*
X0173241Y0118199D01*
X0173220Y0118262D01*
X0173203Y0118326D01*
X0173189Y0118391D01*
X0173180Y0118457D01*
X0173174Y0118523D01*
X0173172Y0118589D01*
X0177788Y0117450D02*
X0177788Y0121550D01*
X0177788Y0120183D02*
X0178927Y0120183D01*
X0178978Y0120181D01*
X0179029Y0120175D01*
X0179079Y0120166D01*
X0179128Y0120153D01*
X0179177Y0120136D01*
X0179223Y0120115D01*
X0179268Y0120091D01*
X0179312Y0120064D01*
X0179353Y0120034D01*
X0179392Y0120001D01*
X0179428Y0119965D01*
X0179461Y0119926D01*
X0179491Y0119885D01*
X0179518Y0119842D01*
X0179542Y0119796D01*
X0179563Y0119750D01*
X0179580Y0119701D01*
X0179593Y0119652D01*
X0179602Y0119602D01*
X0179608Y0119551D01*
X0179610Y0119500D01*
X0179610Y0118133D01*
X0179608Y0118082D01*
X0179602Y0118031D01*
X0179593Y0117981D01*
X0179580Y0117932D01*
X0179563Y0117883D01*
X0179542Y0117837D01*
X0179518Y0117791D01*
X0179491Y0117748D01*
X0179461Y0117707D01*
X0179428Y0117668D01*
X0179392Y0117632D01*
X0179353Y0117599D01*
X0179312Y0117569D01*
X0179268Y0117542D01*
X0179223Y0117518D01*
X0179177Y0117497D01*
X0179128Y0117480D01*
X0179079Y0117467D01*
X0179029Y0117458D01*
X0178978Y0117452D01*
X0178927Y0117450D01*
X0177788Y0117450D01*
X0181650Y0118361D02*
X0181650Y0119272D01*
X0181652Y0119332D01*
X0181658Y0119391D01*
X0181668Y0119450D01*
X0181681Y0119508D01*
X0181698Y0119565D01*
X0181719Y0119621D01*
X0181744Y0119675D01*
X0181772Y0119728D01*
X0181804Y0119778D01*
X0181838Y0119827D01*
X0181876Y0119873D01*
X0181917Y0119916D01*
X0181960Y0119957D01*
X0182006Y0119995D01*
X0182055Y0120029D01*
X0182106Y0120061D01*
X0182158Y0120089D01*
X0182212Y0120114D01*
X0182268Y0120135D01*
X0182325Y0120152D01*
X0182383Y0120165D01*
X0182442Y0120175D01*
X0182501Y0120181D01*
X0182561Y0120183D01*
X0182621Y0120181D01*
X0182680Y0120175D01*
X0182739Y0120165D01*
X0182797Y0120152D01*
X0182854Y0120135D01*
X0182910Y0120114D01*
X0182964Y0120089D01*
X0183017Y0120061D01*
X0183067Y0120029D01*
X0183116Y0119995D01*
X0183162Y0119957D01*
X0183205Y0119916D01*
X0183246Y0119873D01*
X0183284Y0119827D01*
X0183318Y0119778D01*
X0183350Y0119728D01*
X0183378Y0119675D01*
X0183403Y0119621D01*
X0183424Y0119565D01*
X0183441Y0119508D01*
X0183454Y0119450D01*
X0183464Y0119391D01*
X0183470Y0119332D01*
X0183472Y0119272D01*
X0183472Y0118361D01*
X0183470Y0118301D01*
X0183464Y0118242D01*
X0183454Y0118183D01*
X0183441Y0118125D01*
X0183424Y0118068D01*
X0183403Y0118012D01*
X0183378Y0117958D01*
X0183350Y0117906D01*
X0183318Y0117855D01*
X0183284Y0117806D01*
X0183246Y0117760D01*
X0183205Y0117717D01*
X0183162Y0117676D01*
X0183116Y0117638D01*
X0183067Y0117604D01*
X0183017Y0117572D01*
X0182964Y0117544D01*
X0182910Y0117519D01*
X0182854Y0117498D01*
X0182797Y0117481D01*
X0182739Y0117468D01*
X0182680Y0117458D01*
X0182621Y0117452D01*
X0182561Y0117450D01*
X0182501Y0117452D01*
X0182442Y0117458D01*
X0182383Y0117468D01*
X0182325Y0117481D01*
X0182268Y0117498D01*
X0182212Y0117519D01*
X0182158Y0117544D01*
X0182106Y0117572D01*
X0182055Y0117604D01*
X0182006Y0117638D01*
X0181960Y0117676D01*
X0181917Y0117717D01*
X0181876Y0117760D01*
X0181838Y0117806D01*
X0181804Y0117855D01*
X0181772Y0117906D01*
X0181744Y0117958D01*
X0181719Y0118012D01*
X0181698Y0118068D01*
X0181681Y0118125D01*
X0181668Y0118183D01*
X0181658Y0118242D01*
X0181652Y0118301D01*
X0181650Y0118361D01*
X0185512Y0118133D02*
X0185512Y0119500D01*
X0185513Y0119500D02*
X0185515Y0119551D01*
X0185521Y0119602D01*
X0185530Y0119652D01*
X0185543Y0119701D01*
X0185560Y0119750D01*
X0185581Y0119796D01*
X0185605Y0119842D01*
X0185632Y0119885D01*
X0185662Y0119926D01*
X0185695Y0119965D01*
X0185731Y0120001D01*
X0185770Y0120034D01*
X0185811Y0120064D01*
X0185855Y0120091D01*
X0185900Y0120115D01*
X0185946Y0120136D01*
X0185995Y0120153D01*
X0186044Y0120166D01*
X0186094Y0120175D01*
X0186145Y0120181D01*
X0186196Y0120183D01*
X0187335Y0120183D01*
X0187335Y0121550D02*
X0187335Y0117450D01*
X0186196Y0117450D01*
X0186145Y0117452D01*
X0186094Y0117458D01*
X0186044Y0117467D01*
X0185995Y0117480D01*
X0185946Y0117497D01*
X0185900Y0117518D01*
X0185855Y0117542D01*
X0185811Y0117569D01*
X0185770Y0117599D01*
X0185731Y0117632D01*
X0185695Y0117668D01*
X0185662Y0117707D01*
X0185632Y0117748D01*
X0185605Y0117792D01*
X0185581Y0117837D01*
X0185560Y0117883D01*
X0185543Y0117932D01*
X0185530Y0117981D01*
X0185521Y0118031D01*
X0185515Y0118082D01*
X0185513Y0118133D01*
X0189600Y0118361D02*
X0189600Y0119272D01*
X0189602Y0119332D01*
X0189608Y0119391D01*
X0189618Y0119450D01*
X0189631Y0119508D01*
X0189648Y0119565D01*
X0189669Y0119621D01*
X0189694Y0119675D01*
X0189722Y0119728D01*
X0189754Y0119778D01*
X0189788Y0119827D01*
X0189826Y0119873D01*
X0189867Y0119916D01*
X0189910Y0119957D01*
X0189956Y0119995D01*
X0190005Y0120029D01*
X0190056Y0120061D01*
X0190108Y0120089D01*
X0190162Y0120114D01*
X0190218Y0120135D01*
X0190275Y0120152D01*
X0190333Y0120165D01*
X0190392Y0120175D01*
X0190451Y0120181D01*
X0190511Y0120183D01*
X0190571Y0120181D01*
X0190630Y0120175D01*
X0190689Y0120165D01*
X0190747Y0120152D01*
X0190804Y0120135D01*
X0190860Y0120114D01*
X0190914Y0120089D01*
X0190967Y0120061D01*
X0191017Y0120029D01*
X0191066Y0119995D01*
X0191112Y0119957D01*
X0191155Y0119916D01*
X0191196Y0119873D01*
X0191234Y0119827D01*
X0191268Y0119778D01*
X0191300Y0119728D01*
X0191328Y0119675D01*
X0191353Y0119621D01*
X0191374Y0119565D01*
X0191391Y0119508D01*
X0191404Y0119450D01*
X0191414Y0119391D01*
X0191420Y0119332D01*
X0191422Y0119272D01*
X0191422Y0118361D01*
X0191420Y0118301D01*
X0191414Y0118242D01*
X0191404Y0118183D01*
X0191391Y0118125D01*
X0191374Y0118068D01*
X0191353Y0118012D01*
X0191328Y0117958D01*
X0191300Y0117906D01*
X0191268Y0117855D01*
X0191234Y0117806D01*
X0191196Y0117760D01*
X0191155Y0117717D01*
X0191112Y0117676D01*
X0191066Y0117638D01*
X0191017Y0117604D01*
X0190967Y0117572D01*
X0190914Y0117544D01*
X0190860Y0117519D01*
X0190804Y0117498D01*
X0190747Y0117481D01*
X0190689Y0117468D01*
X0190630Y0117458D01*
X0190571Y0117452D01*
X0190511Y0117450D01*
X0190451Y0117452D01*
X0190392Y0117458D01*
X0190333Y0117468D01*
X0190275Y0117481D01*
X0190218Y0117498D01*
X0190162Y0117519D01*
X0190108Y0117544D01*
X0190056Y0117572D01*
X0190005Y0117604D01*
X0189956Y0117638D01*
X0189910Y0117676D01*
X0189867Y0117717D01*
X0189826Y0117760D01*
X0189788Y0117806D01*
X0189754Y0117855D01*
X0189722Y0117906D01*
X0189694Y0117958D01*
X0189669Y0118012D01*
X0189648Y0118068D01*
X0189631Y0118125D01*
X0189618Y0118183D01*
X0189608Y0118242D01*
X0189602Y0118301D01*
X0189600Y0118361D01*
X0198190Y0123583D02*
X0199101Y0123583D01*
X0199101Y0123584D02*
X0199152Y0123586D01*
X0199203Y0123592D01*
X0199253Y0123601D01*
X0199302Y0123614D01*
X0199351Y0123631D01*
X0199397Y0123652D01*
X0199442Y0123676D01*
X0199486Y0123703D01*
X0199527Y0123733D01*
X0199566Y0123766D01*
X0199602Y0123802D01*
X0199635Y0123841D01*
X0199665Y0123882D01*
X0199692Y0123925D01*
X0199716Y0123971D01*
X0199737Y0124017D01*
X0199754Y0124066D01*
X0199767Y0124115D01*
X0199776Y0124165D01*
X0199782Y0124216D01*
X0199784Y0124267D01*
X0199785Y0124267D02*
X0199785Y0127683D01*
X0198646Y0127683D01*
X0198595Y0127681D01*
X0198544Y0127675D01*
X0198494Y0127666D01*
X0198445Y0127653D01*
X0198396Y0127636D01*
X0198350Y0127615D01*
X0198305Y0127591D01*
X0198261Y0127564D01*
X0198220Y0127534D01*
X0198181Y0127501D01*
X0198145Y0127465D01*
X0198112Y0127426D01*
X0198082Y0127385D01*
X0198055Y0127342D01*
X0198031Y0127296D01*
X0198010Y0127250D01*
X0197993Y0127201D01*
X0197980Y0127152D01*
X0197971Y0127102D01*
X0197965Y0127051D01*
X0197963Y0127000D01*
X0197962Y0127000D02*
X0197962Y0125633D01*
X0197963Y0125633D02*
X0197965Y0125582D01*
X0197971Y0125531D01*
X0197980Y0125481D01*
X0197993Y0125432D01*
X0198010Y0125383D01*
X0198031Y0125337D01*
X0198055Y0125292D01*
X0198082Y0125248D01*
X0198112Y0125207D01*
X0198145Y0125168D01*
X0198181Y0125132D01*
X0198220Y0125099D01*
X0198261Y0125069D01*
X0198305Y0125042D01*
X0198350Y0125018D01*
X0198396Y0124997D01*
X0198445Y0124980D01*
X0198494Y0124967D01*
X0198544Y0124958D01*
X0198595Y0124952D01*
X0198646Y0124950D01*
X0199785Y0124950D01*
X0202238Y0124950D02*
X0203377Y0124950D01*
X0203428Y0124952D01*
X0203479Y0124958D01*
X0203529Y0124967D01*
X0203578Y0124980D01*
X0203627Y0124997D01*
X0203673Y0125018D01*
X0203718Y0125042D01*
X0203762Y0125069D01*
X0203803Y0125099D01*
X0203842Y0125132D01*
X0203878Y0125168D01*
X0203911Y0125207D01*
X0203941Y0125248D01*
X0203968Y0125291D01*
X0203992Y0125337D01*
X0204013Y0125383D01*
X0204030Y0125432D01*
X0204043Y0125481D01*
X0204052Y0125531D01*
X0204058Y0125582D01*
X0204060Y0125633D01*
X0204060Y0127000D01*
X0204058Y0127051D01*
X0204052Y0127102D01*
X0204043Y0127152D01*
X0204030Y0127201D01*
X0204013Y0127250D01*
X0203992Y0127296D01*
X0203968Y0127342D01*
X0203941Y0127385D01*
X0203911Y0127426D01*
X0203878Y0127465D01*
X0203842Y0127501D01*
X0203803Y0127534D01*
X0203762Y0127564D01*
X0203718Y0127591D01*
X0203673Y0127615D01*
X0203627Y0127636D01*
X0203578Y0127653D01*
X0203529Y0127666D01*
X0203479Y0127675D01*
X0203428Y0127681D01*
X0203377Y0127683D01*
X0202238Y0127683D01*
X0202238Y0129050D02*
X0202238Y0124950D01*
X0206250Y0125633D02*
X0206250Y0127683D01*
X0208072Y0127683D02*
X0208072Y0124950D01*
X0206933Y0124950D01*
X0206882Y0124952D01*
X0206831Y0124958D01*
X0206781Y0124967D01*
X0206732Y0124980D01*
X0206683Y0124997D01*
X0206637Y0125018D01*
X0206592Y0125042D01*
X0206548Y0125069D01*
X0206507Y0125099D01*
X0206468Y0125132D01*
X0206432Y0125168D01*
X0206399Y0125207D01*
X0206369Y0125248D01*
X0206342Y0125292D01*
X0206318Y0125337D01*
X0206297Y0125383D01*
X0206280Y0125432D01*
X0206267Y0125481D01*
X0206258Y0125531D01*
X0206252Y0125582D01*
X0206250Y0125633D01*
X0210450Y0124950D02*
X0210450Y0127683D01*
X0211589Y0127683D01*
X0211640Y0127681D01*
X0211691Y0127675D01*
X0211741Y0127666D01*
X0211790Y0127653D01*
X0211839Y0127636D01*
X0211885Y0127615D01*
X0211930Y0127591D01*
X0211974Y0127564D01*
X0212015Y0127534D01*
X0212054Y0127501D01*
X0212090Y0127465D01*
X0212123Y0127426D01*
X0212153Y0127385D01*
X0212180Y0127342D01*
X0212204Y0127296D01*
X0212225Y0127250D01*
X0212242Y0127201D01*
X0212255Y0127152D01*
X0212264Y0127102D01*
X0212270Y0127051D01*
X0212272Y0127000D01*
X0212272Y0124950D01*
X0214361Y0124950D02*
X0214361Y0127683D01*
X0214475Y0128822D02*
X0214247Y0128822D01*
X0214247Y0129050D01*
X0214475Y0129050D01*
X0214475Y0128822D01*
X0216537Y0129050D02*
X0216537Y0124950D01*
X0216537Y0126317D02*
X0218359Y0127683D01*
X0217334Y0126886D02*
X0218359Y0124950D01*
X0220200Y0125633D02*
X0220200Y0126772D01*
X0220200Y0126317D02*
X0222022Y0126317D01*
X0222022Y0126772D01*
X0222020Y0126832D01*
X0222014Y0126891D01*
X0222004Y0126950D01*
X0221991Y0127008D01*
X0221974Y0127065D01*
X0221953Y0127121D01*
X0221928Y0127175D01*
X0221900Y0127228D01*
X0221868Y0127278D01*
X0221834Y0127327D01*
X0221796Y0127373D01*
X0221755Y0127416D01*
X0221712Y0127457D01*
X0221666Y0127495D01*
X0221617Y0127529D01*
X0221567Y0127561D01*
X0221514Y0127589D01*
X0221460Y0127614D01*
X0221404Y0127635D01*
X0221347Y0127652D01*
X0221289Y0127665D01*
X0221230Y0127675D01*
X0221171Y0127681D01*
X0221111Y0127683D01*
X0221051Y0127681D01*
X0220992Y0127675D01*
X0220933Y0127665D01*
X0220875Y0127652D01*
X0220818Y0127635D01*
X0220762Y0127614D01*
X0220708Y0127589D01*
X0220656Y0127561D01*
X0220605Y0127529D01*
X0220556Y0127495D01*
X0220510Y0127457D01*
X0220467Y0127416D01*
X0220426Y0127373D01*
X0220388Y0127327D01*
X0220354Y0127278D01*
X0220322Y0127228D01*
X0220294Y0127175D01*
X0220269Y0127121D01*
X0220248Y0127065D01*
X0220231Y0127008D01*
X0220218Y0126950D01*
X0220208Y0126891D01*
X0220202Y0126832D01*
X0220200Y0126772D01*
X0220200Y0125633D02*
X0220202Y0125582D01*
X0220208Y0125531D01*
X0220217Y0125481D01*
X0220230Y0125432D01*
X0220247Y0125383D01*
X0220268Y0125337D01*
X0220292Y0125292D01*
X0220319Y0125248D01*
X0220349Y0125207D01*
X0220382Y0125168D01*
X0220418Y0125132D01*
X0220457Y0125099D01*
X0220498Y0125069D01*
X0220542Y0125042D01*
X0220587Y0125018D01*
X0220633Y0124997D01*
X0220682Y0124980D01*
X0220731Y0124967D01*
X0220781Y0124958D01*
X0220832Y0124952D01*
X0220883Y0124950D01*
X0222022Y0124950D01*
X0224411Y0139950D02*
X0225778Y0144050D01*
X0223044Y0144050D02*
X0224411Y0139950D01*
X0227772Y0139950D02*
X0229708Y0142228D01*
X0229025Y0144050D02*
X0228956Y0144048D01*
X0228887Y0144043D01*
X0228819Y0144034D01*
X0228751Y0144021D01*
X0228684Y0144005D01*
X0228618Y0143985D01*
X0228553Y0143962D01*
X0228489Y0143936D01*
X0228427Y0143906D01*
X0228366Y0143873D01*
X0228307Y0143837D01*
X0228250Y0143798D01*
X0228196Y0143756D01*
X0228143Y0143711D01*
X0228093Y0143664D01*
X0228046Y0143614D01*
X0228001Y0143561D01*
X0227959Y0143506D01*
X0227920Y0143449D01*
X0227884Y0143391D01*
X0227851Y0143330D01*
X0227821Y0143268D01*
X0227795Y0143204D01*
X0227772Y0143139D01*
X0229708Y0142228D02*
X0229753Y0142273D01*
X0229795Y0142321D01*
X0229835Y0142371D01*
X0229871Y0142423D01*
X0229904Y0142477D01*
X0229934Y0142534D01*
X0229961Y0142591D01*
X0229984Y0142651D01*
X0230004Y0142711D01*
X0230021Y0142773D01*
X0230033Y0142835D01*
X0230043Y0142898D01*
X0230048Y0142961D01*
X0230050Y0143025D01*
X0230048Y0143087D01*
X0230043Y0143149D01*
X0230033Y0143210D01*
X0230020Y0143270D01*
X0230004Y0143330D01*
X0229983Y0143388D01*
X0229960Y0143446D01*
X0229933Y0143501D01*
X0229902Y0143555D01*
X0229869Y0143607D01*
X0229832Y0143657D01*
X0229792Y0143705D01*
X0229750Y0143750D01*
X0229705Y0143792D01*
X0229657Y0143832D01*
X0229607Y0143869D01*
X0229555Y0143902D01*
X0229501Y0143933D01*
X0229446Y0143960D01*
X0229388Y0143983D01*
X0229330Y0144004D01*
X0229270Y0144020D01*
X0229210Y0144033D01*
X0229149Y0144043D01*
X0229087Y0144048D01*
X0229025Y0144050D01*
X0230050Y0139950D02*
X0227772Y0139950D01*
X0219209Y0142228D02*
X0219209Y0142683D01*
X0217843Y0142683D01*
X0217843Y0139950D01*
X0215711Y0139950D02*
X0215711Y0142683D01*
X0215825Y0143822D02*
X0215597Y0143822D01*
X0215597Y0144050D01*
X0215825Y0144050D01*
X0215825Y0143822D01*
X0213585Y0142000D02*
X0213585Y0139950D01*
X0212560Y0139950D01*
X0212504Y0139952D01*
X0212449Y0139958D01*
X0212394Y0139967D01*
X0212340Y0139981D01*
X0212287Y0139998D01*
X0212236Y0140019D01*
X0212186Y0140043D01*
X0212138Y0140071D01*
X0212092Y0140102D01*
X0212048Y0140136D01*
X0212006Y0140174D01*
X0211968Y0140214D01*
X0211932Y0140256D01*
X0211899Y0140301D01*
X0211870Y0140349D01*
X0211844Y0140398D01*
X0211821Y0140448D01*
X0211802Y0140501D01*
X0211787Y0140554D01*
X0211775Y0140609D01*
X0211767Y0140664D01*
X0211763Y0140719D01*
X0211763Y0140775D01*
X0211767Y0140830D01*
X0211775Y0140885D01*
X0211787Y0140940D01*
X0211802Y0140993D01*
X0211821Y0141046D01*
X0211844Y0141096D01*
X0211870Y0141146D01*
X0211899Y0141193D01*
X0211932Y0141238D01*
X0211968Y0141280D01*
X0212006Y0141320D01*
X0212048Y0141358D01*
X0212092Y0141392D01*
X0212138Y0141423D01*
X0212186Y0141451D01*
X0212236Y0141475D01*
X0212287Y0141496D01*
X0212340Y0141513D01*
X0212394Y0141527D01*
X0212449Y0141536D01*
X0212504Y0141542D01*
X0212560Y0141544D01*
X0213585Y0141544D01*
X0213584Y0142000D02*
X0213582Y0142051D01*
X0213576Y0142102D01*
X0213567Y0142152D01*
X0213554Y0142201D01*
X0213537Y0142250D01*
X0213516Y0142296D01*
X0213492Y0142342D01*
X0213465Y0142385D01*
X0213435Y0142426D01*
X0213402Y0142465D01*
X0213366Y0142501D01*
X0213327Y0142534D01*
X0213286Y0142564D01*
X0213242Y0142591D01*
X0213197Y0142615D01*
X0213151Y0142636D01*
X0213102Y0142653D01*
X0213053Y0142666D01*
X0213003Y0142675D01*
X0212952Y0142681D01*
X0212901Y0142683D01*
X0211990Y0142683D01*
X0209572Y0142000D02*
X0209572Y0139950D01*
X0207750Y0139950D02*
X0207750Y0144050D01*
X0207750Y0142683D02*
X0208889Y0142683D01*
X0208940Y0142681D01*
X0208991Y0142675D01*
X0209041Y0142666D01*
X0209090Y0142653D01*
X0209139Y0142636D01*
X0209185Y0142615D01*
X0209230Y0142591D01*
X0209274Y0142564D01*
X0209315Y0142534D01*
X0209354Y0142501D01*
X0209390Y0142465D01*
X0209423Y0142426D01*
X0209453Y0142385D01*
X0209480Y0142342D01*
X0209504Y0142296D01*
X0209525Y0142250D01*
X0209542Y0142201D01*
X0209555Y0142152D01*
X0209564Y0142102D01*
X0209570Y0142051D01*
X0209572Y0142000D01*
X0205753Y0142683D02*
X0204842Y0142683D01*
X0204791Y0142681D01*
X0204740Y0142675D01*
X0204690Y0142666D01*
X0204641Y0142653D01*
X0204592Y0142636D01*
X0204546Y0142615D01*
X0204501Y0142591D01*
X0204457Y0142564D01*
X0204416Y0142534D01*
X0204377Y0142501D01*
X0204341Y0142465D01*
X0204308Y0142426D01*
X0204278Y0142385D01*
X0204251Y0142342D01*
X0204227Y0142296D01*
X0204206Y0142250D01*
X0204189Y0142201D01*
X0204176Y0142152D01*
X0204167Y0142102D01*
X0204161Y0142051D01*
X0204159Y0142000D01*
X0204159Y0140633D01*
X0204161Y0140582D01*
X0204167Y0140531D01*
X0204176Y0140481D01*
X0204189Y0140432D01*
X0204206Y0140383D01*
X0204227Y0140337D01*
X0204251Y0140292D01*
X0204278Y0140248D01*
X0204308Y0140207D01*
X0204341Y0140168D01*
X0204377Y0140132D01*
X0204416Y0140099D01*
X0204457Y0140069D01*
X0204501Y0140042D01*
X0204546Y0140018D01*
X0204592Y0139997D01*
X0204641Y0139980D01*
X0204690Y0139967D01*
X0204740Y0139958D01*
X0204791Y0139952D01*
X0204842Y0139950D01*
X0205753Y0139950D01*
X0202435Y0139950D02*
X0202384Y0139952D01*
X0202333Y0139958D01*
X0202283Y0139967D01*
X0202234Y0139980D01*
X0202185Y0139997D01*
X0202139Y0140018D01*
X0202094Y0140042D01*
X0202050Y0140069D01*
X0202009Y0140099D01*
X0201970Y0140132D01*
X0201934Y0140168D01*
X0201901Y0140207D01*
X0201871Y0140248D01*
X0201844Y0140292D01*
X0201820Y0140337D01*
X0201799Y0140383D01*
X0201782Y0140432D01*
X0201769Y0140481D01*
X0201760Y0140531D01*
X0201754Y0140582D01*
X0201752Y0140633D01*
X0201752Y0144050D01*
X0199672Y0141772D02*
X0199672Y0141317D01*
X0197850Y0141317D01*
X0197850Y0141772D02*
X0197850Y0140633D01*
X0197852Y0140582D01*
X0197858Y0140531D01*
X0197867Y0140481D01*
X0197880Y0140432D01*
X0197897Y0140383D01*
X0197918Y0140337D01*
X0197942Y0140292D01*
X0197969Y0140248D01*
X0197999Y0140207D01*
X0198032Y0140168D01*
X0198068Y0140132D01*
X0198107Y0140099D01*
X0198148Y0140069D01*
X0198192Y0140042D01*
X0198237Y0140018D01*
X0198283Y0139997D01*
X0198332Y0139980D01*
X0198381Y0139967D01*
X0198431Y0139958D01*
X0198482Y0139952D01*
X0198533Y0139950D01*
X0199672Y0139950D01*
X0199672Y0141772D02*
X0199670Y0141832D01*
X0199664Y0141891D01*
X0199654Y0141950D01*
X0199641Y0142008D01*
X0199624Y0142065D01*
X0199603Y0142121D01*
X0199578Y0142175D01*
X0199550Y0142228D01*
X0199518Y0142278D01*
X0199484Y0142327D01*
X0199446Y0142373D01*
X0199405Y0142416D01*
X0199362Y0142457D01*
X0199316Y0142495D01*
X0199267Y0142529D01*
X0199217Y0142561D01*
X0199164Y0142589D01*
X0199110Y0142614D01*
X0199054Y0142635D01*
X0198997Y0142652D01*
X0198939Y0142665D01*
X0198880Y0142675D01*
X0198821Y0142681D01*
X0198761Y0142683D01*
X0198701Y0142681D01*
X0198642Y0142675D01*
X0198583Y0142665D01*
X0198525Y0142652D01*
X0198468Y0142635D01*
X0198412Y0142614D01*
X0198358Y0142589D01*
X0198306Y0142561D01*
X0198255Y0142529D01*
X0198206Y0142495D01*
X0198160Y0142457D01*
X0198117Y0142416D01*
X0198076Y0142373D01*
X0198038Y0142327D01*
X0198004Y0142278D01*
X0197972Y0142228D01*
X0197944Y0142175D01*
X0197919Y0142121D01*
X0197898Y0142065D01*
X0197881Y0142008D01*
X0197868Y0141950D01*
X0197858Y0141891D01*
X0197852Y0141832D01*
X0197850Y0141772D01*
X0195772Y0141772D02*
X0195772Y0141317D01*
X0193950Y0141317D01*
X0193950Y0141772D02*
X0193950Y0140633D01*
X0193952Y0140582D01*
X0193958Y0140531D01*
X0193967Y0140481D01*
X0193980Y0140432D01*
X0193997Y0140383D01*
X0194018Y0140337D01*
X0194042Y0140292D01*
X0194069Y0140248D01*
X0194099Y0140207D01*
X0194132Y0140168D01*
X0194168Y0140132D01*
X0194207Y0140099D01*
X0194248Y0140069D01*
X0194292Y0140042D01*
X0194337Y0140018D01*
X0194383Y0139997D01*
X0194432Y0139980D01*
X0194481Y0139967D01*
X0194531Y0139958D01*
X0194582Y0139952D01*
X0194633Y0139950D01*
X0195772Y0139950D01*
X0195772Y0141772D02*
X0195770Y0141832D01*
X0195764Y0141891D01*
X0195754Y0141950D01*
X0195741Y0142008D01*
X0195724Y0142065D01*
X0195703Y0142121D01*
X0195678Y0142175D01*
X0195650Y0142228D01*
X0195618Y0142278D01*
X0195584Y0142327D01*
X0195546Y0142373D01*
X0195505Y0142416D01*
X0195462Y0142457D01*
X0195416Y0142495D01*
X0195367Y0142529D01*
X0195317Y0142561D01*
X0195264Y0142589D01*
X0195210Y0142614D01*
X0195154Y0142635D01*
X0195097Y0142652D01*
X0195039Y0142665D01*
X0194980Y0142675D01*
X0194921Y0142681D01*
X0194861Y0142683D01*
X0194801Y0142681D01*
X0194742Y0142675D01*
X0194683Y0142665D01*
X0194625Y0142652D01*
X0194568Y0142635D01*
X0194512Y0142614D01*
X0194458Y0142589D01*
X0194406Y0142561D01*
X0194355Y0142529D01*
X0194306Y0142495D01*
X0194260Y0142457D01*
X0194217Y0142416D01*
X0194176Y0142373D01*
X0194138Y0142327D01*
X0194104Y0142278D01*
X0194072Y0142228D01*
X0194044Y0142175D01*
X0194019Y0142121D01*
X0193998Y0142065D01*
X0193981Y0142008D01*
X0193968Y0141950D01*
X0193958Y0141891D01*
X0193952Y0141832D01*
X0193950Y0141772D01*
X0191722Y0142000D02*
X0191722Y0139950D01*
X0189900Y0139950D02*
X0189900Y0144050D01*
X0189900Y0142683D02*
X0191039Y0142683D01*
X0191090Y0142681D01*
X0191141Y0142675D01*
X0191191Y0142666D01*
X0191240Y0142653D01*
X0191289Y0142636D01*
X0191335Y0142615D01*
X0191380Y0142591D01*
X0191424Y0142564D01*
X0191465Y0142534D01*
X0191504Y0142501D01*
X0191540Y0142465D01*
X0191573Y0142426D01*
X0191603Y0142385D01*
X0191630Y0142342D01*
X0191654Y0142296D01*
X0191675Y0142250D01*
X0191692Y0142201D01*
X0191705Y0142152D01*
X0191714Y0142102D01*
X0191720Y0142051D01*
X0191722Y0142000D01*
X0187683Y0144050D02*
X0186772Y0139950D01*
X0185861Y0142683D01*
X0184950Y0139950D01*
X0184039Y0144050D01*
X0179385Y0144050D02*
X0179385Y0139950D01*
X0178246Y0139950D01*
X0178195Y0139952D01*
X0178144Y0139958D01*
X0178094Y0139967D01*
X0178045Y0139980D01*
X0177996Y0139997D01*
X0177950Y0140018D01*
X0177905Y0140042D01*
X0177861Y0140069D01*
X0177820Y0140099D01*
X0177781Y0140132D01*
X0177745Y0140168D01*
X0177712Y0140207D01*
X0177682Y0140248D01*
X0177655Y0140292D01*
X0177631Y0140337D01*
X0177610Y0140383D01*
X0177593Y0140432D01*
X0177580Y0140481D01*
X0177571Y0140531D01*
X0177565Y0140582D01*
X0177563Y0140633D01*
X0177562Y0140633D02*
X0177562Y0142000D01*
X0177563Y0142000D02*
X0177565Y0142051D01*
X0177571Y0142102D01*
X0177580Y0142152D01*
X0177593Y0142201D01*
X0177610Y0142250D01*
X0177631Y0142296D01*
X0177655Y0142342D01*
X0177682Y0142385D01*
X0177712Y0142426D01*
X0177745Y0142465D01*
X0177781Y0142501D01*
X0177820Y0142534D01*
X0177861Y0142564D01*
X0177905Y0142591D01*
X0177950Y0142615D01*
X0177996Y0142636D01*
X0178045Y0142653D01*
X0178094Y0142666D01*
X0178144Y0142675D01*
X0178195Y0142681D01*
X0178246Y0142683D01*
X0179385Y0142683D01*
X0175522Y0141772D02*
X0175522Y0141317D01*
X0173700Y0141317D01*
X0173700Y0141772D02*
X0173700Y0140633D01*
X0173702Y0140582D01*
X0173708Y0140531D01*
X0173717Y0140481D01*
X0173730Y0140432D01*
X0173747Y0140383D01*
X0173768Y0140337D01*
X0173792Y0140292D01*
X0173819Y0140248D01*
X0173849Y0140207D01*
X0173882Y0140168D01*
X0173918Y0140132D01*
X0173957Y0140099D01*
X0173998Y0140069D01*
X0174042Y0140042D01*
X0174087Y0140018D01*
X0174133Y0139997D01*
X0174182Y0139980D01*
X0174231Y0139967D01*
X0174281Y0139958D01*
X0174332Y0139952D01*
X0174383Y0139950D01*
X0175522Y0139950D01*
X0175522Y0141772D02*
X0175520Y0141832D01*
X0175514Y0141891D01*
X0175504Y0141950D01*
X0175491Y0142008D01*
X0175474Y0142065D01*
X0175453Y0142121D01*
X0175428Y0142175D01*
X0175400Y0142228D01*
X0175368Y0142278D01*
X0175334Y0142327D01*
X0175296Y0142373D01*
X0175255Y0142416D01*
X0175212Y0142457D01*
X0175166Y0142495D01*
X0175117Y0142529D01*
X0175067Y0142561D01*
X0175014Y0142589D01*
X0174960Y0142614D01*
X0174904Y0142635D01*
X0174847Y0142652D01*
X0174789Y0142665D01*
X0174730Y0142675D01*
X0174671Y0142681D01*
X0174611Y0142683D01*
X0174551Y0142681D01*
X0174492Y0142675D01*
X0174433Y0142665D01*
X0174375Y0142652D01*
X0174318Y0142635D01*
X0174262Y0142614D01*
X0174208Y0142589D01*
X0174156Y0142561D01*
X0174105Y0142529D01*
X0174056Y0142495D01*
X0174010Y0142457D01*
X0173967Y0142416D01*
X0173926Y0142373D01*
X0173888Y0142327D01*
X0173854Y0142278D01*
X0173822Y0142228D01*
X0173794Y0142175D01*
X0173769Y0142121D01*
X0173748Y0142065D01*
X0173731Y0142008D01*
X0173718Y0141950D01*
X0173708Y0141891D01*
X0173702Y0141832D01*
X0173700Y0141772D01*
X0171785Y0142683D02*
X0170419Y0142683D01*
X0170874Y0144050D02*
X0170874Y0140633D01*
X0170875Y0140633D02*
X0170877Y0140582D01*
X0170883Y0140531D01*
X0170892Y0140481D01*
X0170905Y0140432D01*
X0170922Y0140383D01*
X0170943Y0140337D01*
X0170967Y0140292D01*
X0170994Y0140248D01*
X0171024Y0140207D01*
X0171057Y0140168D01*
X0171093Y0140132D01*
X0171132Y0140099D01*
X0171173Y0140069D01*
X0171217Y0140042D01*
X0171262Y0140018D01*
X0171308Y0139997D01*
X0171357Y0139980D01*
X0171406Y0139967D01*
X0171456Y0139958D01*
X0171507Y0139952D01*
X0171558Y0139950D01*
X0171785Y0139950D01*
X0168585Y0139950D02*
X0168585Y0142000D01*
X0168585Y0141544D02*
X0167560Y0141544D01*
X0168584Y0142000D02*
X0168582Y0142051D01*
X0168576Y0142102D01*
X0168567Y0142152D01*
X0168554Y0142201D01*
X0168537Y0142250D01*
X0168516Y0142296D01*
X0168492Y0142342D01*
X0168465Y0142385D01*
X0168435Y0142426D01*
X0168402Y0142465D01*
X0168366Y0142501D01*
X0168327Y0142534D01*
X0168286Y0142564D01*
X0168242Y0142591D01*
X0168197Y0142615D01*
X0168151Y0142636D01*
X0168102Y0142653D01*
X0168053Y0142666D01*
X0168003Y0142675D01*
X0167952Y0142681D01*
X0167901Y0142683D01*
X0166990Y0142683D01*
X0167560Y0141544D02*
X0167504Y0141542D01*
X0167449Y0141536D01*
X0167394Y0141527D01*
X0167340Y0141513D01*
X0167287Y0141496D01*
X0167236Y0141475D01*
X0167186Y0141451D01*
X0167138Y0141423D01*
X0167092Y0141392D01*
X0167048Y0141358D01*
X0167006Y0141320D01*
X0166968Y0141280D01*
X0166932Y0141238D01*
X0166899Y0141193D01*
X0166870Y0141146D01*
X0166844Y0141096D01*
X0166821Y0141046D01*
X0166802Y0140993D01*
X0166787Y0140940D01*
X0166775Y0140885D01*
X0166767Y0140830D01*
X0166763Y0140775D01*
X0166763Y0140719D01*
X0166767Y0140664D01*
X0166775Y0140609D01*
X0166787Y0140554D01*
X0166802Y0140501D01*
X0166821Y0140448D01*
X0166844Y0140398D01*
X0166870Y0140349D01*
X0166899Y0140301D01*
X0166932Y0140256D01*
X0166968Y0140214D01*
X0167006Y0140174D01*
X0167048Y0140136D01*
X0167092Y0140102D01*
X0167138Y0140071D01*
X0167186Y0140043D01*
X0167236Y0140019D01*
X0167287Y0139998D01*
X0167340Y0139981D01*
X0167394Y0139967D01*
X0167449Y0139958D01*
X0167504Y0139952D01*
X0167560Y0139950D01*
X0168585Y0139950D01*
X0174372Y0136550D02*
X0176650Y0132450D01*
X0176650Y0136550D01*
X0174372Y0136550D02*
X0174372Y0132450D01*
X0169485Y0132450D02*
X0168346Y0132450D01*
X0168295Y0132452D01*
X0168244Y0132458D01*
X0168194Y0132467D01*
X0168145Y0132480D01*
X0168096Y0132497D01*
X0168050Y0132518D01*
X0168005Y0132542D01*
X0167961Y0132569D01*
X0167920Y0132599D01*
X0167881Y0132632D01*
X0167845Y0132668D01*
X0167812Y0132707D01*
X0167782Y0132748D01*
X0167755Y0132792D01*
X0167731Y0132837D01*
X0167710Y0132883D01*
X0167693Y0132932D01*
X0167680Y0132981D01*
X0167671Y0133031D01*
X0167665Y0133082D01*
X0167663Y0133133D01*
X0167662Y0133133D02*
X0167662Y0134500D01*
X0167663Y0134500D02*
X0167665Y0134551D01*
X0167671Y0134602D01*
X0167680Y0134652D01*
X0167693Y0134701D01*
X0167710Y0134750D01*
X0167731Y0134796D01*
X0167755Y0134842D01*
X0167782Y0134885D01*
X0167812Y0134926D01*
X0167845Y0134965D01*
X0167881Y0135001D01*
X0167920Y0135034D01*
X0167961Y0135064D01*
X0168005Y0135091D01*
X0168050Y0135115D01*
X0168096Y0135136D01*
X0168145Y0135153D01*
X0168194Y0135166D01*
X0168244Y0135175D01*
X0168295Y0135181D01*
X0168346Y0135183D01*
X0169485Y0135183D01*
X0169485Y0131767D01*
X0169484Y0131767D02*
X0169482Y0131716D01*
X0169476Y0131665D01*
X0169467Y0131615D01*
X0169454Y0131566D01*
X0169437Y0131517D01*
X0169416Y0131471D01*
X0169392Y0131425D01*
X0169365Y0131382D01*
X0169335Y0131341D01*
X0169302Y0131302D01*
X0169266Y0131266D01*
X0169227Y0131233D01*
X0169186Y0131203D01*
X0169142Y0131176D01*
X0169097Y0131152D01*
X0169051Y0131131D01*
X0169002Y0131114D01*
X0168953Y0131101D01*
X0168903Y0131092D01*
X0168852Y0131086D01*
X0168801Y0131084D01*
X0168801Y0131083D02*
X0167890Y0131083D01*
X0168338Y0129050D02*
X0168338Y0124950D01*
X0169477Y0124950D01*
X0169528Y0124952D01*
X0169579Y0124958D01*
X0169629Y0124967D01*
X0169678Y0124980D01*
X0169727Y0124997D01*
X0169773Y0125018D01*
X0169818Y0125042D01*
X0169862Y0125069D01*
X0169903Y0125099D01*
X0169942Y0125132D01*
X0169978Y0125168D01*
X0170011Y0125207D01*
X0170041Y0125248D01*
X0170068Y0125291D01*
X0170092Y0125337D01*
X0170113Y0125383D01*
X0170130Y0125432D01*
X0170143Y0125481D01*
X0170152Y0125531D01*
X0170158Y0125582D01*
X0170160Y0125633D01*
X0170160Y0127000D01*
X0170158Y0127051D01*
X0170152Y0127102D01*
X0170143Y0127152D01*
X0170130Y0127201D01*
X0170113Y0127250D01*
X0170092Y0127296D01*
X0170068Y0127342D01*
X0170041Y0127385D01*
X0170011Y0127426D01*
X0169978Y0127465D01*
X0169942Y0127501D01*
X0169903Y0127534D01*
X0169862Y0127564D01*
X0169818Y0127591D01*
X0169773Y0127615D01*
X0169727Y0127636D01*
X0169678Y0127653D01*
X0169629Y0127666D01*
X0169579Y0127675D01*
X0169528Y0127681D01*
X0169477Y0127683D01*
X0168338Y0127683D01*
X0165778Y0127000D02*
X0165778Y0124950D01*
X0164411Y0124950D02*
X0164411Y0127683D01*
X0165095Y0127683D02*
X0163045Y0127683D01*
X0163045Y0124950D01*
X0160485Y0124950D02*
X0160485Y0127000D01*
X0160485Y0126544D02*
X0159460Y0126544D01*
X0160484Y0127000D02*
X0160482Y0127051D01*
X0160476Y0127102D01*
X0160467Y0127152D01*
X0160454Y0127201D01*
X0160437Y0127250D01*
X0160416Y0127296D01*
X0160392Y0127342D01*
X0160365Y0127385D01*
X0160335Y0127426D01*
X0160302Y0127465D01*
X0160266Y0127501D01*
X0160227Y0127534D01*
X0160186Y0127564D01*
X0160142Y0127591D01*
X0160097Y0127615D01*
X0160051Y0127636D01*
X0160002Y0127653D01*
X0159953Y0127666D01*
X0159903Y0127675D01*
X0159852Y0127681D01*
X0159801Y0127683D01*
X0158890Y0127683D01*
X0159460Y0126544D02*
X0159404Y0126542D01*
X0159349Y0126536D01*
X0159294Y0126527D01*
X0159240Y0126513D01*
X0159187Y0126496D01*
X0159136Y0126475D01*
X0159086Y0126451D01*
X0159038Y0126423D01*
X0158992Y0126392D01*
X0158948Y0126358D01*
X0158906Y0126320D01*
X0158868Y0126280D01*
X0158832Y0126238D01*
X0158799Y0126193D01*
X0158770Y0126146D01*
X0158744Y0126096D01*
X0158721Y0126046D01*
X0158702Y0125993D01*
X0158687Y0125940D01*
X0158675Y0125885D01*
X0158667Y0125830D01*
X0158663Y0125775D01*
X0158663Y0125719D01*
X0158667Y0125664D01*
X0158675Y0125609D01*
X0158687Y0125554D01*
X0158702Y0125501D01*
X0158721Y0125448D01*
X0158744Y0125398D01*
X0158770Y0125349D01*
X0158799Y0125301D01*
X0158832Y0125256D01*
X0158868Y0125214D01*
X0158906Y0125174D01*
X0158948Y0125136D01*
X0158992Y0125102D01*
X0159038Y0125071D01*
X0159086Y0125043D01*
X0159136Y0125019D01*
X0159187Y0124998D01*
X0159240Y0124981D01*
X0159294Y0124967D01*
X0159349Y0124958D01*
X0159404Y0124952D01*
X0159460Y0124950D01*
X0160485Y0124950D01*
X0156472Y0124950D02*
X0156472Y0127000D01*
X0156470Y0127051D01*
X0156464Y0127102D01*
X0156455Y0127152D01*
X0156442Y0127201D01*
X0156425Y0127250D01*
X0156404Y0127296D01*
X0156380Y0127342D01*
X0156353Y0127385D01*
X0156323Y0127426D01*
X0156290Y0127465D01*
X0156254Y0127501D01*
X0156215Y0127534D01*
X0156174Y0127564D01*
X0156130Y0127591D01*
X0156085Y0127615D01*
X0156039Y0127636D01*
X0155990Y0127653D01*
X0155941Y0127666D01*
X0155891Y0127675D01*
X0155840Y0127681D01*
X0155789Y0127683D01*
X0154650Y0127683D01*
X0154650Y0129050D02*
X0154650Y0124950D01*
X0152623Y0124950D02*
X0151712Y0124950D01*
X0151652Y0124952D01*
X0151593Y0124958D01*
X0151534Y0124968D01*
X0151476Y0124981D01*
X0151419Y0124998D01*
X0151363Y0125019D01*
X0151309Y0125044D01*
X0151257Y0125072D01*
X0151206Y0125104D01*
X0151157Y0125138D01*
X0151111Y0125176D01*
X0151068Y0125217D01*
X0151027Y0125260D01*
X0150989Y0125306D01*
X0150955Y0125355D01*
X0150923Y0125406D01*
X0150895Y0125458D01*
X0150870Y0125512D01*
X0150849Y0125568D01*
X0150832Y0125625D01*
X0150819Y0125683D01*
X0150809Y0125742D01*
X0150803Y0125801D01*
X0150801Y0125861D01*
X0150801Y0128139D01*
X0150803Y0128199D01*
X0150809Y0128258D01*
X0150819Y0128317D01*
X0150832Y0128375D01*
X0150849Y0128432D01*
X0150870Y0128488D01*
X0150895Y0128542D01*
X0150923Y0128594D01*
X0150955Y0128645D01*
X0150989Y0128694D01*
X0151027Y0128740D01*
X0151068Y0128783D01*
X0151111Y0128824D01*
X0151157Y0128862D01*
X0151206Y0128896D01*
X0151256Y0128928D01*
X0151309Y0128956D01*
X0151363Y0128981D01*
X0151419Y0129002D01*
X0151476Y0129019D01*
X0151534Y0129032D01*
X0151593Y0129042D01*
X0151652Y0129048D01*
X0151712Y0129050D01*
X0152623Y0129050D01*
X0153358Y0132450D02*
X0151992Y0134956D01*
X0151081Y0134044D02*
X0153358Y0136550D01*
X0155400Y0136550D02*
X0155400Y0132450D01*
X0157222Y0132450D02*
X0157222Y0134500D01*
X0157220Y0134551D01*
X0157214Y0134602D01*
X0157205Y0134652D01*
X0157192Y0134701D01*
X0157175Y0134750D01*
X0157154Y0134796D01*
X0157130Y0134842D01*
X0157103Y0134885D01*
X0157073Y0134926D01*
X0157040Y0134965D01*
X0157004Y0135001D01*
X0156965Y0135034D01*
X0156924Y0135064D01*
X0156880Y0135091D01*
X0156835Y0135115D01*
X0156789Y0135136D01*
X0156740Y0135153D01*
X0156691Y0135166D01*
X0156641Y0135175D01*
X0156590Y0135181D01*
X0156539Y0135183D01*
X0155400Y0135183D01*
X0159640Y0135183D02*
X0160551Y0135183D01*
X0160602Y0135181D01*
X0160653Y0135175D01*
X0160703Y0135166D01*
X0160752Y0135153D01*
X0160801Y0135136D01*
X0160847Y0135115D01*
X0160892Y0135091D01*
X0160936Y0135064D01*
X0160977Y0135034D01*
X0161016Y0135001D01*
X0161052Y0134965D01*
X0161085Y0134926D01*
X0161115Y0134885D01*
X0161142Y0134842D01*
X0161166Y0134796D01*
X0161187Y0134750D01*
X0161204Y0134701D01*
X0161217Y0134652D01*
X0161226Y0134602D01*
X0161232Y0134551D01*
X0161234Y0134500D01*
X0161235Y0134500D02*
X0161235Y0132450D01*
X0160210Y0132450D01*
X0160154Y0132452D01*
X0160099Y0132458D01*
X0160044Y0132467D01*
X0159990Y0132481D01*
X0159937Y0132498D01*
X0159886Y0132519D01*
X0159836Y0132543D01*
X0159788Y0132571D01*
X0159742Y0132602D01*
X0159698Y0132636D01*
X0159656Y0132674D01*
X0159618Y0132714D01*
X0159582Y0132756D01*
X0159549Y0132801D01*
X0159520Y0132849D01*
X0159494Y0132898D01*
X0159471Y0132948D01*
X0159452Y0133001D01*
X0159437Y0133054D01*
X0159425Y0133109D01*
X0159417Y0133164D01*
X0159413Y0133219D01*
X0159413Y0133275D01*
X0159417Y0133330D01*
X0159425Y0133385D01*
X0159437Y0133440D01*
X0159452Y0133493D01*
X0159471Y0133546D01*
X0159494Y0133596D01*
X0159520Y0133646D01*
X0159549Y0133693D01*
X0159582Y0133738D01*
X0159618Y0133780D01*
X0159656Y0133820D01*
X0159698Y0133858D01*
X0159742Y0133892D01*
X0159788Y0133923D01*
X0159836Y0133951D01*
X0159886Y0133975D01*
X0159937Y0133996D01*
X0159990Y0134013D01*
X0160044Y0134027D01*
X0160099Y0134036D01*
X0160154Y0134042D01*
X0160210Y0134044D01*
X0161235Y0134044D01*
X0163650Y0135183D02*
X0163650Y0132450D01*
X0165472Y0132450D02*
X0165472Y0134500D01*
X0165470Y0134551D01*
X0165464Y0134602D01*
X0165455Y0134652D01*
X0165442Y0134701D01*
X0165425Y0134750D01*
X0165404Y0134796D01*
X0165380Y0134842D01*
X0165353Y0134885D01*
X0165323Y0134926D01*
X0165290Y0134965D01*
X0165254Y0135001D01*
X0165215Y0135034D01*
X0165174Y0135064D01*
X0165130Y0135091D01*
X0165085Y0135115D01*
X0165039Y0135136D01*
X0164990Y0135153D01*
X0164941Y0135166D01*
X0164891Y0135175D01*
X0164840Y0135181D01*
X0164789Y0135183D01*
X0163650Y0135183D01*
X0163061Y0139950D02*
X0163061Y0142683D01*
X0163745Y0142683D02*
X0161695Y0142683D01*
X0161695Y0139950D01*
X0159322Y0140861D02*
X0159322Y0141772D01*
X0159320Y0141832D01*
X0159314Y0141891D01*
X0159304Y0141950D01*
X0159291Y0142008D01*
X0159274Y0142065D01*
X0159253Y0142121D01*
X0159228Y0142175D01*
X0159200Y0142228D01*
X0159168Y0142278D01*
X0159134Y0142327D01*
X0159096Y0142373D01*
X0159055Y0142416D01*
X0159012Y0142457D01*
X0158966Y0142495D01*
X0158917Y0142529D01*
X0158867Y0142561D01*
X0158814Y0142589D01*
X0158760Y0142614D01*
X0158704Y0142635D01*
X0158647Y0142652D01*
X0158589Y0142665D01*
X0158530Y0142675D01*
X0158471Y0142681D01*
X0158411Y0142683D01*
X0158351Y0142681D01*
X0158292Y0142675D01*
X0158233Y0142665D01*
X0158175Y0142652D01*
X0158118Y0142635D01*
X0158062Y0142614D01*
X0158008Y0142589D01*
X0157956Y0142561D01*
X0157905Y0142529D01*
X0157856Y0142495D01*
X0157810Y0142457D01*
X0157767Y0142416D01*
X0157726Y0142373D01*
X0157688Y0142327D01*
X0157654Y0142278D01*
X0157622Y0142228D01*
X0157594Y0142175D01*
X0157569Y0142121D01*
X0157548Y0142065D01*
X0157531Y0142008D01*
X0157518Y0141950D01*
X0157508Y0141891D01*
X0157502Y0141832D01*
X0157500Y0141772D01*
X0157500Y0140861D01*
X0157502Y0140801D01*
X0157508Y0140742D01*
X0157518Y0140683D01*
X0157531Y0140625D01*
X0157548Y0140568D01*
X0157569Y0140512D01*
X0157594Y0140458D01*
X0157622Y0140406D01*
X0157654Y0140355D01*
X0157688Y0140306D01*
X0157726Y0140260D01*
X0157767Y0140217D01*
X0157810Y0140176D01*
X0157856Y0140138D01*
X0157905Y0140104D01*
X0157956Y0140072D01*
X0158008Y0140044D01*
X0158062Y0140019D01*
X0158118Y0139998D01*
X0158175Y0139981D01*
X0158233Y0139968D01*
X0158292Y0139958D01*
X0158351Y0139952D01*
X0158411Y0139950D01*
X0158471Y0139952D01*
X0158530Y0139958D01*
X0158589Y0139968D01*
X0158647Y0139981D01*
X0158704Y0139998D01*
X0158760Y0140019D01*
X0158814Y0140044D01*
X0158867Y0140072D01*
X0158917Y0140104D01*
X0158966Y0140138D01*
X0159012Y0140176D01*
X0159055Y0140217D01*
X0159096Y0140260D01*
X0159134Y0140306D01*
X0159168Y0140355D01*
X0159200Y0140406D01*
X0159228Y0140458D01*
X0159253Y0140512D01*
X0159274Y0140568D01*
X0159291Y0140625D01*
X0159304Y0140683D01*
X0159314Y0140742D01*
X0159320Y0140801D01*
X0159322Y0140861D01*
X0155585Y0139950D02*
X0155358Y0139950D01*
X0155307Y0139952D01*
X0155256Y0139958D01*
X0155206Y0139967D01*
X0155157Y0139980D01*
X0155108Y0139997D01*
X0155062Y0140018D01*
X0155017Y0140042D01*
X0154973Y0140069D01*
X0154932Y0140099D01*
X0154893Y0140132D01*
X0154857Y0140168D01*
X0154824Y0140207D01*
X0154794Y0140248D01*
X0154767Y0140292D01*
X0154743Y0140337D01*
X0154722Y0140383D01*
X0154705Y0140432D01*
X0154692Y0140481D01*
X0154683Y0140531D01*
X0154677Y0140582D01*
X0154675Y0140633D01*
X0154674Y0140633D02*
X0154674Y0144050D01*
X0154219Y0142683D02*
X0155585Y0142683D01*
X0152422Y0142683D02*
X0152422Y0139950D01*
X0151283Y0139950D01*
X0151232Y0139952D01*
X0151181Y0139958D01*
X0151131Y0139967D01*
X0151082Y0139980D01*
X0151033Y0139997D01*
X0150987Y0140018D01*
X0150942Y0140042D01*
X0150898Y0140069D01*
X0150857Y0140099D01*
X0150818Y0140132D01*
X0150782Y0140168D01*
X0150749Y0140207D01*
X0150719Y0140248D01*
X0150692Y0140292D01*
X0150668Y0140337D01*
X0150647Y0140383D01*
X0150630Y0140432D01*
X0150617Y0140481D01*
X0150608Y0140531D01*
X0150602Y0140582D01*
X0150600Y0140633D01*
X0150600Y0142683D01*
X0148186Y0140975D02*
X0146136Y0140975D01*
X0145795Y0139950D02*
X0147161Y0144050D01*
X0148528Y0139950D01*
X0151081Y0136550D02*
X0151081Y0132450D01*
X0148528Y0134044D02*
X0145795Y0134044D01*
X0145795Y0126544D02*
X0148528Y0126544D01*
X0156900Y0120183D02*
X0157811Y0117450D01*
X0160397Y0121322D02*
X0160625Y0121322D01*
X0160625Y0121550D01*
X0160397Y0121550D01*
X0160397Y0121322D01*
X0165778Y0127000D02*
X0165776Y0127051D01*
X0165770Y0127102D01*
X0165761Y0127152D01*
X0165748Y0127201D01*
X0165731Y0127250D01*
X0165710Y0127296D01*
X0165686Y0127342D01*
X0165659Y0127385D01*
X0165629Y0127426D01*
X0165596Y0127465D01*
X0165560Y0127501D01*
X0165521Y0127534D01*
X0165480Y0127564D01*
X0165437Y0127591D01*
X0165391Y0127615D01*
X0165345Y0127636D01*
X0165296Y0127653D01*
X0165247Y0127666D01*
X0165197Y0127675D01*
X0165146Y0127681D01*
X0165095Y0127683D01*
X0172200Y0126772D02*
X0172200Y0125633D01*
X0172202Y0125582D01*
X0172208Y0125531D01*
X0172217Y0125481D01*
X0172230Y0125432D01*
X0172247Y0125383D01*
X0172268Y0125337D01*
X0172292Y0125292D01*
X0172319Y0125248D01*
X0172349Y0125207D01*
X0172382Y0125168D01*
X0172418Y0125132D01*
X0172457Y0125099D01*
X0172498Y0125069D01*
X0172542Y0125042D01*
X0172587Y0125018D01*
X0172633Y0124997D01*
X0172682Y0124980D01*
X0172731Y0124967D01*
X0172781Y0124958D01*
X0172832Y0124952D01*
X0172883Y0124950D01*
X0174022Y0124950D01*
X0174022Y0126317D02*
X0172200Y0126317D01*
X0172200Y0126772D02*
X0172202Y0126832D01*
X0172208Y0126891D01*
X0172218Y0126950D01*
X0172231Y0127008D01*
X0172248Y0127065D01*
X0172269Y0127121D01*
X0172294Y0127175D01*
X0172322Y0127228D01*
X0172354Y0127278D01*
X0172388Y0127327D01*
X0172426Y0127373D01*
X0172467Y0127416D01*
X0172510Y0127457D01*
X0172556Y0127495D01*
X0172605Y0127529D01*
X0172656Y0127561D01*
X0172708Y0127589D01*
X0172762Y0127614D01*
X0172818Y0127635D01*
X0172875Y0127652D01*
X0172933Y0127665D01*
X0172992Y0127675D01*
X0173051Y0127681D01*
X0173111Y0127683D01*
X0173171Y0127681D01*
X0173230Y0127675D01*
X0173289Y0127665D01*
X0173347Y0127652D01*
X0173404Y0127635D01*
X0173460Y0127614D01*
X0173514Y0127589D01*
X0173567Y0127561D01*
X0173617Y0127529D01*
X0173666Y0127495D01*
X0173712Y0127457D01*
X0173755Y0127416D01*
X0173796Y0127373D01*
X0173834Y0127327D01*
X0173868Y0127278D01*
X0173900Y0127228D01*
X0173928Y0127175D01*
X0173953Y0127121D01*
X0173974Y0127065D01*
X0173991Y0127008D01*
X0174004Y0126950D01*
X0174014Y0126891D01*
X0174020Y0126832D01*
X0174022Y0126772D01*
X0174022Y0126317D01*
X0176293Y0127683D02*
X0177659Y0127683D01*
X0177659Y0127228D01*
X0176293Y0127683D02*
X0176293Y0124950D01*
X0179252Y0125633D02*
X0179252Y0129050D01*
X0179140Y0131083D02*
X0180051Y0131083D01*
X0180051Y0131084D02*
X0180102Y0131086D01*
X0180153Y0131092D01*
X0180203Y0131101D01*
X0180252Y0131114D01*
X0180301Y0131131D01*
X0180347Y0131152D01*
X0180392Y0131176D01*
X0180436Y0131203D01*
X0180477Y0131233D01*
X0180516Y0131266D01*
X0180552Y0131302D01*
X0180585Y0131341D01*
X0180615Y0131382D01*
X0180642Y0131425D01*
X0180666Y0131471D01*
X0180687Y0131517D01*
X0180704Y0131566D01*
X0180717Y0131615D01*
X0180726Y0131665D01*
X0180732Y0131716D01*
X0180734Y0131767D01*
X0180735Y0131767D02*
X0180735Y0135183D01*
X0179596Y0135183D01*
X0179545Y0135181D01*
X0179494Y0135175D01*
X0179444Y0135166D01*
X0179395Y0135153D01*
X0179346Y0135136D01*
X0179300Y0135115D01*
X0179255Y0135091D01*
X0179211Y0135064D01*
X0179170Y0135034D01*
X0179131Y0135001D01*
X0179095Y0134965D01*
X0179062Y0134926D01*
X0179032Y0134885D01*
X0179005Y0134842D01*
X0178981Y0134796D01*
X0178960Y0134750D01*
X0178943Y0134701D01*
X0178930Y0134652D01*
X0178921Y0134602D01*
X0178915Y0134551D01*
X0178913Y0134500D01*
X0178912Y0134500D02*
X0178912Y0133133D01*
X0178913Y0133133D02*
X0178915Y0133082D01*
X0178921Y0133031D01*
X0178930Y0132981D01*
X0178943Y0132932D01*
X0178960Y0132883D01*
X0178981Y0132837D01*
X0179005Y0132792D01*
X0179032Y0132748D01*
X0179062Y0132707D01*
X0179095Y0132668D01*
X0179131Y0132632D01*
X0179170Y0132599D01*
X0179211Y0132569D01*
X0179255Y0132542D01*
X0179300Y0132518D01*
X0179346Y0132497D01*
X0179395Y0132480D01*
X0179444Y0132467D01*
X0179494Y0132458D01*
X0179545Y0132452D01*
X0179596Y0132450D01*
X0180735Y0132450D01*
X0183150Y0133133D02*
X0183150Y0135183D01*
X0184972Y0135183D02*
X0184972Y0132450D01*
X0183833Y0132450D01*
X0183782Y0132452D01*
X0183731Y0132458D01*
X0183681Y0132467D01*
X0183632Y0132480D01*
X0183583Y0132497D01*
X0183537Y0132518D01*
X0183492Y0132542D01*
X0183448Y0132569D01*
X0183407Y0132599D01*
X0183368Y0132632D01*
X0183332Y0132668D01*
X0183299Y0132707D01*
X0183269Y0132748D01*
X0183242Y0132792D01*
X0183218Y0132837D01*
X0183197Y0132883D01*
X0183180Y0132932D01*
X0183167Y0132981D01*
X0183158Y0133031D01*
X0183152Y0133082D01*
X0183150Y0133133D01*
X0187050Y0131083D02*
X0187506Y0131083D01*
X0188872Y0135183D01*
X0187050Y0135183D02*
X0187961Y0132450D01*
X0190800Y0133133D02*
X0190800Y0134272D01*
X0190800Y0133817D02*
X0192622Y0133817D01*
X0192622Y0134272D01*
X0192620Y0134332D01*
X0192614Y0134391D01*
X0192604Y0134450D01*
X0192591Y0134508D01*
X0192574Y0134565D01*
X0192553Y0134621D01*
X0192528Y0134675D01*
X0192500Y0134728D01*
X0192468Y0134778D01*
X0192434Y0134827D01*
X0192396Y0134873D01*
X0192355Y0134916D01*
X0192312Y0134957D01*
X0192266Y0134995D01*
X0192217Y0135029D01*
X0192167Y0135061D01*
X0192114Y0135089D01*
X0192060Y0135114D01*
X0192004Y0135135D01*
X0191947Y0135152D01*
X0191889Y0135165D01*
X0191830Y0135175D01*
X0191771Y0135181D01*
X0191711Y0135183D01*
X0191651Y0135181D01*
X0191592Y0135175D01*
X0191533Y0135165D01*
X0191475Y0135152D01*
X0191418Y0135135D01*
X0191362Y0135114D01*
X0191308Y0135089D01*
X0191256Y0135061D01*
X0191205Y0135029D01*
X0191156Y0134995D01*
X0191110Y0134957D01*
X0191067Y0134916D01*
X0191026Y0134873D01*
X0190988Y0134827D01*
X0190954Y0134778D01*
X0190922Y0134728D01*
X0190894Y0134675D01*
X0190869Y0134621D01*
X0190848Y0134565D01*
X0190831Y0134508D01*
X0190818Y0134450D01*
X0190808Y0134391D01*
X0190802Y0134332D01*
X0190800Y0134272D01*
X0190800Y0133133D02*
X0190802Y0133082D01*
X0190808Y0133031D01*
X0190817Y0132981D01*
X0190830Y0132932D01*
X0190847Y0132883D01*
X0190868Y0132837D01*
X0190892Y0132792D01*
X0190919Y0132748D01*
X0190949Y0132707D01*
X0190982Y0132668D01*
X0191018Y0132632D01*
X0191057Y0132599D01*
X0191098Y0132569D01*
X0191142Y0132542D01*
X0191187Y0132518D01*
X0191233Y0132497D01*
X0191282Y0132480D01*
X0191331Y0132467D01*
X0191381Y0132458D01*
X0191432Y0132452D01*
X0191483Y0132450D01*
X0192622Y0132450D01*
X0194850Y0132450D02*
X0194850Y0135183D01*
X0195989Y0135183D01*
X0196040Y0135181D01*
X0196091Y0135175D01*
X0196141Y0135166D01*
X0196190Y0135153D01*
X0196239Y0135136D01*
X0196285Y0135115D01*
X0196330Y0135091D01*
X0196374Y0135064D01*
X0196415Y0135034D01*
X0196454Y0135001D01*
X0196490Y0134965D01*
X0196523Y0134926D01*
X0196553Y0134885D01*
X0196580Y0134842D01*
X0196604Y0134796D01*
X0196625Y0134750D01*
X0196642Y0134701D01*
X0196655Y0134652D01*
X0196664Y0134602D01*
X0196670Y0134551D01*
X0196672Y0134500D01*
X0196672Y0132450D01*
X0196159Y0129050D02*
X0194337Y0129050D01*
X0194337Y0124950D01*
X0196159Y0124950D01*
X0195703Y0127228D02*
X0194337Y0127228D01*
X0189472Y0127000D02*
X0189472Y0124950D01*
X0187650Y0124950D02*
X0187650Y0127683D01*
X0188789Y0127683D01*
X0188840Y0127681D01*
X0188891Y0127675D01*
X0188941Y0127666D01*
X0188990Y0127653D01*
X0189039Y0127636D01*
X0189085Y0127615D01*
X0189130Y0127591D01*
X0189174Y0127564D01*
X0189215Y0127534D01*
X0189254Y0127501D01*
X0189290Y0127465D01*
X0189323Y0127426D01*
X0189353Y0127385D01*
X0189380Y0127342D01*
X0189404Y0127296D01*
X0189425Y0127250D01*
X0189442Y0127201D01*
X0189455Y0127152D01*
X0189464Y0127102D01*
X0189470Y0127051D01*
X0189472Y0127000D01*
X0185561Y0127683D02*
X0185561Y0124950D01*
X0183435Y0124950D02*
X0183435Y0127000D01*
X0183435Y0126544D02*
X0182410Y0126544D01*
X0183434Y0127000D02*
X0183432Y0127051D01*
X0183426Y0127102D01*
X0183417Y0127152D01*
X0183404Y0127201D01*
X0183387Y0127250D01*
X0183366Y0127296D01*
X0183342Y0127342D01*
X0183315Y0127385D01*
X0183285Y0127426D01*
X0183252Y0127465D01*
X0183216Y0127501D01*
X0183177Y0127534D01*
X0183136Y0127564D01*
X0183092Y0127591D01*
X0183047Y0127615D01*
X0183001Y0127636D01*
X0182952Y0127653D01*
X0182903Y0127666D01*
X0182853Y0127675D01*
X0182802Y0127681D01*
X0182751Y0127683D01*
X0181840Y0127683D01*
X0182410Y0126544D02*
X0182354Y0126542D01*
X0182299Y0126536D01*
X0182244Y0126527D01*
X0182190Y0126513D01*
X0182137Y0126496D01*
X0182086Y0126475D01*
X0182036Y0126451D01*
X0181988Y0126423D01*
X0181942Y0126392D01*
X0181898Y0126358D01*
X0181856Y0126320D01*
X0181818Y0126280D01*
X0181782Y0126238D01*
X0181749Y0126193D01*
X0181720Y0126146D01*
X0181694Y0126096D01*
X0181671Y0126046D01*
X0181652Y0125993D01*
X0181637Y0125940D01*
X0181625Y0125885D01*
X0181617Y0125830D01*
X0181613Y0125775D01*
X0181613Y0125719D01*
X0181617Y0125664D01*
X0181625Y0125609D01*
X0181637Y0125554D01*
X0181652Y0125501D01*
X0181671Y0125448D01*
X0181694Y0125398D01*
X0181720Y0125349D01*
X0181749Y0125301D01*
X0181782Y0125256D01*
X0181818Y0125214D01*
X0181856Y0125174D01*
X0181898Y0125136D01*
X0181942Y0125102D01*
X0181988Y0125071D01*
X0182036Y0125043D01*
X0182086Y0125019D01*
X0182137Y0124998D01*
X0182190Y0124981D01*
X0182244Y0124967D01*
X0182299Y0124958D01*
X0182354Y0124952D01*
X0182410Y0124950D01*
X0183435Y0124950D01*
X0179935Y0124950D02*
X0179884Y0124952D01*
X0179833Y0124958D01*
X0179783Y0124967D01*
X0179734Y0124980D01*
X0179685Y0124997D01*
X0179639Y0125018D01*
X0179594Y0125042D01*
X0179550Y0125069D01*
X0179509Y0125099D01*
X0179470Y0125132D01*
X0179434Y0125168D01*
X0179401Y0125207D01*
X0179371Y0125248D01*
X0179344Y0125292D01*
X0179320Y0125337D01*
X0179299Y0125383D01*
X0179282Y0125432D01*
X0179269Y0125481D01*
X0179260Y0125531D01*
X0179254Y0125582D01*
X0179252Y0125633D01*
X0185447Y0128822D02*
X0185675Y0128822D01*
X0185675Y0129050D01*
X0185447Y0129050D01*
X0185447Y0128822D01*
X0164428Y0139950D02*
X0164428Y0142000D01*
X0164426Y0142051D01*
X0164420Y0142102D01*
X0164411Y0142152D01*
X0164398Y0142201D01*
X0164381Y0142250D01*
X0164360Y0142296D01*
X0164336Y0142342D01*
X0164309Y0142385D01*
X0164279Y0142426D01*
X0164246Y0142465D01*
X0164210Y0142501D01*
X0164171Y0142534D01*
X0164130Y0142564D01*
X0164087Y0142591D01*
X0164041Y0142615D01*
X0163995Y0142636D01*
X0163946Y0142653D01*
X0163897Y0142666D01*
X0163847Y0142675D01*
X0163796Y0142681D01*
X0163745Y0142683D01*
M02*
