%
M48
M72
T01C0.0150
T02C0.0354
T03C0.0400
T04C0.0470
T05C0.0472
T06C0.1180
T07C0.1181
%
T01
X14550Y12150
X16250Y10350
X15850Y9550
X17450Y9550
X17350Y10550
X22485Y9721
X22750Y10750
X24450Y8950
X23116Y15233
X23116Y16807
X22919Y18579
X25478Y19957
X26069Y20351
X27053Y20744
X28037Y20548
X15850Y16050
X12050Y13850
X9950Y14050
X9850Y13450
X9750Y14650
X10350Y21537
X15242Y24288
T02
X10730Y18544
X8170Y18544
X14150Y10950
X15150Y10950
X15150Y9950
X15150Y8950
X14150Y8950
X14150Y9950
T03
X9081Y23919
X8081Y23919
X7081Y23919
T04
X23672Y23212
X25641Y23212
X28066Y23212
X30034Y23212
T05
X20366Y20128
X19366Y20128
X18366Y20128
X17366Y20128
X16366Y20128
X15366Y20128
X14366Y20128
X13366Y20128
X13866Y22128
X14866Y22128
X15866Y22128
X16866Y22128
X17866Y22128
X18866Y22128
X19866Y22128
X4150Y22120
X4150Y20602
X4150Y19364
X4150Y17846
X4150Y16020
X4150Y14502
X4150Y13264
X4150Y11746
X4150Y9920
X4150Y8402
X4150Y7164
X4150Y5646
X6708Y3619
X8226Y3619
X9463Y3619
X10981Y3619
X12613Y3619
X14131Y3619
X15369Y3619
X16887Y3619
X18392Y3619
X19770Y3619
X21148Y3619
X22526Y3619
X23904Y3619
X25408Y3619
X26926Y3619
X28164Y3619
X29682Y3619
T06
X30606Y16922
X29425Y18772
X28244Y16922
T07
X3825Y3225
X3825Y23950
X30675Y20800
X30675Y6374
M30
