G75*
%MOIN*%
%OFA0B0*%
%FSLAX25Y25*%
%IPPOS*%
%LPD*%
%AMOC8*
5,1,8,0,0,1.08239X$1,22.5*
%
%ADD10C,0.07087*%
%ADD11C,0.06400*%
%ADD12R,0.08000X0.08000*%
%ADD13C,0.08000*%
%ADD14C,0.17000*%
%ADD15C,0.07400*%
%ADD16C,0.07000*%
%ADD17C,0.07050*%
%ADD18C,0.02700*%
%ADD19C,0.01000*%
%ADD20C,0.02000*%
D10*
X0133657Y0197736D02*
X0133657Y0204823D01*
X0143657Y0204823D02*
X0143657Y0197736D01*
X0153657Y0197736D02*
X0153657Y0204823D01*
X0163657Y0204823D02*
X0163657Y0197736D01*
X0173657Y0197736D02*
X0173657Y0204823D01*
X0183657Y0204823D02*
X0183657Y0197736D01*
X0193657Y0197736D02*
X0193657Y0204823D01*
X0203657Y0204823D02*
X0203657Y0197736D01*
X0198657Y0217736D02*
X0198657Y0224823D01*
X0188657Y0224823D02*
X0188657Y0217736D01*
X0178657Y0217736D02*
X0178657Y0224823D01*
X0168657Y0224823D02*
X0168657Y0217736D01*
X0158657Y0217736D02*
X0158657Y0224823D01*
X0148657Y0224823D02*
X0148657Y0217736D01*
X0138657Y0217736D02*
X0138657Y0224823D01*
D11*
X0141500Y0109500D03*
X0151500Y0109500D03*
X0151500Y0099500D03*
X0151500Y0089500D03*
X0141500Y0089500D03*
X0141500Y0099500D03*
D12*
X0126131Y0036185D03*
X0183917Y0036185D03*
X0254083Y0036185D03*
X0067076Y0036185D03*
X0041500Y0099200D03*
X0041500Y0160200D03*
X0041500Y0221200D03*
D13*
X0041500Y0206020D03*
X0041500Y0193641D03*
X0041500Y0178461D03*
X0041500Y0145020D03*
X0041500Y0132641D03*
X0041500Y0117461D03*
X0041500Y0084020D03*
X0041500Y0071641D03*
X0041500Y0056461D03*
X0082255Y0036185D03*
X0094635Y0036185D03*
X0109814Y0036185D03*
X0141310Y0036185D03*
X0153690Y0036185D03*
X0168869Y0036185D03*
X0197697Y0036185D03*
X0211476Y0036185D03*
X0225256Y0036185D03*
X0239035Y0036185D03*
X0269263Y0036185D03*
X0281643Y0036185D03*
X0296822Y0036185D03*
D14*
X0306059Y0169217D03*
X0294248Y0187720D03*
X0282437Y0169217D03*
D15*
X0090815Y0239185D03*
X0080815Y0239185D03*
X0070815Y0239185D03*
D16*
X0081705Y0185437D03*
X0107295Y0185437D03*
D17*
X0236720Y0228597D02*
X0236720Y0235647D01*
X0256406Y0235647D02*
X0256406Y0228597D01*
X0280657Y0228597D02*
X0280657Y0235647D01*
X0300343Y0235647D02*
X0300343Y0228597D01*
D18*
X0280374Y0205476D03*
X0270531Y0207445D03*
X0260689Y0203508D03*
X0254783Y0199571D03*
X0229193Y0185791D03*
X0231161Y0168075D03*
X0231161Y0152327D03*
X0227500Y0107500D03*
X0224850Y0097209D03*
X0244500Y0089500D03*
X0174500Y0095500D03*
X0162500Y0103500D03*
X0158500Y0095500D03*
X0173500Y0105500D03*
X0145500Y0121500D03*
X0120500Y0138500D03*
X0099500Y0140500D03*
X0098500Y0134500D03*
X0097500Y0146500D03*
X0158500Y0160500D03*
X0103500Y0215374D03*
X0152421Y0242878D03*
D19*
X0024909Y0025372D02*
X0026468Y0022672D01*
X0028672Y0020468D01*
X0031372Y0018909D01*
X0034383Y0018102D01*
X0035942Y0018000D01*
X0311494Y0018000D01*
X0312981Y0018117D01*
X0315810Y0019036D01*
X0318216Y0020784D01*
X0319964Y0023190D01*
X0320883Y0026019D01*
X0321000Y0027506D01*
X0321000Y0242397D01*
X0321000Y0243018D01*
X0320868Y0244696D01*
X0319830Y0247889D01*
X0317857Y0250605D01*
X0315141Y0252579D01*
X0311948Y0253616D01*
X0310270Y0253748D01*
X0033426Y0253748D01*
X0031951Y0253632D01*
X0029147Y0252721D01*
X0026761Y0250987D01*
X0025027Y0248602D01*
X0024116Y0245797D01*
X0024000Y0244322D01*
X0024000Y0029942D01*
X0024102Y0028383D01*
X0024909Y0025372D01*
X0024878Y0025487D02*
X0035220Y0025487D01*
X0034053Y0025970D02*
X0031970Y0028053D01*
X0030843Y0030775D01*
X0030843Y0033721D01*
X0031970Y0036443D01*
X0034053Y0038526D01*
X0036775Y0039654D01*
X0039721Y0039654D01*
X0042443Y0038526D01*
X0044526Y0036443D01*
X0045654Y0033721D01*
X0045654Y0030775D01*
X0044526Y0028053D01*
X0042443Y0025970D01*
X0039721Y0024843D01*
X0036775Y0024843D01*
X0034053Y0025970D01*
X0033538Y0026485D02*
X0024611Y0026485D01*
X0024343Y0027484D02*
X0032539Y0027484D01*
X0031792Y0028482D02*
X0024096Y0028482D01*
X0024030Y0029481D02*
X0031379Y0029481D01*
X0030965Y0030479D02*
X0024000Y0030479D01*
X0024000Y0031478D02*
X0030843Y0031478D01*
X0030843Y0032476D02*
X0024000Y0032476D01*
X0024000Y0033475D02*
X0030843Y0033475D01*
X0031154Y0034473D02*
X0024000Y0034473D01*
X0024000Y0035472D02*
X0031568Y0035472D01*
X0031997Y0036470D02*
X0024000Y0036470D01*
X0024000Y0037469D02*
X0032996Y0037469D01*
X0033994Y0038467D02*
X0024000Y0038467D01*
X0024000Y0039466D02*
X0036322Y0039466D01*
X0040174Y0039466D02*
X0061776Y0039466D01*
X0061776Y0040464D02*
X0024000Y0040464D01*
X0024000Y0041463D02*
X0062515Y0041463D01*
X0062537Y0041485D02*
X0061776Y0040724D01*
X0061776Y0031647D01*
X0062537Y0030885D01*
X0071614Y0030885D01*
X0072376Y0031647D01*
X0072376Y0040724D01*
X0071614Y0041485D01*
X0062537Y0041485D01*
X0061776Y0038467D02*
X0042502Y0038467D01*
X0043500Y0037469D02*
X0061776Y0037469D01*
X0061776Y0036470D02*
X0044499Y0036470D01*
X0044928Y0035472D02*
X0061776Y0035472D01*
X0061776Y0034473D02*
X0045342Y0034473D01*
X0045654Y0033475D02*
X0061776Y0033475D01*
X0061776Y0032476D02*
X0045654Y0032476D01*
X0045654Y0031478D02*
X0061944Y0031478D01*
X0072207Y0031478D02*
X0079379Y0031478D01*
X0079372Y0031481D02*
X0080144Y0031088D01*
X0080967Y0030820D01*
X0081755Y0030696D01*
X0081755Y0035685D01*
X0076766Y0035685D01*
X0076891Y0034897D01*
X0077158Y0034074D01*
X0077551Y0033302D01*
X0078060Y0032602D01*
X0078672Y0031990D01*
X0079372Y0031481D01*
X0078186Y0032476D02*
X0072376Y0032476D01*
X0072376Y0033475D02*
X0077463Y0033475D01*
X0077028Y0034473D02*
X0072376Y0034473D01*
X0072376Y0035472D02*
X0076800Y0035472D01*
X0076766Y0036685D02*
X0081755Y0036685D01*
X0081755Y0035685D01*
X0082755Y0035685D01*
X0082755Y0030696D01*
X0083543Y0030820D01*
X0084366Y0031088D01*
X0085138Y0031481D01*
X0085838Y0031990D01*
X0086450Y0032602D01*
X0086959Y0033302D01*
X0087352Y0034074D01*
X0087620Y0034897D01*
X0087744Y0035685D01*
X0082755Y0035685D01*
X0082755Y0036685D01*
X0081755Y0036685D01*
X0081755Y0041674D01*
X0080967Y0041550D01*
X0080144Y0041282D01*
X0079372Y0040889D01*
X0078672Y0040380D01*
X0078060Y0039768D01*
X0077551Y0039068D01*
X0077158Y0038296D01*
X0076891Y0037473D01*
X0076766Y0036685D01*
X0076890Y0037469D02*
X0072376Y0037469D01*
X0072376Y0038467D02*
X0077245Y0038467D01*
X0077840Y0039466D02*
X0072376Y0039466D01*
X0072376Y0040464D02*
X0078788Y0040464D01*
X0080700Y0041463D02*
X0071636Y0041463D01*
X0072376Y0036470D02*
X0081755Y0036470D01*
X0081755Y0035472D02*
X0082755Y0035472D01*
X0082755Y0036470D02*
X0089335Y0036470D01*
X0089335Y0037239D02*
X0089335Y0035131D01*
X0090142Y0033183D01*
X0091632Y0031692D01*
X0093580Y0030885D01*
X0095689Y0030885D01*
X0097637Y0031692D01*
X0099128Y0033183D01*
X0099935Y0035131D01*
X0099935Y0037239D01*
X0099128Y0039187D01*
X0097637Y0040678D01*
X0095689Y0041485D01*
X0093580Y0041485D01*
X0091632Y0040678D01*
X0090142Y0039187D01*
X0089335Y0037239D01*
X0089430Y0037469D02*
X0087620Y0037469D01*
X0087620Y0037473D02*
X0087352Y0038296D01*
X0086959Y0039068D01*
X0086450Y0039768D01*
X0085838Y0040380D01*
X0085138Y0040889D01*
X0084366Y0041282D01*
X0083543Y0041550D01*
X0082755Y0041674D01*
X0082755Y0036685D01*
X0087744Y0036685D01*
X0087620Y0037473D01*
X0087265Y0038467D02*
X0089843Y0038467D01*
X0090420Y0039466D02*
X0086670Y0039466D01*
X0085722Y0040464D02*
X0091419Y0040464D01*
X0093527Y0041463D02*
X0083810Y0041463D01*
X0082755Y0041463D02*
X0081755Y0041463D01*
X0081755Y0040464D02*
X0082755Y0040464D01*
X0082755Y0039466D02*
X0081755Y0039466D01*
X0081755Y0038467D02*
X0082755Y0038467D01*
X0082755Y0037469D02*
X0081755Y0037469D01*
X0081755Y0034473D02*
X0082755Y0034473D01*
X0082755Y0033475D02*
X0081755Y0033475D01*
X0081755Y0032476D02*
X0082755Y0032476D01*
X0082755Y0031478D02*
X0081755Y0031478D01*
X0085131Y0031478D02*
X0092150Y0031478D01*
X0090848Y0032476D02*
X0086324Y0032476D01*
X0087047Y0033475D02*
X0090021Y0033475D01*
X0089607Y0034473D02*
X0087482Y0034473D01*
X0087711Y0035472D02*
X0089335Y0035472D01*
X0095743Y0041463D02*
X0108706Y0041463D01*
X0108760Y0041485D02*
X0106812Y0040678D01*
X0105321Y0039187D01*
X0104514Y0037239D01*
X0104514Y0035131D01*
X0105321Y0033183D01*
X0106812Y0031692D01*
X0108760Y0030885D01*
X0110868Y0030885D01*
X0112816Y0031692D01*
X0114307Y0033183D01*
X0115114Y0035131D01*
X0115114Y0037239D01*
X0114307Y0039187D01*
X0112816Y0040678D01*
X0110868Y0041485D01*
X0108760Y0041485D01*
X0110922Y0041463D02*
X0121570Y0041463D01*
X0121592Y0041485D02*
X0120831Y0040724D01*
X0120831Y0031647D01*
X0121592Y0030885D01*
X0130669Y0030885D01*
X0131431Y0031647D01*
X0131431Y0040724D01*
X0130669Y0041485D01*
X0121592Y0041485D01*
X0120831Y0040464D02*
X0113030Y0040464D01*
X0114029Y0039466D02*
X0120831Y0039466D01*
X0120831Y0038467D02*
X0114606Y0038467D01*
X0115019Y0037469D02*
X0120831Y0037469D01*
X0120831Y0036470D02*
X0115114Y0036470D01*
X0115114Y0035472D02*
X0120831Y0035472D01*
X0120831Y0034473D02*
X0114842Y0034473D01*
X0114428Y0033475D02*
X0120831Y0033475D01*
X0120831Y0032476D02*
X0113601Y0032476D01*
X0112299Y0031478D02*
X0121000Y0031478D01*
X0131262Y0031478D02*
X0138434Y0031478D01*
X0138428Y0031481D02*
X0139199Y0031088D01*
X0140022Y0030820D01*
X0140810Y0030696D01*
X0140810Y0035685D01*
X0135821Y0035685D01*
X0135946Y0034897D01*
X0136213Y0034074D01*
X0136606Y0033302D01*
X0137115Y0032602D01*
X0137727Y0031990D01*
X0138428Y0031481D01*
X0137241Y0032476D02*
X0131431Y0032476D01*
X0131431Y0033475D02*
X0136518Y0033475D01*
X0136083Y0034473D02*
X0131431Y0034473D01*
X0131431Y0035472D02*
X0135855Y0035472D01*
X0135821Y0036685D02*
X0140810Y0036685D01*
X0140810Y0035685D01*
X0141810Y0035685D01*
X0141810Y0030696D01*
X0142598Y0030820D01*
X0143421Y0031088D01*
X0144193Y0031481D01*
X0144893Y0031990D01*
X0145505Y0032602D01*
X0146014Y0033302D01*
X0146407Y0034074D01*
X0146675Y0034897D01*
X0146800Y0035685D01*
X0141810Y0035685D01*
X0141810Y0036685D01*
X0140810Y0036685D01*
X0140810Y0041674D01*
X0140022Y0041550D01*
X0139199Y0041282D01*
X0138428Y0040889D01*
X0137727Y0040380D01*
X0137115Y0039768D01*
X0136606Y0039068D01*
X0136213Y0038296D01*
X0135946Y0037473D01*
X0135821Y0036685D01*
X0135945Y0037469D02*
X0131431Y0037469D01*
X0131431Y0038467D02*
X0136300Y0038467D01*
X0136895Y0039466D02*
X0131431Y0039466D01*
X0131431Y0040464D02*
X0137843Y0040464D01*
X0139755Y0041463D02*
X0130691Y0041463D01*
X0131431Y0036470D02*
X0140810Y0036470D01*
X0140810Y0035472D02*
X0141810Y0035472D01*
X0141810Y0036470D02*
X0148390Y0036470D01*
X0148390Y0037239D02*
X0148390Y0035131D01*
X0149197Y0033183D01*
X0150688Y0031692D01*
X0152636Y0030885D01*
X0154744Y0030885D01*
X0156692Y0031692D01*
X0158183Y0033183D01*
X0158990Y0035131D01*
X0158990Y0037239D01*
X0158183Y0039187D01*
X0156692Y0040678D01*
X0154744Y0041485D01*
X0152636Y0041485D01*
X0150688Y0040678D01*
X0149197Y0039187D01*
X0148390Y0037239D01*
X0148485Y0037469D02*
X0146675Y0037469D01*
X0146675Y0037473D02*
X0146407Y0038296D01*
X0146014Y0039068D01*
X0145505Y0039768D01*
X0144893Y0040380D01*
X0144193Y0040889D01*
X0143421Y0041282D01*
X0142598Y0041550D01*
X0141810Y0041674D01*
X0141810Y0036685D01*
X0146800Y0036685D01*
X0146675Y0037473D01*
X0146320Y0038467D02*
X0148898Y0038467D01*
X0149475Y0039466D02*
X0145725Y0039466D01*
X0144778Y0040464D02*
X0150474Y0040464D01*
X0152582Y0041463D02*
X0142865Y0041463D01*
X0141810Y0041463D02*
X0140810Y0041463D01*
X0140810Y0040464D02*
X0141810Y0040464D01*
X0141810Y0039466D02*
X0140810Y0039466D01*
X0140810Y0038467D02*
X0141810Y0038467D01*
X0141810Y0037469D02*
X0140810Y0037469D01*
X0140810Y0034473D02*
X0141810Y0034473D01*
X0141810Y0033475D02*
X0140810Y0033475D01*
X0140810Y0032476D02*
X0141810Y0032476D01*
X0141810Y0031478D02*
X0140810Y0031478D01*
X0144186Y0031478D02*
X0151205Y0031478D01*
X0149903Y0032476D02*
X0145380Y0032476D01*
X0146102Y0033475D02*
X0149076Y0033475D01*
X0148662Y0034473D02*
X0146537Y0034473D01*
X0146766Y0035472D02*
X0148390Y0035472D01*
X0156175Y0031478D02*
X0166384Y0031478D01*
X0165867Y0031692D02*
X0167815Y0030885D01*
X0169924Y0030885D01*
X0171871Y0031692D01*
X0173362Y0033183D01*
X0174169Y0035131D01*
X0174169Y0037239D01*
X0173362Y0039187D01*
X0171871Y0040678D01*
X0169924Y0041485D01*
X0167815Y0041485D01*
X0165867Y0040678D01*
X0164376Y0039187D01*
X0163569Y0037239D01*
X0163569Y0035131D01*
X0164376Y0033183D01*
X0165867Y0031692D01*
X0165083Y0032476D02*
X0157476Y0032476D01*
X0158304Y0033475D02*
X0164255Y0033475D01*
X0163842Y0034473D02*
X0158717Y0034473D01*
X0158990Y0035472D02*
X0163569Y0035472D01*
X0163569Y0036470D02*
X0158990Y0036470D01*
X0158895Y0037469D02*
X0163664Y0037469D01*
X0164078Y0038467D02*
X0158481Y0038467D01*
X0157904Y0039466D02*
X0164655Y0039466D01*
X0165653Y0040464D02*
X0156906Y0040464D01*
X0154798Y0041463D02*
X0167761Y0041463D01*
X0169977Y0041463D02*
X0179357Y0041463D01*
X0179379Y0041485D02*
X0178617Y0040724D01*
X0178617Y0031647D01*
X0179379Y0030885D01*
X0188456Y0030885D01*
X0189217Y0031647D01*
X0189217Y0040724D01*
X0188456Y0041485D01*
X0179379Y0041485D01*
X0178617Y0040464D02*
X0172085Y0040464D01*
X0173084Y0039466D02*
X0178617Y0039466D01*
X0178617Y0038467D02*
X0173661Y0038467D01*
X0174074Y0037469D02*
X0178617Y0037469D01*
X0178617Y0036470D02*
X0174169Y0036470D01*
X0174169Y0035472D02*
X0178617Y0035472D01*
X0178617Y0034473D02*
X0173897Y0034473D01*
X0173483Y0033475D02*
X0178617Y0033475D01*
X0178617Y0032476D02*
X0172656Y0032476D01*
X0171354Y0031478D02*
X0178786Y0031478D01*
X0189048Y0031478D02*
X0194821Y0031478D01*
X0194814Y0031481D02*
X0195586Y0031088D01*
X0196409Y0030820D01*
X0197197Y0030696D01*
X0197197Y0035685D01*
X0198197Y0035685D01*
X0198197Y0036685D01*
X0203186Y0036685D01*
X0203061Y0037473D01*
X0202794Y0038296D01*
X0202401Y0039068D01*
X0201892Y0039768D01*
X0201280Y0040380D01*
X0200579Y0040889D01*
X0199808Y0041282D01*
X0198985Y0041550D01*
X0198197Y0041674D01*
X0198197Y0036685D01*
X0197197Y0036685D01*
X0197197Y0041674D01*
X0196409Y0041550D01*
X0195586Y0041282D01*
X0194814Y0040889D01*
X0194114Y0040380D01*
X0193502Y0039768D01*
X0192993Y0039068D01*
X0192600Y0038296D01*
X0192332Y0037473D01*
X0192207Y0036685D01*
X0197197Y0036685D01*
X0197197Y0035685D01*
X0192207Y0035685D01*
X0192332Y0034897D01*
X0192600Y0034074D01*
X0192993Y0033302D01*
X0193502Y0032602D01*
X0194114Y0031990D01*
X0194814Y0031481D01*
X0193628Y0032476D02*
X0189217Y0032476D01*
X0189217Y0033475D02*
X0192905Y0033475D01*
X0192470Y0034473D02*
X0189217Y0034473D01*
X0189217Y0035472D02*
X0192241Y0035472D01*
X0192332Y0037469D02*
X0189217Y0037469D01*
X0189217Y0038467D02*
X0192687Y0038467D01*
X0193282Y0039466D02*
X0189217Y0039466D01*
X0189217Y0040464D02*
X0194230Y0040464D01*
X0196142Y0041463D02*
X0188478Y0041463D01*
X0189217Y0036470D02*
X0197197Y0036470D01*
X0197197Y0035472D02*
X0198197Y0035472D01*
X0198197Y0035685D02*
X0198197Y0030696D01*
X0198985Y0030820D01*
X0199808Y0031088D01*
X0200579Y0031481D01*
X0201280Y0031990D01*
X0201892Y0032602D01*
X0202401Y0033302D01*
X0202794Y0034074D01*
X0203061Y0034897D01*
X0203186Y0035685D01*
X0198197Y0035685D01*
X0198197Y0036470D02*
X0206176Y0036470D01*
X0206176Y0037239D02*
X0206176Y0035131D01*
X0206983Y0033183D01*
X0208474Y0031692D01*
X0210422Y0030885D01*
X0212531Y0030885D01*
X0214479Y0031692D01*
X0215969Y0033183D01*
X0216776Y0035131D01*
X0216776Y0037239D01*
X0215969Y0039187D01*
X0214479Y0040678D01*
X0212531Y0041485D01*
X0210422Y0041485D01*
X0208474Y0040678D01*
X0206983Y0039187D01*
X0206176Y0037239D01*
X0206271Y0037469D02*
X0203062Y0037469D01*
X0202707Y0038467D02*
X0206685Y0038467D01*
X0207262Y0039466D02*
X0202112Y0039466D01*
X0201164Y0040464D02*
X0208260Y0040464D01*
X0210368Y0041463D02*
X0199252Y0041463D01*
X0198197Y0041463D02*
X0197197Y0041463D01*
X0197197Y0040464D02*
X0198197Y0040464D01*
X0198197Y0039466D02*
X0197197Y0039466D01*
X0197197Y0038467D02*
X0198197Y0038467D01*
X0198197Y0037469D02*
X0197197Y0037469D01*
X0197197Y0034473D02*
X0198197Y0034473D01*
X0198197Y0033475D02*
X0197197Y0033475D01*
X0197197Y0032476D02*
X0198197Y0032476D01*
X0198197Y0031478D02*
X0197197Y0031478D01*
X0200573Y0031478D02*
X0208991Y0031478D01*
X0207690Y0032476D02*
X0201766Y0032476D01*
X0202489Y0033475D02*
X0206862Y0033475D01*
X0206449Y0034473D02*
X0202924Y0034473D01*
X0203152Y0035472D02*
X0206176Y0035472D01*
X0212584Y0041463D02*
X0224148Y0041463D01*
X0224202Y0041485D02*
X0222254Y0040678D01*
X0220763Y0039187D01*
X0219956Y0037239D01*
X0219956Y0035131D01*
X0220763Y0033183D01*
X0222254Y0031692D01*
X0224202Y0030885D01*
X0226310Y0030885D01*
X0228258Y0031692D01*
X0229749Y0033183D01*
X0230556Y0035131D01*
X0230556Y0037239D01*
X0229749Y0039187D01*
X0228258Y0040678D01*
X0226310Y0041485D01*
X0224202Y0041485D01*
X0226364Y0041463D02*
X0237927Y0041463D01*
X0237981Y0041485D02*
X0236033Y0040678D01*
X0234542Y0039187D01*
X0233735Y0037239D01*
X0233735Y0035131D01*
X0234542Y0033183D01*
X0236033Y0031692D01*
X0237981Y0030885D01*
X0240090Y0030885D01*
X0242038Y0031692D01*
X0243529Y0033183D01*
X0244335Y0035131D01*
X0244335Y0037239D01*
X0243529Y0039187D01*
X0242038Y0040678D01*
X0240090Y0041485D01*
X0237981Y0041485D01*
X0240143Y0041463D02*
X0249523Y0041463D01*
X0249545Y0041485D02*
X0248783Y0040724D01*
X0248783Y0031647D01*
X0249545Y0030885D01*
X0258622Y0030885D01*
X0259383Y0031647D01*
X0259383Y0040724D01*
X0258622Y0041485D01*
X0249545Y0041485D01*
X0248783Y0040464D02*
X0242252Y0040464D01*
X0243250Y0039466D02*
X0248783Y0039466D01*
X0248783Y0038467D02*
X0243827Y0038467D01*
X0244240Y0037469D02*
X0248783Y0037469D01*
X0248783Y0036470D02*
X0244335Y0036470D01*
X0244335Y0035472D02*
X0248783Y0035472D01*
X0248783Y0034473D02*
X0244063Y0034473D01*
X0243649Y0033475D02*
X0248783Y0033475D01*
X0248783Y0032476D02*
X0242822Y0032476D01*
X0241520Y0031478D02*
X0248952Y0031478D01*
X0259215Y0031478D02*
X0266387Y0031478D01*
X0266380Y0031481D02*
X0267152Y0031088D01*
X0267975Y0030820D01*
X0268763Y0030696D01*
X0268763Y0035685D01*
X0269763Y0035685D01*
X0269763Y0030696D01*
X0270551Y0030820D01*
X0271374Y0031088D01*
X0272146Y0031481D01*
X0272846Y0031990D01*
X0273458Y0032602D01*
X0273967Y0033302D01*
X0274360Y0034074D01*
X0274628Y0034897D01*
X0274752Y0035685D01*
X0269763Y0035685D01*
X0269763Y0036685D01*
X0274752Y0036685D01*
X0274628Y0037473D01*
X0274360Y0038296D01*
X0273967Y0039068D01*
X0273458Y0039768D01*
X0272846Y0040380D01*
X0272146Y0040889D01*
X0271374Y0041282D01*
X0270551Y0041550D01*
X0269763Y0041674D01*
X0269763Y0036685D01*
X0268763Y0036685D01*
X0268763Y0035685D01*
X0263774Y0035685D01*
X0263898Y0034897D01*
X0264166Y0034074D01*
X0264559Y0033302D01*
X0265068Y0032602D01*
X0265680Y0031990D01*
X0266380Y0031481D01*
X0265194Y0032476D02*
X0259383Y0032476D01*
X0259383Y0033475D02*
X0264471Y0033475D01*
X0264036Y0034473D02*
X0259383Y0034473D01*
X0259383Y0035472D02*
X0263807Y0035472D01*
X0263774Y0036685D02*
X0268763Y0036685D01*
X0268763Y0041674D01*
X0267975Y0041550D01*
X0267152Y0041282D01*
X0266380Y0040889D01*
X0265680Y0040380D01*
X0265068Y0039768D01*
X0264559Y0039068D01*
X0264166Y0038296D01*
X0263898Y0037473D01*
X0263774Y0036685D01*
X0263898Y0037469D02*
X0259383Y0037469D01*
X0259383Y0038467D02*
X0264253Y0038467D01*
X0264848Y0039466D02*
X0259383Y0039466D01*
X0259383Y0040464D02*
X0265796Y0040464D01*
X0267708Y0041463D02*
X0258644Y0041463D01*
X0259383Y0036470D02*
X0268763Y0036470D01*
X0268763Y0035472D02*
X0269763Y0035472D01*
X0269763Y0036470D02*
X0276343Y0036470D01*
X0276343Y0037239D02*
X0276343Y0035131D01*
X0277149Y0033183D01*
X0278640Y0031692D01*
X0280588Y0030885D01*
X0282697Y0030885D01*
X0284645Y0031692D01*
X0286136Y0033183D01*
X0286943Y0035131D01*
X0286943Y0037239D01*
X0286136Y0039187D01*
X0284645Y0040678D01*
X0282697Y0041485D01*
X0280588Y0041485D01*
X0278640Y0040678D01*
X0277149Y0039187D01*
X0276343Y0037239D01*
X0276438Y0037469D02*
X0274628Y0037469D01*
X0274273Y0038467D02*
X0276851Y0038467D01*
X0277428Y0039466D02*
X0273678Y0039466D01*
X0272730Y0040464D02*
X0278426Y0040464D01*
X0280535Y0041463D02*
X0270818Y0041463D01*
X0269763Y0041463D02*
X0268763Y0041463D01*
X0268763Y0040464D02*
X0269763Y0040464D01*
X0269763Y0039466D02*
X0268763Y0039466D01*
X0268763Y0038467D02*
X0269763Y0038467D01*
X0269763Y0037469D02*
X0268763Y0037469D01*
X0268763Y0034473D02*
X0269763Y0034473D01*
X0269763Y0033475D02*
X0268763Y0033475D01*
X0268763Y0032476D02*
X0269763Y0032476D01*
X0269763Y0031478D02*
X0268763Y0031478D01*
X0272139Y0031478D02*
X0279158Y0031478D01*
X0277856Y0032476D02*
X0273332Y0032476D01*
X0274055Y0033475D02*
X0277028Y0033475D01*
X0276615Y0034473D02*
X0274490Y0034473D01*
X0274719Y0035472D02*
X0276343Y0035472D01*
X0284127Y0031478D02*
X0294337Y0031478D01*
X0293820Y0031692D02*
X0295768Y0030885D01*
X0297876Y0030885D01*
X0299824Y0031692D01*
X0301315Y0033183D01*
X0302122Y0035131D01*
X0302122Y0037239D01*
X0301315Y0039187D01*
X0299824Y0040678D01*
X0297876Y0041485D01*
X0295768Y0041485D01*
X0293820Y0040678D01*
X0292329Y0039187D01*
X0291522Y0037239D01*
X0291522Y0035131D01*
X0292329Y0033183D01*
X0293820Y0031692D01*
X0293036Y0032476D02*
X0285429Y0032476D01*
X0286257Y0033475D02*
X0292208Y0033475D01*
X0291794Y0034473D02*
X0286670Y0034473D01*
X0286943Y0035472D02*
X0291522Y0035472D01*
X0291522Y0036470D02*
X0286943Y0036470D01*
X0286847Y0037469D02*
X0291617Y0037469D01*
X0292031Y0038467D02*
X0286434Y0038467D01*
X0285857Y0039466D02*
X0292607Y0039466D01*
X0293606Y0040464D02*
X0284859Y0040464D01*
X0282750Y0041463D02*
X0295714Y0041463D01*
X0297930Y0041463D02*
X0321000Y0041463D01*
X0321000Y0042461D02*
X0024000Y0042461D01*
X0024000Y0043460D02*
X0321000Y0043460D01*
X0321000Y0044458D02*
X0024000Y0044458D01*
X0024000Y0045457D02*
X0321000Y0045457D01*
X0321000Y0046455D02*
X0024000Y0046455D01*
X0024000Y0047454D02*
X0321000Y0047454D01*
X0321000Y0048452D02*
X0024000Y0048452D01*
X0024000Y0049451D02*
X0321000Y0049451D01*
X0321000Y0050449D02*
X0024000Y0050449D01*
X0024000Y0051448D02*
X0039754Y0051448D01*
X0040446Y0051161D02*
X0042554Y0051161D01*
X0044502Y0051968D01*
X0045993Y0053459D01*
X0046800Y0055407D01*
X0046800Y0057516D01*
X0045993Y0059464D01*
X0044502Y0060955D01*
X0042554Y0061761D01*
X0040446Y0061761D01*
X0038498Y0060955D01*
X0037007Y0059464D01*
X0036200Y0057516D01*
X0036200Y0055407D01*
X0037007Y0053459D01*
X0038498Y0051968D01*
X0040446Y0051161D01*
X0038020Y0052446D02*
X0024000Y0052446D01*
X0024000Y0053445D02*
X0037021Y0053445D01*
X0036599Y0054443D02*
X0024000Y0054443D01*
X0024000Y0055442D02*
X0036200Y0055442D01*
X0036200Y0056440D02*
X0024000Y0056440D01*
X0024000Y0057439D02*
X0036200Y0057439D01*
X0036582Y0058437D02*
X0024000Y0058437D01*
X0024000Y0059436D02*
X0036995Y0059436D01*
X0037978Y0060434D02*
X0024000Y0060434D01*
X0024000Y0061433D02*
X0039653Y0061433D01*
X0043347Y0061433D02*
X0299694Y0061433D01*
X0299346Y0062271D02*
X0300474Y0059549D01*
X0302557Y0057466D01*
X0305279Y0056339D01*
X0308225Y0056339D01*
X0310947Y0057466D01*
X0313030Y0059549D01*
X0314157Y0062271D01*
X0314157Y0065217D01*
X0313030Y0067939D01*
X0310947Y0070022D01*
X0308225Y0071150D01*
X0305279Y0071150D01*
X0302557Y0070022D01*
X0300474Y0067939D01*
X0299346Y0065217D01*
X0299346Y0062271D01*
X0299346Y0062432D02*
X0024000Y0062432D01*
X0024000Y0063430D02*
X0299346Y0063430D01*
X0299346Y0064429D02*
X0024000Y0064429D01*
X0024000Y0065427D02*
X0299433Y0065427D01*
X0299847Y0066426D02*
X0042759Y0066426D01*
X0042554Y0066341D02*
X0044502Y0067148D01*
X0045993Y0068639D01*
X0046491Y0069841D01*
X0051387Y0069841D01*
X0068246Y0086700D01*
X0086246Y0086700D01*
X0087300Y0087754D01*
X0100300Y0100754D01*
X0100300Y0132552D01*
X0100747Y0132999D01*
X0101150Y0133973D01*
X0101150Y0135027D01*
X0100747Y0136001D01*
X0100001Y0136747D01*
X0099027Y0137150D01*
X0098696Y0137150D01*
X0099396Y0137850D01*
X0100027Y0137850D01*
X0101001Y0138253D01*
X0101747Y0138999D01*
X0102150Y0139973D01*
X0102150Y0141027D01*
X0101747Y0142001D01*
X0101001Y0142747D01*
X0100027Y0143150D01*
X0098973Y0143150D01*
X0097999Y0142747D01*
X0097253Y0142001D01*
X0096850Y0141027D01*
X0096850Y0140396D01*
X0075716Y0119261D01*
X0046491Y0119261D01*
X0045993Y0120464D01*
X0044502Y0121955D01*
X0042554Y0122761D01*
X0040446Y0122761D01*
X0038498Y0121955D01*
X0037007Y0120464D01*
X0036200Y0118516D01*
X0036200Y0116407D01*
X0037007Y0114459D01*
X0038498Y0112968D01*
X0040446Y0112161D01*
X0042554Y0112161D01*
X0044502Y0112968D01*
X0045993Y0114459D01*
X0046491Y0115661D01*
X0077207Y0115661D01*
X0078261Y0116716D01*
X0095850Y0134304D01*
X0095850Y0133973D01*
X0096253Y0132999D01*
X0096700Y0132552D01*
X0096700Y0102246D01*
X0084754Y0090300D01*
X0066754Y0090300D01*
X0049895Y0073441D01*
X0046491Y0073441D01*
X0045993Y0074643D01*
X0044502Y0076134D01*
X0042554Y0076941D01*
X0040446Y0076941D01*
X0038498Y0076134D01*
X0037007Y0074643D01*
X0036200Y0072695D01*
X0036200Y0070587D01*
X0037007Y0068639D01*
X0038498Y0067148D01*
X0040446Y0066341D01*
X0042554Y0066341D01*
X0040241Y0066426D02*
X0024000Y0066426D01*
X0024000Y0067424D02*
X0038222Y0067424D01*
X0037223Y0068423D02*
X0024000Y0068423D01*
X0024000Y0069421D02*
X0036683Y0069421D01*
X0036269Y0070420D02*
X0024000Y0070420D01*
X0024000Y0071418D02*
X0036200Y0071418D01*
X0036200Y0072417D02*
X0024000Y0072417D01*
X0024000Y0073415D02*
X0036498Y0073415D01*
X0036912Y0074414D02*
X0024000Y0074414D01*
X0024000Y0075412D02*
X0037776Y0075412D01*
X0039166Y0076411D02*
X0024000Y0076411D01*
X0024000Y0077409D02*
X0053864Y0077409D01*
X0054862Y0078408D02*
X0024000Y0078408D01*
X0024000Y0079406D02*
X0038494Y0079406D01*
X0038617Y0079316D02*
X0039389Y0078923D01*
X0040212Y0078656D01*
X0041000Y0078531D01*
X0041000Y0083520D01*
X0042000Y0083520D01*
X0042000Y0078531D01*
X0042788Y0078656D01*
X0043611Y0078923D01*
X0044383Y0079316D01*
X0045083Y0079825D01*
X0045695Y0080437D01*
X0046204Y0081138D01*
X0046597Y0081909D01*
X0046865Y0082733D01*
X0046989Y0083520D01*
X0042000Y0083520D01*
X0042000Y0084520D01*
X0046989Y0084520D01*
X0046865Y0085308D01*
X0046597Y0086132D01*
X0046204Y0086903D01*
X0045695Y0087603D01*
X0045083Y0088216D01*
X0044383Y0088724D01*
X0043611Y0089118D01*
X0042788Y0089385D01*
X0042000Y0089510D01*
X0042000Y0084521D01*
X0041000Y0084521D01*
X0041000Y0089510D01*
X0040212Y0089385D01*
X0039389Y0089118D01*
X0038617Y0088724D01*
X0037917Y0088216D01*
X0037305Y0087603D01*
X0036796Y0086903D01*
X0036403Y0086132D01*
X0036135Y0085308D01*
X0036011Y0084520D01*
X0041000Y0084520D01*
X0041000Y0083520D01*
X0036011Y0083520D01*
X0036135Y0082733D01*
X0036403Y0081909D01*
X0036796Y0081138D01*
X0037305Y0080437D01*
X0037917Y0079825D01*
X0038617Y0079316D01*
X0037338Y0080405D02*
X0024000Y0080405D01*
X0024000Y0081403D02*
X0036661Y0081403D01*
X0036243Y0082402D02*
X0024000Y0082402D01*
X0024000Y0083400D02*
X0036030Y0083400D01*
X0036164Y0085397D02*
X0024000Y0085397D01*
X0024000Y0084399D02*
X0041000Y0084399D01*
X0041000Y0085397D02*
X0042000Y0085397D01*
X0042000Y0084399D02*
X0060853Y0084399D01*
X0061852Y0085397D02*
X0046836Y0085397D01*
X0046462Y0086396D02*
X0062850Y0086396D01*
X0063849Y0087394D02*
X0045847Y0087394D01*
X0044839Y0088393D02*
X0064847Y0088393D01*
X0065846Y0089391D02*
X0042748Y0089391D01*
X0042000Y0089391D02*
X0041000Y0089391D01*
X0040252Y0089391D02*
X0024000Y0089391D01*
X0024000Y0088393D02*
X0038161Y0088393D01*
X0037153Y0087394D02*
X0024000Y0087394D01*
X0024000Y0086396D02*
X0036538Y0086396D01*
X0041000Y0086396D02*
X0042000Y0086396D01*
X0042000Y0087394D02*
X0041000Y0087394D01*
X0041000Y0088393D02*
X0042000Y0088393D01*
X0042000Y0083400D02*
X0041000Y0083400D01*
X0041000Y0082402D02*
X0042000Y0082402D01*
X0042000Y0081403D02*
X0041000Y0081403D01*
X0041000Y0080405D02*
X0042000Y0080405D01*
X0042000Y0079406D02*
X0041000Y0079406D01*
X0044506Y0079406D02*
X0055861Y0079406D01*
X0056859Y0080405D02*
X0045662Y0080405D01*
X0046339Y0081403D02*
X0057858Y0081403D01*
X0058856Y0082402D02*
X0046757Y0082402D01*
X0046970Y0083400D02*
X0059855Y0083400D01*
X0061950Y0080405D02*
X0321000Y0080405D01*
X0321000Y0081403D02*
X0062949Y0081403D01*
X0063947Y0082402D02*
X0321000Y0082402D01*
X0321000Y0083400D02*
X0064946Y0083400D01*
X0065944Y0084399D02*
X0321000Y0084399D01*
X0321000Y0085397D02*
X0153354Y0085397D01*
X0154049Y0085685D02*
X0155315Y0086951D01*
X0156000Y0088605D01*
X0156000Y0090395D01*
X0155315Y0092049D01*
X0154049Y0093315D01*
X0152395Y0094000D01*
X0150605Y0094000D01*
X0148951Y0093315D01*
X0147685Y0092049D01*
X0147000Y0090395D01*
X0147000Y0088605D01*
X0147685Y0086951D01*
X0148951Y0085685D01*
X0150605Y0085000D01*
X0152395Y0085000D01*
X0154049Y0085685D01*
X0154760Y0086396D02*
X0321000Y0086396D01*
X0321000Y0087394D02*
X0155499Y0087394D01*
X0155912Y0088393D02*
X0321000Y0088393D01*
X0321000Y0089391D02*
X0156000Y0089391D01*
X0156000Y0090390D02*
X0321000Y0090390D01*
X0321000Y0091388D02*
X0155589Y0091388D01*
X0154977Y0092387D02*
X0321000Y0092387D01*
X0321000Y0093385D02*
X0176133Y0093385D01*
X0176001Y0093253D02*
X0176747Y0093999D01*
X0177150Y0094973D01*
X0177150Y0096027D01*
X0176747Y0097001D01*
X0176001Y0097747D01*
X0175027Y0098150D01*
X0173973Y0098150D01*
X0173128Y0097800D01*
X0159872Y0097800D01*
X0159027Y0098150D01*
X0157973Y0098150D01*
X0156999Y0097747D01*
X0156253Y0097001D01*
X0155850Y0096027D01*
X0155850Y0094973D01*
X0156253Y0093999D01*
X0156999Y0093253D01*
X0157973Y0092850D01*
X0159027Y0092850D01*
X0159872Y0093200D01*
X0173128Y0093200D01*
X0173973Y0092850D01*
X0175027Y0092850D01*
X0176001Y0093253D01*
X0176906Y0094384D02*
X0321000Y0094384D01*
X0321000Y0095382D02*
X0226771Y0095382D01*
X0227097Y0095708D02*
X0226351Y0094962D01*
X0225377Y0094559D01*
X0224323Y0094559D01*
X0223349Y0094962D01*
X0222603Y0095708D01*
X0222200Y0096682D01*
X0222200Y0097736D01*
X0222603Y0098710D01*
X0223349Y0099455D01*
X0224323Y0099859D01*
X0224954Y0099859D01*
X0229361Y0104266D01*
X0229361Y0105614D01*
X0229001Y0105253D01*
X0228027Y0104850D01*
X0226973Y0104850D01*
X0225999Y0105253D01*
X0225253Y0105999D01*
X0224850Y0106973D01*
X0224850Y0107604D01*
X0208754Y0123700D01*
X0180754Y0123700D01*
X0179700Y0124754D01*
X0172254Y0132200D01*
X0171200Y0133254D01*
X0171200Y0156254D01*
X0168754Y0158700D01*
X0160448Y0158700D01*
X0160001Y0158253D01*
X0159027Y0157850D01*
X0157973Y0157850D01*
X0156999Y0158253D01*
X0156253Y0158999D01*
X0155850Y0159973D01*
X0155850Y0161027D01*
X0156253Y0162001D01*
X0156999Y0162747D01*
X0157973Y0163150D01*
X0159027Y0163150D01*
X0160001Y0162747D01*
X0160448Y0162300D01*
X0170246Y0162300D01*
X0171300Y0161246D01*
X0173746Y0158800D01*
X0174800Y0157746D01*
X0174800Y0134746D01*
X0182246Y0127300D01*
X0210246Y0127300D01*
X0211300Y0126246D01*
X0227396Y0110150D01*
X0228027Y0110150D01*
X0229001Y0109747D01*
X0229361Y0109386D01*
X0229361Y0118117D01*
X0228447Y0119031D01*
X0218605Y0119031D01*
X0189991Y0147644D01*
X0189991Y0175203D01*
X0182912Y0182283D01*
X0181857Y0183337D01*
X0181857Y0193239D01*
X0180914Y0193630D01*
X0179552Y0194993D01*
X0178814Y0196773D01*
X0178814Y0205786D01*
X0179552Y0207566D01*
X0180914Y0208929D01*
X0181284Y0209082D01*
X0176376Y0209082D01*
X0176943Y0208670D01*
X0177504Y0208108D01*
X0177971Y0207466D01*
X0178331Y0206759D01*
X0178577Y0206004D01*
X0178701Y0205220D01*
X0178701Y0201780D01*
X0174158Y0201780D01*
X0174158Y0200780D01*
X0178701Y0200780D01*
X0178701Y0197339D01*
X0178577Y0196555D01*
X0178331Y0195800D01*
X0177971Y0195093D01*
X0177504Y0194451D01*
X0176943Y0193889D01*
X0176301Y0193423D01*
X0175593Y0193062D01*
X0174838Y0192817D01*
X0174157Y0192709D01*
X0174157Y0200779D01*
X0173157Y0200779D01*
X0173157Y0192709D01*
X0172476Y0192817D01*
X0171722Y0193062D01*
X0171014Y0193423D01*
X0170372Y0193889D01*
X0169811Y0194451D01*
X0169344Y0195093D01*
X0168984Y0195800D01*
X0168738Y0196555D01*
X0168657Y0197066D01*
X0168577Y0196555D01*
X0168331Y0195800D01*
X0167971Y0195093D01*
X0167504Y0194451D01*
X0166943Y0193889D01*
X0166301Y0193423D01*
X0165593Y0193062D01*
X0164838Y0192817D01*
X0164157Y0192709D01*
X0164157Y0200779D01*
X0163157Y0200779D01*
X0163157Y0192709D01*
X0162476Y0192817D01*
X0161722Y0193062D01*
X0161014Y0193423D01*
X0160372Y0193889D01*
X0159811Y0194451D01*
X0159344Y0195093D01*
X0158984Y0195800D01*
X0158738Y0196555D01*
X0158657Y0197066D01*
X0158577Y0196555D01*
X0158331Y0195800D01*
X0157971Y0195093D01*
X0157504Y0194451D01*
X0156943Y0193889D01*
X0156301Y0193423D01*
X0155593Y0193062D01*
X0154838Y0192817D01*
X0154157Y0192709D01*
X0154157Y0200779D01*
X0153157Y0200779D01*
X0153157Y0192709D01*
X0152476Y0192817D01*
X0151722Y0193062D01*
X0151014Y0193423D01*
X0150372Y0193889D01*
X0149811Y0194451D01*
X0149344Y0195093D01*
X0148984Y0195800D01*
X0148738Y0196555D01*
X0148614Y0197339D01*
X0148614Y0200780D01*
X0153157Y0200780D01*
X0153157Y0201780D01*
X0148614Y0201780D01*
X0148614Y0205220D01*
X0148738Y0206004D01*
X0148984Y0206759D01*
X0149344Y0207466D01*
X0149811Y0208108D01*
X0150372Y0208670D01*
X0150939Y0209082D01*
X0149437Y0209082D01*
X0147810Y0207455D01*
X0148501Y0205786D01*
X0148501Y0196773D01*
X0147763Y0194993D01*
X0146401Y0193630D01*
X0144621Y0192893D01*
X0142694Y0192893D01*
X0140914Y0193630D01*
X0139552Y0194993D01*
X0138814Y0196773D01*
X0138814Y0205786D01*
X0139552Y0207566D01*
X0140914Y0208929D01*
X0142694Y0209666D01*
X0143516Y0209666D01*
X0146184Y0212335D01*
X0147021Y0213172D01*
X0145914Y0213630D01*
X0144552Y0214993D01*
X0143814Y0216773D01*
X0143814Y0225786D01*
X0144552Y0227566D01*
X0145914Y0228929D01*
X0147694Y0229666D01*
X0149621Y0229666D01*
X0151401Y0228929D01*
X0152763Y0227566D01*
X0153501Y0225786D01*
X0153501Y0216773D01*
X0152763Y0214993D01*
X0151453Y0213682D01*
X0155862Y0213682D01*
X0154552Y0214993D01*
X0153814Y0216773D01*
X0153814Y0225786D01*
X0154552Y0227566D01*
X0155914Y0228929D01*
X0157694Y0229666D01*
X0159621Y0229666D01*
X0161401Y0228929D01*
X0162763Y0227566D01*
X0163501Y0225786D01*
X0163501Y0216773D01*
X0162763Y0214993D01*
X0161453Y0213682D01*
X0165862Y0213682D01*
X0164552Y0214993D01*
X0163814Y0216773D01*
X0163814Y0225786D01*
X0164552Y0227566D01*
X0165914Y0228929D01*
X0167694Y0229666D01*
X0169621Y0229666D01*
X0171401Y0228929D01*
X0172763Y0227566D01*
X0173501Y0225786D01*
X0173501Y0216773D01*
X0172763Y0214993D01*
X0171453Y0213682D01*
X0175658Y0213682D01*
X0175372Y0213889D01*
X0174811Y0214451D01*
X0174344Y0215093D01*
X0173984Y0215800D01*
X0173738Y0216555D01*
X0173614Y0217339D01*
X0173614Y0220780D01*
X0178157Y0220780D01*
X0178157Y0221780D01*
X0178157Y0229850D01*
X0177476Y0229742D01*
X0176722Y0229497D01*
X0176014Y0229136D01*
X0175372Y0228670D01*
X0174811Y0228108D01*
X0174344Y0227466D01*
X0173984Y0226759D01*
X0173738Y0226004D01*
X0173614Y0225220D01*
X0173614Y0221780D01*
X0178157Y0221780D01*
X0179157Y0221780D01*
X0179157Y0229850D01*
X0179838Y0229742D01*
X0180593Y0229497D01*
X0181301Y0229136D01*
X0181943Y0228670D01*
X0182504Y0228108D01*
X0182971Y0227466D01*
X0183331Y0226759D01*
X0183577Y0226004D01*
X0183657Y0225493D01*
X0183738Y0226004D01*
X0183984Y0226759D01*
X0184344Y0227466D01*
X0184811Y0228108D01*
X0185372Y0228670D01*
X0186014Y0229136D01*
X0186722Y0229497D01*
X0187476Y0229742D01*
X0188157Y0229850D01*
X0188157Y0221780D01*
X0189157Y0221780D01*
X0189157Y0229850D01*
X0189838Y0229742D01*
X0190593Y0229497D01*
X0191301Y0229136D01*
X0191943Y0228670D01*
X0192504Y0228108D01*
X0192971Y0227466D01*
X0193331Y0226759D01*
X0193577Y0226004D01*
X0193701Y0225220D01*
X0193701Y0221780D01*
X0189158Y0221780D01*
X0189158Y0220780D01*
X0193701Y0220780D01*
X0193701Y0217339D01*
X0193577Y0216555D01*
X0193331Y0215800D01*
X0192971Y0215093D01*
X0192504Y0214451D01*
X0191943Y0213889D01*
X0191657Y0213682D01*
X0195862Y0213682D01*
X0194552Y0214993D01*
X0193814Y0216773D01*
X0193814Y0225786D01*
X0194552Y0227566D01*
X0195914Y0228929D01*
X0197694Y0229666D01*
X0199621Y0229666D01*
X0201401Y0228929D01*
X0202763Y0227566D01*
X0203501Y0225786D01*
X0203501Y0216773D01*
X0202763Y0214993D01*
X0201453Y0213682D01*
X0228240Y0213682D01*
X0238790Y0224232D01*
X0237680Y0223772D01*
X0235761Y0223772D01*
X0233987Y0224507D01*
X0232630Y0225864D01*
X0231895Y0227637D01*
X0231895Y0232986D01*
X0228240Y0236641D01*
X0141563Y0236641D01*
X0140942Y0236020D01*
X0140942Y0229119D01*
X0141401Y0228929D01*
X0142763Y0227566D01*
X0143501Y0225786D01*
X0143501Y0216773D01*
X0142763Y0214993D01*
X0141401Y0213630D01*
X0139621Y0212893D01*
X0137694Y0212893D01*
X0135914Y0213630D01*
X0134552Y0214993D01*
X0133814Y0216773D01*
X0133814Y0225786D01*
X0134552Y0227566D01*
X0135914Y0228929D01*
X0136342Y0229106D01*
X0136342Y0237925D01*
X0137689Y0239272D01*
X0139658Y0241241D01*
X0150311Y0241241D01*
X0150175Y0241377D01*
X0149771Y0242351D01*
X0149771Y0243405D01*
X0150175Y0244379D01*
X0150920Y0245125D01*
X0151894Y0245528D01*
X0152948Y0245528D01*
X0153793Y0245178D01*
X0261642Y0245178D01*
X0262989Y0243831D01*
X0262989Y0243831D01*
X0268894Y0237925D01*
X0268894Y0233988D01*
X0276248Y0226635D01*
X0275832Y0227637D01*
X0275832Y0236607D01*
X0276567Y0238380D01*
X0277924Y0239737D01*
X0279698Y0240472D01*
X0281617Y0240472D01*
X0283391Y0239737D01*
X0284748Y0238380D01*
X0285482Y0236607D01*
X0285482Y0227637D01*
X0284748Y0225864D01*
X0283391Y0224507D01*
X0281617Y0223772D01*
X0279698Y0223772D01*
X0278695Y0224187D01*
X0282674Y0220209D01*
X0282674Y0206848D01*
X0283024Y0206003D01*
X0283024Y0204949D01*
X0282621Y0203975D01*
X0281875Y0203230D01*
X0280901Y0202826D01*
X0279847Y0202826D01*
X0278873Y0203230D01*
X0278127Y0203975D01*
X0277724Y0204949D01*
X0277724Y0206003D01*
X0278074Y0206848D01*
X0278074Y0218303D01*
X0265642Y0230735D01*
X0265642Y0230735D01*
X0264294Y0232083D01*
X0264294Y0236020D01*
X0259736Y0240578D01*
X0230809Y0240578D01*
X0231493Y0239894D01*
X0232818Y0238568D01*
X0233987Y0239737D01*
X0235761Y0240472D01*
X0237680Y0240472D01*
X0239454Y0239737D01*
X0240811Y0238380D01*
X0241545Y0236607D01*
X0241545Y0227637D01*
X0241086Y0226527D01*
X0246578Y0232020D01*
X0247925Y0233367D01*
X0251581Y0233367D01*
X0251581Y0236607D01*
X0252315Y0238380D01*
X0253672Y0239737D01*
X0255446Y0240472D01*
X0257365Y0240472D01*
X0259139Y0239737D01*
X0260496Y0238380D01*
X0261230Y0236607D01*
X0261230Y0227637D01*
X0260496Y0225864D01*
X0259139Y0224507D01*
X0257365Y0223772D01*
X0255446Y0223772D01*
X0253672Y0224507D01*
X0252315Y0225864D01*
X0251581Y0227637D01*
X0251581Y0228767D01*
X0249831Y0228767D01*
X0230809Y0209745D01*
X0269159Y0209745D01*
X0270004Y0210095D01*
X0271059Y0210095D01*
X0272033Y0209691D01*
X0272778Y0208946D01*
X0273181Y0207972D01*
X0273181Y0206918D01*
X0272778Y0205944D01*
X0272033Y0205198D01*
X0271059Y0204795D01*
X0270004Y0204795D01*
X0269159Y0205145D01*
X0262800Y0205145D01*
X0262936Y0205009D01*
X0263339Y0204035D01*
X0263339Y0202981D01*
X0262936Y0202007D01*
X0262190Y0201261D01*
X0261216Y0200858D01*
X0260162Y0200858D01*
X0259317Y0201208D01*
X0256894Y0201208D01*
X0257030Y0201072D01*
X0257433Y0200098D01*
X0257433Y0199044D01*
X0257030Y0198070D01*
X0256285Y0197324D01*
X0255311Y0196921D01*
X0254256Y0196921D01*
X0253411Y0197271D01*
X0230146Y0197271D01*
X0229524Y0196650D01*
X0229524Y0188713D01*
X0229849Y0188388D01*
X0230694Y0188038D01*
X0231439Y0187292D01*
X0231843Y0186318D01*
X0231843Y0185264D01*
X0231439Y0184290D01*
X0230694Y0183545D01*
X0229720Y0183141D01*
X0228666Y0183141D01*
X0227692Y0183545D01*
X0226946Y0184290D01*
X0226596Y0185135D01*
X0226272Y0185460D01*
X0225587Y0186144D01*
X0225587Y0176902D01*
X0231818Y0170671D01*
X0232663Y0170321D01*
X0233408Y0169576D01*
X0233811Y0168602D01*
X0233811Y0167548D01*
X0233408Y0166574D01*
X0232663Y0165828D01*
X0231689Y0165425D01*
X0230634Y0165425D01*
X0229660Y0165828D01*
X0228915Y0166574D01*
X0228565Y0167419D01*
X0222335Y0173649D01*
X0221650Y0174333D01*
X0221650Y0165090D01*
X0231818Y0154923D01*
X0232663Y0154573D01*
X0233408Y0153828D01*
X0233811Y0152854D01*
X0233811Y0151800D01*
X0233408Y0150826D01*
X0232663Y0150080D01*
X0231689Y0149677D01*
X0230634Y0149677D01*
X0229660Y0150080D01*
X0228915Y0150826D01*
X0228565Y0151671D01*
X0218398Y0161838D01*
X0217050Y0163185D01*
X0217050Y0204461D01*
X0218398Y0205808D01*
X0221672Y0209082D01*
X0206031Y0209082D01*
X0206401Y0208929D01*
X0207763Y0207566D01*
X0208501Y0205786D01*
X0208501Y0196773D01*
X0207763Y0194993D01*
X0206401Y0193630D01*
X0204621Y0192893D01*
X0202694Y0192893D01*
X0200914Y0193630D01*
X0199552Y0194993D01*
X0198814Y0196773D01*
X0198814Y0205786D01*
X0199552Y0207566D01*
X0200914Y0208929D01*
X0201284Y0209082D01*
X0196031Y0209082D01*
X0196401Y0208929D01*
X0197763Y0207566D01*
X0198501Y0205786D01*
X0198501Y0196773D01*
X0197763Y0194993D01*
X0196401Y0193630D01*
X0194621Y0192893D01*
X0192694Y0192893D01*
X0190914Y0193630D01*
X0189552Y0194993D01*
X0188814Y0196773D01*
X0188814Y0205786D01*
X0189552Y0207566D01*
X0190914Y0208929D01*
X0191284Y0209082D01*
X0186031Y0209082D01*
X0186401Y0208929D01*
X0187763Y0207566D01*
X0188501Y0205786D01*
X0188501Y0196773D01*
X0187763Y0194993D01*
X0186401Y0193630D01*
X0185457Y0193239D01*
X0185457Y0184828D01*
X0193591Y0176694D01*
X0193591Y0149135D01*
X0220096Y0122631D01*
X0229938Y0122631D01*
X0230993Y0121576D01*
X0232961Y0119608D01*
X0232961Y0102774D01*
X0231907Y0101720D01*
X0227500Y0097313D01*
X0227500Y0096682D01*
X0227097Y0095708D01*
X0227375Y0096381D02*
X0321000Y0096381D01*
X0321000Y0097379D02*
X0227566Y0097379D01*
X0228565Y0098378D02*
X0321000Y0098378D01*
X0321000Y0099376D02*
X0229563Y0099376D01*
X0230562Y0100375D02*
X0321000Y0100375D01*
X0321000Y0101373D02*
X0231560Y0101373D01*
X0232559Y0102372D02*
X0321000Y0102372D01*
X0321000Y0103370D02*
X0232961Y0103370D01*
X0232961Y0104369D02*
X0321000Y0104369D01*
X0321000Y0105368D02*
X0232961Y0105368D01*
X0232961Y0106366D02*
X0321000Y0106366D01*
X0321000Y0107365D02*
X0232961Y0107365D01*
X0232961Y0108363D02*
X0321000Y0108363D01*
X0321000Y0109362D02*
X0232961Y0109362D01*
X0232961Y0110360D02*
X0321000Y0110360D01*
X0321000Y0111359D02*
X0232961Y0111359D01*
X0232961Y0112357D02*
X0321000Y0112357D01*
X0321000Y0113356D02*
X0232961Y0113356D01*
X0232961Y0114354D02*
X0321000Y0114354D01*
X0321000Y0115353D02*
X0232961Y0115353D01*
X0232961Y0116351D02*
X0321000Y0116351D01*
X0321000Y0117350D02*
X0232961Y0117350D01*
X0232961Y0118348D02*
X0321000Y0118348D01*
X0321000Y0119347D02*
X0232961Y0119347D01*
X0232224Y0120345D02*
X0321000Y0120345D01*
X0321000Y0121344D02*
X0231226Y0121344D01*
X0230227Y0122342D02*
X0321000Y0122342D01*
X0321000Y0123341D02*
X0219386Y0123341D01*
X0218387Y0124339D02*
X0321000Y0124339D01*
X0321000Y0125338D02*
X0217389Y0125338D01*
X0216390Y0126336D02*
X0321000Y0126336D01*
X0321000Y0127335D02*
X0215392Y0127335D01*
X0214393Y0128333D02*
X0321000Y0128333D01*
X0321000Y0129332D02*
X0213395Y0129332D01*
X0212396Y0130330D02*
X0321000Y0130330D01*
X0321000Y0131329D02*
X0211398Y0131329D01*
X0210399Y0132327D02*
X0321000Y0132327D01*
X0321000Y0133326D02*
X0209401Y0133326D01*
X0208402Y0134324D02*
X0321000Y0134324D01*
X0321000Y0135323D02*
X0207404Y0135323D01*
X0206405Y0136321D02*
X0321000Y0136321D01*
X0321000Y0137320D02*
X0205407Y0137320D01*
X0204408Y0138318D02*
X0321000Y0138318D01*
X0321000Y0139317D02*
X0203410Y0139317D01*
X0202411Y0140315D02*
X0321000Y0140315D01*
X0321000Y0141314D02*
X0201413Y0141314D01*
X0200414Y0142312D02*
X0321000Y0142312D01*
X0321000Y0143311D02*
X0199416Y0143311D01*
X0198417Y0144309D02*
X0321000Y0144309D01*
X0321000Y0145308D02*
X0197419Y0145308D01*
X0196420Y0146306D02*
X0321000Y0146306D01*
X0321000Y0147305D02*
X0195422Y0147305D01*
X0194423Y0148303D02*
X0321000Y0148303D01*
X0321000Y0149302D02*
X0193591Y0149302D01*
X0193591Y0150301D02*
X0229440Y0150301D01*
X0228719Y0151299D02*
X0193591Y0151299D01*
X0193591Y0152298D02*
X0227938Y0152298D01*
X0226939Y0153296D02*
X0193591Y0153296D01*
X0193591Y0154295D02*
X0225941Y0154295D01*
X0224942Y0155293D02*
X0193591Y0155293D01*
X0193591Y0156292D02*
X0223944Y0156292D01*
X0222945Y0157290D02*
X0193591Y0157290D01*
X0193591Y0158289D02*
X0221947Y0158289D01*
X0220948Y0159287D02*
X0193591Y0159287D01*
X0193591Y0160286D02*
X0219950Y0160286D01*
X0218951Y0161284D02*
X0193591Y0161284D01*
X0193591Y0162283D02*
X0217953Y0162283D01*
X0217050Y0163281D02*
X0193591Y0163281D01*
X0193591Y0164280D02*
X0217050Y0164280D01*
X0217050Y0165278D02*
X0193591Y0165278D01*
X0193591Y0166277D02*
X0217050Y0166277D01*
X0217050Y0167275D02*
X0193591Y0167275D01*
X0193591Y0168274D02*
X0217050Y0168274D01*
X0217050Y0169272D02*
X0193591Y0169272D01*
X0193591Y0170271D02*
X0217050Y0170271D01*
X0217050Y0171269D02*
X0193591Y0171269D01*
X0193591Y0172268D02*
X0217050Y0172268D01*
X0217050Y0173266D02*
X0193591Y0173266D01*
X0193591Y0174265D02*
X0217050Y0174265D01*
X0217050Y0175263D02*
X0193591Y0175263D01*
X0193591Y0176262D02*
X0217050Y0176262D01*
X0217050Y0177260D02*
X0193025Y0177260D01*
X0192027Y0178259D02*
X0217050Y0178259D01*
X0217050Y0179257D02*
X0191028Y0179257D01*
X0190030Y0180256D02*
X0217050Y0180256D01*
X0217050Y0181254D02*
X0189031Y0181254D01*
X0188033Y0182253D02*
X0217050Y0182253D01*
X0217050Y0183251D02*
X0187034Y0183251D01*
X0186036Y0184250D02*
X0217050Y0184250D01*
X0217050Y0185248D02*
X0185457Y0185248D01*
X0185457Y0186247D02*
X0217050Y0186247D01*
X0217050Y0187245D02*
X0185457Y0187245D01*
X0185457Y0188244D02*
X0217050Y0188244D01*
X0217050Y0189242D02*
X0185457Y0189242D01*
X0185457Y0190241D02*
X0217050Y0190241D01*
X0217050Y0191239D02*
X0185457Y0191239D01*
X0185457Y0192238D02*
X0217050Y0192238D01*
X0217050Y0193237D02*
X0205450Y0193237D01*
X0207006Y0194235D02*
X0217050Y0194235D01*
X0217050Y0195234D02*
X0207863Y0195234D01*
X0208277Y0196232D02*
X0217050Y0196232D01*
X0217050Y0197231D02*
X0208501Y0197231D01*
X0208501Y0198229D02*
X0217050Y0198229D01*
X0217050Y0199228D02*
X0208501Y0199228D01*
X0208501Y0200226D02*
X0217050Y0200226D01*
X0217050Y0201225D02*
X0208501Y0201225D01*
X0208501Y0202223D02*
X0217050Y0202223D01*
X0217050Y0203222D02*
X0208501Y0203222D01*
X0208501Y0204220D02*
X0217050Y0204220D01*
X0217808Y0205219D02*
X0208501Y0205219D01*
X0208322Y0206217D02*
X0218807Y0206217D01*
X0219806Y0207216D02*
X0207909Y0207216D01*
X0207116Y0208214D02*
X0220804Y0208214D01*
X0228764Y0214205D02*
X0201976Y0214205D01*
X0202851Y0215204D02*
X0229762Y0215204D01*
X0230761Y0216202D02*
X0203264Y0216202D01*
X0203501Y0217201D02*
X0231759Y0217201D01*
X0232758Y0218199D02*
X0203501Y0218199D01*
X0203501Y0219198D02*
X0233756Y0219198D01*
X0234755Y0220196D02*
X0203501Y0220196D01*
X0203501Y0221195D02*
X0235753Y0221195D01*
X0236752Y0222193D02*
X0203501Y0222193D01*
X0203501Y0223192D02*
X0237750Y0223192D01*
X0238690Y0224190D02*
X0238749Y0224190D01*
X0234751Y0224190D02*
X0203501Y0224190D01*
X0203501Y0225189D02*
X0233305Y0225189D01*
X0232496Y0226187D02*
X0203335Y0226187D01*
X0202921Y0227186D02*
X0232082Y0227186D01*
X0231895Y0228184D02*
X0202145Y0228184D01*
X0200787Y0229183D02*
X0231895Y0229183D01*
X0231895Y0230181D02*
X0140942Y0230181D01*
X0140942Y0229183D02*
X0146527Y0229183D01*
X0145170Y0228184D02*
X0142145Y0228184D01*
X0142921Y0227186D02*
X0144394Y0227186D01*
X0143980Y0226187D02*
X0143335Y0226187D01*
X0143501Y0225189D02*
X0143814Y0225189D01*
X0143814Y0224190D02*
X0143501Y0224190D01*
X0143501Y0223192D02*
X0143814Y0223192D01*
X0143814Y0222193D02*
X0143501Y0222193D01*
X0143501Y0221195D02*
X0143814Y0221195D01*
X0143814Y0220196D02*
X0143501Y0220196D01*
X0143501Y0219198D02*
X0143814Y0219198D01*
X0143814Y0218199D02*
X0143501Y0218199D01*
X0143501Y0217201D02*
X0143814Y0217201D01*
X0144051Y0216202D02*
X0143264Y0216202D01*
X0142851Y0215204D02*
X0144464Y0215204D01*
X0145339Y0214205D02*
X0141976Y0214205D01*
X0140378Y0213207D02*
X0146936Y0213207D01*
X0146058Y0212208D02*
X0109211Y0212208D01*
X0108213Y0213207D02*
X0136936Y0213207D01*
X0135339Y0214205D02*
X0107214Y0214205D01*
X0106216Y0215204D02*
X0134464Y0215204D01*
X0134051Y0216202D02*
X0106025Y0216202D01*
X0106150Y0215901D02*
X0105747Y0216875D01*
X0105001Y0217621D01*
X0104027Y0218024D01*
X0102973Y0218024D01*
X0101999Y0217621D01*
X0101253Y0216875D01*
X0100850Y0215901D01*
X0100850Y0214847D01*
X0101253Y0213873D01*
X0101999Y0213127D01*
X0102973Y0212724D01*
X0103604Y0212724D01*
X0144700Y0171628D01*
X0144700Y0124037D01*
X0143999Y0123747D01*
X0143253Y0123001D01*
X0142850Y0122027D01*
X0142850Y0120973D01*
X0143253Y0119999D01*
X0143999Y0119253D01*
X0144973Y0118850D01*
X0146027Y0118850D01*
X0147001Y0119253D01*
X0147747Y0119999D01*
X0148150Y0120973D01*
X0148150Y0121604D01*
X0148300Y0121754D01*
X0148300Y0173120D01*
X0147246Y0174174D01*
X0106150Y0215270D01*
X0106150Y0215901D01*
X0105421Y0217201D02*
X0133814Y0217201D01*
X0133814Y0218199D02*
X0046800Y0218199D01*
X0046800Y0217201D02*
X0101579Y0217201D01*
X0100975Y0216202D02*
X0046341Y0216202D01*
X0046038Y0215900D02*
X0046800Y0216662D01*
X0046800Y0225738D01*
X0046038Y0226500D01*
X0036962Y0226500D01*
X0036200Y0225738D01*
X0036200Y0216662D01*
X0036962Y0215900D01*
X0046038Y0215900D01*
X0043611Y0211118D02*
X0042788Y0211385D01*
X0042000Y0211510D01*
X0042000Y0206521D01*
X0041000Y0206521D01*
X0041000Y0211510D01*
X0040212Y0211385D01*
X0039389Y0211118D01*
X0038617Y0210724D01*
X0037917Y0210216D01*
X0037305Y0209603D01*
X0036796Y0208903D01*
X0036403Y0208132D01*
X0036135Y0207308D01*
X0036011Y0206520D01*
X0041000Y0206520D01*
X0041000Y0205520D01*
X0042000Y0205520D01*
X0042000Y0200531D01*
X0042788Y0200656D01*
X0043611Y0200923D01*
X0044383Y0201316D01*
X0045083Y0201825D01*
X0045695Y0202437D01*
X0046204Y0203138D01*
X0046597Y0203909D01*
X0046865Y0204733D01*
X0046989Y0205520D01*
X0042000Y0205520D01*
X0042000Y0206520D01*
X0046989Y0206520D01*
X0046865Y0207308D01*
X0046597Y0208132D01*
X0046204Y0208903D01*
X0045695Y0209603D01*
X0045083Y0210216D01*
X0044383Y0210724D01*
X0043611Y0211118D01*
X0043327Y0211210D02*
X0105119Y0211210D01*
X0104120Y0212208D02*
X0024000Y0212208D01*
X0024000Y0211210D02*
X0039673Y0211210D01*
X0041000Y0211210D02*
X0042000Y0211210D01*
X0042000Y0210211D02*
X0041000Y0210211D01*
X0041000Y0209213D02*
X0042000Y0209213D01*
X0042000Y0208214D02*
X0041000Y0208214D01*
X0041000Y0207216D02*
X0042000Y0207216D01*
X0042000Y0206217D02*
X0110111Y0206217D01*
X0109113Y0207216D02*
X0046879Y0207216D01*
X0046555Y0208214D02*
X0108114Y0208214D01*
X0107116Y0209213D02*
X0045979Y0209213D01*
X0045087Y0210211D02*
X0106117Y0210211D01*
X0101920Y0213207D02*
X0024000Y0213207D01*
X0024000Y0214205D02*
X0101116Y0214205D01*
X0100850Y0215204D02*
X0024000Y0215204D01*
X0024000Y0216202D02*
X0036659Y0216202D01*
X0036200Y0217201D02*
X0024000Y0217201D01*
X0024000Y0218199D02*
X0036200Y0218199D01*
X0036200Y0219198D02*
X0024000Y0219198D01*
X0024000Y0220196D02*
X0036200Y0220196D01*
X0036200Y0221195D02*
X0024000Y0221195D01*
X0024000Y0222193D02*
X0036200Y0222193D01*
X0036200Y0223192D02*
X0024000Y0223192D01*
X0024000Y0224190D02*
X0036200Y0224190D01*
X0036200Y0225189D02*
X0024000Y0225189D01*
X0024000Y0226187D02*
X0036649Y0226187D01*
X0036775Y0232094D02*
X0039721Y0232094D01*
X0042443Y0233222D01*
X0044526Y0235305D01*
X0045654Y0238027D01*
X0045654Y0240973D01*
X0044526Y0243695D01*
X0042443Y0245778D01*
X0039721Y0246905D01*
X0036775Y0246905D01*
X0034053Y0245778D01*
X0031970Y0243695D01*
X0030843Y0240973D01*
X0030843Y0238027D01*
X0031970Y0235305D01*
X0034053Y0233222D01*
X0036775Y0232094D01*
X0036572Y0232178D02*
X0024000Y0232178D01*
X0024000Y0231180D02*
X0136342Y0231180D01*
X0136342Y0232178D02*
X0039924Y0232178D01*
X0042334Y0233177D02*
X0136342Y0233177D01*
X0136342Y0234175D02*
X0082225Y0234175D01*
X0082033Y0234113D02*
X0082811Y0234366D01*
X0083540Y0234738D01*
X0084203Y0235219D01*
X0084781Y0235797D01*
X0085262Y0236460D01*
X0085634Y0237189D01*
X0085887Y0237967D01*
X0085893Y0238003D01*
X0086576Y0236353D01*
X0087983Y0234946D01*
X0089820Y0234185D01*
X0091810Y0234185D01*
X0093647Y0234946D01*
X0095054Y0236353D01*
X0095815Y0238190D01*
X0095815Y0240180D01*
X0095054Y0242017D01*
X0093647Y0243424D01*
X0091810Y0244185D01*
X0089820Y0244185D01*
X0087983Y0243424D01*
X0086576Y0242017D01*
X0085893Y0240367D01*
X0085887Y0240403D01*
X0085634Y0241181D01*
X0085262Y0241910D01*
X0084781Y0242573D01*
X0084203Y0243151D01*
X0083540Y0243632D01*
X0082811Y0244004D01*
X0082033Y0244257D01*
X0081315Y0244371D01*
X0081315Y0239685D01*
X0080315Y0239685D01*
X0080315Y0244371D01*
X0079597Y0244257D01*
X0078819Y0244004D01*
X0078090Y0243632D01*
X0077427Y0243151D01*
X0076849Y0242573D01*
X0076368Y0241910D01*
X0075996Y0241181D01*
X0075743Y0240403D01*
X0075737Y0240367D01*
X0075054Y0242017D01*
X0073647Y0243424D01*
X0071810Y0244185D01*
X0069820Y0244185D01*
X0067983Y0243424D01*
X0066576Y0242017D01*
X0065815Y0240180D01*
X0065815Y0238190D01*
X0066576Y0236353D01*
X0067983Y0234946D01*
X0069820Y0234185D01*
X0071810Y0234185D01*
X0073647Y0234946D01*
X0075054Y0236353D01*
X0075737Y0238003D01*
X0075743Y0237967D01*
X0075996Y0237189D01*
X0076368Y0236460D01*
X0076849Y0235797D01*
X0077427Y0235219D01*
X0078090Y0234738D01*
X0078819Y0234366D01*
X0079597Y0234113D01*
X0080315Y0233999D01*
X0080315Y0238685D01*
X0081315Y0238685D01*
X0081315Y0233999D01*
X0082033Y0234113D01*
X0081315Y0234175D02*
X0080315Y0234175D01*
X0079405Y0234175D02*
X0043396Y0234175D01*
X0044395Y0235174D02*
X0067755Y0235174D01*
X0066756Y0236172D02*
X0044885Y0236172D01*
X0045299Y0237171D02*
X0066237Y0237171D01*
X0065824Y0238170D02*
X0045654Y0238170D01*
X0045654Y0239168D02*
X0065815Y0239168D01*
X0065815Y0240167D02*
X0045654Y0240167D01*
X0045574Y0241165D02*
X0066223Y0241165D01*
X0066722Y0242164D02*
X0045160Y0242164D01*
X0044747Y0243162D02*
X0067721Y0243162D01*
X0069761Y0244161D02*
X0044060Y0244161D01*
X0043062Y0245159D02*
X0151004Y0245159D01*
X0150084Y0244161D02*
X0091869Y0244161D01*
X0089761Y0244161D02*
X0082329Y0244161D01*
X0081315Y0244161D02*
X0080315Y0244161D01*
X0080315Y0243162D02*
X0081315Y0243162D01*
X0081315Y0242164D02*
X0080315Y0242164D01*
X0080315Y0241165D02*
X0081315Y0241165D01*
X0081315Y0240167D02*
X0080315Y0240167D01*
X0080315Y0238170D02*
X0081315Y0238170D01*
X0081315Y0237171D02*
X0080315Y0237171D01*
X0080315Y0236172D02*
X0081315Y0236172D01*
X0081315Y0235174D02*
X0080315Y0235174D01*
X0077489Y0235174D02*
X0073875Y0235174D01*
X0074873Y0236172D02*
X0076576Y0236172D01*
X0076005Y0237171D02*
X0075393Y0237171D01*
X0075407Y0241165D02*
X0075991Y0241165D01*
X0076551Y0242164D02*
X0074907Y0242164D01*
X0073909Y0243162D02*
X0077442Y0243162D01*
X0079301Y0244161D02*
X0071869Y0244161D01*
X0084188Y0243162D02*
X0087721Y0243162D01*
X0086722Y0242164D02*
X0085078Y0242164D01*
X0085639Y0241165D02*
X0086223Y0241165D01*
X0086237Y0237171D02*
X0085625Y0237171D01*
X0085054Y0236172D02*
X0086756Y0236172D01*
X0087755Y0235174D02*
X0084141Y0235174D01*
X0093875Y0235174D02*
X0136342Y0235174D01*
X0136342Y0236172D02*
X0094873Y0236172D01*
X0095393Y0237171D02*
X0136342Y0237171D01*
X0136586Y0238170D02*
X0095806Y0238170D01*
X0095815Y0239168D02*
X0137585Y0239168D01*
X0138583Y0240167D02*
X0095815Y0240167D01*
X0095407Y0241165D02*
X0139582Y0241165D01*
X0141094Y0236172D02*
X0228709Y0236172D01*
X0229707Y0235174D02*
X0140942Y0235174D01*
X0140942Y0234175D02*
X0230706Y0234175D01*
X0231704Y0233177D02*
X0140942Y0233177D01*
X0140942Y0232178D02*
X0231895Y0232178D01*
X0231895Y0231180D02*
X0140942Y0231180D01*
X0136342Y0230181D02*
X0024000Y0230181D01*
X0024000Y0229183D02*
X0136342Y0229183D01*
X0135170Y0228184D02*
X0024000Y0228184D01*
X0024000Y0227186D02*
X0134394Y0227186D01*
X0133980Y0226187D02*
X0046351Y0226187D01*
X0046800Y0225189D02*
X0133814Y0225189D01*
X0133814Y0224190D02*
X0046800Y0224190D01*
X0046800Y0223192D02*
X0133814Y0223192D01*
X0133814Y0222193D02*
X0046800Y0222193D01*
X0046800Y0221195D02*
X0133814Y0221195D01*
X0133814Y0220196D02*
X0046800Y0220196D01*
X0046800Y0219198D02*
X0133814Y0219198D01*
X0134621Y0209666D02*
X0132694Y0209666D01*
X0130914Y0208929D01*
X0129552Y0207566D01*
X0128814Y0205786D01*
X0128814Y0196773D01*
X0129552Y0194993D01*
X0130914Y0193630D01*
X0132694Y0192893D01*
X0134621Y0192893D01*
X0136401Y0193630D01*
X0137763Y0194993D01*
X0138501Y0196773D01*
X0138501Y0205786D01*
X0137763Y0207566D01*
X0136401Y0208929D01*
X0134621Y0209666D01*
X0135716Y0209213D02*
X0141599Y0209213D01*
X0140199Y0208214D02*
X0137116Y0208214D01*
X0137909Y0207216D02*
X0139406Y0207216D01*
X0138993Y0206217D02*
X0138322Y0206217D01*
X0138501Y0205219D02*
X0138814Y0205219D01*
X0138814Y0204220D02*
X0138501Y0204220D01*
X0138501Y0203222D02*
X0138814Y0203222D01*
X0138814Y0202223D02*
X0138501Y0202223D01*
X0138501Y0201225D02*
X0138814Y0201225D01*
X0138814Y0200226D02*
X0138501Y0200226D01*
X0138501Y0199228D02*
X0138814Y0199228D01*
X0138814Y0198229D02*
X0138501Y0198229D01*
X0138501Y0197231D02*
X0138814Y0197231D01*
X0139038Y0196232D02*
X0138277Y0196232D01*
X0137863Y0195234D02*
X0139452Y0195234D01*
X0140309Y0194235D02*
X0137006Y0194235D01*
X0135450Y0193237D02*
X0141865Y0193237D01*
X0145450Y0193237D02*
X0151380Y0193237D01*
X0150026Y0194235D02*
X0147006Y0194235D01*
X0147863Y0195234D02*
X0149272Y0195234D01*
X0148843Y0196232D02*
X0148277Y0196232D01*
X0148501Y0197231D02*
X0148631Y0197231D01*
X0148614Y0198229D02*
X0148501Y0198229D01*
X0148501Y0199228D02*
X0148614Y0199228D01*
X0148614Y0200226D02*
X0148501Y0200226D01*
X0148501Y0201225D02*
X0153157Y0201225D01*
X0153157Y0200226D02*
X0154157Y0200226D01*
X0154158Y0200780D02*
X0154158Y0201780D01*
X0158701Y0201780D01*
X0163157Y0201780D01*
X0163157Y0200780D01*
X0154158Y0200780D01*
X0154158Y0201225D02*
X0163157Y0201225D01*
X0163157Y0200226D02*
X0164157Y0200226D01*
X0164158Y0200780D02*
X0164158Y0201780D01*
X0168701Y0201780D01*
X0173157Y0201780D01*
X0173157Y0200780D01*
X0164158Y0200780D01*
X0164158Y0201225D02*
X0173157Y0201225D01*
X0173157Y0200226D02*
X0174157Y0200226D01*
X0174157Y0199228D02*
X0173157Y0199228D01*
X0173157Y0198229D02*
X0174157Y0198229D01*
X0174157Y0197231D02*
X0173157Y0197231D01*
X0173157Y0196232D02*
X0174157Y0196232D01*
X0174157Y0195234D02*
X0173157Y0195234D01*
X0173157Y0194235D02*
X0174157Y0194235D01*
X0174157Y0193237D02*
X0173157Y0193237D01*
X0171380Y0193237D02*
X0165935Y0193237D01*
X0167289Y0194235D02*
X0170026Y0194235D01*
X0169272Y0195234D02*
X0168043Y0195234D01*
X0168472Y0196232D02*
X0168843Y0196232D01*
X0164157Y0196232D02*
X0163157Y0196232D01*
X0163157Y0195234D02*
X0164157Y0195234D01*
X0164157Y0194235D02*
X0163157Y0194235D01*
X0163157Y0193237D02*
X0164157Y0193237D01*
X0161380Y0193237D02*
X0155935Y0193237D01*
X0157289Y0194235D02*
X0160026Y0194235D01*
X0159272Y0195234D02*
X0158043Y0195234D01*
X0158472Y0196232D02*
X0158843Y0196232D01*
X0163157Y0197231D02*
X0164157Y0197231D01*
X0164157Y0198229D02*
X0163157Y0198229D01*
X0163157Y0199228D02*
X0164157Y0199228D01*
X0154157Y0199228D02*
X0153157Y0199228D01*
X0153157Y0198229D02*
X0154157Y0198229D01*
X0154157Y0197231D02*
X0153157Y0197231D01*
X0153157Y0196232D02*
X0154157Y0196232D01*
X0154157Y0195234D02*
X0153157Y0195234D01*
X0153157Y0194235D02*
X0154157Y0194235D01*
X0154157Y0193237D02*
X0153157Y0193237D01*
X0148614Y0202223D02*
X0148501Y0202223D01*
X0148501Y0203222D02*
X0148614Y0203222D01*
X0148614Y0204220D02*
X0148501Y0204220D01*
X0148501Y0205219D02*
X0148614Y0205219D01*
X0148808Y0206217D02*
X0148322Y0206217D01*
X0147909Y0207216D02*
X0149216Y0207216D01*
X0148569Y0208214D02*
X0149917Y0208214D01*
X0145059Y0211210D02*
X0110210Y0211210D01*
X0111208Y0210211D02*
X0144061Y0210211D01*
X0151976Y0214205D02*
X0155339Y0214205D01*
X0154464Y0215204D02*
X0152851Y0215204D01*
X0153264Y0216202D02*
X0154051Y0216202D01*
X0153814Y0217201D02*
X0153501Y0217201D01*
X0153501Y0218199D02*
X0153814Y0218199D01*
X0153814Y0219198D02*
X0153501Y0219198D01*
X0153501Y0220196D02*
X0153814Y0220196D01*
X0153814Y0221195D02*
X0153501Y0221195D01*
X0153501Y0222193D02*
X0153814Y0222193D01*
X0153814Y0223192D02*
X0153501Y0223192D01*
X0153501Y0224190D02*
X0153814Y0224190D01*
X0153814Y0225189D02*
X0153501Y0225189D01*
X0153335Y0226187D02*
X0153980Y0226187D01*
X0154394Y0227186D02*
X0152921Y0227186D01*
X0152145Y0228184D02*
X0155170Y0228184D01*
X0156527Y0229183D02*
X0150787Y0229183D01*
X0160787Y0229183D02*
X0166527Y0229183D01*
X0165170Y0228184D02*
X0162145Y0228184D01*
X0162921Y0227186D02*
X0164394Y0227186D01*
X0163980Y0226187D02*
X0163335Y0226187D01*
X0163501Y0225189D02*
X0163814Y0225189D01*
X0163814Y0224190D02*
X0163501Y0224190D01*
X0163501Y0223192D02*
X0163814Y0223192D01*
X0163814Y0222193D02*
X0163501Y0222193D01*
X0163501Y0221195D02*
X0163814Y0221195D01*
X0163814Y0220196D02*
X0163501Y0220196D01*
X0163501Y0219198D02*
X0163814Y0219198D01*
X0163814Y0218199D02*
X0163501Y0218199D01*
X0163501Y0217201D02*
X0163814Y0217201D01*
X0164051Y0216202D02*
X0163264Y0216202D01*
X0162851Y0215204D02*
X0164464Y0215204D01*
X0165339Y0214205D02*
X0161976Y0214205D01*
X0171976Y0214205D02*
X0175056Y0214205D01*
X0174288Y0215204D02*
X0172851Y0215204D01*
X0173264Y0216202D02*
X0173853Y0216202D01*
X0173636Y0217201D02*
X0173501Y0217201D01*
X0173501Y0218199D02*
X0173614Y0218199D01*
X0173614Y0219198D02*
X0173501Y0219198D01*
X0173501Y0220196D02*
X0173614Y0220196D01*
X0173501Y0221195D02*
X0178157Y0221195D01*
X0178157Y0222193D02*
X0179157Y0222193D01*
X0179158Y0221780D02*
X0188157Y0221780D01*
X0188157Y0220780D01*
X0183614Y0220780D01*
X0179158Y0220780D01*
X0179158Y0221780D01*
X0179158Y0221195D02*
X0188157Y0221195D01*
X0188157Y0222193D02*
X0189157Y0222193D01*
X0189158Y0221195D02*
X0193814Y0221195D01*
X0193814Y0222193D02*
X0193701Y0222193D01*
X0193701Y0223192D02*
X0193814Y0223192D01*
X0193814Y0224190D02*
X0193701Y0224190D01*
X0193701Y0225189D02*
X0193814Y0225189D01*
X0193980Y0226187D02*
X0193517Y0226187D01*
X0193114Y0227186D02*
X0194394Y0227186D01*
X0195170Y0228184D02*
X0192428Y0228184D01*
X0191209Y0229183D02*
X0196527Y0229183D01*
X0189157Y0229183D02*
X0188157Y0229183D01*
X0188157Y0228184D02*
X0189157Y0228184D01*
X0189157Y0227186D02*
X0188157Y0227186D01*
X0188157Y0226187D02*
X0189157Y0226187D01*
X0189157Y0225189D02*
X0188157Y0225189D01*
X0188157Y0224190D02*
X0189157Y0224190D01*
X0189157Y0223192D02*
X0188157Y0223192D01*
X0183798Y0226187D02*
X0183517Y0226187D01*
X0183114Y0227186D02*
X0184201Y0227186D01*
X0184887Y0228184D02*
X0182428Y0228184D01*
X0181209Y0229183D02*
X0186106Y0229183D01*
X0179157Y0229183D02*
X0178157Y0229183D01*
X0178157Y0228184D02*
X0179157Y0228184D01*
X0179157Y0227186D02*
X0178157Y0227186D01*
X0178157Y0226187D02*
X0179157Y0226187D01*
X0179157Y0225189D02*
X0178157Y0225189D01*
X0178157Y0224190D02*
X0179157Y0224190D01*
X0179157Y0223192D02*
X0178157Y0223192D01*
X0173614Y0223192D02*
X0173501Y0223192D01*
X0173501Y0224190D02*
X0173614Y0224190D01*
X0173614Y0225189D02*
X0173501Y0225189D01*
X0173335Y0226187D02*
X0173798Y0226187D01*
X0174201Y0227186D02*
X0172921Y0227186D01*
X0172145Y0228184D02*
X0174887Y0228184D01*
X0176106Y0229183D02*
X0170787Y0229183D01*
X0173501Y0222193D02*
X0173614Y0222193D01*
X0177398Y0208214D02*
X0180199Y0208214D01*
X0179406Y0207216D02*
X0178098Y0207216D01*
X0178507Y0206217D02*
X0178993Y0206217D01*
X0178814Y0205219D02*
X0178701Y0205219D01*
X0178701Y0204220D02*
X0178814Y0204220D01*
X0178814Y0203222D02*
X0178701Y0203222D01*
X0178701Y0202223D02*
X0178814Y0202223D01*
X0178814Y0201225D02*
X0174158Y0201225D01*
X0178701Y0200226D02*
X0178814Y0200226D01*
X0178814Y0199228D02*
X0178701Y0199228D01*
X0178701Y0198229D02*
X0178814Y0198229D01*
X0178814Y0197231D02*
X0178684Y0197231D01*
X0178472Y0196232D02*
X0179038Y0196232D01*
X0179452Y0195234D02*
X0178043Y0195234D01*
X0177289Y0194235D02*
X0180309Y0194235D01*
X0181857Y0193237D02*
X0175935Y0193237D01*
X0181857Y0192238D02*
X0129182Y0192238D01*
X0130180Y0191239D02*
X0181857Y0191239D01*
X0181857Y0190241D02*
X0131179Y0190241D01*
X0132177Y0189242D02*
X0181857Y0189242D01*
X0181857Y0188244D02*
X0133176Y0188244D01*
X0134174Y0187245D02*
X0181857Y0187245D01*
X0181857Y0186247D02*
X0135173Y0186247D01*
X0136171Y0185248D02*
X0181857Y0185248D01*
X0181857Y0184250D02*
X0137170Y0184250D01*
X0138168Y0183251D02*
X0181943Y0183251D01*
X0182942Y0182253D02*
X0139167Y0182253D01*
X0140165Y0181254D02*
X0183940Y0181254D01*
X0184939Y0180256D02*
X0141164Y0180256D01*
X0142162Y0179257D02*
X0185937Y0179257D01*
X0186936Y0178259D02*
X0143161Y0178259D01*
X0144159Y0177260D02*
X0187934Y0177260D01*
X0188933Y0176262D02*
X0145158Y0176262D01*
X0146156Y0175263D02*
X0189931Y0175263D01*
X0189991Y0174265D02*
X0147155Y0174265D01*
X0148153Y0173266D02*
X0189991Y0173266D01*
X0189991Y0172268D02*
X0148300Y0172268D01*
X0148300Y0171269D02*
X0189991Y0171269D01*
X0189991Y0170271D02*
X0148300Y0170271D01*
X0148300Y0169272D02*
X0189991Y0169272D01*
X0189991Y0168274D02*
X0148300Y0168274D01*
X0148300Y0167275D02*
X0189991Y0167275D01*
X0189991Y0166277D02*
X0148300Y0166277D01*
X0148300Y0165278D02*
X0189991Y0165278D01*
X0189991Y0164280D02*
X0148300Y0164280D01*
X0148300Y0163281D02*
X0189991Y0163281D01*
X0189991Y0162283D02*
X0170263Y0162283D01*
X0171261Y0161284D02*
X0189991Y0161284D01*
X0189991Y0160286D02*
X0172260Y0160286D01*
X0173258Y0159287D02*
X0189991Y0159287D01*
X0189991Y0158289D02*
X0174257Y0158289D01*
X0174800Y0157290D02*
X0189991Y0157290D01*
X0189991Y0156292D02*
X0174800Y0156292D01*
X0174800Y0155293D02*
X0189991Y0155293D01*
X0189991Y0154295D02*
X0174800Y0154295D01*
X0174800Y0153296D02*
X0189991Y0153296D01*
X0189991Y0152298D02*
X0174800Y0152298D01*
X0174800Y0151299D02*
X0189991Y0151299D01*
X0189991Y0150301D02*
X0174800Y0150301D01*
X0174800Y0149302D02*
X0189991Y0149302D01*
X0189991Y0148303D02*
X0174800Y0148303D01*
X0174800Y0147305D02*
X0190331Y0147305D01*
X0191329Y0146306D02*
X0174800Y0146306D01*
X0174800Y0145308D02*
X0192328Y0145308D01*
X0193326Y0144309D02*
X0174800Y0144309D01*
X0174800Y0143311D02*
X0194325Y0143311D01*
X0195323Y0142312D02*
X0174800Y0142312D01*
X0174800Y0141314D02*
X0196322Y0141314D01*
X0197320Y0140315D02*
X0174800Y0140315D01*
X0174800Y0139317D02*
X0198319Y0139317D01*
X0199317Y0138318D02*
X0174800Y0138318D01*
X0174800Y0137320D02*
X0200316Y0137320D01*
X0201314Y0136321D02*
X0174800Y0136321D01*
X0174800Y0135323D02*
X0202313Y0135323D01*
X0203311Y0134324D02*
X0175221Y0134324D01*
X0176220Y0133326D02*
X0204310Y0133326D01*
X0205308Y0132327D02*
X0177218Y0132327D01*
X0178217Y0131329D02*
X0206307Y0131329D01*
X0207305Y0130330D02*
X0179215Y0130330D01*
X0180214Y0129332D02*
X0208304Y0129332D01*
X0209302Y0128333D02*
X0181212Y0128333D01*
X0182211Y0127335D02*
X0210301Y0127335D01*
X0211209Y0126336D02*
X0211299Y0126336D01*
X0212208Y0125338D02*
X0212298Y0125338D01*
X0213206Y0124339D02*
X0213296Y0124339D01*
X0214205Y0123341D02*
X0214295Y0123341D01*
X0215203Y0122342D02*
X0215293Y0122342D01*
X0216202Y0121344D02*
X0216292Y0121344D01*
X0217200Y0120345D02*
X0217290Y0120345D01*
X0218199Y0119347D02*
X0218289Y0119347D01*
X0219197Y0118348D02*
X0229130Y0118348D01*
X0229361Y0117350D02*
X0220196Y0117350D01*
X0221194Y0116351D02*
X0229361Y0116351D01*
X0229361Y0115353D02*
X0222193Y0115353D01*
X0223191Y0114354D02*
X0229361Y0114354D01*
X0229361Y0113356D02*
X0224190Y0113356D01*
X0225188Y0112357D02*
X0229361Y0112357D01*
X0229361Y0111359D02*
X0226187Y0111359D01*
X0227186Y0110360D02*
X0229361Y0110360D01*
X0227500Y0107500D02*
X0209500Y0125500D01*
X0181500Y0125500D01*
X0173000Y0134000D01*
X0173000Y0157000D01*
X0169500Y0160500D01*
X0158500Y0160500D01*
X0156535Y0162283D02*
X0148300Y0162283D01*
X0148300Y0161284D02*
X0155956Y0161284D01*
X0155850Y0160286D02*
X0148300Y0160286D01*
X0148300Y0159287D02*
X0156134Y0159287D01*
X0156964Y0158289D02*
X0148300Y0158289D01*
X0148300Y0157290D02*
X0170164Y0157290D01*
X0169166Y0158289D02*
X0160036Y0158289D01*
X0171163Y0156292D02*
X0148300Y0156292D01*
X0148300Y0155293D02*
X0171200Y0155293D01*
X0171200Y0154295D02*
X0148300Y0154295D01*
X0148300Y0153296D02*
X0171200Y0153296D01*
X0171200Y0152298D02*
X0148300Y0152298D01*
X0148300Y0151299D02*
X0171200Y0151299D01*
X0171200Y0150301D02*
X0148300Y0150301D01*
X0148300Y0149302D02*
X0171200Y0149302D01*
X0171200Y0148303D02*
X0148300Y0148303D01*
X0148300Y0147305D02*
X0171200Y0147305D01*
X0171200Y0146306D02*
X0148300Y0146306D01*
X0148300Y0145308D02*
X0171200Y0145308D01*
X0171200Y0144309D02*
X0148300Y0144309D01*
X0148300Y0143311D02*
X0171200Y0143311D01*
X0171200Y0142312D02*
X0148300Y0142312D01*
X0148300Y0141314D02*
X0171200Y0141314D01*
X0171200Y0140315D02*
X0148300Y0140315D01*
X0148300Y0139317D02*
X0171200Y0139317D01*
X0171200Y0138318D02*
X0148300Y0138318D01*
X0148300Y0137320D02*
X0171200Y0137320D01*
X0171200Y0136321D02*
X0148300Y0136321D01*
X0148300Y0135323D02*
X0171200Y0135323D01*
X0171200Y0134324D02*
X0148300Y0134324D01*
X0148300Y0133326D02*
X0171200Y0133326D01*
X0172127Y0132327D02*
X0148300Y0132327D01*
X0148300Y0131329D02*
X0173126Y0131329D01*
X0174124Y0130330D02*
X0148300Y0130330D01*
X0148300Y0129332D02*
X0175123Y0129332D01*
X0176121Y0128333D02*
X0148300Y0128333D01*
X0148300Y0127335D02*
X0177120Y0127335D01*
X0178118Y0126336D02*
X0148300Y0126336D01*
X0148300Y0125338D02*
X0179117Y0125338D01*
X0180115Y0124339D02*
X0148300Y0124339D01*
X0148300Y0123341D02*
X0209114Y0123341D01*
X0210112Y0122342D02*
X0148300Y0122342D01*
X0148150Y0121344D02*
X0211111Y0121344D01*
X0212109Y0120345D02*
X0147890Y0120345D01*
X0147094Y0119347D02*
X0213108Y0119347D01*
X0214106Y0118348D02*
X0127197Y0118348D01*
X0127246Y0118300D02*
X0122300Y0123246D01*
X0122300Y0136552D01*
X0122747Y0136999D01*
X0123150Y0137973D01*
X0123150Y0139027D01*
X0122747Y0140001D01*
X0122001Y0140747D01*
X0121027Y0141150D01*
X0119973Y0141150D01*
X0118999Y0140747D01*
X0118253Y0140001D01*
X0117850Y0139027D01*
X0117850Y0137973D01*
X0118253Y0136999D01*
X0118700Y0136552D01*
X0118700Y0121754D01*
X0124700Y0115754D01*
X0124700Y0096754D01*
X0133754Y0087700D01*
X0137375Y0087700D01*
X0137685Y0086951D01*
X0138951Y0085685D01*
X0140605Y0085000D01*
X0142395Y0085000D01*
X0144049Y0085685D01*
X0145315Y0086951D01*
X0146000Y0088605D01*
X0146000Y0090395D01*
X0145315Y0092049D01*
X0144049Y0093315D01*
X0142395Y0094000D01*
X0140605Y0094000D01*
X0138951Y0093315D01*
X0137685Y0092049D01*
X0137375Y0091300D01*
X0135246Y0091300D01*
X0128300Y0098246D01*
X0128300Y0117246D01*
X0127246Y0118300D01*
X0128196Y0117350D02*
X0215105Y0117350D01*
X0216103Y0116351D02*
X0128300Y0116351D01*
X0128300Y0115353D02*
X0217102Y0115353D01*
X0218100Y0114354D02*
X0128300Y0114354D01*
X0128300Y0113356D02*
X0139049Y0113356D01*
X0138951Y0113315D02*
X0137685Y0112049D01*
X0137000Y0110395D01*
X0137000Y0108605D01*
X0137685Y0106951D01*
X0138951Y0105685D01*
X0140605Y0105000D01*
X0142395Y0105000D01*
X0144049Y0105685D01*
X0145315Y0106951D01*
X0146000Y0108605D01*
X0146000Y0110395D01*
X0145315Y0112049D01*
X0144049Y0113315D01*
X0142395Y0114000D01*
X0140605Y0114000D01*
X0138951Y0113315D01*
X0137993Y0112357D02*
X0128300Y0112357D01*
X0128300Y0111359D02*
X0137399Y0111359D01*
X0137000Y0110360D02*
X0128300Y0110360D01*
X0128300Y0109362D02*
X0137000Y0109362D01*
X0137100Y0108363D02*
X0128300Y0108363D01*
X0128300Y0107365D02*
X0137514Y0107365D01*
X0138270Y0106366D02*
X0128300Y0106366D01*
X0128300Y0105368D02*
X0139718Y0105368D01*
X0140605Y0104000D02*
X0138951Y0103315D01*
X0137685Y0102049D01*
X0137000Y0100395D01*
X0137000Y0098605D01*
X0137685Y0096951D01*
X0138951Y0095685D01*
X0140605Y0095000D01*
X0142395Y0095000D01*
X0144049Y0095685D01*
X0145315Y0096951D01*
X0146000Y0098605D01*
X0146000Y0100395D01*
X0145315Y0102049D01*
X0144049Y0103315D01*
X0142395Y0104000D01*
X0140605Y0104000D01*
X0139085Y0103370D02*
X0128300Y0103370D01*
X0128300Y0102372D02*
X0138008Y0102372D01*
X0137405Y0101373D02*
X0128300Y0101373D01*
X0128300Y0100375D02*
X0137000Y0100375D01*
X0137000Y0099376D02*
X0128300Y0099376D01*
X0128300Y0098378D02*
X0137094Y0098378D01*
X0137508Y0097379D02*
X0129166Y0097379D01*
X0130165Y0096381D02*
X0138255Y0096381D01*
X0139682Y0095382D02*
X0131163Y0095382D01*
X0132162Y0094384D02*
X0156094Y0094384D01*
X0155850Y0095382D02*
X0153318Y0095382D01*
X0154049Y0095685D02*
X0155315Y0096951D01*
X0156000Y0098605D01*
X0156000Y0100395D01*
X0155315Y0102049D01*
X0154049Y0103315D01*
X0152395Y0104000D01*
X0150605Y0104000D01*
X0148951Y0103315D01*
X0147685Y0102049D01*
X0147000Y0100395D01*
X0147000Y0098605D01*
X0147685Y0096951D01*
X0148951Y0095685D01*
X0150605Y0095000D01*
X0152395Y0095000D01*
X0154049Y0095685D01*
X0154745Y0096381D02*
X0155997Y0096381D01*
X0155492Y0097379D02*
X0156632Y0097379D01*
X0155906Y0098378D02*
X0222466Y0098378D01*
X0222200Y0097379D02*
X0176368Y0097379D01*
X0177003Y0096381D02*
X0222325Y0096381D01*
X0222929Y0095382D02*
X0177150Y0095382D01*
X0174027Y0102850D02*
X0175001Y0103253D01*
X0175747Y0103999D01*
X0176150Y0104973D01*
X0176150Y0106027D01*
X0175747Y0107001D01*
X0175001Y0107747D01*
X0174027Y0108150D01*
X0172973Y0108150D01*
X0171999Y0107747D01*
X0171552Y0107300D01*
X0163754Y0107300D01*
X0162604Y0106150D01*
X0161973Y0106150D01*
X0160999Y0105747D01*
X0160253Y0105001D01*
X0159850Y0104027D01*
X0159850Y0102973D01*
X0160253Y0101999D01*
X0160999Y0101253D01*
X0161973Y0100850D01*
X0163027Y0100850D01*
X0164001Y0101253D01*
X0164747Y0101999D01*
X0165150Y0102973D01*
X0165150Y0103604D01*
X0165246Y0103700D01*
X0171552Y0103700D01*
X0171999Y0103253D01*
X0172973Y0102850D01*
X0174027Y0102850D01*
X0175118Y0103370D02*
X0228466Y0103370D01*
X0229361Y0104369D02*
X0175900Y0104369D01*
X0176150Y0105368D02*
X0225885Y0105368D01*
X0225101Y0106366D02*
X0176010Y0106366D01*
X0175383Y0107365D02*
X0224850Y0107365D01*
X0224091Y0108363D02*
X0156072Y0108363D01*
X0156084Y0108399D02*
X0156197Y0109114D01*
X0151886Y0109114D01*
X0151886Y0109886D01*
X0156197Y0109886D01*
X0156084Y0110601D01*
X0155856Y0111304D01*
X0155520Y0111963D01*
X0155085Y0112562D01*
X0154562Y0113085D01*
X0153963Y0113520D01*
X0153304Y0113856D01*
X0152601Y0114084D01*
X0151886Y0114197D01*
X0151886Y0109886D01*
X0151114Y0109886D01*
X0151114Y0114197D01*
X0150399Y0114084D01*
X0149696Y0113856D01*
X0149037Y0113520D01*
X0148438Y0113085D01*
X0147915Y0112562D01*
X0147480Y0111963D01*
X0147144Y0111304D01*
X0146916Y0110601D01*
X0146803Y0109886D01*
X0151114Y0109886D01*
X0151114Y0109114D01*
X0151886Y0109114D01*
X0151886Y0104803D01*
X0152601Y0104916D01*
X0153304Y0105144D01*
X0153963Y0105480D01*
X0154562Y0105915D01*
X0155085Y0106438D01*
X0155520Y0107037D01*
X0155856Y0107696D01*
X0156084Y0108399D01*
X0155687Y0107365D02*
X0171617Y0107365D01*
X0173500Y0105500D02*
X0164500Y0105500D01*
X0162500Y0103500D01*
X0160620Y0105368D02*
X0153742Y0105368D01*
X0155013Y0106366D02*
X0162820Y0106366D01*
X0159992Y0104369D02*
X0128300Y0104369D01*
X0124700Y0104369D02*
X0100300Y0104369D01*
X0100300Y0103370D02*
X0124700Y0103370D01*
X0124700Y0102372D02*
X0100300Y0102372D01*
X0100300Y0101373D02*
X0124700Y0101373D01*
X0124700Y0100375D02*
X0099921Y0100375D01*
X0098922Y0099376D02*
X0124700Y0099376D01*
X0124700Y0098378D02*
X0097924Y0098378D01*
X0096925Y0097379D02*
X0124700Y0097379D01*
X0125073Y0096381D02*
X0095926Y0096381D01*
X0094928Y0095382D02*
X0126072Y0095382D01*
X0127071Y0094384D02*
X0093929Y0094384D01*
X0092931Y0093385D02*
X0128069Y0093385D01*
X0129068Y0092387D02*
X0091932Y0092387D01*
X0090934Y0091388D02*
X0130066Y0091388D01*
X0131065Y0090390D02*
X0089935Y0090390D01*
X0088937Y0089391D02*
X0132063Y0089391D01*
X0133062Y0088393D02*
X0087938Y0088393D01*
X0086940Y0087394D02*
X0137501Y0087394D01*
X0138240Y0086396D02*
X0067941Y0086396D01*
X0066943Y0085397D02*
X0139646Y0085397D01*
X0143354Y0085397D02*
X0149646Y0085397D01*
X0148240Y0086396D02*
X0144760Y0086396D01*
X0145499Y0087394D02*
X0147501Y0087394D01*
X0147088Y0088393D02*
X0145912Y0088393D01*
X0146000Y0089391D02*
X0147000Y0089391D01*
X0147000Y0090390D02*
X0146000Y0090390D01*
X0145589Y0091388D02*
X0147411Y0091388D01*
X0148023Y0092387D02*
X0144977Y0092387D01*
X0143879Y0093385D02*
X0149121Y0093385D01*
X0149682Y0095382D02*
X0143318Y0095382D01*
X0144745Y0096381D02*
X0148255Y0096381D01*
X0147508Y0097379D02*
X0145492Y0097379D01*
X0145906Y0098378D02*
X0147094Y0098378D01*
X0147000Y0099376D02*
X0146000Y0099376D01*
X0146000Y0100375D02*
X0147000Y0100375D01*
X0147405Y0101373D02*
X0145595Y0101373D01*
X0144992Y0102372D02*
X0148008Y0102372D01*
X0149085Y0103370D02*
X0143915Y0103370D01*
X0143282Y0105368D02*
X0149258Y0105368D01*
X0149037Y0105480D02*
X0149696Y0105144D01*
X0150399Y0104916D01*
X0151114Y0104803D01*
X0151114Y0109114D01*
X0146803Y0109114D01*
X0146916Y0108399D01*
X0147144Y0107696D01*
X0147480Y0107037D01*
X0147915Y0106438D01*
X0148438Y0105915D01*
X0149037Y0105480D01*
X0147987Y0106366D02*
X0144730Y0106366D01*
X0145486Y0107365D02*
X0147313Y0107365D01*
X0146928Y0108363D02*
X0145900Y0108363D01*
X0146000Y0109362D02*
X0151114Y0109362D01*
X0151886Y0109362D02*
X0223093Y0109362D01*
X0222094Y0110360D02*
X0156122Y0110360D01*
X0155828Y0111359D02*
X0221096Y0111359D01*
X0220097Y0112357D02*
X0155234Y0112357D01*
X0154189Y0113356D02*
X0219099Y0113356D01*
X0219350Y0120831D02*
X0191791Y0148390D01*
X0191791Y0175949D01*
X0183657Y0184083D01*
X0183657Y0201280D01*
X0188501Y0201225D02*
X0188814Y0201225D01*
X0188814Y0202223D02*
X0188501Y0202223D01*
X0188501Y0203222D02*
X0188814Y0203222D01*
X0188814Y0204220D02*
X0188501Y0204220D01*
X0188501Y0205219D02*
X0188814Y0205219D01*
X0188993Y0206217D02*
X0188322Y0206217D01*
X0187909Y0207216D02*
X0189406Y0207216D01*
X0190199Y0208214D02*
X0187116Y0208214D01*
X0192259Y0214205D02*
X0195339Y0214205D01*
X0194464Y0215204D02*
X0193027Y0215204D01*
X0193462Y0216202D02*
X0194051Y0216202D01*
X0193814Y0217201D02*
X0193679Y0217201D01*
X0193701Y0218199D02*
X0193814Y0218199D01*
X0193814Y0219198D02*
X0193701Y0219198D01*
X0193701Y0220196D02*
X0193814Y0220196D01*
X0197116Y0208214D02*
X0200199Y0208214D01*
X0199406Y0207216D02*
X0197909Y0207216D01*
X0198322Y0206217D02*
X0198993Y0206217D01*
X0198814Y0205219D02*
X0198501Y0205219D01*
X0198501Y0204220D02*
X0198814Y0204220D01*
X0198814Y0203222D02*
X0198501Y0203222D01*
X0198501Y0202223D02*
X0198814Y0202223D01*
X0198814Y0201225D02*
X0198501Y0201225D01*
X0198501Y0200226D02*
X0198814Y0200226D01*
X0198814Y0199228D02*
X0198501Y0199228D01*
X0198501Y0198229D02*
X0198814Y0198229D01*
X0198814Y0197231D02*
X0198501Y0197231D01*
X0198277Y0196232D02*
X0199038Y0196232D01*
X0199452Y0195234D02*
X0197863Y0195234D01*
X0197006Y0194235D02*
X0200309Y0194235D01*
X0201865Y0193237D02*
X0195450Y0193237D01*
X0191865Y0193237D02*
X0185457Y0193237D01*
X0187006Y0194235D02*
X0190309Y0194235D01*
X0189452Y0195234D02*
X0187863Y0195234D01*
X0188277Y0196232D02*
X0189038Y0196232D01*
X0188814Y0197231D02*
X0188501Y0197231D01*
X0188501Y0198229D02*
X0188814Y0198229D01*
X0188814Y0199228D02*
X0188501Y0199228D01*
X0188501Y0200226D02*
X0188814Y0200226D01*
X0221650Y0174265D02*
X0221719Y0174265D01*
X0221650Y0173266D02*
X0222717Y0173266D01*
X0223716Y0172268D02*
X0221650Y0172268D01*
X0221650Y0171269D02*
X0224714Y0171269D01*
X0225713Y0170271D02*
X0221650Y0170271D01*
X0221650Y0169272D02*
X0226711Y0169272D01*
X0227710Y0168274D02*
X0221650Y0168274D01*
X0221650Y0167275D02*
X0228624Y0167275D01*
X0229212Y0166277D02*
X0221650Y0166277D01*
X0221650Y0165278D02*
X0273461Y0165278D01*
X0273874Y0164280D02*
X0222461Y0164280D01*
X0223460Y0163281D02*
X0274513Y0163281D01*
X0274129Y0163665D02*
X0276886Y0160908D01*
X0280488Y0159417D01*
X0284386Y0159417D01*
X0287988Y0160908D01*
X0290745Y0163665D01*
X0292237Y0167267D01*
X0292237Y0171166D01*
X0290745Y0174768D01*
X0287988Y0177525D01*
X0284386Y0179017D01*
X0280488Y0179017D01*
X0276886Y0177525D01*
X0274129Y0174768D01*
X0272637Y0171166D01*
X0272637Y0167267D01*
X0274129Y0163665D01*
X0275512Y0162283D02*
X0224458Y0162283D01*
X0225457Y0161284D02*
X0276510Y0161284D01*
X0278389Y0160286D02*
X0226455Y0160286D01*
X0227454Y0159287D02*
X0321000Y0159287D01*
X0321000Y0158289D02*
X0228452Y0158289D01*
X0229451Y0157290D02*
X0321000Y0157290D01*
X0321000Y0156292D02*
X0230449Y0156292D01*
X0231448Y0155293D02*
X0321000Y0155293D01*
X0321000Y0154295D02*
X0232941Y0154295D01*
X0233628Y0153296D02*
X0321000Y0153296D01*
X0321000Y0152298D02*
X0233811Y0152298D01*
X0233604Y0151299D02*
X0321000Y0151299D01*
X0321000Y0150301D02*
X0232883Y0150301D01*
X0233111Y0166277D02*
X0273047Y0166277D01*
X0272637Y0167275D02*
X0233699Y0167275D01*
X0233811Y0168274D02*
X0272637Y0168274D01*
X0272637Y0169272D02*
X0233534Y0169272D01*
X0232713Y0170271D02*
X0272637Y0170271D01*
X0272680Y0171269D02*
X0231220Y0171269D01*
X0230221Y0172268D02*
X0273093Y0172268D01*
X0273507Y0173266D02*
X0229223Y0173266D01*
X0228224Y0174265D02*
X0273921Y0174265D01*
X0274624Y0175263D02*
X0227226Y0175263D01*
X0226227Y0176262D02*
X0275623Y0176262D01*
X0276622Y0177260D02*
X0225587Y0177260D01*
X0225587Y0178259D02*
X0278658Y0178259D01*
X0286216Y0178259D02*
X0291482Y0178259D01*
X0292299Y0177920D02*
X0296197Y0177920D01*
X0299799Y0179412D01*
X0302556Y0182169D01*
X0304048Y0185771D01*
X0304048Y0189670D01*
X0302556Y0193272D01*
X0299799Y0196029D01*
X0296197Y0197520D01*
X0292299Y0197520D01*
X0288697Y0196029D01*
X0285940Y0193272D01*
X0284448Y0189670D01*
X0284448Y0185771D01*
X0285940Y0182169D01*
X0288697Y0179412D01*
X0292299Y0177920D01*
X0290250Y0175263D02*
X0298247Y0175263D01*
X0297751Y0174768D02*
X0296259Y0171166D01*
X0296259Y0167267D01*
X0297751Y0163665D01*
X0300508Y0160908D01*
X0304110Y0159417D01*
X0308008Y0159417D01*
X0311610Y0160908D01*
X0314367Y0163665D01*
X0315859Y0167267D01*
X0315859Y0171166D01*
X0314367Y0174768D01*
X0311610Y0177525D01*
X0308008Y0179017D01*
X0304110Y0179017D01*
X0300508Y0177525D01*
X0297751Y0174768D01*
X0297543Y0174265D02*
X0290953Y0174265D01*
X0291367Y0173266D02*
X0297129Y0173266D01*
X0296715Y0172268D02*
X0291781Y0172268D01*
X0292194Y0171269D02*
X0296302Y0171269D01*
X0296259Y0170271D02*
X0292237Y0170271D01*
X0292237Y0169272D02*
X0296259Y0169272D01*
X0296259Y0168274D02*
X0292237Y0168274D01*
X0292237Y0167275D02*
X0296259Y0167275D01*
X0296669Y0166277D02*
X0291827Y0166277D01*
X0291413Y0165278D02*
X0297083Y0165278D01*
X0297497Y0164280D02*
X0291000Y0164280D01*
X0290361Y0163281D02*
X0298135Y0163281D01*
X0299134Y0162283D02*
X0289362Y0162283D01*
X0288364Y0161284D02*
X0300132Y0161284D01*
X0302012Y0160286D02*
X0286485Y0160286D01*
X0289251Y0176262D02*
X0299245Y0176262D01*
X0300244Y0177260D02*
X0288252Y0177260D01*
X0289071Y0179257D02*
X0225587Y0179257D01*
X0225587Y0180256D02*
X0287853Y0180256D01*
X0286855Y0181254D02*
X0225587Y0181254D01*
X0225587Y0182253D02*
X0285905Y0182253D01*
X0285492Y0183251D02*
X0229986Y0183251D01*
X0228400Y0183251D02*
X0225587Y0183251D01*
X0225587Y0184250D02*
X0226987Y0184250D01*
X0226483Y0185248D02*
X0225587Y0185248D01*
X0230197Y0188244D02*
X0284448Y0188244D01*
X0284448Y0189242D02*
X0229524Y0189242D01*
X0229524Y0190241D02*
X0284685Y0190241D01*
X0285098Y0191239D02*
X0229524Y0191239D01*
X0229524Y0192238D02*
X0285512Y0192238D01*
X0285925Y0193237D02*
X0229524Y0193237D01*
X0229524Y0194235D02*
X0286903Y0194235D01*
X0287902Y0195234D02*
X0229524Y0195234D01*
X0229524Y0196232D02*
X0289188Y0196232D01*
X0291599Y0197231D02*
X0256058Y0197231D01*
X0257096Y0198229D02*
X0321000Y0198229D01*
X0321000Y0197231D02*
X0296897Y0197231D01*
X0299308Y0196232D02*
X0321000Y0196232D01*
X0321000Y0195234D02*
X0300594Y0195234D01*
X0301593Y0194235D02*
X0321000Y0194235D01*
X0321000Y0193237D02*
X0302571Y0193237D01*
X0302984Y0192238D02*
X0321000Y0192238D01*
X0321000Y0191239D02*
X0303398Y0191239D01*
X0303811Y0190241D02*
X0321000Y0190241D01*
X0321000Y0189242D02*
X0304048Y0189242D01*
X0304048Y0188244D02*
X0321000Y0188244D01*
X0321000Y0187245D02*
X0304048Y0187245D01*
X0304048Y0186247D02*
X0321000Y0186247D01*
X0321000Y0185248D02*
X0303831Y0185248D01*
X0303418Y0184250D02*
X0321000Y0184250D01*
X0321000Y0183251D02*
X0303004Y0183251D01*
X0302591Y0182253D02*
X0321000Y0182253D01*
X0321000Y0181254D02*
X0301641Y0181254D01*
X0300643Y0180256D02*
X0321000Y0180256D01*
X0321000Y0179257D02*
X0299425Y0179257D01*
X0297014Y0178259D02*
X0302280Y0178259D01*
X0309838Y0178259D02*
X0321000Y0178259D01*
X0321000Y0177260D02*
X0311875Y0177260D01*
X0312873Y0176262D02*
X0321000Y0176262D01*
X0321000Y0175263D02*
X0313872Y0175263D01*
X0314575Y0174265D02*
X0321000Y0174265D01*
X0321000Y0173266D02*
X0314989Y0173266D01*
X0315403Y0172268D02*
X0321000Y0172268D01*
X0321000Y0171269D02*
X0315816Y0171269D01*
X0315859Y0170271D02*
X0321000Y0170271D01*
X0321000Y0169272D02*
X0315859Y0169272D01*
X0315859Y0168274D02*
X0321000Y0168274D01*
X0321000Y0167275D02*
X0315859Y0167275D01*
X0315449Y0166277D02*
X0321000Y0166277D01*
X0321000Y0165278D02*
X0315035Y0165278D01*
X0314622Y0164280D02*
X0321000Y0164280D01*
X0321000Y0163281D02*
X0313983Y0163281D01*
X0312984Y0162283D02*
X0321000Y0162283D01*
X0321000Y0161284D02*
X0311986Y0161284D01*
X0310107Y0160286D02*
X0321000Y0160286D01*
X0285078Y0184250D02*
X0231399Y0184250D01*
X0231836Y0185248D02*
X0284665Y0185248D01*
X0284448Y0186247D02*
X0231843Y0186247D01*
X0231459Y0187245D02*
X0284448Y0187245D01*
X0300474Y0203809D02*
X0302557Y0201726D01*
X0305279Y0200598D01*
X0308225Y0200598D01*
X0310947Y0201726D01*
X0313030Y0203809D01*
X0314157Y0206531D01*
X0314157Y0209477D01*
X0313030Y0212199D01*
X0310947Y0214282D01*
X0308225Y0215409D01*
X0305279Y0215409D01*
X0302557Y0214282D01*
X0300474Y0212199D01*
X0299346Y0209477D01*
X0299346Y0206531D01*
X0300474Y0203809D01*
X0300304Y0204220D02*
X0282722Y0204220D01*
X0283024Y0205219D02*
X0299890Y0205219D01*
X0299476Y0206217D02*
X0282936Y0206217D01*
X0282674Y0207216D02*
X0299346Y0207216D01*
X0299346Y0208214D02*
X0282674Y0208214D01*
X0282674Y0209213D02*
X0299346Y0209213D01*
X0299651Y0210211D02*
X0282674Y0210211D01*
X0282674Y0211210D02*
X0300064Y0211210D01*
X0300483Y0212208D02*
X0282674Y0212208D01*
X0282674Y0213207D02*
X0301482Y0213207D01*
X0302480Y0214205D02*
X0282674Y0214205D01*
X0282674Y0215204D02*
X0304782Y0215204D01*
X0308722Y0215204D02*
X0321000Y0215204D01*
X0321000Y0216202D02*
X0282674Y0216202D01*
X0282674Y0217201D02*
X0321000Y0217201D01*
X0321000Y0218199D02*
X0282674Y0218199D01*
X0282674Y0219198D02*
X0321000Y0219198D01*
X0321000Y0220196D02*
X0282674Y0220196D01*
X0281688Y0221195D02*
X0321000Y0221195D01*
X0321000Y0222193D02*
X0280689Y0222193D01*
X0279691Y0223192D02*
X0321000Y0223192D01*
X0321000Y0224190D02*
X0302312Y0224190D01*
X0303076Y0224507D02*
X0301302Y0223772D01*
X0299383Y0223772D01*
X0297609Y0224507D01*
X0296252Y0225864D01*
X0295518Y0227637D01*
X0295518Y0236607D01*
X0296252Y0238380D01*
X0297609Y0239737D01*
X0299383Y0240472D01*
X0301302Y0240472D01*
X0303076Y0239737D01*
X0304433Y0238380D01*
X0305168Y0236607D01*
X0305168Y0227637D01*
X0304433Y0225864D01*
X0303076Y0224507D01*
X0303758Y0225189D02*
X0321000Y0225189D01*
X0321000Y0226187D02*
X0304567Y0226187D01*
X0304981Y0227186D02*
X0321000Y0227186D01*
X0321000Y0228184D02*
X0305168Y0228184D01*
X0305168Y0229183D02*
X0321000Y0229183D01*
X0321000Y0230181D02*
X0305168Y0230181D01*
X0305168Y0231180D02*
X0321000Y0231180D01*
X0321000Y0232178D02*
X0305168Y0232178D01*
X0305168Y0233177D02*
X0321000Y0233177D01*
X0321000Y0234175D02*
X0305168Y0234175D01*
X0305168Y0235174D02*
X0321000Y0235174D01*
X0321000Y0236172D02*
X0305168Y0236172D01*
X0304934Y0237171D02*
X0321000Y0237171D01*
X0321000Y0238170D02*
X0304520Y0238170D01*
X0303645Y0239168D02*
X0321000Y0239168D01*
X0321000Y0240167D02*
X0302040Y0240167D01*
X0298645Y0240167D02*
X0282355Y0240167D01*
X0283960Y0239168D02*
X0297040Y0239168D01*
X0296165Y0238170D02*
X0284835Y0238170D01*
X0285249Y0237171D02*
X0295751Y0237171D01*
X0295518Y0236172D02*
X0285482Y0236172D01*
X0285482Y0235174D02*
X0295518Y0235174D01*
X0295518Y0234175D02*
X0285482Y0234175D01*
X0285482Y0233177D02*
X0295518Y0233177D01*
X0295518Y0232178D02*
X0285482Y0232178D01*
X0285482Y0231180D02*
X0295518Y0231180D01*
X0295518Y0230181D02*
X0285482Y0230181D01*
X0285482Y0229183D02*
X0295518Y0229183D01*
X0295518Y0228184D02*
X0285482Y0228184D01*
X0285295Y0227186D02*
X0295704Y0227186D01*
X0296118Y0226187D02*
X0284882Y0226187D01*
X0284073Y0225189D02*
X0296927Y0225189D01*
X0298373Y0224190D02*
X0282627Y0224190D01*
X0276019Y0227186D02*
X0275697Y0227186D01*
X0275832Y0228184D02*
X0274698Y0228184D01*
X0273700Y0229183D02*
X0275832Y0229183D01*
X0275832Y0230181D02*
X0272701Y0230181D01*
X0271703Y0231180D02*
X0275832Y0231180D01*
X0275832Y0232178D02*
X0270704Y0232178D01*
X0269706Y0233177D02*
X0275832Y0233177D01*
X0275832Y0234175D02*
X0268894Y0234175D01*
X0268894Y0235174D02*
X0275832Y0235174D01*
X0275832Y0236172D02*
X0268894Y0236172D01*
X0268894Y0237171D02*
X0276066Y0237171D01*
X0276480Y0238170D02*
X0268650Y0238170D01*
X0267652Y0239168D02*
X0277355Y0239168D01*
X0278960Y0240167D02*
X0266653Y0240167D01*
X0265655Y0241165D02*
X0321000Y0241165D01*
X0321000Y0242164D02*
X0264656Y0242164D01*
X0263658Y0243162D02*
X0320989Y0243162D01*
X0320910Y0244161D02*
X0262659Y0244161D01*
X0261661Y0245159D02*
X0320718Y0245159D01*
X0320393Y0246158D02*
X0041527Y0246158D01*
X0034969Y0246158D02*
X0024233Y0246158D01*
X0024066Y0245159D02*
X0033434Y0245159D01*
X0032436Y0244161D02*
X0024000Y0244161D01*
X0024000Y0243162D02*
X0031749Y0243162D01*
X0031336Y0242164D02*
X0024000Y0242164D01*
X0024000Y0241165D02*
X0030922Y0241165D01*
X0030843Y0240167D02*
X0024000Y0240167D01*
X0024000Y0239168D02*
X0030843Y0239168D01*
X0030843Y0238170D02*
X0024000Y0238170D01*
X0024000Y0237171D02*
X0031197Y0237171D01*
X0031611Y0236172D02*
X0024000Y0236172D01*
X0024000Y0235174D02*
X0032101Y0235174D01*
X0033100Y0234175D02*
X0024000Y0234175D01*
X0024000Y0233177D02*
X0034162Y0233177D01*
X0024558Y0247156D02*
X0320069Y0247156D01*
X0319638Y0248155D02*
X0024882Y0248155D01*
X0025428Y0249153D02*
X0318912Y0249153D01*
X0318187Y0250152D02*
X0026154Y0250152D01*
X0026985Y0251150D02*
X0317107Y0251150D01*
X0315733Y0252149D02*
X0028359Y0252149D01*
X0030459Y0253147D02*
X0313391Y0253147D01*
X0277179Y0219198D02*
X0240261Y0219198D01*
X0239263Y0218199D02*
X0278074Y0218199D01*
X0278074Y0217201D02*
X0238264Y0217201D01*
X0237266Y0216202D02*
X0278074Y0216202D01*
X0278074Y0215204D02*
X0236267Y0215204D01*
X0235269Y0214205D02*
X0278074Y0214205D01*
X0278074Y0213207D02*
X0234270Y0213207D01*
X0233272Y0212208D02*
X0278074Y0212208D01*
X0278074Y0211210D02*
X0232273Y0211210D01*
X0231275Y0210211D02*
X0278074Y0210211D01*
X0278074Y0209213D02*
X0272511Y0209213D01*
X0273081Y0208214D02*
X0278074Y0208214D01*
X0278074Y0207216D02*
X0273181Y0207216D01*
X0272891Y0206217D02*
X0277813Y0206217D01*
X0277724Y0205219D02*
X0272053Y0205219D01*
X0278026Y0204220D02*
X0263262Y0204220D01*
X0263339Y0203222D02*
X0278893Y0203222D01*
X0281855Y0203222D02*
X0301061Y0203222D01*
X0302060Y0202223D02*
X0263025Y0202223D01*
X0262101Y0201225D02*
X0303767Y0201225D01*
X0309737Y0201225D02*
X0321000Y0201225D01*
X0321000Y0202223D02*
X0311444Y0202223D01*
X0312443Y0203222D02*
X0321000Y0203222D01*
X0321000Y0204220D02*
X0313200Y0204220D01*
X0313614Y0205219D02*
X0321000Y0205219D01*
X0321000Y0206217D02*
X0314028Y0206217D01*
X0314157Y0207216D02*
X0321000Y0207216D01*
X0321000Y0208214D02*
X0314157Y0208214D01*
X0314157Y0209213D02*
X0321000Y0209213D01*
X0321000Y0210211D02*
X0313853Y0210211D01*
X0313440Y0211210D02*
X0321000Y0211210D01*
X0321000Y0212208D02*
X0313021Y0212208D01*
X0312022Y0213207D02*
X0321000Y0213207D01*
X0321000Y0214205D02*
X0311024Y0214205D01*
X0321000Y0200226D02*
X0257380Y0200226D01*
X0257433Y0199228D02*
X0321000Y0199228D01*
X0276181Y0220196D02*
X0241260Y0220196D01*
X0242259Y0221195D02*
X0275182Y0221195D01*
X0274184Y0222193D02*
X0243257Y0222193D01*
X0244256Y0223192D02*
X0273185Y0223192D01*
X0272187Y0224190D02*
X0258375Y0224190D01*
X0259821Y0225189D02*
X0271188Y0225189D01*
X0270190Y0226187D02*
X0260630Y0226187D01*
X0261044Y0227186D02*
X0269191Y0227186D01*
X0268193Y0228184D02*
X0261230Y0228184D01*
X0261230Y0229183D02*
X0267194Y0229183D01*
X0266196Y0230181D02*
X0261230Y0230181D01*
X0261230Y0231180D02*
X0265197Y0231180D01*
X0264294Y0232178D02*
X0261230Y0232178D01*
X0261230Y0233177D02*
X0264294Y0233177D01*
X0264294Y0234175D02*
X0261230Y0234175D01*
X0261230Y0235174D02*
X0264294Y0235174D01*
X0264142Y0236172D02*
X0261230Y0236172D01*
X0260997Y0237171D02*
X0263143Y0237171D01*
X0262145Y0238170D02*
X0260583Y0238170D01*
X0261146Y0239168D02*
X0259708Y0239168D01*
X0260148Y0240167D02*
X0258103Y0240167D01*
X0254708Y0240167D02*
X0238418Y0240167D01*
X0240023Y0239168D02*
X0253103Y0239168D01*
X0252228Y0238170D02*
X0240898Y0238170D01*
X0241312Y0237171D02*
X0251814Y0237171D01*
X0251581Y0236172D02*
X0241545Y0236172D01*
X0241545Y0235174D02*
X0251581Y0235174D01*
X0251581Y0234175D02*
X0241545Y0234175D01*
X0241545Y0233177D02*
X0247735Y0233177D01*
X0246737Y0232178D02*
X0241545Y0232178D01*
X0241545Y0231180D02*
X0245738Y0231180D01*
X0244740Y0230181D02*
X0241545Y0230181D01*
X0241545Y0229183D02*
X0243741Y0229183D01*
X0242743Y0228184D02*
X0241545Y0228184D01*
X0241358Y0227186D02*
X0241744Y0227186D01*
X0246253Y0225189D02*
X0252990Y0225189D01*
X0252181Y0226187D02*
X0247251Y0226187D01*
X0248250Y0227186D02*
X0251767Y0227186D01*
X0251581Y0228184D02*
X0249248Y0228184D01*
X0245254Y0224190D02*
X0254436Y0224190D01*
X0235023Y0240167D02*
X0231220Y0240167D01*
X0232219Y0239168D02*
X0233418Y0239168D01*
X0230105Y0197231D02*
X0253509Y0197231D01*
X0229193Y0120831D02*
X0219350Y0120831D01*
X0229193Y0120831D02*
X0231161Y0118862D01*
X0231161Y0103520D01*
X0224850Y0097209D01*
X0225256Y0097209D01*
X0223270Y0099376D02*
X0156000Y0099376D01*
X0156000Y0100375D02*
X0225471Y0100375D01*
X0226469Y0101373D02*
X0164121Y0101373D01*
X0164901Y0102372D02*
X0227468Y0102372D01*
X0229115Y0105368D02*
X0229361Y0105368D01*
X0171882Y0103370D02*
X0165150Y0103370D01*
X0160879Y0101373D02*
X0155595Y0101373D01*
X0154992Y0102372D02*
X0160099Y0102372D01*
X0159850Y0103370D02*
X0153915Y0103370D01*
X0151886Y0105368D02*
X0151114Y0105368D01*
X0151114Y0106366D02*
X0151886Y0106366D01*
X0151886Y0107365D02*
X0151114Y0107365D01*
X0151114Y0108363D02*
X0151886Y0108363D01*
X0151886Y0110360D02*
X0151114Y0110360D01*
X0151114Y0111359D02*
X0151886Y0111359D01*
X0151886Y0112357D02*
X0151114Y0112357D01*
X0151114Y0113356D02*
X0151886Y0113356D01*
X0148811Y0113356D02*
X0143951Y0113356D01*
X0145007Y0112357D02*
X0147766Y0112357D01*
X0147172Y0111359D02*
X0145601Y0111359D01*
X0146000Y0110360D02*
X0146878Y0110360D01*
X0143906Y0119347D02*
X0126199Y0119347D01*
X0125200Y0120345D02*
X0143110Y0120345D01*
X0142850Y0121344D02*
X0124202Y0121344D01*
X0123203Y0122342D02*
X0142981Y0122342D01*
X0143593Y0123341D02*
X0122300Y0123341D01*
X0122300Y0124339D02*
X0144700Y0124339D01*
X0144700Y0125338D02*
X0122300Y0125338D01*
X0122300Y0126336D02*
X0144700Y0126336D01*
X0144700Y0127335D02*
X0122300Y0127335D01*
X0122300Y0128333D02*
X0144700Y0128333D01*
X0144700Y0129332D02*
X0122300Y0129332D01*
X0122300Y0130330D02*
X0144700Y0130330D01*
X0144700Y0131329D02*
X0122300Y0131329D01*
X0122300Y0132327D02*
X0144700Y0132327D01*
X0144700Y0133326D02*
X0122300Y0133326D01*
X0122300Y0134324D02*
X0144700Y0134324D01*
X0144700Y0135323D02*
X0122300Y0135323D01*
X0122300Y0136321D02*
X0144700Y0136321D01*
X0144700Y0137320D02*
X0122880Y0137320D01*
X0123150Y0138318D02*
X0144700Y0138318D01*
X0144700Y0139317D02*
X0123030Y0139317D01*
X0122432Y0140315D02*
X0144700Y0140315D01*
X0144700Y0141314D02*
X0102031Y0141314D01*
X0102150Y0140315D02*
X0118568Y0140315D01*
X0117970Y0139317D02*
X0101878Y0139317D01*
X0101066Y0138318D02*
X0117850Y0138318D01*
X0118120Y0137320D02*
X0098865Y0137320D01*
X0100426Y0136321D02*
X0118700Y0136321D01*
X0118700Y0135323D02*
X0101027Y0135323D01*
X0101150Y0134324D02*
X0118700Y0134324D01*
X0118700Y0133326D02*
X0100882Y0133326D01*
X0100300Y0132327D02*
X0118700Y0132327D01*
X0118700Y0131329D02*
X0100300Y0131329D01*
X0100300Y0130330D02*
X0118700Y0130330D01*
X0118700Y0129332D02*
X0100300Y0129332D01*
X0100300Y0128333D02*
X0118700Y0128333D01*
X0118700Y0127335D02*
X0100300Y0127335D01*
X0100300Y0126336D02*
X0118700Y0126336D01*
X0118700Y0125338D02*
X0100300Y0125338D01*
X0100300Y0124339D02*
X0118700Y0124339D01*
X0118700Y0123341D02*
X0100300Y0123341D01*
X0100300Y0122342D02*
X0118700Y0122342D01*
X0119111Y0121344D02*
X0100300Y0121344D01*
X0100300Y0120345D02*
X0120109Y0120345D01*
X0121108Y0119347D02*
X0100300Y0119347D01*
X0100300Y0118348D02*
X0122106Y0118348D01*
X0123105Y0117350D02*
X0100300Y0117350D01*
X0100300Y0116351D02*
X0124103Y0116351D01*
X0124700Y0115353D02*
X0100300Y0115353D01*
X0100300Y0114354D02*
X0124700Y0114354D01*
X0124700Y0113356D02*
X0100300Y0113356D01*
X0100300Y0112357D02*
X0124700Y0112357D01*
X0124700Y0111359D02*
X0100300Y0111359D01*
X0100300Y0110360D02*
X0124700Y0110360D01*
X0124700Y0109362D02*
X0100300Y0109362D01*
X0100300Y0108363D02*
X0124700Y0108363D01*
X0124700Y0107365D02*
X0100300Y0107365D01*
X0100300Y0106366D02*
X0124700Y0106366D01*
X0124700Y0105368D02*
X0100300Y0105368D01*
X0096700Y0105368D02*
X0024000Y0105368D01*
X0024000Y0106366D02*
X0096700Y0106366D01*
X0096700Y0107365D02*
X0024000Y0107365D01*
X0024000Y0108363D02*
X0096700Y0108363D01*
X0096700Y0109362D02*
X0024000Y0109362D01*
X0024000Y0110360D02*
X0096700Y0110360D01*
X0096700Y0111359D02*
X0024000Y0111359D01*
X0024000Y0112357D02*
X0039973Y0112357D01*
X0038110Y0113356D02*
X0024000Y0113356D01*
X0024000Y0114354D02*
X0037112Y0114354D01*
X0036637Y0115353D02*
X0024000Y0115353D01*
X0024000Y0116351D02*
X0036223Y0116351D01*
X0036200Y0117350D02*
X0024000Y0117350D01*
X0024000Y0118348D02*
X0036200Y0118348D01*
X0036544Y0119347D02*
X0024000Y0119347D01*
X0024000Y0120345D02*
X0036958Y0120345D01*
X0037887Y0121344D02*
X0024000Y0121344D01*
X0024000Y0122342D02*
X0039434Y0122342D01*
X0043566Y0122342D02*
X0078797Y0122342D01*
X0079795Y0123341D02*
X0024000Y0123341D01*
X0024000Y0124339D02*
X0080794Y0124339D01*
X0081792Y0125338D02*
X0024000Y0125338D01*
X0024000Y0126336D02*
X0082791Y0126336D01*
X0083789Y0127335D02*
X0024000Y0127335D01*
X0024000Y0128333D02*
X0038312Y0128333D01*
X0038498Y0128148D02*
X0040446Y0127341D01*
X0042554Y0127341D01*
X0044502Y0128148D01*
X0045993Y0129639D01*
X0046491Y0130841D01*
X0084387Y0130841D01*
X0085441Y0131895D01*
X0097396Y0143850D01*
X0098027Y0143850D01*
X0099001Y0144253D01*
X0099747Y0144999D01*
X0100150Y0145973D01*
X0100150Y0147027D01*
X0099747Y0148001D01*
X0099001Y0148747D01*
X0098027Y0149150D01*
X0096973Y0149150D01*
X0095999Y0148747D01*
X0095253Y0148001D01*
X0094850Y0147027D01*
X0094850Y0146396D01*
X0082895Y0134441D01*
X0046491Y0134441D01*
X0045993Y0135643D01*
X0044502Y0137134D01*
X0042554Y0137941D01*
X0040446Y0137941D01*
X0038498Y0137134D01*
X0037007Y0135643D01*
X0036200Y0133695D01*
X0036200Y0131587D01*
X0037007Y0129639D01*
X0038498Y0128148D01*
X0037314Y0129332D02*
X0024000Y0129332D01*
X0024000Y0130330D02*
X0036720Y0130330D01*
X0036307Y0131329D02*
X0024000Y0131329D01*
X0024000Y0132327D02*
X0036200Y0132327D01*
X0036200Y0133326D02*
X0024000Y0133326D01*
X0024000Y0134324D02*
X0036461Y0134324D01*
X0036874Y0135323D02*
X0024000Y0135323D01*
X0024000Y0136321D02*
X0037685Y0136321D01*
X0038946Y0137320D02*
X0024000Y0137320D01*
X0024000Y0138318D02*
X0086773Y0138318D01*
X0085774Y0137320D02*
X0044054Y0137320D01*
X0045315Y0136321D02*
X0084776Y0136321D01*
X0083777Y0135323D02*
X0046126Y0135323D01*
X0046280Y0130330D02*
X0086785Y0130330D01*
X0087783Y0131329D02*
X0084874Y0131329D01*
X0085873Y0132327D02*
X0088782Y0132327D01*
X0089780Y0133326D02*
X0086871Y0133326D01*
X0087870Y0134324D02*
X0090779Y0134324D01*
X0091777Y0135323D02*
X0088868Y0135323D01*
X0089867Y0136321D02*
X0092776Y0136321D01*
X0093774Y0137320D02*
X0090865Y0137320D01*
X0091864Y0138318D02*
X0094773Y0138318D01*
X0095771Y0139317D02*
X0092862Y0139317D01*
X0093861Y0140315D02*
X0096770Y0140315D01*
X0096969Y0141314D02*
X0094859Y0141314D01*
X0095858Y0142312D02*
X0097565Y0142312D01*
X0096857Y0143311D02*
X0144700Y0143311D01*
X0144700Y0144309D02*
X0099057Y0144309D01*
X0099875Y0145308D02*
X0144700Y0145308D01*
X0144700Y0146306D02*
X0100150Y0146306D01*
X0100035Y0147305D02*
X0144700Y0147305D01*
X0144700Y0148303D02*
X0099444Y0148303D01*
X0097500Y0146500D02*
X0083641Y0132641D01*
X0041500Y0132641D01*
X0045686Y0129332D02*
X0085786Y0129332D01*
X0084788Y0128333D02*
X0044688Y0128333D01*
X0045113Y0121344D02*
X0077798Y0121344D01*
X0076800Y0120345D02*
X0046042Y0120345D01*
X0046456Y0119347D02*
X0075801Y0119347D01*
X0076461Y0117461D02*
X0041500Y0117461D01*
X0046363Y0115353D02*
X0096700Y0115353D01*
X0096700Y0116351D02*
X0077897Y0116351D01*
X0078895Y0117350D02*
X0096700Y0117350D01*
X0096700Y0118348D02*
X0079894Y0118348D01*
X0080892Y0119347D02*
X0096700Y0119347D01*
X0096700Y0120345D02*
X0081891Y0120345D01*
X0082889Y0121344D02*
X0096700Y0121344D01*
X0096700Y0122342D02*
X0083888Y0122342D01*
X0084886Y0123341D02*
X0096700Y0123341D01*
X0096700Y0124339D02*
X0085885Y0124339D01*
X0086883Y0125338D02*
X0096700Y0125338D01*
X0096700Y0126336D02*
X0087882Y0126336D01*
X0088880Y0127335D02*
X0096700Y0127335D01*
X0096700Y0128333D02*
X0089879Y0128333D01*
X0090877Y0129332D02*
X0096700Y0129332D01*
X0096700Y0130330D02*
X0091876Y0130330D01*
X0092874Y0131329D02*
X0096700Y0131329D01*
X0096700Y0132327D02*
X0093873Y0132327D01*
X0094871Y0133326D02*
X0096118Y0133326D01*
X0098500Y0134500D02*
X0098500Y0101500D01*
X0085500Y0088500D01*
X0067500Y0088500D01*
X0050641Y0071641D01*
X0041500Y0071641D01*
X0046317Y0069421D02*
X0301956Y0069421D01*
X0300957Y0068423D02*
X0045777Y0068423D01*
X0044778Y0067424D02*
X0300261Y0067424D01*
X0303517Y0070420D02*
X0051965Y0070420D01*
X0052964Y0071418D02*
X0321000Y0071418D01*
X0321000Y0070420D02*
X0309987Y0070420D01*
X0311548Y0069421D02*
X0321000Y0069421D01*
X0321000Y0068423D02*
X0312546Y0068423D01*
X0313243Y0067424D02*
X0321000Y0067424D01*
X0321000Y0066426D02*
X0313657Y0066426D01*
X0314071Y0065427D02*
X0321000Y0065427D01*
X0321000Y0064429D02*
X0314157Y0064429D01*
X0314157Y0063430D02*
X0321000Y0063430D01*
X0321000Y0062432D02*
X0314157Y0062432D01*
X0313810Y0061433D02*
X0321000Y0061433D01*
X0321000Y0060434D02*
X0313397Y0060434D01*
X0312917Y0059436D02*
X0321000Y0059436D01*
X0321000Y0058437D02*
X0311918Y0058437D01*
X0310882Y0057439D02*
X0321000Y0057439D01*
X0321000Y0056440D02*
X0308471Y0056440D01*
X0305033Y0056440D02*
X0046800Y0056440D01*
X0046800Y0055442D02*
X0321000Y0055442D01*
X0321000Y0054443D02*
X0046401Y0054443D01*
X0045979Y0053445D02*
X0321000Y0053445D01*
X0321000Y0052446D02*
X0044980Y0052446D01*
X0043246Y0051448D02*
X0321000Y0051448D01*
X0321000Y0040464D02*
X0300038Y0040464D01*
X0301037Y0039466D02*
X0321000Y0039466D01*
X0321000Y0038467D02*
X0301613Y0038467D01*
X0302027Y0037469D02*
X0321000Y0037469D01*
X0321000Y0036470D02*
X0302122Y0036470D01*
X0302122Y0035472D02*
X0321000Y0035472D01*
X0321000Y0034473D02*
X0301850Y0034473D01*
X0301436Y0033475D02*
X0321000Y0033475D01*
X0321000Y0032476D02*
X0300609Y0032476D01*
X0299307Y0031478D02*
X0321000Y0031478D01*
X0321000Y0030479D02*
X0045531Y0030479D01*
X0045117Y0029481D02*
X0321000Y0029481D01*
X0321000Y0028482D02*
X0044704Y0028482D01*
X0043957Y0027484D02*
X0320998Y0027484D01*
X0320920Y0026485D02*
X0042958Y0026485D01*
X0041276Y0025487D02*
X0320710Y0025487D01*
X0320386Y0024488D02*
X0025419Y0024488D01*
X0025996Y0023490D02*
X0320061Y0023490D01*
X0319456Y0022491D02*
X0026649Y0022491D01*
X0027647Y0021493D02*
X0318731Y0021493D01*
X0317817Y0020494D02*
X0028646Y0020494D01*
X0030356Y0019496D02*
X0316442Y0019496D01*
X0314151Y0018497D02*
X0032909Y0018497D01*
X0046800Y0057439D02*
X0302622Y0057439D01*
X0301586Y0058437D02*
X0046418Y0058437D01*
X0046005Y0059436D02*
X0300587Y0059436D01*
X0300107Y0060434D02*
X0045022Y0060434D01*
X0046088Y0074414D02*
X0050868Y0074414D01*
X0051867Y0075412D02*
X0045224Y0075412D01*
X0043834Y0076411D02*
X0052865Y0076411D01*
X0054961Y0073415D02*
X0321000Y0073415D01*
X0321000Y0072417D02*
X0053962Y0072417D01*
X0055959Y0074414D02*
X0321000Y0074414D01*
X0321000Y0075412D02*
X0056958Y0075412D01*
X0057956Y0076411D02*
X0321000Y0076411D01*
X0321000Y0077409D02*
X0058955Y0077409D01*
X0059953Y0078408D02*
X0321000Y0078408D01*
X0321000Y0079406D02*
X0060952Y0079406D01*
X0046038Y0093900D02*
X0046800Y0094662D01*
X0046800Y0103738D01*
X0046038Y0104500D01*
X0036962Y0104500D01*
X0036200Y0103738D01*
X0036200Y0094662D01*
X0036962Y0093900D01*
X0046038Y0093900D01*
X0046522Y0094384D02*
X0088838Y0094384D01*
X0087840Y0093385D02*
X0024000Y0093385D01*
X0024000Y0092387D02*
X0086841Y0092387D01*
X0085843Y0091388D02*
X0024000Y0091388D01*
X0024000Y0090390D02*
X0084844Y0090390D01*
X0089837Y0095382D02*
X0046800Y0095382D01*
X0046800Y0096381D02*
X0090835Y0096381D01*
X0091834Y0097379D02*
X0046800Y0097379D01*
X0046800Y0098378D02*
X0092832Y0098378D01*
X0093831Y0099376D02*
X0046800Y0099376D01*
X0046800Y0100375D02*
X0094829Y0100375D01*
X0095828Y0101373D02*
X0046800Y0101373D01*
X0046800Y0102372D02*
X0096700Y0102372D01*
X0096700Y0103370D02*
X0046800Y0103370D01*
X0046169Y0104369D02*
X0096700Y0104369D01*
X0096700Y0112357D02*
X0043027Y0112357D01*
X0044890Y0113356D02*
X0096700Y0113356D01*
X0096700Y0114354D02*
X0045888Y0114354D01*
X0036831Y0104369D02*
X0024000Y0104369D01*
X0024000Y0103370D02*
X0036200Y0103370D01*
X0036200Y0102372D02*
X0024000Y0102372D01*
X0024000Y0101373D02*
X0036200Y0101373D01*
X0036200Y0100375D02*
X0024000Y0100375D01*
X0024000Y0099376D02*
X0036200Y0099376D01*
X0036200Y0098378D02*
X0024000Y0098378D01*
X0024000Y0097379D02*
X0036200Y0097379D01*
X0036200Y0096381D02*
X0024000Y0096381D01*
X0024000Y0095382D02*
X0036200Y0095382D01*
X0036478Y0094384D02*
X0024000Y0094384D01*
X0024000Y0139317D02*
X0087771Y0139317D01*
X0088770Y0140315D02*
X0044381Y0140315D01*
X0044383Y0140316D02*
X0045083Y0140825D01*
X0045695Y0141437D01*
X0046204Y0142138D01*
X0046597Y0142909D01*
X0046865Y0143733D01*
X0046989Y0144520D01*
X0042000Y0144520D01*
X0042000Y0139531D01*
X0042788Y0139656D01*
X0043611Y0139923D01*
X0044383Y0140316D01*
X0045572Y0141314D02*
X0089768Y0141314D01*
X0090767Y0142312D02*
X0046293Y0142312D01*
X0046728Y0143311D02*
X0091765Y0143311D01*
X0092764Y0144309D02*
X0046956Y0144309D01*
X0046989Y0145520D02*
X0046865Y0146308D01*
X0046597Y0147132D01*
X0046204Y0147903D01*
X0045695Y0148603D01*
X0045083Y0149216D01*
X0044383Y0149724D01*
X0043611Y0150118D01*
X0042788Y0150385D01*
X0042000Y0150510D01*
X0042000Y0145521D01*
X0041000Y0145521D01*
X0041000Y0150510D01*
X0040212Y0150385D01*
X0039389Y0150118D01*
X0038617Y0149724D01*
X0037917Y0149216D01*
X0037305Y0148603D01*
X0036796Y0147903D01*
X0036403Y0147132D01*
X0036135Y0146308D01*
X0036011Y0145520D01*
X0041000Y0145520D01*
X0041000Y0144520D01*
X0042000Y0144520D01*
X0042000Y0145520D01*
X0046989Y0145520D01*
X0046865Y0146306D02*
X0094761Y0146306D01*
X0094965Y0147305D02*
X0046509Y0147305D01*
X0045913Y0148303D02*
X0095556Y0148303D01*
X0093762Y0145308D02*
X0042000Y0145308D01*
X0042000Y0146306D02*
X0041000Y0146306D01*
X0041000Y0145308D02*
X0024000Y0145308D01*
X0024000Y0146306D02*
X0036135Y0146306D01*
X0036491Y0147305D02*
X0024000Y0147305D01*
X0024000Y0148303D02*
X0037087Y0148303D01*
X0038036Y0149302D02*
X0024000Y0149302D01*
X0024000Y0150301D02*
X0039952Y0150301D01*
X0041000Y0150301D02*
X0042000Y0150301D01*
X0042000Y0149302D02*
X0041000Y0149302D01*
X0041000Y0148303D02*
X0042000Y0148303D01*
X0042000Y0147305D02*
X0041000Y0147305D01*
X0041000Y0144520D02*
X0036011Y0144520D01*
X0036135Y0143733D01*
X0036403Y0142909D01*
X0036796Y0142138D01*
X0037305Y0141437D01*
X0037917Y0140825D01*
X0038617Y0140316D01*
X0039389Y0139923D01*
X0040212Y0139656D01*
X0041000Y0139531D01*
X0041000Y0144520D01*
X0041000Y0144309D02*
X0042000Y0144309D01*
X0042000Y0143311D02*
X0041000Y0143311D01*
X0041000Y0142312D02*
X0042000Y0142312D01*
X0042000Y0141314D02*
X0041000Y0141314D01*
X0041000Y0140315D02*
X0042000Y0140315D01*
X0038619Y0140315D02*
X0024000Y0140315D01*
X0024000Y0141314D02*
X0037428Y0141314D01*
X0036707Y0142312D02*
X0024000Y0142312D01*
X0024000Y0143311D02*
X0036272Y0143311D01*
X0036044Y0144309D02*
X0024000Y0144309D01*
X0024000Y0151299D02*
X0144700Y0151299D01*
X0144700Y0150301D02*
X0043048Y0150301D01*
X0044964Y0149302D02*
X0144700Y0149302D01*
X0144700Y0152298D02*
X0024000Y0152298D01*
X0024000Y0153296D02*
X0144700Y0153296D01*
X0144700Y0154295D02*
X0024000Y0154295D01*
X0024000Y0155293D02*
X0036568Y0155293D01*
X0036200Y0155662D02*
X0036962Y0154900D01*
X0046038Y0154900D01*
X0046800Y0155662D01*
X0046800Y0164738D01*
X0046038Y0165500D01*
X0036962Y0165500D01*
X0036200Y0164738D01*
X0036200Y0155662D01*
X0036200Y0156292D02*
X0024000Y0156292D01*
X0024000Y0157290D02*
X0036200Y0157290D01*
X0036200Y0158289D02*
X0024000Y0158289D01*
X0024000Y0159287D02*
X0036200Y0159287D01*
X0036200Y0160286D02*
X0024000Y0160286D01*
X0024000Y0161284D02*
X0036200Y0161284D01*
X0036200Y0162283D02*
X0024000Y0162283D01*
X0024000Y0163281D02*
X0036200Y0163281D01*
X0036200Y0164280D02*
X0024000Y0164280D01*
X0024000Y0165278D02*
X0036740Y0165278D01*
X0040193Y0173266D02*
X0024000Y0173266D01*
X0024000Y0172268D02*
X0144061Y0172268D01*
X0144700Y0171269D02*
X0024000Y0171269D01*
X0024000Y0170271D02*
X0144700Y0170271D01*
X0144700Y0169272D02*
X0024000Y0169272D01*
X0024000Y0168274D02*
X0144700Y0168274D01*
X0144700Y0167275D02*
X0024000Y0167275D01*
X0024000Y0166277D02*
X0144700Y0166277D01*
X0144700Y0165278D02*
X0046260Y0165278D01*
X0046800Y0164280D02*
X0144700Y0164280D01*
X0144700Y0163281D02*
X0046800Y0163281D01*
X0046800Y0162283D02*
X0144700Y0162283D01*
X0144700Y0161284D02*
X0046800Y0161284D01*
X0046800Y0160286D02*
X0144700Y0160286D01*
X0144700Y0159287D02*
X0046800Y0159287D01*
X0046800Y0158289D02*
X0144700Y0158289D01*
X0144700Y0157290D02*
X0046800Y0157290D01*
X0046800Y0156292D02*
X0144700Y0156292D01*
X0144700Y0155293D02*
X0046432Y0155293D01*
X0042554Y0173161D02*
X0040446Y0173161D01*
X0038498Y0173968D01*
X0037007Y0175459D01*
X0036200Y0177407D01*
X0036200Y0179516D01*
X0037007Y0181464D01*
X0038498Y0182955D01*
X0040446Y0183761D01*
X0042554Y0183761D01*
X0044502Y0182955D01*
X0045993Y0181464D01*
X0046800Y0179516D01*
X0046800Y0177407D01*
X0045993Y0175459D01*
X0044502Y0173968D01*
X0042554Y0173161D01*
X0042807Y0173266D02*
X0143062Y0173266D01*
X0142064Y0174265D02*
X0044799Y0174265D01*
X0045797Y0175263D02*
X0141065Y0175263D01*
X0140067Y0176262D02*
X0046326Y0176262D01*
X0046739Y0177260D02*
X0139068Y0177260D01*
X0138070Y0178259D02*
X0046800Y0178259D01*
X0046800Y0179257D02*
X0137071Y0179257D01*
X0136073Y0180256D02*
X0046493Y0180256D01*
X0046080Y0181254D02*
X0079259Y0181254D01*
X0078986Y0181368D02*
X0080750Y0180637D01*
X0082659Y0180637D01*
X0084424Y0181368D01*
X0085774Y0182718D01*
X0086505Y0184482D01*
X0086505Y0186392D01*
X0085774Y0188156D01*
X0084424Y0189506D01*
X0082659Y0190237D01*
X0080750Y0190237D01*
X0078986Y0189506D01*
X0077635Y0188156D01*
X0076905Y0186392D01*
X0076905Y0184482D01*
X0077635Y0182718D01*
X0078986Y0181368D01*
X0078101Y0182253D02*
X0045204Y0182253D01*
X0043786Y0183251D02*
X0077415Y0183251D01*
X0077001Y0184250D02*
X0024000Y0184250D01*
X0024000Y0185248D02*
X0076905Y0185248D01*
X0076905Y0186247D02*
X0024000Y0186247D01*
X0024000Y0187245D02*
X0077258Y0187245D01*
X0077723Y0188244D02*
X0024000Y0188244D01*
X0024000Y0189242D02*
X0038403Y0189242D01*
X0038498Y0189148D02*
X0040446Y0188341D01*
X0042554Y0188341D01*
X0044502Y0189148D01*
X0045993Y0190639D01*
X0046800Y0192587D01*
X0046800Y0194695D01*
X0045993Y0196643D01*
X0044502Y0198134D01*
X0042554Y0198941D01*
X0040446Y0198941D01*
X0038498Y0198134D01*
X0037007Y0196643D01*
X0036200Y0194695D01*
X0036200Y0192587D01*
X0037007Y0190639D01*
X0038498Y0189148D01*
X0037405Y0190241D02*
X0024000Y0190241D01*
X0024000Y0191239D02*
X0036758Y0191239D01*
X0036344Y0192238D02*
X0024000Y0192238D01*
X0024000Y0193237D02*
X0036200Y0193237D01*
X0036200Y0194235D02*
X0024000Y0194235D01*
X0024000Y0195234D02*
X0036423Y0195234D01*
X0036837Y0196232D02*
X0024000Y0196232D01*
X0024000Y0197231D02*
X0037594Y0197231D01*
X0038727Y0198229D02*
X0024000Y0198229D01*
X0024000Y0199228D02*
X0117101Y0199228D01*
X0116102Y0200226D02*
X0024000Y0200226D01*
X0024000Y0201225D02*
X0038798Y0201225D01*
X0038617Y0201316D02*
X0039389Y0200923D01*
X0040212Y0200656D01*
X0041000Y0200531D01*
X0041000Y0205520D01*
X0036011Y0205520D01*
X0036135Y0204733D01*
X0036403Y0203909D01*
X0036796Y0203138D01*
X0037305Y0202437D01*
X0037917Y0201825D01*
X0038617Y0201316D01*
X0037519Y0202223D02*
X0024000Y0202223D01*
X0024000Y0203222D02*
X0036753Y0203222D01*
X0036302Y0204220D02*
X0024000Y0204220D01*
X0024000Y0205219D02*
X0036058Y0205219D01*
X0036121Y0207216D02*
X0024000Y0207216D01*
X0024000Y0208214D02*
X0036445Y0208214D01*
X0037021Y0209213D02*
X0024000Y0209213D01*
X0024000Y0210211D02*
X0037913Y0210211D01*
X0041000Y0206217D02*
X0024000Y0206217D01*
X0041000Y0205219D02*
X0042000Y0205219D01*
X0042000Y0204220D02*
X0041000Y0204220D01*
X0041000Y0203222D02*
X0042000Y0203222D01*
X0042000Y0202223D02*
X0041000Y0202223D01*
X0041000Y0201225D02*
X0042000Y0201225D01*
X0044202Y0201225D02*
X0115104Y0201225D01*
X0114105Y0202223D02*
X0045481Y0202223D01*
X0046247Y0203222D02*
X0113107Y0203222D01*
X0112108Y0204220D02*
X0046698Y0204220D01*
X0046942Y0205219D02*
X0111110Y0205219D01*
X0113205Y0208214D02*
X0130199Y0208214D01*
X0129406Y0207216D02*
X0114204Y0207216D01*
X0115202Y0206217D02*
X0128993Y0206217D01*
X0128814Y0205219D02*
X0116201Y0205219D01*
X0117199Y0204220D02*
X0128814Y0204220D01*
X0128814Y0203222D02*
X0118198Y0203222D01*
X0119196Y0202223D02*
X0128814Y0202223D01*
X0128814Y0201225D02*
X0120195Y0201225D01*
X0121194Y0200226D02*
X0128814Y0200226D01*
X0128814Y0199228D02*
X0122192Y0199228D01*
X0123191Y0198229D02*
X0128814Y0198229D01*
X0128814Y0197231D02*
X0124189Y0197231D01*
X0125188Y0196232D02*
X0129038Y0196232D01*
X0129452Y0195234D02*
X0126186Y0195234D01*
X0127185Y0194235D02*
X0130309Y0194235D01*
X0131865Y0193237D02*
X0128183Y0193237D01*
X0126087Y0190241D02*
X0045595Y0190241D01*
X0046242Y0191239D02*
X0125089Y0191239D01*
X0124090Y0192238D02*
X0046656Y0192238D01*
X0046800Y0193237D02*
X0123092Y0193237D01*
X0122093Y0194235D02*
X0046800Y0194235D01*
X0046577Y0195234D02*
X0121095Y0195234D01*
X0120096Y0196232D02*
X0046163Y0196232D01*
X0045406Y0197231D02*
X0119098Y0197231D01*
X0118099Y0198229D02*
X0044273Y0198229D01*
X0044597Y0189242D02*
X0078722Y0189242D01*
X0084687Y0189242D02*
X0104313Y0189242D01*
X0104576Y0189506D02*
X0103226Y0188156D01*
X0102495Y0186392D01*
X0102495Y0184482D01*
X0103226Y0182718D01*
X0104576Y0181368D01*
X0106340Y0180637D01*
X0108250Y0180637D01*
X0110014Y0181368D01*
X0111365Y0182718D01*
X0112095Y0184482D01*
X0112095Y0186392D01*
X0111365Y0188156D01*
X0110014Y0189506D01*
X0108250Y0190237D01*
X0106340Y0190237D01*
X0104576Y0189506D01*
X0103314Y0188244D02*
X0085686Y0188244D01*
X0086151Y0187245D02*
X0102849Y0187245D01*
X0102495Y0186247D02*
X0086505Y0186247D01*
X0086505Y0185248D02*
X0102495Y0185248D01*
X0102591Y0184250D02*
X0086408Y0184250D01*
X0085995Y0183251D02*
X0103005Y0183251D01*
X0103691Y0182253D02*
X0085309Y0182253D01*
X0084150Y0181254D02*
X0104850Y0181254D01*
X0109740Y0181254D02*
X0135074Y0181254D01*
X0134076Y0182253D02*
X0110899Y0182253D01*
X0111585Y0183251D02*
X0133077Y0183251D01*
X0132079Y0184250D02*
X0111999Y0184250D01*
X0112095Y0185248D02*
X0131080Y0185248D01*
X0130081Y0186247D02*
X0112095Y0186247D01*
X0111742Y0187245D02*
X0129083Y0187245D01*
X0128084Y0188244D02*
X0111277Y0188244D01*
X0110278Y0189242D02*
X0127086Y0189242D01*
X0146500Y0172374D02*
X0146500Y0122500D01*
X0145500Y0121500D01*
X0126500Y0116500D02*
X0126500Y0097500D01*
X0134500Y0089500D01*
X0141500Y0089500D01*
X0138023Y0092387D02*
X0134159Y0092387D01*
X0135157Y0091388D02*
X0137411Y0091388D01*
X0139121Y0093385D02*
X0133160Y0093385D01*
X0153879Y0093385D02*
X0156867Y0093385D01*
X0126500Y0116500D02*
X0120500Y0122500D01*
X0120500Y0138500D01*
X0101435Y0142312D02*
X0144700Y0142312D01*
X0146500Y0172374D02*
X0103500Y0215374D01*
X0112207Y0209213D02*
X0131599Y0209213D01*
X0149849Y0242164D02*
X0094907Y0242164D01*
X0093909Y0243162D02*
X0149771Y0243162D01*
X0039214Y0183251D02*
X0024000Y0183251D01*
X0024000Y0182253D02*
X0037796Y0182253D01*
X0036920Y0181254D02*
X0024000Y0181254D01*
X0024000Y0180256D02*
X0036507Y0180256D01*
X0036200Y0179257D02*
X0024000Y0179257D01*
X0024000Y0178259D02*
X0036200Y0178259D01*
X0036261Y0177260D02*
X0024000Y0177260D01*
X0024000Y0176262D02*
X0036674Y0176262D01*
X0037203Y0175263D02*
X0024000Y0175263D01*
X0024000Y0174265D02*
X0038201Y0174265D01*
X0076461Y0117461D02*
X0099500Y0140500D01*
X0097851Y0040464D02*
X0106598Y0040464D01*
X0105600Y0039466D02*
X0098849Y0039466D01*
X0099426Y0038467D02*
X0105023Y0038467D01*
X0104609Y0037469D02*
X0099840Y0037469D01*
X0099935Y0036470D02*
X0104514Y0036470D01*
X0104514Y0035472D02*
X0099935Y0035472D01*
X0099662Y0034473D02*
X0104787Y0034473D01*
X0105200Y0033475D02*
X0099249Y0033475D01*
X0098421Y0032476D02*
X0106028Y0032476D01*
X0107329Y0031478D02*
X0097120Y0031478D01*
X0213961Y0031478D02*
X0222771Y0031478D01*
X0221469Y0032476D02*
X0215263Y0032476D01*
X0216090Y0033475D02*
X0220642Y0033475D01*
X0220228Y0034473D02*
X0216504Y0034473D01*
X0216776Y0035472D02*
X0219956Y0035472D01*
X0219956Y0036470D02*
X0216776Y0036470D01*
X0216681Y0037469D02*
X0220051Y0037469D01*
X0220465Y0038467D02*
X0216268Y0038467D01*
X0215691Y0039466D02*
X0221041Y0039466D01*
X0222040Y0040464D02*
X0214692Y0040464D01*
X0228472Y0040464D02*
X0235819Y0040464D01*
X0234821Y0039466D02*
X0229470Y0039466D01*
X0230047Y0038467D02*
X0234244Y0038467D01*
X0233830Y0037469D02*
X0230461Y0037469D01*
X0230556Y0036470D02*
X0233735Y0036470D01*
X0233735Y0035472D02*
X0230556Y0035472D01*
X0230284Y0034473D02*
X0234008Y0034473D01*
X0234421Y0033475D02*
X0229870Y0033475D01*
X0229042Y0032476D02*
X0235249Y0032476D01*
X0236550Y0031478D02*
X0227741Y0031478D01*
D20*
X0174500Y0095500D02*
X0158500Y0095500D01*
X0219350Y0164138D02*
X0231161Y0152327D01*
X0219350Y0164138D02*
X0219350Y0203508D01*
X0223287Y0207445D01*
X0270531Y0207445D01*
X0280374Y0205476D02*
X0280374Y0219256D01*
X0266594Y0233035D01*
X0266594Y0236972D01*
X0260689Y0242878D01*
X0152421Y0242878D01*
X0140610Y0238941D02*
X0138642Y0236972D01*
X0138642Y0221295D01*
X0138657Y0221280D01*
X0148484Y0211382D02*
X0229193Y0211382D01*
X0248878Y0231067D01*
X0255350Y0231067D01*
X0256406Y0232122D01*
X0236720Y0232122D02*
X0236012Y0232122D01*
X0229193Y0238941D01*
X0140610Y0238941D01*
X0148484Y0211382D02*
X0143657Y0206555D01*
X0143657Y0201280D01*
X0223287Y0201539D02*
X0223287Y0175949D01*
X0231161Y0168075D01*
X0229193Y0185791D02*
X0227224Y0187760D01*
X0227224Y0197602D01*
X0229193Y0199571D01*
X0254783Y0199571D01*
X0260689Y0203508D02*
X0225256Y0203508D01*
X0223287Y0201539D01*
M02*
