G75*
%MOIN*%
%OFA0B0*%
%FSLAX25Y25*%
%IPPOS*%
%LPD*%
%AMOC8*
5,1,8,0,0,1.08239X$1,22.5*
%
%ADD10C,0.12211*%
%ADD11C,0.07487*%
%ADD12C,0.06800*%
%ADD13R,0.08400X0.08400*%
%ADD14C,0.08400*%
%ADD15C,0.17400*%
%ADD16C,0.07800*%
%ADD17C,0.07400*%
%ADD18C,0.07450*%
D10*
X0038248Y0032248D03*
X0038248Y0239500D03*
X0306752Y0208004D03*
X0306752Y0063744D03*
D11*
X0203657Y0197736D02*
X0203657Y0204823D01*
X0193657Y0204823D02*
X0193657Y0197736D01*
X0183657Y0197736D02*
X0183657Y0204823D01*
X0173657Y0204823D02*
X0173657Y0197736D01*
X0163657Y0197736D02*
X0163657Y0204823D01*
X0153657Y0204823D02*
X0153657Y0197736D01*
X0143657Y0197736D02*
X0143657Y0204823D01*
X0133657Y0204823D02*
X0133657Y0197736D01*
X0138657Y0217736D02*
X0138657Y0224823D01*
X0148657Y0224823D02*
X0148657Y0217736D01*
X0158657Y0217736D02*
X0158657Y0224823D01*
X0168657Y0224823D02*
X0168657Y0217736D01*
X0178657Y0217736D02*
X0178657Y0224823D01*
X0188657Y0224823D02*
X0188657Y0217736D01*
X0198657Y0217736D02*
X0198657Y0224823D01*
D12*
X0151500Y0109500D03*
X0141500Y0109500D03*
X0141500Y0099500D03*
X0141500Y0089500D03*
X0151500Y0089500D03*
X0151500Y0099500D03*
D13*
X0126131Y0036185D03*
X0183917Y0036185D03*
X0254083Y0036185D03*
X0067076Y0036185D03*
X0041500Y0099200D03*
X0041500Y0160200D03*
X0041500Y0221200D03*
D14*
X0041500Y0206020D03*
X0041500Y0193641D03*
X0041500Y0178461D03*
X0041500Y0145020D03*
X0041500Y0132641D03*
X0041500Y0117461D03*
X0041500Y0084020D03*
X0041500Y0071641D03*
X0041500Y0056461D03*
X0082255Y0036185D03*
X0094635Y0036185D03*
X0109814Y0036185D03*
X0141310Y0036185D03*
X0153690Y0036185D03*
X0168869Y0036185D03*
X0197697Y0036185D03*
X0211476Y0036185D03*
X0225256Y0036185D03*
X0239035Y0036185D03*
X0269263Y0036185D03*
X0281643Y0036185D03*
X0296822Y0036185D03*
D15*
X0306059Y0169217D03*
X0294248Y0187720D03*
X0282437Y0169217D03*
D16*
X0090815Y0239185D03*
X0080815Y0239185D03*
X0070815Y0239185D03*
D17*
X0081705Y0185437D03*
X0107295Y0185437D03*
D18*
X0236720Y0228597D02*
X0236720Y0235647D01*
X0256406Y0235647D02*
X0256406Y0228597D01*
X0280657Y0228597D02*
X0280657Y0235647D01*
X0300343Y0235647D02*
X0300343Y0228597D01*
M02*
